<svg id="Layer_1" enable-background="new 0 0 512.008 512.008" height="512" viewBox="0 0 512.008 512.008" width="512" xmlns="http://www.w3.org/2000/svg"><g><path d="m506.628 485.478c-.969-1.185-2.137-2.239-3.492-3.11-62.091-39.929-153.644-60.747-251.539-60.747-.874 0-1.752.002-2.627.006-98.13.409-186.569 23.415-242.639 63.12-5.312 3.761-7.592 10.539-5.639 16.763 1.952 6.224 7.69 10.467 14.19 10.494l482.121-.001h.063c8.223 0 14.907-6.675 14.941-14.938.018-4.654-2.076-8.821-5.379-11.587z"/><path d="m511.607 296.431c1.893-8.065-3.111-16.138-11.176-18.03-8.063-1.892-16.138 3.111-18.03 11.176-10.482 44.665-31.291 57.421-57.758 70.886-3.501 13.901-7.654 27.453-12.451 40.542 6.813-4.09 13.853-7.648 21.019-11.258 30.033-15.129 64.072-32.277 78.396-93.316z"/><path d="m283.019 392.311c33.589 1.469 65.762 5.306 95.952 11.357 18.33-44.41 28.746-97.189 29.243-150.648.672-72.382-17.26-133.69-49.199-168.205-4.252-4.595-10.91-6.065-16.705-3.689-5.792 2.377-9.499 8.103-9.297 14.36 3.54 109.723-.697 220.341-49.994 296.825z"/><path d="m169.466 396.919c25.526-3.365 52.124-5.178 79.378-5.291.911-.004 1.834-.006 2.752-.006 7.82 0 15.567.139 23.253.386 1.506-15.971 7.007-32.348 13.241-50.878 12.522-37.228 28.107-83.56 16.684-147.753-1.452-8.156-9.24-13.593-17.396-12.14-8.156 1.452-13.591 9.24-12.14 17.396 10.081 56.642-3.553 97.172-15.582 132.932-3.722 11.064-7.372 21.942-10.174 32.854-2.168-31.699 2.818-72.337 7.962-114.2 6.577-53.527 13.378-108.876 6.035-154.132-8.943-55.12-38.595-87.375-88.13-95.867-5.729-.984-11.511 1.435-14.837 6.202-3.326 4.768-3.598 11.028-.697 16.066 42.016 72.975 27.341 122.52 10.349 179.889-15.827 53.438-33.416 112.864-.698 194.542z"/><path d="m52.013 340.361c2.093 24.808 4.07 48.239 18.589 69.172 1.926 2.776 4.038 5.444 6.339 8.009 26.259-8.619 54.854-15.214 85.052-19.595-21.171-17.924-27.816-48.514-35.166-82.358-5.975-27.513-12.152-55.963-27.387-78.17-18.194-26.522-45.812-39.415-84.433-39.415-6.028 0-11.47 3.608-13.816 9.161-2.347 5.552-1.142 11.97 3.059 16.292 41.503 42.712 44.686 80.429 47.763 116.904z"/></g></svg>