<?xml version="1.0" standalone="no"?>
<!DOCTYPE svg PUBLIC "-//W3C//DTD SVG 20010904//EN"
 "http://www.w3.org/TR/2001/REC-SVG-20010904/DTD/svg10.dtd">
<svg version="1.0" xmlns="http://www.w3.org/2000/svg"
 width="1280.000000pt" height="1204.000000pt" viewBox="0 0 1280.000000 1204.000000"
 preserveAspectRatio="xMidYMid meet">
<metadata>
Created by potrace 1.15, written by Peter Selinger 2001-2017
</metadata>
<g transform="translate(0.000000,1204.000000) scale(0.100000,-0.100000)"
fill="#000000" stroke="none">
<path d="M2205 12023 c-33 -32 -15 -100 60 -230 115 -200 230 -352 412 -544
49 -52 100 -112 113 -133 35 -57 125 -169 241 -298 131 -146 207 -240 255
-319 21 -35 72 -107 114 -160 108 -135 238 -315 439 -609 199 -292 387 -558
456 -645 l47 -60 -46 -3 c-31 -2 -46 -8 -46 -17 0 -8 34 -39 75 -70 89 -67
179 -164 218 -234 26 -47 27 -51 9 -51 -10 0 -43 17 -73 39 -75 53 -97 63
-119 56 -57 -18 7 -84 160 -164 94 -49 170 -108 170 -131 0 -18 -21 -10 -80
30 -69 47 -110 59 -128 37 -21 -25 55 -79 184 -133 112 -46 144 -70 144 -106
0 -24 -9 -23 -80 7 -65 27 -95 31 -106 13 -10 -16 33 -48 148 -108 54 -28 111
-63 128 -76 36 -31 52 -82 39 -126 -21 -74 -36 -73 -74 2 -23 46 -49 70 -75
70 -15 0 -7 -24 46 -141 49 -107 70 -193 55 -230 -8 -22 -10 -20 -37 36 -22
45 -35 61 -52 63 -22 3 -23 1 -17 -30 4 -18 25 -75 46 -125 54 -131 21 -123
-40 9 -29 61 -61 91 -78 74 -9 -9 37 -136 92 -254 26 -57 45 -106 41 -109 -12
-12 -43 28 -55 70 -13 43 -37 77 -54 77 -24 0 0 -118 46 -220 78 -177 74 -200
-21 -104 -51 51 -98 81 -110 70 -12 -13 26 -73 95 -149 113 -126 154 -208 107
-215 -21 -3 -42 17 -107 102 -29 37 -57 46 -76 22 -9 -10 5 -32 66 -101 124
-140 182 -214 208 -266 56 -110 6 -101 -72 12 -37 53 -54 63 -78 46 -14 -11
-12 -18 24 -67 21 -30 79 -89 127 -131 49 -42 104 -97 122 -123 l33 -46 -25 0
c-18 0 -49 24 -113 90 -76 77 -94 90 -122 90 l-32 0 22 -32 c40 -57 202 -211
272 -258 36 -25 65 -49 64 -54 -4 -11 -20 -21 -70 -40 -20 -8 -37 -22 -37 -30
0 -9 38 -33 96 -60 52 -25 126 -66 164 -91 102 -68 104 -96 4 -70 -62 16 -70
15 -60 -10 7 -20 47 -35 99 -36 l42 -1 -44 -9 c-81 -16 -72 -39 22 -54 20 -3
37 -10 37 -15 0 -5 -17 -10 -37 -12 -42 -3 -47 -17 -14 -34 61 -31 54 -36 -84
-54 l-80 -11 -44 48 c-166 180 -360 512 -466 798 -51 136 -115 351 -115 384 0
104 -87 220 -226 302 -44 26 -115 68 -159 94 -165 98 -204 119 -370 192 -93
41 -199 91 -235 110 -57 32 -73 36 -133 36 -64 -1 -79 4 -270 86 -215 94 -560
253 -717 331 -95 47 -95 47 -225 53 -157 8 -281 29 -610 107 -314 73 -408 89
-565 96 -69 3 -204 19 -300 35 -382 63 -515 64 -702 8 -91 -26 -92 -47 -6 -90
154 -78 375 -129 748 -173 135 -16 243 -35 315 -56 155 -43 360 -83 645 -125
217 -32 266 -43 425 -94 99 -32 304 -110 455 -174 293 -121 513 -207 535 -207
10 0 12 -9 8 -34 -5 -31 -2 -36 26 -50 17 -9 74 -25 128 -36 95 -20 128 -34
117 -51 -7 -12 -57 -10 -129 5 -62 14 -95 7 -95 -18 0 -25 34 -30 210 -31 150
0 180 -3 209 -18 56 -31 26 -40 -92 -26 -95 11 -108 11 -131 -5 -14 -9 -26
-21 -26 -26 0 -6 44 -10 108 -10 101 -1 253 -12 352 -26 85 -13 11 -22 -131
-16 -97 3 -138 2 -143 -7 -15 -23 47 -34 179 -33 72 1 142 0 158 -4 48 -10 18
-24 -53 -24 -71 0 -100 -6 -100 -21 0 -17 77 -21 184 -9 72 8 123 9 146 3 31
-8 36 -15 52 -69 26 -87 25 -96 -14 -92 -49 5 -47 -23 5 -79 52 -57 77 -93 77
-110 0 -23 -19 -14 -52 24 -72 81 -106 101 -123 73 -11 -17 16 -53 117 -157
103 -106 128 -148 127 -210 l0 -38 -29 35 c-16 19 -45 55 -63 80 -26 36 -39
45 -63 45 -23 0 -28 -4 -26 -20 5 -33 34 -66 124 -142 62 -52 90 -84 102 -114
9 -23 15 -44 12 -47 -3 -2 -36 18 -73 46 -78 58 -123 75 -123 46 0 -27 77 -94
158 -138 81 -44 97 -59 88 -81 -5 -14 -10 -14 -43 1 -49 22 -87 23 -91 3 -2
-10 29 -35 94 -75 86 -53 204 -158 191 -170 -2 -3 -32 4 -66 16 -33 11 -86 20
-116 20 l-56 0 -21 48 c-69 162 -69 162 -212 139 -70 -11 -164 -17 -287 -17
-292 0 -420 -18 -545 -75 -41 -19 -111 -39 -170 -49 -54 -10 -205 -43 -334
-73 -356 -82 -501 -111 -657 -130 -79 -10 -143 -21 -143 -24 0 -11 52 -27 105
-33 27 -4 55 -12 62 -19 10 -10 -17 -23 -145 -66 -401 -137 -571 -212 -707
-310 -38 -27 -164 -98 -280 -157 -395 -200 -670 -357 -705 -401 -23 -29 -27
-99 -7 -126 17 -24 74 -31 125 -17 24 6 85 40 136 75 104 70 288 160 891 432
226 102 475 216 555 254 79 37 146 67 148 64 2 -2 -1 -12 -7 -23 -6 -12 -11
-28 -11 -36 0 -14 4 -14 38 -1 93 36 479 178 592 218 221 78 494 149 665 173
55 7 53 -4 -5 -26 -77 -29 -102 -44 -116 -72 -9 -17 -13 -32 -11 -35 3 -2 65
23 139 57 142 66 238 103 246 95 9 -8 -3 -15 -79 -46 -79 -32 -109 -53 -109
-77 0 -30 81 -8 168 47 46 28 97 54 115 57 l32 5 -39 -23 c-80 -48 -101 -64
-104 -81 -6 -30 42 -20 135 28 173 90 210 84 269 -43 13 -29 24 -55 24 -58 0
-3 -15 6 -32 19 -41 31 -69 39 -88 27 -12 -7 -9 -15 16 -47 17 -21 51 -53 75
-71 64 -49 129 -111 129 -123 0 -7 -9 -5 -22 5 -57 40 -80 49 -95 34 -22 -23
-6 -44 91 -116 89 -67 166 -142 166 -162 0 -18 -14 -10 -73 40 -59 51 -95 67
-122 56 -47 -18 22 -81 184 -169 106 -58 208 -133 197 -145 -3 -2 -36 13 -73
35 -81 48 -120 68 -151 78 -23 7 -23 6 -8 -23 25 -49 83 -89 201 -138 122 -51
181 -87 153 -92 -9 -2 -48 11 -87 27 -98 44 -128 41 -101 -10 17 -31 60 -47
183 -67 80 -14 125 -27 147 -42 17 -12 29 -24 26 -27 -2 -3 -54 3 -116 12 -61
10 -114 15 -117 11 -3 -3 -1 -17 5 -30 15 -33 65 -46 179 -46 84 0 94 -2 122
-26 17 -14 31 -32 31 -40 0 -11 19 -14 88 -13 48 0 108 4 134 8 45 7 47 6 53
-18 8 -33 23 -51 43 -51 8 0 50 18 94 40 70 36 79 39 84 23 3 -10 18 -49 34
-88 33 -84 44 -128 35 -154 -8 -26 -128 -122 -192 -155 -147 -73 -284 -73
-658 3 -168 34 -297 54 -394 61 -80 6 -148 13 -152 15 -4 3 -42 0 -85 -5 -58
-7 -100 -20 -159 -49 -129 -64 -221 -150 -440 -416 -27 -33 -74 -87 -103 -120
-46 -53 -61 -81 -108 -205 -30 -79 -132 -304 -228 -500 -243 -495 -292 -616
-341 -836 -31 -135 -68 -246 -173 -514 -44 -113 -95 -257 -112 -320 -18 -63
-62 -191 -97 -285 -132 -344 -173 -499 -173 -654 0 -88 8 -101 61 -101 67 0
99 39 145 176 14 44 68 196 119 339 50 143 102 294 114 335 13 41 39 100 60
130 81 117 127 237 190 495 62 252 93 338 159 441 108 166 169 293 332 689 93
224 136 315 150 315 5 0 7 -26 3 -64 -6 -65 1 -81 31 -70 18 7 30 41 61 178
24 105 51 172 79 195 17 14 15 5 -23 -103 -22 -62 -26 -112 -12 -135 18 -28
64 72 101 220 26 105 49 165 66 180 23 19 17 -14 -20 -125 -55 -161 -57 -196
-9 -143 39 42 64 109 94 244 32 151 53 204 101 250 l33 32 60 -29 c59 -29 154
-50 228 -50 20 0 37 -4 37 -9 0 -14 -54 -23 -93 -16 -46 9 -77 -2 -77 -26 0
-16 7 -19 54 -19 30 0 102 9 160 21 58 11 118 19 133 17 23 -3 18 -7 -37 -28
-35 -14 -66 -31 -68 -39 -7 -23 122 -8 195 23 61 26 106 32 137 20 26 -10 18
-21 -18 -28 -37 -7 -62 -29 -51 -46 9 -15 29 -13 120 16 71 22 89 24 118 15
49 -16 110 -1 247 64 63 29 125 56 137 60 20 6 21 3 16 -29 -10 -64 27 -60
148 15 35 21 67 39 71 39 4 0 8 -14 10 -32 2 -17 9 -33 16 -36 8 -2 55 39 108
94 51 55 94 95 94 91 1 -23 -58 -115 -113 -178 -92 -105 -147 -173 -147 -182
0 -5 14 -7 32 -5 25 2 40 13 66 48 55 75 113 140 123 140 20 0 -33 -81 -98
-152 -38 -40 -81 -89 -95 -109 -27 -35 -62 -118 -54 -126 11 -11 50 23 101 87
57 71 87 92 61 43 -8 -16 -40 -59 -71 -98 -32 -38 -66 -88 -76 -110 -46 -100
1 -119 62 -24 32 51 56 58 38 11 -6 -14 -25 -45 -43 -67 -45 -55 -58 -82 -51
-105 13 -40 47 -21 90 50 37 61 65 91 65 71 0 -20 -30 -73 -78 -136 -51 -69
-75 -118 -70 -149 3 -16 16 -2 60 66 52 79 101 129 114 115 10 -10 -34 -82
-86 -141 -66 -75 -80 -98 -90 -141 -6 -26 -5 -35 5 -35 24 0 56 35 108 119 29
47 58 86 65 89 17 5 -7 -44 -54 -110 -46 -66 -74 -123 -74 -154 0 -27 0 -27
21 -8 12 10 39 50 62 88 23 38 43 64 45 57 9 -28 -12 -83 -57 -147 -55 -79
-85 -133 -77 -141 13 -13 54 29 84 84 33 62 64 97 81 92 16 -6 -22 -81 -78
-154 -48 -62 -70 -109 -58 -121 11 -11 83 73 116 135 35 66 51 68 51 6 0 -36
-16 -61 -82 -132 -44 -48 -86 -119 -75 -129 13 -14 61 22 85 62 15 26 42 63
59 83 27 30 32 33 33 16 0 -30 -46 -123 -91 -183 -28 -37 -38 -59 -34 -72 12
-37 34 -20 81 61 43 75 67 100 80 86 14 -14 -22 -79 -86 -156 -63 -76 -94
-140 -77 -157 10 -10 57 43 89 100 48 86 124 136 83 54 -10 -18 -34 -56 -55
-83 -44 -59 -70 -108 -70 -130 0 -31 38 4 74 70 39 69 76 102 76 67 0 -21 -29
-78 -83 -166 -42 -68 -44 -76 -19 -76 24 0 50 29 87 98 29 54 55 78 55 50 0
-7 -22 -51 -50 -98 -46 -79 -62 -130 -41 -130 21 0 56 41 85 100 38 78 62 92
54 32 -4 -26 -22 -64 -49 -102 -30 -44 -43 -71 -43 -98 -2 -61 17 -52 59 29
42 81 62 109 76 109 20 0 7 -49 -26 -105 -47 -77 -54 -105 -27 -105 14 0 27
14 42 46 21 43 44 64 56 51 3 -3 -8 -36 -24 -74 -43 -98 -46 -113 -28 -113 9
0 32 22 52 50 20 27 42 50 50 50 11 0 12 -5 6 -17 -77 -152 -85 -177 -55 -171
17 3 28 19 60 93 10 22 25 40 33 40 28 0 22 -45 -16 -115 -21 -38 -35 -73 -30
-77 12 -12 40 11 64 55 28 50 58 58 49 13 -3 -16 -20 -51 -37 -77 -27 -43 -29
-49 -13 -53 11 -2 32 12 55 39 l38 43 -20 -44 c-19 -44 -26 -89 -13 -89 4 0
18 10 31 23 l25 22 -5 -53 c-6 -61 9 -77 42 -47 19 17 19 16 13 -36 -6 -49 -5
-53 10 -41 9 8 33 36 54 63 20 27 38 47 41 45 2 -2 -10 -30 -26 -63 -53 -103
-43 -140 21 -83 l36 31 -1 -41 c-1 -58 12 -67 51 -34 18 14 35 24 38 20 4 -3
-3 -30 -16 -60 -19 -46 -20 -57 -9 -82 8 -20 11 -77 8 -189 -8 -326 -7 -353
13 -372 23 -23 105 -23 140 0 24 16 26 22 26 100 0 63 9 118 37 223 19 76 41
171 48 209 l12 70 24 -60 c22 -57 23 -70 21 -269 -2 -285 16 -346 107 -346 24
0 42 9 63 29 24 25 29 38 29 78 0 27 9 144 20 259 10 115 22 257 26 316 l7
107 29 -15 c21 -11 33 -12 48 -4 29 15 25 37 -16 82 -19 22 -32 43 -29 46 4 4
29 -18 56 -48 45 -50 51 -53 65 -38 15 15 13 21 -25 74 -22 31 -39 59 -36 62
2 3 34 -23 70 -57 37 -34 71 -59 76 -55 15 9 2 51 -32 100 -43 63 -35 76 15
22 44 -48 59 -55 85 -39 18 12 9 46 -28 101 -16 25 -28 46 -27 48 2 2 19 -6
37 -17 55 -34 64 -27 34 25 -31 53 -18 56 17 4 30 -44 72 -61 95 -37 14 13 15
21 5 42 -11 23 -10 29 10 45 l23 18 -22 46 c-13 25 -20 46 -16 46 3 0 25 -18
49 -40 87 -80 88 -36 1 74 -48 60 -25 65 32 7 36 -39 55 -51 62 -44 18 18 1
47 -56 97 -51 43 -67 66 -47 66 4 0 30 -19 57 -41 125 -103 150 -58 34 60
l-54 54 57 -32 c32 -17 60 -31 63 -31 16 0 0 44 -35 93 -41 57 -36 64 20 27
71 -47 84 -15 20 49 -22 22 -40 45 -40 51 0 14 10 8 74 -42 29 -23 58 -38 70
-36 38 6 29 35 -28 91 -54 52 -69 87 -45 102 5 4 35 -18 64 -49 53 -54 77 -67
90 -46 6 10 -37 80 -93 149 -28 37 -23 35 44 -10 53 -36 94 -47 94 -25 0 15
-22 37 -100 104 -41 36 -34 54 9 23 39 -28 121 -64 128 -57 13 13 -20 59 -87
123 -38 37 -70 70 -70 75 0 18 22 6 72 -39 50 -45 53 -46 56 -24 3 16 -12 46
-42 89 -47 68 -53 91 -13 54 37 -35 48 -28 31 20 -8 24 -22 53 -30 66 -24 37
-11 35 32 -6 37 -35 39 -36 42 -14 2 12 -10 46 -27 76 -17 29 -31 56 -31 60 0
4 13 0 30 -9 63 -32 66 -11 10 71 -22 33 -40 62 -40 67 0 4 14 7 30 7 17 0 30
4 30 9 0 5 -18 35 -39 67 -22 33 -38 60 -36 62 2 2 17 -4 34 -13 30 -15 51
-13 51 4 0 4 -18 36 -41 71 -42 65 -44 79 -11 61 29 -15 32 -14 32 12 0 12
-18 53 -39 90 -22 37 -37 67 -33 67 3 0 18 -12 34 -27 15 -14 30 -24 33 -21 3
3 -4 26 -15 52 -23 50 -20 63 16 76 13 5 24 14 24 19 0 5 -18 32 -40 60 -47
59 -50 74 -15 65 21 -5 25 -3 25 17 0 36 -31 80 -99 140 -64 55 -105 111 -99
130 2 6 37 -26 78 -71 61 -69 116 -110 145 -110 10 0 5 31 -11 61 -24 47 -78
103 -176 180 -49 39 -87 74 -84 76 3 3 36 -12 73 -33 175 -98 194 -106 249
-99 70 8 104 -7 201 -93 99 -87 139 -112 181 -112 58 0 33 44 -69 121 -69 53
-110 99 -89 99 21 0 55 -23 125 -83 101 -87 175 -113 175 -62 0 20 -14 34 -69
69 -64 42 -88 62 -80 71 8 7 83 -25 130 -54 27 -17 71 -45 98 -62 27 -17 67
-33 90 -36 38 -5 41 -4 41 19 0 31 -19 48 -95 84 -77 37 -47 44 61 14 88 -24
133 -45 189 -90 32 -25 46 -30 70 -26 45 9 61 30 47 60 -14 32 -53 57 -100 67
l-37 7 35 1 c19 0 70 -10 113 -24 95 -30 150 -33 145 -8 -2 10 -23 27 -47 39
-35 16 -41 22 -27 27 26 10 229 8 245 -2 8 -5 19 -48 28 -107 17 -123 46 -231
78 -293 37 -75 74 -79 54 -7 -12 45 -8 52 20 35 22 -15 62 -84 81 -141 6 -21
16 -40 21 -44 17 -10 37 16 45 59 l8 42 7 -48 c18 -115 98 -188 99 -89 0 30 4
28 45 -15 73 -78 167 -237 304 -512 86 -174 170 -327 217 -397 85 -128 146
-268 295 -684 58 -164 98 -258 130 -311 136 -219 289 -608 289 -733 0 -77 16
-135 77 -288 39 -97 54 -125 78 -139 54 -34 137 -16 171 36 17 26 17 31 -16
164 -69 283 -195 663 -303 913 -24 57 -52 139 -61 183 -27 120 -77 246 -201
505 -127 265 -155 335 -189 471 -22 87 -41 124 -195 393 -94 162 -191 326
-214 364 -24 37 -50 85 -57 107 -41 127 -165 335 -292 486 -34 42 -135 156
-223 254 -88 97 -162 181 -165 186 -14 22 -126 61 -204 71 -89 12 -121 10
-421 -26 -66 -8 -201 -20 -300 -26 -99 -6 -223 -17 -275 -24 -52 -7 -97 -12
-99 -10 -1 1 4 13 13 26 17 24 22 58 8 58 -5 0 -62 -16 -128 -35 -65 -19 -150
-42 -189 -50 -81 -16 -94 -10 -126 60 -24 51 -24 109 0 162 29 62 55 74 163
78 98 3 135 12 157 39 11 13 11 20 -3 41 -9 13 -16 26 -16 29 0 2 19 7 43 10
64 10 140 49 264 137 131 92 221 143 281 159 33 8 42 15 38 26 -3 9 -6 18 -6
20 0 10 -43 2 -90 -16 -28 -11 -63 -20 -78 -20 -26 0 -26 0 -7 20 11 11 60 37
109 57 92 39 120 63 99 84 -8 8 -27 4 -72 -14 -33 -14 -61 -21 -61 -16 0 21
90 71 169 95 153 45 183 64 147 94 -12 9 -29 7 -84 -11 -66 -21 -122 -21 -122
0 0 13 122 92 209 136 41 20 92 48 113 62 72 48 15 59 -88 17 -36 -14 -67 -24
-69 -22 -2 2 5 19 16 37 22 36 76 64 157 82 44 9 52 14 52 34 0 12 -7 25 -15
29 -13 5 -70 -9 -117 -29 -27 -11 -22 10 10 42 17 16 59 38 100 52 79 26 128
65 98 77 -10 4 -42 1 -72 -6 -30 -7 -56 -11 -59 -9 -11 11 41 93 69 110 77 47
218 -2 373 -128 76 -62 112 -56 57 10 -41 49 -11 45 81 -12 46 -28 88 -51 94
-51 5 0 13 9 16 21 10 30 -23 61 -110 104 -78 38 -123 75 -91 75 10 0 81 -21
159 -46 108 -36 164 -48 241 -54 109 -9 226 -45 346 -105 112 -56 272 -122
341 -139 36 -9 99 -16 140 -16 68 0 102 -9 335 -86 314 -104 624 -194 947
-275 133 -34 318 -85 410 -115 208 -66 317 -88 420 -82 42 3 80 8 84 11 3 4 2
32 -3 63 l-9 55 -70 38 c-203 108 -463 202 -680 246 -181 37 -254 60 -600 188
-266 98 -421 149 -524 172 -39 9 -113 36 -164 60 -423 197 -951 339 -1427 384
-63 6 -153 17 -200 23 -227 31 -314 8 -416 -108 -161 -182 -277 -358 -489
-739 -186 -337 -201 -360 -230 -373 -35 -16 -65 -15 -65 2 0 7 11 39 25 71 14
32 23 60 20 63 -10 11 -71 -26 -133 -82 -61 -54 -109 -86 -132 -86 -16 0 -2
280 15 298 6 7 48 22 91 33 43 11 91 25 107 31 30 11 43 44 33 82 -4 17 5 39
33 82 44 67 80 103 241 236 63 53 129 113 146 134 23 29 51 47 105 68 40 16
84 40 98 54 23 23 23 26 8 37 -28 20 -20 32 53 75 69 40 100 74 83 91 -15 15
-75 -8 -143 -55 -36 -25 -66 -40 -68 -35 -10 28 88 135 183 198 102 69 137
102 124 117 -19 24 -44 16 -114 -36 -48 -35 -72 -47 -79 -40 -18 18 17 61 100
125 80 61 109 104 87 126 -21 21 -61 0 -98 -51 -40 -55 -68 -62 -73 -20 -4 36
40 96 128 172 80 70 122 130 104 148 -20 20 -64 -1 -102 -47 -20 -25 -52 -61
-69 -81 l-33 -37 6 35 c10 54 46 109 123 185 105 103 91 123 -32 48 -32 -19
-61 -32 -65 -28 -12 12 51 116 92 152 23 19 65 48 93 65 62 35 69 44 53 63
-21 25 -56 17 -124 -30 -98 -67 -108 -61 -85 45 22 105 99 146 293 155 140 8
230 22 270 42 l31 16 -30 13 c-41 18 -132 17 -233 -2 -46 -8 -86 -13 -89 -10
-9 8 113 65 210 97 113 39 255 49 359 27 71 -15 81 -11 49 21 -32 32 -96 44
-196 37 l-90 -6 30 25 c61 51 164 66 310 44 90 -13 244 -14 257 -1 17 17 -51
33 -182 42 -69 5 -143 12 -164 16 -39 6 -40 7 -15 19 52 28 142 36 332 29 160
-6 187 -5 187 7 0 31 -24 39 -112 39 -48 0 -88 4 -88 9 0 16 79 41 128 41 26
0 85 -7 132 -15 101 -18 185 -19 229 -4 73 26 3 54 -114 46 -80 -6 -155 5
-155 22 0 9 137 60 230 85 79 22 170 40 428 86 352 63 537 117 668 196 155 94
232 124 509 199 114 31 240 68 279 82 40 15 88 25 111 24 100 -4 195 129 135
189 -27 27 -68 26 -262 -5 -214 -33 -405 -78 -578 -135 -117 -38 -164 -49
-240 -53 -138 -9 -262 -44 -529 -151 -279 -112 -381 -143 -516 -157 -168 -17
-331 -71 -730 -241 l-209 -89 -33 18 c-31 17 -33 17 -55 -4 -13 -11 -108 -67
-212 -123 -235 -126 -338 -190 -443 -274 -241 -191 -341 -414 -567 -1261 -41
-154 -82 -301 -89 -327 -12 -37 -33 -64 -117 -145 -56 -54 -118 -108 -139
-120 -41 -26 -81 -30 -81 -9 0 17 22 26 66 26 23 0 34 5 34 15 0 18 -24 31
-77 40 -67 11 -50 23 18 13 64 -8 79 -5 79 16 0 21 -26 38 -78 52 l-47 13 52
0 c28 1 54 5 57 9 16 26 -66 82 -121 82 l-28 1 30 25 c17 14 51 43 78 65 49
42 59 71 35 109 -11 17 -3 29 74 107 90 92 159 173 220 258 54 76 121 195 115
202 -4 3 -32 -20 -63 -51 -31 -31 -59 -55 -61 -53 -9 10 23 68 86 157 103 144
113 170 63 170 -36 0 -50 -15 -105 -114 -24 -44 -49 -82 -56 -84 -27 -9 16 90
134 308 95 175 108 210 78 210 -27 0 -55 -34 -96 -116 -34 -67 -62 -103 -72
-92 -3 3 26 65 64 139 63 122 97 206 115 282 10 44 -28 36 -60 -13 -48 -73
-41 -42 30 130 21 50 36 102 36 125 l-1 40 -22 -26 c-12 -15 -35 -51 -51 -80
-16 -30 -31 -48 -33 -42 -3 7 18 54 45 105 61 114 68 134 47 142 -25 9 -41 -3
-69 -54 -45 -82 -66 -82 -42 1 21 68 21 99 0 99 -11 0 -7 9 15 29 33 31 42 77
16 87 -16 7 -29 2 -62 -21 -33 -25 -34 -6 -2 75 28 72 29 76 13 106 -25 46
-13 72 77 162 51 51 80 87 77 98 -5 28 -24 27 -61 -5 -19 -17 -37 -28 -40 -25
-15 15 33 75 152 191 109 108 124 126 108 134 -29 17 -58 1 -129 -69 -37 -36
-70 -64 -72 -61 -9 9 44 101 100 175 29 39 85 100 124 137 38 37 70 72 70 77
0 18 -32 10 -82 -20 -60 -37 -69 -38 -36 -2 40 43 88 114 88 130 0 11 -9 13
-40 9 l-41 -5 61 115 c34 63 123 217 199 341 187 308 210 348 278 492 88 185
155 280 431 610 148 177 230 293 293 415 70 134 125 214 299 440 272 353 367
524 318 573 -16 16 -101 15 -142 -2 -36 -15 -47 -28 -249 -301 -74 -99 -160
-209 -191 -245 -32 -36 -81 -102 -109 -148 -45 -73 -114 -152 -144 -163 -16
-6 -128 -157 -268 -359 -226 -327 -284 -402 -415 -546 -36 -39 -94 -118 -130
-175 -86 -138 -297 -561 -390 -781 -41 -98 -77 -177 -80 -178 -3 0 -10 15 -15
33 -7 21 -16 32 -29 32 -14 0 -43 -54 -133 -255 -184 -411 -244 -589 -279
-824 -15 -98 -15 -130 -4 -268 14 -172 11 -284 -20 -633 -11 -121 -22 -292
-25 -380 -11 -270 -35 -377 -102 -447 -25 -26 -28 -27 -49 -13 -34 22 -62 18
-89 -11 l-25 -27 -45 99 c-25 54 -65 138 -90 185 -24 48 -42 88 -40 91 2 2 16
107 30 232 14 126 30 251 35 278 10 53 -5 149 -60 368 -52 208 -90 393 -104
500 -13 97 -12 109 4 152 10 26 38 76 63 110 24 35 54 81 65 104 l21 41 68
-23 c112 -38 171 -28 230 39 72 82 52 141 -97 294 l-95 98 -85 0 c-76 0 -93
-4 -152 -33 -117 -57 -219 -192 -249 -329 -10 -45 -10 -118 -1 -367 15 -376
22 -442 67 -599 61 -218 78 -319 77 -462 0 -131 -24 -261 -47 -259 -6 0 -20
20 -32 44 -21 40 -23 58 -23 199 0 137 -2 160 -21 198 -51 105 -230 194 -421
209 -143 11 -314 -44 -402 -129 -53 -52 -76 -110 -122 -312 -33 -144 -47 -191
-81 -263 -33 -70 -71 -9 -72 116 -2 162 17 302 115 867 13 77 29 194 34 260 6
66 18 198 27 292 19 203 14 277 -25 353 -32 64 -80 101 -163 124 -156 44 -299
-3 -396 -130 -67 -89 -76 -112 -77 -184 -1 -104 52 -170 138 -170 25 0 48 11
84 40 28 21 53 44 57 50 12 19 61 11 86 -16 24 -26 24 -26 24 -252 0 -245 -7
-302 -56 -457 -42 -135 -60 -275 -66 -521 -6 -248 3 -377 44 -582 20 -105 23
-138 15 -158 -16 -33 -44 -30 -88 8 -44 38 -64 82 -64 137 0 51 -28 64 -70 32
l-29 -21 -15 48 c-22 67 -51 199 -73 327 -14 87 -18 164 -18 375 0 289 12 398
64 613 l28 111 -48 66 c-68 93 -117 184 -235 440 -164 354 -237 467 -388 605
-72 67 -111 116 -248 317 -184 271 -292 411 -401 516 -43 41 -116 130 -168
205 -251 358 -539 719 -906 1134 -83 94 -211 249 -284 345 -169 222 -233 294
-333 373 -85 69 -120 80 -151 48z m2405 -6338 c35 -18 86 -78 71 -83 -6 -2
-35 10 -65 27 -55 32 -89 38 -116 21 -13 -8 -12 -11 5 -25 38 -30 110 -62 210
-95 125 -41 123 -40 91 -57 -43 -22 -29 -45 34 -58 30 -6 103 -30 162 -53 58
-23 114 -42 124 -42 15 0 15 -3 -4 -23 -57 -60 -6 -97 147 -105 l93 -5 -6 -56
c-3 -31 -8 -101 -12 -156 -5 -87 -3 -105 14 -137 l20 -38 -47 0 c-96 0 -220
53 -413 177 -85 54 -117 81 -156 133 -79 106 -142 203 -267 415 -65 110 -124
210 -132 221 -13 20 -8 20 103 -13 65 -19 129 -41 144 -48z m4598 61 c51 -18
109 -57 129 -86 12 -18 2 -14 -64 19 -124 64 -159 100 -65 67z m-3728 -2556
c0 -5 -4 -10 -10 -10 -5 0 -10 5 -10 10 0 6 5 10 10 10 6 0 10 -4 10 -10z
m1848 -1772 c19 -19 14 -30 -8 -18 -11 6 -20 15 -20 20 0 14 14 12 28 -2z"/>
</g>
</svg>
