<svg height="512" viewBox="0 0 56 57" width="512" xmlns="http://www.w3.org/2000/svg"><g id="Page-1" fill="none" fill-rule="evenodd"><g id="030---Reef" fill="rgb(0,0,0)" fill-rule="nonzero" transform="translate(-1)"><path id="Shape" d="m12.018 40.053c.2973274.0231184.5688208.1777342.7403993.4216581s.2253348.551698.1466007.8393419c-.447166 1.6406993-.9955498 3.2521193-1.642 4.825 1.3119104.284382 2.4908768.9997178 3.349 2.032 1.6869775-.784949 3.5273969-1.1849362 5.388-1.171.412 0 .818.025 1.22.061.5643659-3.0286834.8389394-6.1042414.82-9.185 0-.809-.023-1.567-.068-2.27-.0721869-.9686224.570649-1.8459491 1.516-2.069 2.542125-.5368155 4.8807118-1.7813347 6.746-3.59.7104737-.791552.6771126-2.0007217-.075925-2.7518953-.7530375-.7511736-1.9622863-.7815379-2.752075-.0691047-1.1877433 1.1716123-2.6722264 1.9975159-4.294 2.389-1.0594075.2724603-2.1431044-.3483153-2.444-1.4-.189-.643-.425-1.334-.7-2.051-.432-1.123-1.311-2.962-1.637-3.644-.726151.3289987-1.5048555.5267219-2.3.584h-.031c-.5522847.0085604-1.0069396-.4322153-1.0155-.9845s.4322153-1.0069396.9845-1.0155c1.0855308-.1716199 2.1217467-.5736267 3.039-1.179 1.9548172-1.1974685 3.3651877-3.1104921 3.931-5.332.1673173-.674116-.0259893-1.3868158-.511-1.884-.517346-.5258229-1.2769273-.7338489-1.99-.545-.7169073.2181841-1.255187.813752-1.4 1.549-.4019722 1.3680754-1.3727331 2.4972908-2.665 3.1-.4870844.2398205-1.0765441.0471809-1.328-.434-.8077418-1.5061148-1.5026484-3.0700726-2.079-4.679-.011-.03-.029-.1-.037-.132-.3828566-.9582626-1.4280598-1.47212199-2.4206866-1.1900965-.99262682.2820256-1.61150233 1.2686836-1.4333134 2.2850965.35688884 1.9397043.86271959 3.8490231 1.513 5.711.2451102.7342527.0445057 1.5440163-.5150192 2.0789349-.55952486.5349186-1.37748607.6989272-2.0999808.4210651-.29602894-.1135833-.58035715-.2555799-.849-.424-.48244005-.3252264-1.08227278-.425087-1.64405906-.273704s-1.0302304.5391091-1.28394094 1.062704c-.42074985.9536181-.06954808 2.0713894.821 2.613 1.94271542 1.0970956 4.15800329 1.6174419 6.386 1.5.930625-.0368449 1.7614855.5789154 1.997 1.48.5127464 1.9340991.7696037 3.927096.764 5.928.0153962.4948854.0047148.9902383-.032 1.484v.014c.5646895-.0048948 1.1282371-.0516899 1.686-.14.5334984-.0858892 1.0387284.2675791 1.1409058.7981987.1021774.5306197-.235662 1.0464314-.7629058 1.1648013-.7495122.1270614-1.5088291.1872981-2.269.18-.6543324.000136-1.3080023-.041616-1.957-.125h-.006c-.012 0-.023 0-.034 0-2.0626372-.1573417-4.00811067-1.0204271-5.509-2.444-.42525391-.4266865-1.02018122-.6389621-1.61948694-.5778481-.59930571.0611141-1.1391393.3891066-1.46951306.8928481-.52705723.8620783-.35832605 1.9782351.4 2.646 2.27169291 2.0935842 5.20133727 3.3310637 8.286 3.5zm-.018-17.053c-.5522847 0-1-.4477153-1-1s.4477153-1 1-1 1 .4477153 1 1-.4477153 1-1 1zm7 18c-.5522847 0-1-.4477153-1-1s.4477153-1 1-1 1 .4477153 1 1-.4477153 1-1 1zm0-10c.5522847 0 1 .4477153 1 1s-.4477153 1-1 1-1-.4477153-1-1 .4477153-1 1-1zm-3-4c0-.5522847.4477153-1 1-1s1 .4477153 1 1-.4477153 1-1 1-1-.4477153-1-1zm0 16c.5522847 0 1 .4477153 1 1s-.4477153 1-1 1-1-.4477153-1-1 .4477153-1 1-1z"/><path id="Shape" d="m46.913 47.108c-.4088375-2.3011581-2.3646453-4.0072884-4.7-4.1-.0707321-.0075543-.1419005-.0102273-.213-.008-2.0058329-.0041779-3.8166529 1.2004042-4.588 3.052 2.4946532.096685 4.9261809.8117796 7.076 2.081.7211511-.519354 1.5499777-.8696827 2.425-1.025z"/><path id="Shape" d="m55 53c-.4952955.0011059-.9723777.1868756-1.338.521-.2875704.2608296-.7001196.3316408-1.0582072.181634-.3580877-.1500069-.596989-.4937177-.6127928-.881634-.0730777-1.5672958-1.0557134-2.9471408-2.5129372-3.5287379s-3.1199111-.2575351-4.2520628.8287379c-.3648212.3530108-.9362579.3766594-1.329.055-1.639-1.343-4.666-2.176-7.897-2.176-3.145 0-6.975.864-8.511 2.783-.3034718.3402907-.4834818.7728784-.511 1.228-.0060282.5479842-.4519827.9890332-1 .989h-.012c-.2652226-.0031636-.5183234-.1115667-.7036134-.3013577s-.2875884-.4454202-.2843866-.7106423c.011995-.5302225.1378381-1.05167.369-1.529-1.5998855-1.0020033-3.4599149-1.509537-5.347-1.459-1.5137319-.0105234-3.0116563.3081695-4.39.934.2449433.6648638.3679133 1.3684685.363 2.077-.0060282.5479842-.4519827.9890332-1 .989h-.012c-.2652226-.0031636-.5183234-.1115667-.7036134-.3013577s-.2875884-.4454202-.2843866-.7106423c.0072693-.8043946-.2352105-1.591231-.694-2.252-.9887012-1.4446002-2.8038874-2.075551-4.47544266-1.5556443-1.67155522.5199068-2.80864467 2.069109-2.80355734 3.8196443-.0042065.2084288.01457356.4166863.056.621.09624403.4305732-.10106195.8733405-.48558138 1.0896759-.38451942.2163354-.8653772.1551113-1.18341862-.1506759-.64855446-.6251109-1.63496284-.7395342-2.40939523-.2794896-.77443239.4600445-1.14576916 1.381024-.907025 2.2495789.23874417.868555 1.02865039 1.4703376 1.92942023 1.4699107h52c1.1045695 0 2-.8954305 2-2s-.8954305-2-2-2z"/><path id="Shape" d="m50 37c-2.7776903-.0038829-5.2938705 1.6379747-6.409 4.182 2.8388714.6527667 4.9706401 3.0048155 5.342 5.894 2.2590991.3455532 4.1227887 1.9502676 4.8 4.133 1.0871538-.3693786 2.2816924-.2425023 3.267.347v-7.556c-.0044086-3.8641657-3.1358343-6.9955914-7-7z"/><path id="Shape" d="m54.97 18.24c-.6778437 2.758484-3.1298338 4.7135045-5.97 4.76-2.38 0-3.84.01-5.21 1.39-.3286552.9255498-.5991818 1.870723-.81 2.83-.09.39-.17.77-.23 1.15 1.7241827-.0850304 3.3496649-.8297447 4.54-2.08 1.2823577-1.4702901 3.3660607-1.9467958 5.16-1.18.3460386.1440974.5824323.4696151.6123817.8432591s-.1515756.73266-.4702434.9300368c-.3186678.1973769-.7209575.1999648-1.0421383.0067041-1.0247252-.3582534-2.1639417-.0293247-2.84.82-1.5522852 1.6197824-3.6687524 2.579534-5.91 2.68-.1 0-.2-.02-.3-.02-.04.52-.06 1.02-.06 1.5 0 .57.03 1.12.07 1.64v.03c.9726176-.7136412 2.0773405-1.2269125 3.25-1.51.5260968-.1087346 1.0441035.2176311 1.1731322.7391219.1290286.5214908-.1770299 1.051749-.6931322 1.2008781-1.2861273.2913313-2.4560499.9598585-3.36 1.92.151131.6519969.3448805 1.2933746.58 1.92-.5372841.5711147-.9978306 1.2098289-1.37 1.9-.2592157-.5645809-.4895139-1.1419952-.69-1.73-2.1136224.7567248-4.4729995.2663142-6.11-1.27-.3921222-.3921222-.3921222-1.0278778 0-1.42s1.0278778-.3921222 1.42 0c1.1369369 1.0075221 2.7377649 1.3038292 4.16.77-.02-.1-.04-.21-.06-.31-.1161374-.5852936-.2029126-1.1760324-.26-1.77-.8885407-.8443853-1.9000514-1.5490711-3-2.09-1.4989202-.7310668-2.4774979-2.2238776-2.55-3.89-.0027614-.5522847.4427153-1.0022385.995-1.0049999.5522847-.0027615 1.0022385.4427152 1.005.9949999.0680183.9156188.6213484 1.7246256 1.45 2.12.6967115.3438446 1.3654228.7417279 2 1.19.0478799-1.5212042.2387202-3.0345342.57-4.52.05-.2.1-.39.15-.59-.7981734-.9036303-1.7128387-1.697237-2.72-2.36-2.96-1.97-2.17-5.62-1.34-7.28.2553377-.4761403.842705-.6633673 1.3264892-.4228266.4837841.2405408.689026.8218583.4635108 1.3128266-.07.14-1.57 3.25.65 4.73.8066205.5341579 1.5660571 1.1363543 2.27 1.8.5664847-1.6215452 1.2516728-3.199149 2.05-4.72.05-.11.1-.21.16-.32-1.7738832-1.0301584-2.9120815-2.8820783-3.03-4.93-.0027614-.5522847.4427153-1.0022386.995-1.005s1.0022386.4427153 1.005.995c.1010929 1.2777957.7975132 2.433557 1.88 3.12.9-2.18 1.02-4.08-.77-7.66-.2013504-.48352717.0045141-1.04049627.4719378-1.2768341s1.0380149-.07195864 1.3080622.3768341c.9000827 1.6345041 1.4452829 3.4404799 1.6 5.3.8153055-.8324362 1.3502161-1.8987612 1.53-3.05.1104569-.5412391.6387609-.89045695 1.18-.78.5412391.1104569.8904569.6387609.78 1.18-.3066284 2.2675664-1.7193135 4.2348334-3.77 5.25-.3886646 1.2846791-.9115486 2.5248526-1.56 3.7-.19.39-.39.8-.6 1.22 1.292441-.3101304 2.622447-.4347133 3.95-.37 1.9180615-.0626643 3.5624096-1.3887515 4.03-3.25.0875301-.3465476.3532921-.6200741.6971762-.7175446.3438841-.0974706.713646-.0040771.97.245.256354.249077.3603539.615997.2728238.9625446z"/><circle id="Oval" cx="37" cy="9" r="3"/><circle id="Oval" cx="15" cy="3" r="3"/><circle id="Oval" cx="44" cy="2" r="2"/><circle id="Oval" cx="4" cy="6" r="2"/><circle id="Oval" cx="38" cy="2" r="1"/><circle id="Oval" cx="8" cy="2" r="1"/></g></g></svg>