<?xml version="1.0" standalone="no"?>
<!DOCTYPE svg PUBLIC "-//W3C//DTD SVG 20010904//EN"
 "http://www.w3.org/TR/2001/REC-SVG-20010904/DTD/svg10.dtd">
<svg version="1.0" xmlns="http://www.w3.org/2000/svg"
 width="872.000000pt" height="1280.000000pt" viewBox="0 0 872.000000 1280.000000"
 preserveAspectRatio="xMidYMid meet">
<metadata>
Created by potrace 1.15, written by Peter Selinger 2001-2017
</metadata>
<g transform="translate(0.000000,1280.000000) scale(0.100000,-0.100000)"
fill="#000000" stroke="none">
<path d="M3434 12790 c-97 -19 -130 -35 -266 -127 -277 -187 -313 -221 -431
-413 -60 -98 -122 -230 -144 -305 -23 -81 -29 -641 -14 -1350 14 -672 29 -795
136 -1100 28 -82 55 -167 59 -187 4 -21 10 -38 15 -38 4 0 20 -24 36 -52 44
-83 108 -179 165 -249 51 -63 85 -117 78 -125 -2 -2 -24 10 -48 26 -108 72
-311 126 -605 160 -237 28 -295 42 -409 101 -100 51 -124 57 -144 37 -10 -10
-18 -6 -38 20 -34 43 -79 66 -117 58 -23 -5 -36 0 -64 24 -18 17 -42 30 -52
30 -10 0 -26 10 -37 21 -10 12 -29 25 -41 30 -15 5 -23 17 -23 32 0 43 -24 62
-77 62 l-48 0 -13 60 c-31 142 -68 188 -106 130 -27 -40 -38 -21 -31 53 8 81
-4 119 -42 133 -16 5 -41 28 -57 50 -36 51 -67 67 -100 50 -83 -45 -44 -234
62 -302 24 -15 49 -30 53 -31 5 -2 13 -24 17 -50 8 -41 20 -57 93 -127 45 -45
87 -81 92 -81 5 0 25 -13 44 -30 18 -16 40 -30 48 -30 8 0 22 -12 32 -27 22
-35 33 -43 59 -43 11 0 33 -13 49 -30 21 -22 38 -30 64 -30 25 -1 47 -10 71
-30 19 -17 44 -30 55 -30 12 0 31 -11 43 -25 15 -18 32 -25 56 -25 22 0 45 -9
64 -25 51 -43 72 -48 422 -95 124 -17 275 -42 336 -56 90 -20 309 -87 387
-119 24 -10 21 -25 -6 -25 -51 0 -57 -33 -30 -165 l17 -83 -32 -36 c-39 -44
-62 -120 -62 -202 0 -60 2 -65 38 -101 l39 -38 6 -130 c12 -222 27 -347 53
-439 29 -104 44 -136 90 -192 l34 -41 -36 -34 c-79 -76 -151 -284 -142 -411 8
-101 4 -104 -172 -129 -108 -15 -159 -27 -198 -47 l-53 -27 -43 23 c-61 33
-149 126 -194 207 -40 72 -167 290 -220 380 -17 28 -63 88 -103 134 -40 47
-114 133 -164 191 -49 59 -123 144 -163 189 -109 123 -133 197 -96 304 20 60
16 91 -14 95 -23 4 -84 -51 -125 -111 -31 -47 -83 -29 -126 43 -12 19 -21 46
-21 60 0 39 -11 70 -24 70 -7 0 -23 -11 -36 -25 -13 -14 -31 -25 -41 -25 -28
0 -49 11 -49 26 0 8 -9 14 -20 14 -19 0 -20 4 -15 63 8 88 -5 103 -49 54 -39
-42 -36 -40 -70 -27 -36 13 -66 67 -66 117 0 55 -17 64 -49 24 -14 -17 -34
-31 -43 -31 -9 0 -44 24 -78 53 -97 83 -120 97 -158 97 -115 0 -240 144 -288
331 -24 93 -22 217 5 312 12 44 20 81 18 84 -10 9 -99 -81 -120 -122 -16 -32
-22 -68 -28 -185 -4 -80 -8 -146 -8 -147 -1 -2 -10 -3 -22 -3 -13 0 -25 11
-34 33 -7 18 -35 69 -61 112 -26 44 -60 109 -75 145 l-28 65 -1 -45 c0 -99 62
-254 137 -340 22 -25 56 -70 76 -100 56 -86 168 -174 329 -261 51 -28 116 -68
144 -89 28 -21 100 -64 160 -94 219 -113 238 -127 368 -254 69 -68 126 -127
126 -132 0 -17 -44 -38 -106 -51 -59 -12 -65 -11 -148 19 -55 20 -88 27 -92
21 -3 -6 18 -33 47 -60 51 -47 53 -51 39 -72 -49 -76 -65 -137 -36 -137 8 0
31 9 50 21 23 13 60 22 108 26 85 6 128 -7 128 -37 0 -20 -86 -114 -125 -136
-35 -20 -13 -22 60 -7 75 16 145 11 202 -12 37 -16 41 -30 16 -73 -23 -39 -10
-55 69 -83 72 -27 133 -69 141 -98 3 -14 -3 -32 -21 -52 -37 -45 -22 -59 89
-89 126 -34 128 -36 87 -70 -44 -38 -34 -54 65 -103 64 -33 106 -67 259 -214
186 -178 282 -253 323 -253 12 0 56 -24 96 -54 130 -94 144 -98 351 -100 l132
-1 12 -77 c19 -125 41 -176 98 -233 49 -49 88 -67 189 -89 15 -4 27 -11 27
-17 0 -10 -18 -19 -115 -54 -85 -32 -131 -89 -199 -250 -98 -232 -140 -282
-327 -386 -161 -89 -186 -119 -200 -230 -8 -65 -16 -84 -78 -183 -121 -194
-153 -268 -276 -626 -104 -304 -134 -361 -252 -477 -51 -50 -93 -96 -93 -102
0 -6 15 -11 33 -12 17 0 41 -4 51 -8 18 -7 16 -11 -20 -52 -77 -85 -102 -129
-74 -129 5 0 50 25 100 56 49 31 95 54 102 52 8 -3 -14 -33 -54 -75 -48 -49
-68 -77 -68 -95 0 -21 -14 -35 -72 -75 -49 -32 -74 -56 -78 -73 -5 -19 -29
-37 -110 -80 -58 -30 -106 -62 -108 -71 -2 -10 9 -21 28 -29 38 -16 35 -18
-85 -65 -123 -48 -126 -50 -95 -75 24 -19 24 -21 7 -34 -10 -8 -77 -45 -150
-83 -105 -54 -145 -82 -204 -139 -50 -48 -86 -75 -114 -83 -93 -28 -190 -164
-207 -290 -10 -68 1 -155 23 -185 19 -26 38 -10 32 28 -18 111 100 324 189
342 31 6 31 5 38 -41 3 -26 6 -62 6 -79 0 -46 53 -149 105 -205 51 -55 98 -81
143 -81 65 0 46 39 -42 89 -110 62 -160 143 -135 219 17 54 45 88 228 279 164
170 191 193 234 193 14 0 42 20 72 51 28 28 73 68 102 90 28 21 69 65 89 97
37 57 40 59 75 55 30 -4 39 -1 57 22 12 15 31 54 43 86 23 63 29 68 50 43 12
-15 15 -14 30 5 9 11 33 63 53 115 20 52 43 100 51 106 25 21 58 6 93 -40 19
-25 40 -45 46 -45 8 0 11 64 11 220 0 249 -1 242 94 451 27 61 73 180 100 264
57 171 116 285 159 302 70 27 96 46 153 116 54 66 63 73 76 59 12 -11 15 -39
14 -123 -2 -331 76 -893 185 -1326 13 -53 24 -104 24 -114 0 -9 -24 -43 -54
-74 -93 -97 -163 -264 -152 -363 9 -82 8 -87 -23 -190 -34 -110 -56 -218 -106
-530 -59 -361 -108 -554 -182 -707 -39 -82 -57 -107 -135 -182 -49 -49 -95
-88 -101 -88 -17 0 -73 -47 -66 -55 4 -3 24 1 44 9 39 17 95 21 95 9 0 -5 -17
-23 -37 -41 l-38 -33 45 5 c25 2 62 8 83 12 52 9 48 -9 -13 -67 -37 -37 -63
-52 -107 -64 -32 -9 -73 -23 -91 -31 -47 -20 -28 -40 47 -49 76 -9 90 -18 60
-39 -31 -21 -44 -20 -79 5 -25 19 -38 21 -97 16 -79 -7 -136 -24 -130 -41 2
-6 21 -18 43 -26 52 -20 64 -28 64 -46 0 -20 -17 -18 -47 6 -47 36 -167 24
-232 -24 -19 -14 -58 -30 -87 -36 -30 -7 -68 -24 -90 -41 -20 -16 -48 -29 -61
-29 -13 0 -74 -23 -135 -51 -143 -65 -236 -89 -352 -89 -134 0 -186 -19 -238
-85 -28 -36 -16 -42 24 -11 53 40 102 56 171 56 64 0 106 -17 93 -38 -3 -6
-31 -22 -60 -35 -72 -33 -143 -99 -157 -147 -22 -74 11 -96 40 -27 37 85 84
109 261 132 192 24 225 37 375 139 85 59 101 63 124 35 l18 -22 34 21 c19 11
45 35 57 52 22 30 26 31 75 25 51 -6 53 -6 99 39 35 35 55 46 78 46 36 0 79
20 132 62 21 16 54 32 75 35 45 7 65 22 106 83 40 58 45 62 89 55 33 -4 40 -1
75 37 78 85 92 98 108 98 9 0 47 -29 85 -65 38 -36 75 -65 81 -65 8 0 10 16 5
58 -23 200 -25 254 -16 382 10 134 38 339 66 495 9 46 19 196 24 355 8 255 17
354 36 405 12 33 36 55 60 55 31 0 85 49 125 113 37 59 69 97 81 97 4 0 19
-23 34 -52 14 -28 45 -81 69 -117 23 -36 63 -100 88 -141 128 -210 473 -560
617 -626 19 -9 55 -25 80 -37 74 -35 164 -24 242 30 39 26 58 24 58 -7 0 -41
72 -51 173 -25 224 58 469 293 716 689 83 132 102 173 152 336 32 104 33 105
40 65 20 -111 95 -220 171 -248 48 -17 63 -107 78 -457 12 -302 23 -366 105
-654 60 -212 96 -370 125 -553 7 -40 15 -75 19 -77 3 -2 35 40 71 95 35 54 69
99 76 99 7 0 49 -34 93 -74 73 -69 82 -75 113 -69 27 4 45 -2 83 -26 31 -19
62 -31 84 -31 22 0 64 -16 118 -45 58 -32 95 -45 122 -45 24 0 67 -13 112 -35
41 -19 87 -35 103 -35 16 0 59 -16 95 -36 45 -25 86 -39 130 -44 l64 -8 96
-95 c53 -52 115 -107 138 -121 23 -14 50 -41 60 -58 22 -43 22 -131 0 -187
-23 -56 -10 -74 30 -45 45 33 68 89 70 174 1 73 2 75 28 78 l27 4 -23 24 c-12
13 -20 27 -16 30 10 10 74 -16 102 -42 28 -26 28 -26 21 -126 -7 -109 1 -121
39 -57 26 44 27 140 2 187 -20 37 -71 72 -104 72 -22 0 -69 42 -110 97 -15 21
-49 40 -120 67 -94 37 -151 64 -183 85 -12 9 -9 16 19 45 18 19 30 39 27 45
-5 7 -54 11 -136 11 -70 0 -135 3 -144 6 -21 8 -20 31 1 43 32 18 3 25 -95 23
-113 -2 -131 5 -114 43 11 23 10 26 -14 35 -14 6 -52 10 -85 10 -76 0 -99 12
-99 50 l0 30 -114 0 c-88 0 -116 3 -126 15 -7 8 -28 18 -49 21 -20 4 -56 16
-81 28 l-45 21 53 3 c37 2 52 7 52 18 0 20 34 18 80 -6 31 -16 40 -17 40 -7 0
13 -34 47 -182 184 -128 118 -211 323 -284 698 -53 277 -93 451 -126 550 -25
77 -28 95 -19 126 32 106 -3 294 -81 446 -28 54 -58 112 -67 130 -9 18 -23 31
-31 30 -32 -4 -17 124 43 358 81 319 123 609 143 968 l6 117 80 -42 c44 -24
91 -57 105 -74 13 -18 47 -94 74 -170 67 -183 210 -543 260 -656 37 -82 50
-131 76 -293 10 -64 27 -68 109 -24 50 27 67 32 81 23 10 -6 44 -48 75 -95 32
-46 69 -99 83 -116 27 -35 55 -43 55 -18 0 27 30 29 57 4 14 -13 44 -48 66
-78 37 -50 41 -53 48 -33 17 45 46 23 110 -81 30 -50 49 -60 49 -27 0 35 28
22 106 -50 62 -58 81 -70 109 -70 31 0 43 -11 160 -149 69 -82 145 -163 170
-179 44 -29 44 -30 25 -47 -11 -10 -20 -23 -20 -29 0 -37 -27 -94 -62 -132
-43 -46 -44 -60 -6 -50 88 22 168 138 168 243 0 42 18 81 41 88 23 8 56 -10
63 -33 3 -10 28 -40 56 -67 41 -40 50 -46 56 -32 18 47 -47 115 -155 163 -32
14 -70 42 -94 70 -42 48 -162 144 -180 144 -6 0 -34 16 -62 36 -29 19 -70 41
-91 49 -46 16 -50 35 -11 53 40 19 21 37 -72 66 -138 43 -201 45 -201 5 0 -49
-33 -5 -47 62 l-5 27 48 -11 c27 -5 61 -10 76 -10 31 0 81 30 73 43 -9 14 -71
28 -162 36 -84 7 -100 17 -68 44 33 28 11 50 -49 50 -36 0 -95 17 -111 32 -7
6 -4 14 9 23 26 20 14 31 -62 56 -81 26 -134 52 -151 73 -17 20 -12 20 76 -5
41 -11 88 -19 106 -17 31 4 31 4 -26 31 -66 30 -70 47 -14 60 20 5 37 15 37
22 0 16 -48 59 -136 120 -148 102 -312 350 -449 675 -32 74 -76 178 -100 230
-23 52 -55 133 -70 180 -30 95 -103 231 -175 330 -43 58 -140 146 -195 176
-11 6 -34 49 -56 105 -62 160 -126 308 -145 335 -58 81 -82 144 -54 144 5 0
27 16 49 35 66 60 122 192 146 348 7 42 11 45 118 70 93 23 203 75 261 126 50
44 73 56 158 86 78 27 198 112 278 197 41 43 119 124 173 178 53 55 97 104 97
110 0 6 -5 19 -12 30 -10 16 -9 24 8 47 19 26 97 85 126 96 10 4 11 7 1 18
-22 22 -15 46 24 79 36 32 146 90 171 90 20 0 14 12 -24 51 l-36 37 61 49 c33
27 97 68 141 92 44 23 80 47 80 53 0 6 -7 19 -16 29 -47 52 148 73 270 30 70
-25 66 -25 66 -7 0 23 -89 96 -154 127 l-60 28 35 15 c19 8 51 17 72 21 87 17
-9 52 -145 54 -42 1 -83 4 -92 7 -20 8 -21 24 -2 24 8 0 29 14 46 32 27 27 31
36 25 65 -6 32 -4 34 37 52 24 10 64 26 91 35 42 16 47 21 45 44 -3 22 4 30
35 46 21 10 70 21 110 25 l72 6 3 47 3 47 101 3 101 3 19 33 c10 18 54 74 99
125 44 51 114 142 154 204 60 91 85 119 133 152 120 81 182 200 182 351 0 73
-9 71 -35 -10 -10 -30 -30 -80 -45 -110 -15 -30 -30 -72 -34 -92 -4 -21 -16
-44 -28 -52 -19 -13 -23 -12 -54 18 l-34 33 3 99 c2 89 0 103 -22 137 -28 45
-91 91 -105 77 -7 -7 -2 -33 12 -78 26 -81 29 -189 7 -252 -8 -24 -31 -62 -50
-86 -45 -55 -123 -180 -170 -274 -62 -124 -90 -155 -97 -107 -2 17 -10 23 -40
25 -44 4 -90 -18 -140 -66 -35 -33 -39 -35 -63 -22 -23 13 -28 10 -105 -63
-44 -43 -84 -77 -90 -77 -6 0 -15 11 -20 25 -15 38 -34 30 -75 -32 -21 -32
-66 -85 -99 -118 -34 -33 -77 -84 -96 -113 -39 -58 -55 -64 -64 -26 -8 29 -62
118 -108 177 -52 65 -58 54 -58 -96 0 -137 -14 -214 -48 -267 -9 -14 -35 -62
-59 -107 -63 -122 -128 -216 -303 -433 -196 -245 -219 -278 -260 -381 -83
-210 -122 -262 -208 -280 -85 -17 -268 -8 -317 16 l-40 20 -11 107 c-18 162
-49 239 -134 337 -27 32 -50 66 -50 75 0 10 9 31 21 47 55 78 76 193 88 477 9
228 17 264 69 301 67 47 92 165 53 253 -11 24 -38 62 -60 86 -45 46 -47 55
-26 92 30 52 14 152 -32 201 l-25 27 91 21 c125 30 356 50 673 60 281 10 314
15 333 59 7 16 18 22 43 22 18 0 51 9 72 20 22 11 45 19 51 18 7 -2 22 13 35
32 50 76 48 74 74 60 21 -11 26 -10 49 18 14 16 37 32 51 36 36 8 44 16 74 67
25 45 28 46 55 36 36 -13 59 -4 71 29 9 23 14 26 42 20 33 -7 68 14 68 41 0 8
16 20 34 28 20 9 48 34 66 60 25 37 37 45 61 45 80 0 179 210 146 309 -38 113
-128 29 -151 -141 -10 -77 -26 -106 -26 -49 0 47 -17 81 -40 81 -25 0 -55 -48
-64 -101 l-6 -39 -25 16 c-24 16 -27 15 -44 0 -21 -19 -34 -49 -51 -113 -9
-38 -14 -43 -47 -49 -25 -5 -40 -15 -52 -36 -14 -25 -20 -28 -48 -23 -40 7
-68 -7 -88 -44 -9 -19 -26 -32 -45 -36 -16 -4 -39 -20 -51 -36 -11 -16 -29
-29 -39 -29 -33 0 -50 -12 -81 -56 -16 -24 -36 -44 -44 -44 -7 0 -24 -14 -36
-31 l-22 -32 -22 27 -22 27 -134 -15 c-74 -9 -233 -25 -354 -36 -321 -29 -474
-57 -615 -112 -68 -27 -96 -43 -137 -81 -31 -29 -53 -30 -53 -2 0 7 25 44 56
82 88 106 169 231 233 360 71 143 164 402 185 515 16 89 51 298 68 413 13 89
4 1252 -12 1450 -31 393 -156 696 -379 915 -90 89 -160 136 -260 176 -68 28
-218 51 -232 37 -6 -6 25 -30 82 -64 94 -55 174 -132 186 -176 3 -16 -1 -36
-11 -54 -16 -28 -16 -30 2 -57 11 -15 32 -38 47 -52 34 -31 55 -72 55 -103 0
-26 -16 -37 -55 -37 -30 0 -55 -10 -55 -21 0 -5 38 -51 85 -103 47 -52 85
-101 85 -110 0 -9 -17 -23 -40 -32 -25 -10 -40 -23 -40 -33 0 -10 16 -53 35
-97 44 -103 59 -194 59 -374 1 -164 -14 -219 -65 -246 -42 -21 -76 -17 -185
21 -107 37 -155 43 -173 21 -17 -20 3 -63 83 -179 37 -52 86 -138 110 -189 48
-101 121 -333 130 -414 13 -111 -27 -359 -91 -558 -92 -287 -360 -783 -400
-742 -4 4 0 19 9 34 42 67 42 66 18 159 -22 82 -27 92 -79 142 -31 29 -79 68
-106 86 -28 18 -57 40 -65 50 -35 42 -143 62 -170 30 -27 -32 26 -93 105 -119
66 -22 125 -64 125 -89 0 -17 41 -61 118 -127 12 -11 22 -31 22 -45 0 -21 -8
-29 -37 -41 -92 -36 -128 -75 -139 -152 -9 -63 -20 -81 -57 -97 -34 -14 -77
-56 -96 -93 -11 -21 -16 -22 -72 -16 -45 5 -70 2 -105 -11 -37 -14 -50 -15
-74 -5 -22 9 -36 9 -62 0 -29 -11 -39 -10 -66 4 -39 20 -86 21 -102 1 -21 -25
-54 -17 -91 21 -18 19 -56 52 -84 71 -63 45 -125 104 -125 118 0 5 -25 39 -55
75 -30 35 -55 70 -55 78 0 7 -7 26 -15 41 -13 27 -13 30 11 52 23 21 25 29 20
72 -6 45 -6 47 18 47 13 0 26 7 30 15 3 8 15 15 27 15 11 0 34 11 51 25 18 15
42 25 61 25 81 0 170 113 125 158 -7 7 -29 12 -49 12 -44 0 -88 -32 -125 -92
-13 -21 -31 -38 -39 -38 -8 0 -22 -11 -31 -25 -9 -14 -26 -25 -39 -25 -77 0
-153 -167 -126 -275 7 -26 10 -50 7 -52 -24 -25 -269 254 -351 401 -47 84
-131 292 -156 385 -11 42 -31 110 -44 152 -32 104 -67 334 -68 454 -1 113 12
164 72 280 37 71 153 198 269 293 57 47 61 56 33 71 -14 8 -39 5 -92 -9 -50
-13 -107 -20 -176 -20 l-101 0 -37 43 c-128 148 -133 315 -18 570 52 114 52
135 -3 112 -20 -8 -38 -15 -40 -15 -24 0 53 126 150 245 67 83 70 108 14 113
-24 2 -38 8 -38 17 0 22 89 134 180 227 l86 87 -35 3 c-19 2 -36 9 -39 16 -7
21 72 88 142 122 36 17 68 35 71 40 7 12 -72 11 -131 0z m-24 -54 c0 -10 -151
-138 -156 -133 -10 9 48 78 90 109 34 25 66 36 66 24z m2083 -95 c113 -107
209 -362 262 -696 24 -149 31 -498 12 -605 -18 -103 -50 -190 -84 -230 l-25
-30 56 -131 c107 -248 138 -400 138 -674 0 -187 -20 -410 -52 -600 -21 -120
-55 -241 -71 -250 -5 -4 -58 -104 -117 -223 l-107 -217 0 -105 0 -105 -42 -50
c-85 -101 -226 -215 -266 -215 -13 0 10 29 71 88 79 76 95 99 136 184 25 54
50 118 56 142 5 25 45 123 89 218 136 299 143 318 194 574 14 66 35 140 48
165 23 41 24 54 23 214 -1 299 -84 718 -181 908 -47 95 -48 91 7 153 96 110
125 243 117 534 -6 211 -30 364 -81 533 -56 183 -137 336 -220 416 -20 19 -36
39 -36 43 0 19 24 5 73 -41z m-2323 -151 c0 -11 -4 -20 -9 -20 -5 0 -14 -21
-20 -46 -7 -26 -20 -63 -31 -83 -30 -59 -88 -234 -128 -386 -36 -137 -37 -143
-36 -315 1 -96 7 -204 13 -240 24 -128 104 -226 209 -256 53 -16 59 -15 145 6
49 12 97 24 106 27 37 14 -39 -52 -130 -112 -60 -40 -117 -88 -155 -131 l-59
-68 -3 -280 c-6 -469 12 -668 104 -1131 48 -239 117 -474 170 -576 13 -26 13
-29 -1 -29 -54 0 -140 196 -195 447 -11 49 -24 151 -30 224 -5 74 -21 207 -35
294 -31 199 -56 500 -58 710 -3 251 31 390 124 507 16 20 27 43 24 50 -3 8
-39 40 -80 72 -69 54 -118 114 -159 193 -19 38 -21 195 -6 422 17 251 49 394
115 513 28 52 60 128 90 216 7 20 35 14 35 -8z m-35 -300 c3 -5 -6 -22 -21
-37 -32 -32 -45 -17 -20 22 17 26 31 31 41 15z m-85 -327 c0 -23 -36 -83 -50
-83 -14 0 -13 8 11 57 22 44 39 56 39 26z m-1958 -2060 c34 -33 36 -53 5 -53
-24 0 -47 33 -47 65 0 22 10 18 42 -12z m6707 -113 c11 -32 2 -81 -14 -77 -5
1 -9 18 -8 37 2 33 1 34 -12 16 -14 -19 -15 -18 -15 15 0 20 3 38 6 42 12 11
33 -5 43 -33z m-3069 -29 c0 -11 -5 -23 -11 -27 -15 -9 -33 12 -26 30 9 23 37
20 37 -3z m-620 -19 c0 -5 -9 -17 -20 -27 -20 -18 -20 -17 -20 8 0 20 5 27 20
27 11 0 20 -4 20 -8z m3536 -57 c6 -26 -17 -75 -36 -75 -13 0 -13 41 0 74 12
33 28 33 36 1z m-6362 -67 c9 -35 8 -38 -14 -38 -20 0 -25 15 -14 44 9 23 21
20 28 -6z m3692 -45 c-7 -17 -8 -17 -17 0 -12 21 -2 44 13 29 6 -6 8 -19 4
-29z m2299 -253 c-3 -5 -10 -10 -16 -10 -5 0 -9 5 -9 10 0 6 7 10 16 10 8 0
12 -4 9 -10z m1187 -32 c-13 -13 -26 8 -17 30 6 16 7 16 17 -1 7 -13 7 -22 0
-29z m-3437 -28 c-5 -8 -11 -8 -17 -2 -6 6 -7 16 -3 22 5 8 11 8 17 2 6 -6 7
-16 3 -22z m-4736 -119 c-7 -39 -15 -71 -19 -71 -8 0 -5 28 12 103 15 72 20
50 7 -32z m1665 54 c83 -56 187 -95 306 -115 98 -16 114 -20 104 -29 -12 -11
-203 6 -284 25 -80 18 -145 56 -165 94 -29 56 -17 63 39 25z m4880 -81 c27
-10 18 -31 -16 -38 -18 -3 -107 -10 -198 -16 -91 -5 -190 -12 -220 -16 -51 -5
-54 -4 -39 11 13 13 47 19 140 27 68 5 144 16 169 23 47 14 137 19 164 9z
m1613 -53 c-20 -22 -65 -85 -101 -140 -59 -92 -87 -121 -115 -121 -21 0 -10
32 44 133 65 122 95 154 150 160 22 2 44 4 49 5 4 1 -8 -16 -27 -37z m-2197
10 c0 -15 -29 -33 -41 -25 -9 5 -7 11 6 21 22 15 35 17 35 4z m-3723 -27 c-3
-3 -12 -4 -19 -1 -8 3 -5 6 6 6 11 1 17 -2 13 -5z m3651 -13 c11 -7 11 -9 -1
-14 -33 -13 -126 -18 -144 -9 -15 9 -15 12 -3 16 8 2 22 7 30 9 25 9 104 7
118 -2z m-523 -132 c9 -14 -22 -47 -67 -70 -21 -10 -40 -19 -43 -19 -15 0 -1
24 35 60 40 40 63 49 75 29z m-5316 -78 c59 -74 67 -100 15 -50 -41 38 -94
107 -94 121 0 18 29 -8 79 -71z m3009 28 c31 -24 72 -79 72 -95 0 -7 -5 -16
-10 -19 -15 -9 -60 22 -55 38 11 29 -13 42 -75 40 -33 -1 -60 3 -60 8 0 6 12
21 28 34 31 28 60 26 100 -6z m2391 -56 c-1 -44 -3 -52 -9 -33 -12 36 -12 90
0 90 6 0 10 -25 9 -57z m-39 8 c0 -26 -16 -35 -24 -15 -10 25 -7 34 9 34 8 0
15 -9 15 -19z m87 -3 c-3 -8 -6 -5 -6 6 -1 11 2 17 5 13 3 -3 4 -12 1 -19z
m-2223 -42 c-3 -9 -10 -16 -15 -16 -11 0 -12 43 -2 54 10 10 24 -20 17 -38z
m-104 19 c0 -8 -4 -15 -10 -15 -5 0 -10 7 -10 15 0 8 5 15 10 15 6 0 10 -7 10
-15z m-274 -33 c50 -37 124 -120 124 -140 0 -9 11 -32 25 -53 20 -28 28 -56
35 -125 11 -100 13 -230 4 -221 -3 3 -12 54 -20 114 -17 129 -26 158 -63 201
l-28 33 -7 -85 c-5 -65 -4 -92 7 -113 10 -19 14 -58 13 -124 -1 -101 -11 -129
-48 -129 -12 0 -23 -11 -29 -30 -12 -33 -29 -31 -29 3 0 13 -9 30 -20 40 -25
21 -26 50 -2 73 15 15 17 36 15 153 -1 75 -8 174 -16 221 -9 55 -11 93 -5 109
11 32 3 39 -13 10 -8 -15 -10 -55 -7 -123 6 -105 -2 -162 -16 -119 -4 11 -13
23 -20 26 -22 9 -57 -37 -63 -82 -5 -33 -1 -49 21 -81 26 -40 22 -56 -13 -45
-25 8 -41 47 -41 101 0 54 18 101 60 153 l31 39 -15 53 c-19 63 -20 102 -5
132 25 47 69 49 125 9z m420 -38 c-3 -8 -10 -14 -16 -14 -14 0 -13 33 3 49 10
10 13 9 15 -4 2 -9 1 -23 -2 -31z m1994 8 c0 -10 -9 -25 -20 -35 -16 -14 -20
-29 -20 -82 0 -37 -4 -65 -10 -65 -5 0 -11 10 -11 23 -1 12 -5 4 -10 -18 -4
-22 -8 -107 -9 -190 -1 -134 -2 -148 -15 -131 -11 15 -15 48 -15 127 0 71 -4
110 -12 115 -8 5 -9 -70 -4 -307 4 -172 4 -310 1 -307 -4 4 -13 78 -21 165
-16 177 -34 225 -34 92 0 -78 -14 -132 -27 -102 -2 7 -13 23 -23 35 -21 25
-27 10 -9 -24 8 -14 8 -23 0 -31 -6 -6 -11 -40 -11 -76 0 -92 -15 -66 -35 59
-9 58 -17 112 -19 120 -1 8 -6 -55 -10 -141 -8 -156 -25 -238 -27 -129 0 30
-4 64 -8 75 -7 16 -9 14 -14 -14 -4 -19 -7 -63 -7 -99 0 -49 -3 -63 -11 -55
-7 7 -15 83 -21 185 -12 236 -26 257 -28 43 -3 -274 -19 -273 -36 2 -4 61 -10
117 -14 123 -10 15 -31 4 -25 -13 10 -28 24 -375 16 -402 l-8 -30 -6 35 c-4
19 -9 71 -12 115 -3 44 -9 96 -13 115 l-6 35 -7 -30 c-4 -16 -7 -60 -8 -96 -1
-75 -10 -129 -21 -129 -4 0 -10 28 -14 63 -4 45 -11 67 -26 79 -12 10 -20 29
-21 50 0 18 -4 42 -8 53 -6 13 -11 -17 -16 -88 -10 -149 -27 -137 -39 26 -5
70 -13 127 -17 127 -5 0 -9 -55 -10 -122 -1 -144 -12 -247 -22 -208 -3 14 -8
77 -11 140 -3 63 -9 126 -13 140 l-7 25 -7 -25 c-4 -14 -7 -64 -8 -112 -1 -49
-5 -88 -10 -88 -4 0 -11 28 -15 63 -12 115 -18 147 -27 141 -5 -3 -9 -38 -9
-79 0 -76 -13 -106 -24 -57 -3 15 -9 85 -13 155 -7 143 -22 181 -24 60 -1 -43
-5 -91 -9 -108 l-7 -30 -6 35 c-4 19 -11 84 -17 143 -5 59 -15 117 -21 129 -7
12 -15 33 -20 47 -7 25 -7 25 -8 -6 -1 -48 -19 -49 -31 -2 -16 58 -5 107 26
121 32 15 79 0 179 -57 81 -46 198 -90 271 -101 33 -5 57 0 110 21 38 15 75
36 83 47 7 11 19 17 26 14 8 -3 15 7 19 26 6 31 34 70 98 139 20 22 40 53 43
69 8 34 24 48 35 30 5 -8 10 -1 15 21 10 47 39 102 76 144 34 39 49 44 49 17z
m-1930 -22 c0 -10 -5 -22 -10 -25 -13 -8 -24 20 -16 41 8 20 26 9 26 -16z
m-61 -46 c40 -34 58 -75 26 -57 -25 14 -124 98 -125 105 -1 15 60 -15 99 -48z
m878 24 c-3 -8 -6 -5 -6 6 -1 11 2 17 5 13 3 -3 4 -12 1 -19z m80 -101 c10
-159 -18 -231 -32 -82 -9 90 2 217 16 192 5 -9 12 -58 16 -110z m3479 88 c13
-20 14 -28 4 -40 -19 -23 -50 -19 -50 6 0 19 -4 21 -31 15 -25 -5 -30 -3 -27
11 3 16 33 30 70 32 10 1 25 -10 34 -24z m-4335 -38 c-8 -8 -11 -4 -11 14 0
33 14 47 18 19 2 -12 -1 -27 -7 -33z m61 -19 c-9 -9 -12 -1 -11 33 l1 44 11
-33 c7 -24 7 -36 -1 -44z m68 5 c0 -33 -14 -51 -25 -33 -4 6 -4 29 0 52 8 47
25 34 25 -19z m559 -203 c0 -55 -2 -70 -10 -58 -13 23 -25 280 -13 304 9 21
21 -111 23 -246z m-3675 196 c3 -13 2 -35 -3 -47 l-8 -23 -12 21 c-18 34 -13
73 10 73 4 0 10 -11 13 -24z m3167 -23 c-9 -17 -10 -17 -16 0 -4 9 -4 25 0 35
6 16 7 16 16 0 7 -12 7 -24 0 -35z m77 15 c-4 -41 -28 -50 -28 -10 0 16 3 32
7 35 15 16 24 5 21 -25z m371 -141 c1 -90 -3 -136 -9 -132 -6 4 -10 67 -9 158
0 94 4 144 9 132 5 -11 9 -82 9 -158z m782 158 c0 -14 -65 -30 -86 -21 -24 9
-13 18 32 26 45 9 55 8 54 -5z m-1355 -51 c83 -27 113 -44 77 -44 -34 0 -150
39 -163 55 -17 21 -5 19 86 -11z m854 -44 c0 -32 -4 -62 -10 -65 -6 -4 -10 20
-10 65 0 45 4 69 10 65 6 -3 10 -33 10 -65z m-121 -22 c-1 -57 -4 -75 -9 -58
-15 48 -11 140 7 140 2 0 3 -37 2 -82z m3339 54 c2 -13 -2 -30 -9 -38 -10 -12
-13 -12 -24 2 -12 17 -32 16 -82 -3 -16 -6 -17 -5 -3 12 23 28 73 56 95 53 12
-2 21 -12 23 -26z m-2002 -36 c28 -28 34 -41 34 -77 0 -43 -30 -109 -48 -109
-5 0 -12 25 -16 56 -8 67 -22 96 -43 92 -9 -2 -22 -19 -28 -38 -16 -47 -29
-44 -33 8 -3 36 1 47 27 72 38 39 65 38 107 -4z m-1386 -73 c0 -61 -3 -83 -10
-73 -13 20 -13 160 0 160 6 0 10 -36 10 -87z m207 50 c-3 -10 -5 -4 -5 12 0
17 2 24 5 18 2 -7 2 -21 0 -30z m-1147 -3 c0 -11 -4 -20 -10 -20 -5 0 -10 9
-10 20 0 11 5 20 10 20 6 0 10 -9 10 -20z m1260 -66 c0 -41 -4 -63 -10 -59 -5
3 -10 33 -10 66 0 33 4 59 10 59 6 0 10 -29 10 -66z m-3801 9 c1 -21 -17 -15
-24 7 -9 27 6 50 16 24 4 -10 8 -25 8 -31z m2350 -87 c1 -59 -17 -32 -25 36
-9 73 6 114 17 48 4 -25 8 -63 8 -84z m916 86 c0 -46 -19 -44 -23 2 -3 28 0
37 10 34 7 -3 13 -19 13 -36z m485 -3 c0 -24 -4 -38 -10 -34 -5 3 -10 22 -10
41 0 19 5 34 10 34 6 0 10 -18 10 -41z m-538 -13 c4 -23 -20 -34 -28 -12 -8
21 4 52 15 40 5 -5 11 -18 13 -28z m1365 -13 c-3 -10 -5 -4 -5 12 0 17 2 24 5
18 2 -7 2 -21 0 -30z m2084 27 c25 -14 24 -46 -1 -60 -20 -11 -21 -10 -24 13
0 6 -11 13 -23 15 -27 4 -30 17 -5 31 22 13 29 13 53 1z m-4191 -92 c0 -31 5
-103 11 -159 7 -61 8 -132 3 -178 l-8 -76 -7 65 c-24 205 -40 412 -34 427 13
34 35 -15 35 -79z m1820 61 c0 -20 -15 -26 -25 -9 -9 15 3 43 15 35 5 -3 10
-15 10 -26z m-962 -48 c-4 -36 -28 -39 -28 -4 0 15 3 39 7 52 l6 25 9 -24 c5
-13 8 -35 6 -49z m547 45 c24 -22 49 -79 39 -89 -10 -9 -84 72 -84 91 0 28 13
28 45 -2z m111 -66 c11 -11 42 -26 68 -33 26 -7 47 -16 47 -22 -1 -17 -110
-18 -136 -1 -26 17 -39 70 -29 113 l7 28 11 -32 c6 -18 20 -42 32 -53z m-875
47 c-1 -12 -15 -9 -19 4 -3 6 1 10 8 8 6 -3 11 -8 11 -12z m-367 -87 c-4 -13
-6 -13 -14 0 -12 18 -13 64 -3 74 10 9 24 -54 17 -74z m176 30 c4 -42 1 -60
-10 -60 -6 0 -10 26 -10 58 1 56 15 58 20 2z m-120 -21 c0 -54 -15 -66 -25
-20 -7 34 3 83 16 75 5 -3 9 -27 9 -55z m60 1 c0 -33 -4 -60 -10 -60 -6 0 -10
27 -10 60 0 33 4 60 10 60 6 0 10 -27 10 -60z m-312 -267 c6 -392 0 -369 -39
139 -11 154 -8 181 19 155 13 -13 16 -61 20 -294z m1592 281 c0 -14 -4 -23
-10 -19 -5 3 -10 15 -10 26 0 10 5 19 10 19 6 0 10 -12 10 -26z m-1166 0 c3
-9 2 -22 -2 -30 -7 -13 -10 -13 -21 0 -14 16 -9 46 8 46 5 0 12 -7 15 -16z
m272 2 c11 -8 36 -40 55 -71 19 -31 44 -69 57 -85 17 -22 22 -41 22 -89 0 -62
-19 -88 -21 -28 -1 17 -7 -11 -14 -63 -7 -52 -14 -97 -14 -100 -1 -3 -6 2 -11
10 -5 8 -10 39 -10 68 0 28 -4 52 -9 52 -9 0 -21 -72 -21 -127 0 -47 -17 -32
-26 22 -12 82 -24 58 -24 -47 0 -132 -15 -161 -24 -47 -4 46 -10 97 -13 113
-9 49 -23 8 -24 -74 -2 -145 -27 -160 -36 -22 -2 42 -7 84 -10 92 -10 25 -21
-68 -23 -185 -2 -128 -13 -110 -31 50 -25 227 -26 230 -28 55 -2 -162 -10
-223 -24 -187 -3 9 -12 77 -19 149 l-13 133 -6 -123 c-4 -68 -9 -126 -13 -129
-12 -12 -17 6 -23 81 -3 42 -10 76 -14 76 -5 0 -9 -9 -9 -19 0 -11 -4 -23 -10
-26 -6 -4 -10 10 -10 35 0 32 -4 43 -19 47 -14 4 -20 20 -29 81 -10 74 -10 71
-7 -60 2 -76 0 -138 -5 -138 -9 0 -20 50 -20 94 0 24 -3 27 -10 16 -5 -8 -10
-52 -10 -97 0 -46 -4 -83 -9 -83 -4 0 -14 48 -20 107 -14 119 -24 152 -35 109
-10 -39 -26 -22 -26 29 0 35 -7 51 -39 90 -21 26 -43 61 -49 78 -8 24 -10 -26
-9 -200 1 -128 -1 -229 -5 -225 -19 20 -44 569 -27 586 20 21 64 -34 80 -99
l7 -30 1 31 c1 42 8 46 44 27 24 -12 54 -14 142 -11 107 4 115 6 166 38 30 18
68 46 84 61 51 47 104 60 141 35z m944 5 c0 -12 -20 -25 -27 -18 -7 7 6 27 18
27 5 0 9 -4 9 -9z m2290 -51 c-23 -32 -78 -75 -86 -67 -10 10 25 64 63 97 31
28 39 31 41 17 2 -9 -6 -30 -18 -47z m-220 -60 c0 -17 -11 -40 -25 -57 l-26
-28 7 45 c8 53 21 83 35 75 5 -4 9 -19 9 -35z m-5880 -32 c22 -34 37 -64 34
-67 -4 -3 -11 2 -18 13 -6 10 -26 36 -43 58 -34 41 -41 58 -23 58 6 0 28 -28
50 -62z m3153 49 c3 -8 1 -20 -4 -28 -6 -10 -9 -7 -9 14 0 29 5 35 13 14z
m-1113 -133 c0 -34 -4 -53 -10 -49 -5 3 -10 31 -10 61 0 34 4 53 10 49 6 -3
10 -31 10 -61z m3860 31 c-25 -66 -108 -201 -117 -191 -2 2 12 31 32 65 20 33
42 79 50 101 19 53 24 62 35 55 6 -3 5 -16 0 -30z m298 -57 c-3 -7 -13 -15
-24 -17 -16 -3 -17 -1 -5 13 16 19 34 21 29 4z m-132 -48 c-37 -40 -45 -54
-36 -64 8 -11 3 -20 -23 -42 -19 -16 -40 -39 -46 -51 -7 -14 -21 -23 -35 -23
-24 0 -42 -15 -48 -40 -2 -8 -16 -21 -32 -30 -16 -9 -37 -30 -46 -46 -9 -16
-39 -52 -67 -81 -28 -28 -56 -60 -62 -72 -11 -20 -11 -20 18 -3 56 32 55 -14
-1 -48 -35 -21 -83 -26 -93 -10 -12 20 -26 10 -14 -11 10 -19 6 -27 -32 -65
-46 -47 -70 -59 -45 -22 24 34 19 44 -9 18 -14 -13 -25 -34 -25 -47 0 -25 -39
-108 -72 -155 -24 -35 -46 -37 -24 -3 9 14 23 36 32 50 9 14 12 25 7 25 -5 0
-32 -33 -61 -72 -29 -40 -68 -93 -88 -118 -19 -25 -46 -60 -60 -78 -14 -18
-28 -31 -31 -29 -8 9 23 60 111 179 47 64 115 163 152 220 37 57 80 120 96
141 31 38 58 49 58 21 0 -25 22 -11 52 32 18 24 26 47 23 61 -5 24 23 64 182
257 54 66 104 121 111 124 7 2 12 -5 12 -19 0 -23 0 -23 29 5 26 25 66 43 100
45 7 1 -8 -22 -33 -49z m-5730 -185 c145 -159 280 -315 347 -402 50 -65 131
-202 124 -209 -2 -2 -38 40 -79 94 -95 124 -235 288 -396 465 -153 168 -172
193 -172 227 0 43 13 44 33 1 10 -22 75 -101 143 -176z m5814 186 c0 -12 -63
-51 -81 -51 -8 1 2 14 21 30 34 30 60 39 60 21z m106 -46 c19 -14 19 -14 -3
-15 -28 0 -53 10 -53 21 0 14 34 11 56 -6z m-3963 -112 c9 -146 9 -233 -2
-233 -4 0 -11 21 -15 46 -9 69 -7 294 2 294 5 0 12 -48 15 -107z m-1998 -78
c234 -255 308 -343 377 -450 88 -137 109 -175 97 -175 -21 0 -57 32 -64 57 -9
39 -68 126 -117 175 -25 23 -94 87 -154 140 -181 161 -382 368 -358 368 14 0
78 -57 185 -166 90 -91 178 -175 194 -187 l30 -22 -32 40 c-17 22 -99 110
-182 197 -137 142 -176 195 -137 186 8 -2 81 -75 161 -163z m1555 80 c0 -8 -4
-15 -10 -15 -5 0 -10 7 -10 15 0 8 5 15 10 15 6 0 10 -7 10 -15z m-1910 -35
c0 -5 -13 -10 -30 -10 -16 0 -30 5 -30 10 0 6 14 10 30 10 17 0 30 -4 30 -10z
m2414 -26 c9 -24 7 -144 -3 -144 -13 0 -21 38 -21 103 0 55 11 74 24 41z
m-454 -70 c0 -8 -4 -14 -10 -14 -5 0 -10 9 -10 21 0 11 5 17 10 14 6 -3 10
-13 10 -21z m627 -36 c-3 -8 -6 -5 -6 6 -1 11 2 17 5 13 3 -3 4 -12 1 -19z
m263 -19 c0 -5 -4 -9 -10 -9 -5 0 -10 7 -10 16 0 8 5 12 10 9 6 -3 10 -10 10
-16z m-2639 -25 c11 -14 9 -15 -16 -12 -16 1 -30 9 -33 16 -6 18 33 15 49 -4z
m5453 -241 c-4 -28 -19 -50 -52 -80 -51 -48 -52 -48 -52 -30 0 12 97 147 106
147 3 0 2 -17 -2 -37z m-2439 -7 c50 -14 167 -50 260 -81 223 -73 284 -87 380
-87 90 0 244 42 323 88 59 35 67 21 15 -26 -70 -62 -276 -110 -406 -94 -64 7
-294 70 -487 131 -197 63 -256 60 -441 -23 -41 -18 -116 -43 -165 -55 -49 -11
-96 -27 -104 -34 -12 -11 -48 -12 -190 -4 -96 5 -188 11 -205 15 -37 7 -154
43 -177 55 -10 5 -24 9 -33 9 -16 0 -40 38 -31 48 4 3 30 -4 59 -16 212 -87
448 -110 597 -59 25 9 77 23 115 32 39 9 138 40 220 70 83 29 157 54 165 54 8
1 56 -10 105 -23z m1235 -177 c0 -24 -4 -38 -10 -34 -17 10 -11 75 7 75 2 0 3
-18 3 -41z m-3945 12 c3 -5 1 -13 -5 -16 -15 -9 -43 3 -35 15 8 13 32 13 40 1z
m1410 -43 c-7 -53 -7 -53 13 -35 14 13 22 15 27 7 4 -6 16 -10 28 -8 l22 3 0
-325 c1 -310 7 -397 36 -522 7 -31 17 -48 30 -51 15 -4 19 -14 19 -44 0 -64
-17 -74 -31 -19 -12 47 -12 48 -25 25 -15 -29 -16 -28 -39 104 -19 107 -31
130 -21 38 6 -54 -3 -87 -18 -63 -20 33 -39 228 -47 477 -5 154 -11 309 -14
345 -6 59 5 120 21 120 3 0 3 -24 -1 -52z m2439 -19 c10 -100 7 -227 -5 -206
-14 24 -25 267 -12 267 6 0 13 -28 17 -61z m-1467 4 c10 -62 9 -523 -2 -588
l-9 -50 -7 45 c-4 25 -9 92 -10 150 -2 64 -4 82 -6 45 -6 -130 -24 -361 -30
-384 l-6 -24 -14 24 c-13 22 -14 15 -8 -65 3 -49 8 -99 11 -111 6 -26 -24 -44
-38 -23 -9 15 -11 196 -2 262 5 34 11 46 20 42 18 -7 19 25 2 42 -9 9 -14 79
-16 242 -4 234 2 355 18 329 7 -10 11 -7 19 14 6 16 11 35 11 42 0 15 38 55
51 55 4 0 11 -21 16 -47z m1368 41 c20 -8 55 -76 55 -108 0 -42 -18 -39 -32 6
l-13 43 -2 -60 c-2 -33 -6 -80 -10 -105 -6 -43 -7 -44 -14 -15 -7 32 -12 245
-5 245 2 0 12 -3 21 -6z m-86 -60 c19 12 32 -42 38 -156 8 -145 -7 -174 -22
-43 l-12 100 -3 -180 c-1 -99 -5 -191 -9 -205 -7 -23 -8 -22 -15 15 -15 69
-33 459 -23 478 8 18 9 18 21 1 7 -9 18 -14 25 -10z m1231 -5 c0 -20 -109
-177 -161 -231 -72 -75 -54 -38 53 112 88 123 108 145 108 119z m-1306 -21
c10 -39 7 -416 -4 -423 -6 -4 -10 18 -11 57 0 35 -4 81 -8 103 l-8 40 -8 -39
c-4 -21 -5 -89 -3 -150 3 -61 2 -102 -2 -91 -5 11 -13 98 -19 193 -13 218 -30
260 -31 75 0 -72 -4 -134 -8 -137 -11 -7 -35 365 -24 376 5 5 21 2 39 -7 32
-16 43 -44 43 -114 0 -20 5 -43 10 -51 7 -10 10 18 10 88 0 96 10 130 24 80z
m1365 -21 c-32 -61 -103 -138 -85 -92 14 38 77 125 86 120 7 -4 6 -14 -1 -28z
m-4538 -67 c5 0 9 -5 9 -11 0 -19 90 -140 152 -205 65 -68 75 -88 25 -50 -19
15 -39 26 -46 26 -17 0 -95 74 -127 123 -15 23 -36 52 -47 64 -17 20 -18 22
-2 31 16 8 15 13 -9 54 -36 62 -33 73 5 16 17 -27 35 -48 40 -48z m3012 73
c12 -44 18 -216 11 -326 -10 -160 -20 -111 -30 151 -5 136 -4 192 4 192 6 0
13 -8 15 -17z m-153 -22 c0 -17 5 -33 10 -36 6 -4 10 9 10 30 0 42 20 44 31 4
10 -33 9 -538 -1 -569 -7 -24 -7 -24 -14 10 -3 19 -10 73 -15 120 -8 80 -8 76
-10 -77 -1 -160 -12 -210 -25 -115 -17 115 -35 101 -37 -28 l-2 -85 -8 65 c-4
36 -11 154 -15 263 -4 108 -11 197 -16 197 -4 0 -9 -62 -9 -137 -2 -186 -15
-242 -33 -141 -11 61 -26 55 -26 -11 0 -68 -14 -89 -24 -33 -9 57 -7 505 3
520 6 10 10 3 15 -22 9 -45 26 -47 26 -3 0 17 4 38 9 45 10 17 21 -32 21 -99
0 -26 5 -51 10 -54 6 -4 10 22 10 72 0 120 26 143 40 36 4 -32 8 -44 9 -28 3
75 41 145 41 76z m104 -8 c8 -50 6 -460 -3 -498 -7 -30 -21 267 -21 443 0 94
12 122 24 55z m-3219 -13 c3 -6 -1 -13 -10 -16 -19 -8 -30 0 -20 15 8 14 22
14 30 1z m2423 -272 c-3 -223 -4 -240 -11 -143 -10 150 -18 218 -23 212 -3 -2
-9 -157 -15 -343 -5 -186 -14 -357 -19 -379 -5 -25 -7 86 -4 290 5 353 14 608
21 588 9 -24 21 -13 28 24 5 30 9 34 16 21 5 -10 8 -127 7 -270z m475 -19 c1
-162 -2 -255 -8 -257 -6 -1 -11 93 -13 265 -2 195 1 264 9 256 7 -7 11 -95 12
-264z m738 148 c-8 -8 -11 2 -10 39 l1 49 10 -38 c7 -28 7 -42 -1 -50z m-796
-170 c0 -222 -10 -305 -26 -222 -4 22 -8 74 -9 115 0 69 -11 112 -24 99 -3 -3
-9 -41 -13 -83 -9 -111 -25 -73 -31 74 -5 129 2 148 42 111 12 -12 25 -21 29
-21 4 0 7 39 7 87 0 70 3 85 13 75 9 -10 12 -71 12 -235z m-1235 189 c0 -25
-4 -48 -10 -51 -6 -4 -10 13 -10 44 0 28 5 51 10 51 6 0 10 -20 10 -44z m-380
-26 c0 -33 -4 -60 -10 -60 -11 0 -14 78 -4 104 11 28 14 18 14 -44z m1469
-105 c0 -49 -3 -96 -8 -103 -11 -18 -21 117 -13 183 8 75 20 29 21 -80z m1956
105 c-10 -11 -20 -18 -23 -15 -7 6 18 35 31 35 5 0 2 -9 -8 -20z m-3258 -72
c-3 -8 -6 -5 -6 6 -1 11 2 17 5 13 3 -3 4 -12 1 -19z m280 -25 c-3 -10 -5 -2
-5 17 0 19 2 27 5 18 2 -10 2 -26 0 -35z m1933 4 c0 -18 -2 -19 -10 -7 -13 20
-13 43 0 35 6 -3 10 -16 10 -28z m56 -4 c-11 -11 -19 6 -11 24 8 17 8 17 12 0
3 -10 2 -21 -1 -24z m64 -3 c0 -11 -4 -20 -10 -20 -5 0 -10 9 -10 20 0 11 5
20 10 20 6 0 10 -9 10 -20z m-2269 -75 c-8 -25 -9 -21 -9 30 0 50 1 55 9 30 5
-17 5 -42 0 -60z m3089 65 c0 -5 -7 -10 -15 -10 -8 0 -15 5 -15 10 0 6 7 10
15 10 8 0 15 -4 15 -10z m-972 -70 c6 -84 -20 -125 -33 -50 -8 48 2 103 18 97
7 -2 13 -23 15 -47z m-2165 -57 c9 -95 9 -171 -2 -177 -8 -5 -21 117 -21 202
0 67 16 49 23 -25z m-668 37 c-3 -5 -13 -10 -21 -10 -8 0 -12 5 -9 10 3 6 13
10 21 10 8 0 12 -4 9 -10z m2871 -37 c-11 -11 -17 4 -9 23 7 18 8 18 11 1 2
-10 1 -21 -2 -24z m584 -23 c0 -5 -4 -10 -10 -10 -5 0 -10 5 -10 10 0 6 5 10
10 10 6 0 10 -4 10 -10z m-1924 -47 c-3 -21 -6 -49 -6 -63 -1 -21 -2 -22 -10
-8 -12 19 -1 108 13 108 6 0 7 -15 3 -37z m-1059 -5 c-3 -8 -6 -5 -6 6 -1 11
2 17 5 13 3 -3 4 -12 1 -19z m2938 11 c-9 -14 -41 -25 -97 -33 -73 -11 -58 9
20 26 87 20 84 20 77 7z m93 -11 c-8 -22 -80 -56 -143 -67 -78 -14 -192 -14
-200 -1 -4 6 21 10 67 10 85 0 166 18 223 48 47 25 58 27 53 10z m-3198 -7 c0
-11 -40 -22 -53 -14 -5 3 -3 9 4 14 18 11 49 11 49 0z m-193 -26 c54 -14 107
-25 118 -25 11 0 26 -4 34 -9 11 -7 6 -13 -20 -26 -44 -23 -145 -23 -222 0
-32 9 -64 14 -72 11 -20 -7 -46 21 -38 42 15 40 63 42 200 7z m-317 -25 c8 -5
12 -12 8 -15 -10 -10 -49 5 -43 16 8 11 16 11 35 -1z m270 -64 c30 -8 73 -18
95 -21 31 -5 36 -9 23 -16 -19 -11 -143 5 -182 22 -29 14 -37 45 -8 36 9 -3
42 -12 72 -21z m1401 -49 c-13 -13 -15 21 -3 50 6 15 8 13 10 -11 2 -16 -1
-33 -7 -39z m-1101 34 c0 -9 -48 -21 -88 -21 -36 0 -22 9 29 19 61 12 59 12
59 2z m1320 -11 c0 -11 -4 -20 -10 -20 -5 0 -10 9 -10 20 0 11 5 20 10 20 6 0
10 -9 10 -20z m-1180 -44 c0 -8 -4 -17 -9 -21 -12 -7 -24 12 -16 25 9 15 25
12 25 -4z m1172 -108 c-9 -9 -12 -4 -11 23 0 32 1 33 11 11 8 -17 8 -26 0 -34z
m-352 -133 c0 -57 -4 -95 -10 -95 -6 0 -10 38 -10 95 0 57 4 95 10 95 6 0 10
-38 10 -95z m196 -20 c-3 -9 -10 -13 -16 -10 -12 7 -13 48 -3 59 11 11 27 -30
19 -49z m-776 -49 c0 -68 -18 -48 -25 29 -6 56 -5 59 9 41 10 -12 16 -39 16
-70z m535 -24 c0 -73 -20 -67 -23 8 -2 52 -1 63 10 52 6 -6 12 -33 13 -60z
m-476 0 c0 -15 -4 -36 -9 -47 -6 -15 -9 -6 -9 33 -1 33 3 51 9 47 6 -3 10 -18
9 -33z m367 -69 c-11 -11 -19 6 -11 24 8 17 8 17 12 0 3 -10 2 -21 -1 -24z
m241 5 c-3 -8 -6 -5 -6 6 -1 11 2 17 5 13 3 -3 4 -12 1 -19z m1083 8 c0 -8 -4
-18 -10 -21 -5 -3 -10 3 -10 14 0 12 5 21 10 21 6 0 10 -6 10 -14z m-1539 -11
c0 -5 -7 -12 -16 -13 -23 -5 -47 6 -40 19 8 13 56 8 56 -6z m70 2 c-1 -12 -15
-9 -19 4 -3 6 1 10 8 8 6 -3 11 -8 11 -12z m1529 -3 c0 -17 -22 -14 -28 4 -2
7 3 12 12 12 9 0 16 -7 16 -16z m-812 -18 c3 -12 -1 -17 -10 -14 -7 3 -15 13
-16 22 -3 12 1 17 10 14 7 -3 15 -13 16 -22z m922 -16 c0 -11 -4 -20 -10 -20
-5 0 -10 9 -10 20 0 11 5 20 10 20 6 0 10 -9 10 -20z m-1418 -21 c56 -6 123
-18 148 -26 28 -9 113 -16 225 -20 168 -5 187 -4 275 18 86 21 116 24 310 24
183 -1 233 -4 335 -24 140 -27 223 -25 286 8 45 24 74 16 49 -13 -34 -42 -137
-45 -430 -15 -217 22 -312 19 -480 -16 -155 -32 -279 -29 -575 15 -171 25
-320 34 -372 22 -33 -8 -45 -7 -54 4 -6 7 -8 18 -4 24 8 13 157 13 287 -1z
m1688 -41 c0 -30 -25 -15 -28 17 -3 25 -2 27 12 16 9 -8 16 -22 16 -33z
m-2140 -8 c0 -5 -9 -14 -20 -20 -11 -6 -23 -22 -26 -36 -5 -19 -9 -22 -15 -12
-16 25 -10 58 14 68 30 12 47 12 47 0z m-100 -63 c0 -12 -4 -28 -9 -35 -12
-20 -23 12 -15 44 7 28 24 22 24 -9z m492 -286 c-8 -76 -9 -63 -9 119 0 205 0
205 9 86 6 -73 6 -151 0 -205z m1388 289 c0 -16 -4 -30 -10 -30 -5 0 -10 14
-10 30 0 17 5 30 10 30 6 0 10 -13 10 -30z m-396 -110 c7 -126 -1 -189 -15
-125 -10 45 -10 255 0 255 4 0 11 -59 15 -130z m103 8 c-2 -24 -4 -5 -4 42 0
47 2 66 4 43 2 -24 2 -62 0 -85z m-912 82 c12 -23 14 -45 9 -90 -9 -79 6 -590
17 -590 5 0 9 122 9 274 0 151 4 277 9 280 13 9 21 -58 21 -188 0 -130 17
-153 22 -32 2 41 8 71 14 73 15 5 22 -126 34 -652 12 -522 26 -992 45 -1555
24 -721 28 -973 16 -966 -6 4 -11 38 -11 79 0 40 -7 191 -15 337 -8 146 -21
486 -30 755 -8 270 -20 578 -25 685 -8 164 -26 743 -31 1010 l-1 75 -9 -50
c-8 -47 -3 -340 21 -1185 6 -201 15 -448 20 -550 10 -184 14 -607 6 -599 -10
9 -46 728 -56 1099 -12 463 -19 597 -30 558 -5 -15 -2 -202 5 -415 7 -213 16
-509 19 -658 4 -148 9 -326 12 -395 3 -69 3 -122 -1 -118 -11 10 -52 696 -64
1063 -6 176 -15 574 -21 885 -5 311 -13 640 -16 733 -7 174 -1 199 31 137z
m-775 -80 c0 -55 -4 -100 -9 -100 -4 0 -11 41 -15 92 -5 70 -4 93 6 99 7 5 14
9 16 9 1 0 2 -45 2 -100z m50 74 c0 -16 -16 -19 -25 -4 -8 13 4 32 16 25 5 -4
9 -13 9 -21z m1990 -22 c0 -28 -3 -33 -10 -22 -13 20 -13 73 0 65 6 -3 10 -23
10 -43z m-560 19 c0 -34 -39 -147 -60 -174 -11 -14 -20 -31 -20 -39 0 -8 -17
-50 -39 -94 -52 -109 -121 -164 -203 -164 -39 0 -98 33 -98 55 0 18 1 18 37 4
66 -25 133 -7 192 52 44 44 70 99 96 205 13 50 33 110 44 132 22 43 51 56 51
23z m-766 -108 c4 -60 11 -306 16 -548 13 -604 37 -1443 51 -1778 9 -206 9
-281 0 -290 -8 -8 -11 5 -11 51 0 33 -7 164 -15 289 -21 330 -34 689 -50 1463
-17 804 -18 933 -6 926 4 -3 11 -54 15 -113z m1533 65 c-3 -7 -5 -2 -5 12 0
14 2 19 5 13 2 -7 2 -19 0 -25z m-1908 -15 c0 -34 -1 -36 -11 -16 -6 12 -8 29
-5 37 11 27 17 18 16 -21z m1301 12 c0 -14 -4 -25 -9 -25 -12 0 -23 29 -15 41
10 18 24 9 24 -16z m97 3 c-3 -8 -6 -5 -6 6 -1 11 2 17 5 13 3 -3 4 -12 1 -19z
m190 0 c-3 -8 -6 -5 -6 6 -1 11 2 17 5 13 3 -3 4 -12 1 -19z m-1004 0 c6 -19
-11 -48 -28 -48 -18 0 -19 14 -5 41 12 22 26 25 33 7z m-980 -58 c5 -29 6 -78
2 -109 -6 -48 -9 -53 -16 -32 -5 13 -12 64 -16 114 -5 75 -4 89 8 85 8 -3 18
-27 22 -58z m152 10 c0 -7 -6 -15 -12 -17 -8 -3 -13 4 -13 17 0 13 5 20 13 18
6 -3 12 -11 12 -18z m2015 -77 c0 -63 -12 -83 -24 -40 -8 29 -8 91 0 112 12
30 24 -6 24 -72z m99 54 c0 -12 -4 -31 -9 -42 -6 -15 -9 -8 -9 28 -1 30 3 46
9 42 6 -3 10 -16 9 -28z m-2329 -104 c0 -64 -2 -114 -4 -112 -10 10 -28 179
-22 203 15 60 26 21 26 -91z m517 75 c-3 -8 -6 -5 -6 6 -1 11 2 17 5 13 3 -3
4 -12 1 -19z m581 -30 c-5 -37 -28 -33 -28 5 0 18 3 37 7 41 10 10 25 -21 21
-46z m662 -10 c0 -45 -3 -59 -10 -48 -13 20 -13 110 0 110 6 0 10 -27 10 -62z
m710 21 c0 -26 3 -29 14 -20 18 15 26 -5 26 -64 0 -53 14 -66 29 -25 12 35 37
40 46 9 4 -12 16 -30 26 -40 23 -23 25 -84 5 -105 -12 -11 -13 -45 -9 -184 6
-157 5 -170 -11 -170 -16 0 -17 -11 -12 -127 3 -71 8 -229 11 -353 3 -124 8
-290 11 -370 7 -204 -11 -159 -25 60 -27 423 -55 572 -45 235 4 -115 7 -228 8
-250 0 -22 -3 -41 -9 -43 -6 -1 -19 83 -31 203 -12 114 -25 209 -29 213 -4 4
-5 -54 -1 -128 11 -236 19 -625 12 -619 -3 3 -15 109 -26 235 -11 126 -23 245
-27 264 -5 20 -10 -115 -13 -315 l-5 -350 -17 185 c-54 576 -59 472 -17 -349
7 -133 7 -207 1 -213 -7 -7 -12 24 -17 89 -11 159 -45 533 -55 603 -10 72 -7
-26 10 -390 10 -205 13 -547 5 -539 -2 3 -14 135 -25 294 -11 158 -21 295 -21
304 -1 9 -5 -4 -10 -29 -4 -25 -8 -151 -10 -280 -2 -253 -10 -236 -24 47 -5
100 -11 151 -18 146 -7 -4 -8 -150 -4 -447 3 -243 3 -463 -1 -491 -5 -33 -10
54 -15 250 -7 270 -31 693 -37 655 -1 -8 -2 -179 -1 -380 0 -367 -10 -443 -23
-165 -10 228 -28 448 -37 465 -4 8 -6 -160 -4 -375 5 -427 -4 -450 -29 -81 -9
120 -18 221 -21 224 -3 3 -5 -147 -5 -333 0 -186 -2 -336 -4 -334 -2 2 -12
128 -21 279 -9 151 -18 276 -20 279 -3 2 -5 -137 -6 -310 -1 -173 -4 -339 -8
-369 -6 -49 -8 -42 -14 70 -18 301 -30 465 -33 469 -2 2 -5 -94 -5 -215 -1
-193 -12 -412 -18 -344 -3 46 -31 465 -31 480 -1 13 -2 13 -9 0 -4 -8 -4 -141
0 -295 5 -154 5 -300 1 -325 -7 -38 -9 -23 -16 90 -4 74 -13 185 -20 245 l-13
110 -2 -265 c-1 -274 -13 -366 -25 -198 -25 351 -52 462 -41 162 5 -119 4
-183 -3 -188 -15 -9 -21 27 -28 149 -4 61 -10 116 -14 123 -4 8 -10 -52 -13
-133 -4 -80 -10 -151 -14 -158 -18 -27 -49 634 -36 758 l9 80 8 -165 c16 -341
23 -288 25 189 1 319 4 482 11 475 5 -5 13 -70 16 -144 13 -261 23 -161 24
219 0 211 3 381 7 377 4 -3 10 -84 14 -179 4 -95 11 -185 15 -202 l8 -30 7 30
c4 17 7 90 8 163 0 72 5 132 10 132 4 0 13 -46 18 -102 8 -88 10 -54 11 239 1
188 6 344 11 347 4 3 14 -79 21 -182 22 -333 27 -360 29 -155 1 117 5 184 12
188 16 11 19 3 26 -71 8 -92 22 -117 23 -39 0 65 9 88 31 83 8 -2 15 7 17 22
3 21 2 22 -12 11 -9 -8 -19 -12 -21 -9 -17 17 -32 343 -16 352 12 8 20 -48 28
-191 3 -68 10 -123 15 -123 4 0 8 71 8 158 0 209 11 407 21 390 5 -7 9 -62 9
-123 0 -163 17 -117 27 75 7 121 11 154 16 125 23 -121 25 -121 26 0 0 66 -4
239 -9 385 -8 246 -3 377 13 310 3 -14 8 -92 11 -175 11 -279 29 -550 38 -565
6 -9 7 97 4 270 -7 359 5 439 23 151 16 -256 29 -299 31 -96 0 113 3 145 11
131 6 -10 9 -35 6 -55 -3 -20 -2 -52 2 -71 5 -25 10 7 15 115 8 173 14 214 27
194 5 -8 9 -60 9 -116 0 -62 4 -103 10 -103 6 0 10 29 10 68 0 69 11 105 25
82 15 -25 25 15 25 103 0 51 4 87 10 87 6 0 10 -18 10 -39 0 -49 8 -71 26 -71
8 0 14 -5 14 -11 0 -5 5 -7 11 -3 6 4 10 35 9 78 -3 94 -2 96 15 96 10 0 15
-10 15 -31z m-650 -35 c0 -21 -4 -33 -10 -29 -5 3 -10 22 -10 41 0 21 4 33 10
29 6 -3 10 -22 10 -41z m-600 5 c0 -10 -4 -19 -10 -19 -5 0 -10 12 -10 26 0
14 4 23 10 19 6 -3 10 -15 10 -26z m947 -11 c-3 -7 -5 -2 -5 12 0 14 2 19 5
13 2 -7 2 -19 0 -25z m-1008 -10 c0 -31 -1 -31 -10 -10 -5 13 -7 28 -3 33 10
16 14 9 13 -23z m-389 -4 c0 -14 -4 -23 -10 -19 -5 3 -10 15 -10 26 0 10 5 19
10 19 6 0 10 -12 10 -26z m1230 -6 c-1 -28 -2 -30 -11 -15 -6 10 -8 25 -5 33
9 24 16 16 16 -18z m-2046 -318 c5 -217 4 -302 -4 -294 -7 7 -12 121 -16 325
-2 184 -1 306 4 294 5 -11 12 -157 16 -325z m111 220 c0 -7 -6 -15 -12 -17 -8
-3 -13 4 -13 17 0 13 5 20 13 18 6 -3 12 -11 12 -18z m-165 -49 c0 -28 -4 -53
-10 -56 -6 -4 -10 15 -10 49 0 31 5 56 10 56 6 0 10 -22 10 -49z m1699 -29 c1
-26 -3 -41 -9 -37 -5 3 -10 32 -9 63 1 67 17 44 18 -26z m-812 -169 c4 -126 3
-183 -5 -183 -19 0 -38 252 -26 357 6 61 8 65 16 38 5 -16 11 -112 15 -212z
m294 113 c1 -39 5 -163 9 -276 l6 -205 2 250 c1 138 6 256 11 264 10 15 35 5
63 -26 15 -16 16 -30 6 -128 -10 -109 -5 -1436 8 -2263 4 -231 2 -378 -3 -383
-11 -11 -18 96 -30 436 -5 143 -9 196 -14 165 -4 -25 -8 -67 -9 -95 -1 -43 -3
-47 -11 -26 -11 27 -21 235 -44 916 -34 990 -43 1454 -28 1469 16 16 33 -32
34 -98z m929 89 c0 -9 -9 -15 -23 -15 -13 0 -28 -5 -35 -12 -9 -9 -12 -6 -12
15 0 24 4 27 35 27 24 0 35 -5 35 -15z m-303 -52 c-3 -10 -5 -4 -5 12 0 17 2
24 5 18 2 -7 2 -21 0 -30z m-1120 -50 c-3 -10 -5 -4 -5 12 0 17 2 24 5 18 2
-7 2 -21 0 -30z m-683 1 c3 -9 6 -68 6 -132 0 -90 -3 -113 -12 -104 -15 15
-25 252 -10 252 5 0 13 -7 16 -16z m743 -147 c-2 -23 -3 -1 -3 48 0 50 1 68 3
42 2 -26 2 -67 0 -90z m2074 70 c-8 -8 -11 -2 -11 19 0 40 14 54 18 19 2 -15
-1 -32 -7 -38z m-2429 38 c0 -5 -5 -11 -11 -13 -6 -2 -11 4 -11 13 0 9 5 15
11 13 6 -2 11 -8 11 -13z m1608 -26 c0 -24 -4 -38 -10 -34 -17 10 -11 75 7 75
2 0 3 -18 3 -41z m-193 -1 c-3 -7 -5 -2 -5 12 0 14 2 19 5 13 2 -7 2 -19 0
-25z m-979 -178 c0 -41 -3 -86 -7 -100 -11 -39 -21 121 -13 215 l7 80 6 -60
c4 -33 7 -94 7 -135z m-718 138 c0 -10 -4 -18 -10 -18 -5 0 -10 15 -10 33 0
24 3 28 10 17 5 -8 10 -23 10 -32z m1274 26 c8 -21 8 -1714 -1 -1932 -4 -125
-9 -170 -17 -162 -7 7 -12 127 -13 373 -1 199 -7 662 -13 1028 -12 681 -11
709 24 709 8 0 17 -7 20 -16z m549 -25 c-8 -29 -13 -23 -13 14 0 22 3 28 9 18
5 -7 6 -22 4 -32z m-1233 -36 c0 -23 -4 -45 -10 -48 -6 -4 -10 17 -10 57 0 44
3 59 10 48 5 -8 10 -34 10 -57z m1478 16 c-2 -6 -8 -10 -13 -10 -5 0 -11 4
-13 10 -2 6 4 11 13 11 9 0 15 -5 13 -11z m575 -51 c4 -13 11 -84 17 -158 7
-74 16 -142 21 -150 8 -11 9 -10 4 7 -7 26 8 38 25 18 16 -20 35 -145 26 -180
-8 -33 -20 -24 -34 25 -9 32 -10 30 -12 -35 -3 -80 -14 -138 -22 -115 -6 16
-25 265 -34 445 -3 61 -7 122 -9 138 -5 32 10 37 18 5z m329 -79 c44 -61 68
-104 68 -121 0 -16 -4 -28 -10 -28 -5 0 -10 6 -10 14 0 18 -76 103 -124 138
-26 19 -33 28 -21 28 15 0 17 6 12 36 -9 53 8 40 85 -67z m-3129 62 c4 -16 9
-107 12 -203 3 -95 9 -216 13 -268 l7 -95 5 114 c5 117 21 158 34 84 10 -64 7
-335 -4 -328 -5 3 -10 24 -10 46 0 23 -5 39 -12 39 -21 0 9 -518 33 -560 6
-11 9 -5 9 20 1 34 2 34 12 10 12 -30 24 -278 13 -268 -5 5 -14 38 -21 75
l-12 68 0 -70 c0 -38 3 -92 7 -120 l7 -50 7 34 c10 48 30 27 32 -34 0 -25 6
-50 13 -57 15 -15 15 -17 1 200 -9 123 -9 176 -1 184 7 7 12 -2 16 -33 8 -66
37 -606 35 -664 -1 -52 -4 -47 -23 38 -7 30 -23 36 -28 10 -8 -33 -28 87 -28
162 0 41 -4 75 -9 75 -5 0 -11 -5 -13 -12 -2 -6 -9 -8 -15 -5 -12 8 -29 100
-39 217 -3 41 -12 84 -19 96 -32 50 -56 226 -76 559 -12 201 -9 498 4 511 18
18 26 -25 20 -116 -5 -98 20 -643 37 -785 6 -44 10 -84 10 -89 0 -6 3 -6 9 -1
5 6 6 47 1 100 -5 50 -13 218 -19 375 -7 157 -16 371 -21 477 -12 236 -12 293
-1 293 5 0 11 -13 14 -29z m-143 -4 c0 -19 -21 -37 -44 -37 -18 0 -18 1 4 25
26 28 40 32 40 12z m2194 -74 c5 -57 4 -83 -3 -83 -7 0 -11 32 -11 87 0 47 2
84 4 82 2 -2 7 -41 10 -86z m-367 45 c-3 -7 -5 -2 -5 12 0 14 2 19 5 13 2 -7
2 -19 0 -25z m312 -225 c0 -52 -3 -95 -9 -98 -7 -4 -9 54 -8 167 1 139 3 158
8 98 4 -41 8 -116 9 -167z m-2235 221 c27 -10 18 -24 -26 -43 -24 -10 -64 -37
-90 -60 -25 -22 -51 -41 -57 -41 -20 0 -11 30 12 39 12 5 31 19 42 31 17 20
93 80 101 80 1 0 9 -3 18 -6z m-164 -69 c0 -8 -4 -15 -10 -15 -5 0 -10 7 -10
15 0 8 5 15 10 15 6 0 10 -7 10 -15z m1150 -65 c0 -47 -4 -80 -10 -80 -6 0
-10 33 -10 80 0 47 4 80 10 80 6 0 10 -33 10 -80z m2110 55 c0 -14 -4 -25 -10
-25 -11 0 -14 33 -3 43 11 11 13 8 13 -18z m-2801 -87 c0 -50 -3 -67 -9 -53
-16 37 -11 125 7 125 2 0 3 -33 2 -72z m2698 40 c-3 -8 -6 -5 -6 6 -1 11 2 17
5 13 3 -3 4 -12 1 -19z m341 -14 c-10 -10 -28 6 -28 24 0 15 1 15 17 -1 9 -9
14 -19 11 -23z m-1471 -51 c-2 -16 -4 -3 -4 27 0 30 2 43 4 28 2 -16 2 -40 0
-55z m-681 -425 c5 -277 4 -418 -3 -418 -11 0 -24 448 -22 744 2 309 17 112
25 -326z m987 477 c4 -8 2 -17 -3 -20 -6 -4 -10 3 -10 14 0 25 6 27 13 6z
m-1316 -162 c-2 -32 -3 -6 -3 57 0 63 1 89 3 58 2 -32 2 -84 0 -115z m263 22
c0 -41 -4 -77 -10 -80 -6 -4 -10 25 -10 80 0 55 4 84 10 80 6 -3 10 -39 10
-80z m-771 3 c-1 -66 -2 -69 -10 -33 -7 36 -3 105 7 105 2 0 3 -33 3 -72z
m-439 14 c0 -28 -3 -33 -10 -22 -13 20 -13 73 0 65 6 -3 10 -23 10 -43z m880
-78 c0 -47 -4 -73 -10 -69 -18 11 -12 145 7 145 2 0 3 -34 3 -76z m1510 61 c0
-8 -4 -15 -10 -15 -5 0 -10 7 -10 15 0 8 5 15 10 15 6 0 10 -7 10 -15z m720
-48 c0 -23 -4 -36 -10 -32 -5 3 -10 27 -10 53 0 34 3 43 10 32 5 -8 10 -32 10
-53z m355 53 c3 -5 -3 -10 -14 -10 -12 0 -21 5 -21 10 0 6 6 10 14 10 8 0 18
-4 21 -10z m-2440 -19 c3 -5 1 -12 -5 -16 -5 -3 -10 1 -10 9 0 18 6 21 15 7z
m945 -147 c0 -88 -4 -133 -10 -129 -6 4 -10 62 -10 141 0 88 4 133 10 129 6
-4 10 -62 10 -141z m357 44 c-3 -7 -5 -2 -5 12 0 14 2 19 5 13 2 -7 2 -19 0
-25z m60 -150 c-2 -35 -3 -7 -3 62 0 69 1 97 3 63 2 -35 2 -91 0 -125z m-1357
123 c0 -17 -4 -33 -10 -36 -6 -4 -10 8 -10 29 0 20 5 36 10 36 6 0 10 -13 10
-29z m2090 -1 c0 -16 -4 -30 -10 -30 -5 0 -10 14 -10 30 0 17 5 30 10 30 6 0
10 -13 10 -30z m-1213 -17 c-3 -10 -5 -4 -5 12 0 17 2 24 5 18 2 -7 2 -21 0
-30z m-696 -266 c-8 -8 -11 30 -9 144 l1 154 10 -143 c7 -104 6 -147 -2 -155z
m886 251 c-3 -8 -6 -5 -6 6 -1 11 2 17 5 13 3 -3 4 -12 1 -19z m1082 -186 c0
-52 -3 -71 -9 -57 -12 29 -12 148 0 140 6 -3 10 -41 9 -83z m-1272 31 c-3 -10
-5 -4 -5 12 0 17 2 24 5 18 2 -7 2 -21 0 -30z m1222 -38 c1 -17 -1 -17 -9 -5
-5 8 -9 26 -9 40 0 23 1 23 9 5 5 -11 9 -29 9 -40z m-969 3 c0 -16 -3 -19 -11
-11 -6 6 -8 16 -5 22 11 17 16 13 16 -11z m-300 3 c0 -12 -20 -25 -27 -18 -7
7 6 27 18 27 5 0 9 -4 9 -9z m-971 -124 c-1 -67 -4 -93 -9 -77 -12 38 -12 192
0 185 6 -4 10 -50 9 -108z m1511 12 c0 -31 -4 -48 -10 -44 -5 3 -10 29 -10 56
0 31 4 48 10 44 6 -3 10 -29 10 -56z m793 -21 c3 -13 9 -48 12 -79 6 -50 4
-58 -19 -86 -24 -28 -26 -39 -26 -119 0 -96 -7 -137 -21 -128 -5 3 -8 101 -8
217 1 196 2 207 13 139 13 -89 26 -84 26 10 0 66 12 91 23 46z m623 -80 c33
-65 66 -158 56 -158 -6 0 -62 123 -88 193 -13 37 7 15 32 -35z m-1594 25 c6
-23 -1 -45 -13 -37 -12 7 -12 54 0 54 5 0 11 -8 13 -17z m-115 -55 c-3 -7 -5
-2 -5 12 0 14 2 19 5 13 2 -7 2 -19 0 -25z m1703 -105 c0 -22 -8 -14 -19 20
-10 29 -9 30 4 13 8 -11 15 -26 15 -33z m-1641 -35 c0 -45 -3 -57 -9 -43 -12
28 -12 105 0 105 6 0 10 -27 9 -62z m-1742 20 c-3 -8 -6 -5 -6 6 -1 11 2 17 5
13 3 -3 4 -12 1 -19z m50 -25 c-3 -10 -5 -4 -5 12 0 17 2 24 5 18 2 -7 2 -21
0 -30z m1378 -53 c-4 -11 -11 -18 -16 -15 -11 7 -12 48 -2 59 11 11 25 -23 18
-44z m265 8 c0 -19 -2 -20 -10 -8 -13 19 -13 30 0 30 6 0 10 -10 10 -22z
m-883 -378 c0 -181 -2 -206 -7 -125 -4 55 -7 195 -7 310 0 164 2 191 8 125 4
-47 7 -186 6 -310z m-1702 324 c-23 -71 -157 -341 -162 -327 -4 10 113 277
159 366 17 34 19 11 3 -39z m4333 31 c16 -34 15 -40 -2 -26 -16 13 -28 51 -17
51 4 0 13 -11 19 -25z m-2572 -208 c5 -108 4 -139 -5 -131 -8 7 -13 68 -16
170 -6 198 11 167 21 -39z m693 23 c0 -41 -3 -93 -7 -115 -6 -35 -8 -30 -13
45 -3 47 -3 121 0 165 5 79 5 79 12 30 4 -27 8 -84 8 -125z m191 62 c0 -33 -4
-51 -10 -47 -5 3 -10 34 -10 68 0 44 3 58 10 47 5 -8 10 -39 10 -68z m1784 62
c10 -26 -5 -39 -21 -19 -7 11 -13 22 -13 27 0 15 28 8 34 -8z m-1847 -61 c-2
-16 -4 -5 -4 22 0 28 2 40 4 28 2 -13 2 -35 0 -50z m981 -69 c-2 -67 -7 -99
-15 -102 -10 -3 -13 21 -13 96 0 55 3 108 6 117 15 37 25 -15 22 -111z m-1923
-11 c4 -63 3 -103 -3 -103 -10 0 -22 93 -22 173 0 88 17 38 25 -70z m-615 -53
c0 -33 -17 -49 -26 -26 -8 22 4 68 16 61 6 -3 10 -19 10 -35z m1509 -260 c0
-123 -3 -180 -9 -170 -6 9 -9 109 -8 240 0 149 3 206 8 170 5 -30 8 -138 9
-240z m-214 220 c0 -7 -6 -15 -12 -17 -8 -3 -13 4 -13 17 0 13 5 20 13 18 6
-3 12 -11 12 -18z m2274 9 c31 -11 32 -12 14 -31 -10 -11 -31 -27 -47 -35 -47
-24 -54 13 -13 65 11 15 7 14 46 1z m-1939 -74 c0 -29 -16 -41 -24 -19 -8 21
3 56 15 49 5 -4 9 -17 9 -30z m-1629 -112 c-8 -14 -10 -4 -10 42 l1 60 10 -42
c6 -28 6 -49 -1 -60z m2414 -241 c-11 -12 -19 11 -18 51 1 23 5 98 10 167 l8
125 3 -169 c1 -93 0 -171 -3 -174z m75 279 c0 -20 -7 -46 -15 -57 -13 -18 -14
-16 -15 21 0 50 10 86 21 79 5 -3 9 -22 9 -43z m-1051 -203 c1 -60 -3 -108 -8
-108 -17 0 -28 196 -14 261 l7 34 7 -40 c5 -22 8 -88 8 -147z m-139 126 c0
-19 -4 -34 -10 -34 -5 0 -10 18 -10 41 0 24 4 38 10 34 6 -3 10 -22 10 -41z
m-553 -51 c-3 -10 -5 -2 -5 17 0 19 2 27 5 18 2 -10 2 -26 0 -35z m825 -40
c-10 -26 -10 -24 -11 22 0 42 2 46 11 28 7 -15 7 -30 0 -50z m-1556 -50 c5
-56 3 -82 -5 -87 -7 -5 -11 2 -11 17 0 13 -3 60 -6 103 -4 56 -2 74 5 63 6 -9
13 -52 17 -96z m-1166 90 c0 -16 -65 -73 -84 -73 -17 0 -14 6 19 40 35 36 65
51 65 33z m2507 -45 c-3 -8 -6 -5 -6 6 -1 11 2 17 5 13 3 -3 4 -12 1 -19z
m2531 -45 c-4 -32 -38 -46 -38 -16 0 20 18 43 33 43 4 0 7 -12 5 -27z m-2588
-78 c0 -24 -4 -47 -10 -50 -6 -4 -10 15 -10 50 0 35 4 54 10 50 6 -3 10 -26
10 -50z m57 13 c-3 -7 -5 -2 -5 12 0 14 2 19 5 13 2 -7 2 -19 0 -25z m1152
-69 c13 -28 20 -53 18 -56 -6 -6 -57 79 -57 95 0 27 19 8 39 -39z m-1752 -11
c-3 -7 -5 -2 -5 12 0 14 2 19 5 13 2 -7 2 -19 0 -25z m1540 0 c-3 -8 -6 -5 -6
6 -1 11 2 17 5 13 3 -3 4 -12 1 -19z m-940 -20 c-3 -7 -5 -2 -5 12 0 14 2 19
5 13 2 -7 2 -19 0 -25z m93 -15 c0 -13 -4 -23 -10 -23 -5 0 -10 17 -10 38 0
27 3 33 10 22 5 -8 10 -25 10 -37z m-2800 17 c0 -5 -13 -10 -30 -10 -16 0 -30
5 -30 10 0 6 14 10 30 10 17 0 30 -4 30 -10z m2882 -550 c19 -475 17 -576 -11
-532 -14 23 -21 283 -19 697 1 442 7 412 30 -165z m-1437 345 c5 -103 4 -126
-6 -111 -7 12 -13 74 -15 160 -5 180 13 140 21 -49z m4147 138 c19 -17 25 -63
9 -63 -14 0 -41 41 -41 62 0 22 8 23 32 1z m-3595 -25 c-3 -8 -6 -5 -6 6 -1
11 2 17 5 13 3 -3 4 -12 1 -19z m645 7 c0 -5 -5 -11 -11 -13 -6 -2 -11 4 -11
13 0 9 5 15 11 13 6 -2 11 -8 11 -13z m-1252 -25 c0 -11 -4 -20 -10 -20 -5 0
-10 9 -10 20 0 11 5 20 10 20 6 0 10 -9 10 -20z m2571 -123 c23 -73 47 -137
55 -143 32 -26 1 -54 -60 -54 -35 0 -47 12 -26 25 6 3 10 34 10 68 0 39 -3 57
-9 48 -7 -11 -11 -10 -18 5 -15 30 -36 114 -30 120 3 3 8 -8 12 -25 3 -16 13
-35 21 -42 18 -15 18 -4 -1 57 -17 57 -19 88 -5 79 5 -3 28 -65 51 -138z
m-4141 88 c-7 -9 -15 -13 -18 -10 -3 2 1 11 8 20 7 9 15 13 18 10 3 -2 -1 -11
-8 -20z m2300 -22 c-1 -24 -2 -26 -11 -10 -5 9 -7 22 -4 27 10 17 15 11 15
-17z m433 -251 c-2 -284 -11 -462 -23 -462 -9 0 -13 717 -4 731 4 7 10 7 18
-1 8 -8 10 -87 9 -268z m997 226 c0 -10 -4 -18 -10 -18 -5 0 -10 15 -10 33 0
24 3 28 10 17 5 -8 10 -23 10 -32z m97 5 c-3 -10 -5 -4 -5 12 0 17 2 24 5 18
2 -7 2 -21 0 -30z m-2352 -4 c-9 -17 -19 -28 -22 -25 -6 6 23 56 32 56 3 0 -2
-14 -10 -31z m105 -16 c0 -7 -4 -13 -9 -13 -10 0 -21 36 -13 45 7 7 22 -15 22
-32z m107 -96 c4 -79 3 -117 -4 -117 -19 0 -23 28 -23 143 0 148 18 130 27
-26z m1291 -182 c-1 -173 -4 -257 -8 -220 -11 85 -11 545 0 520 5 -11 8 -146
8 -300z m-1593 207 c-56 -118 -95 -150 -116 -94 -18 47 -22 82 -10 82 6 0 11
-6 11 -14 0 -7 7 -19 15 -26 21 -17 37 -2 87 84 53 90 61 69 13 -32z m991 -32
c5 -80 3 -112 -4 -105 -6 6 -13 62 -17 125 -5 82 -4 112 4 105 5 -6 13 -62 17
-125z m205 25 c0 -48 -2 -90 -5 -93 -4 -3 -6 39 -6 93 0 54 2 96 6 93 3 -3 5
-45 5 -93z m3515 -29 c75 -68 102 -110 83 -132 -19 -23 -46 -16 -59 15 -6 16
-18 32 -26 35 -8 3 -14 15 -14 26 0 13 -7 20 -18 20 -27 0 -81 61 -88 99 l-7
34 32 -19 c18 -10 62 -45 97 -78z m-2316 8 c0 -24 -4 -44 -10 -44 -5 0 -10 23
-10 51 0 31 4 48 10 44 6 -3 10 -26 10 -51z m-950 5 c0 -16 -4 -29 -10 -29
-12 0 -24 45 -15 60 11 18 25 1 25 -31z m-3000 13 c0 -19 -23 -31 -42 -21 -27
15 -22 29 12 29 17 0 30 -4 30 -8z m1910 -108 c0 -61 -4 -93 -10 -89 -6 3 -10
49 -10 101 0 61 4 93 10 89 6 -3 10 -49 10 -101z m1159 9 c0 -53 -3 -72 -9
-58 -12 28 -12 135 0 135 6 0 10 -32 9 -77z m-472 -25 c-2 -18 -4 -6 -4 27 0
33 2 48 4 33 2 -15 2 -42 0 -60z m-1038 23 c-12 -23 -24 -39 -26 -37 -3 2 5
23 17 46 12 23 24 40 27 37 3 -3 -5 -24 -18 -46z m2328 -23 c-2 -13 -4 -5 -4
17 -1 22 1 32 4 23 2 -10 2 -28 0 -40z m-1913 -9 c15 -75 2 -203 -18 -171 -10
16 -19 148 -12 176 9 35 22 33 30 -5z m63 -153 c5 -95 4 -106 -10 -106 -15 0
-17 15 -17 123 1 150 17 139 27 -17z m722 92 c5 -13 6 -27 3 -32 -6 -10 -20
19 -21 42 -1 20 9 14 18 -10z m-1178 -7 c26 -21 21 -36 -8 -27 -25 8 -49 46
-29 46 7 0 24 -9 37 -19z m-1918 -78 c4 -20 -1 -35 -16 -50 -20 -23 -44 -32
-32 -13 3 5 1 19 -5 30 -14 26 3 60 29 60 12 0 20 -9 24 -27z m2414 -35 c-3
-8 -6 -5 -6 6 -1 11 2 17 5 13 3 -3 4 -12 1 -19z m1702 -30 c-1 -18 -5 -44 -9
-58 -6 -19 -8 -11 -9 33 -1 32 3 57 9 57 6 0 10 -15 9 -32z m-4195 -14 c23
-33 11 -46 -38 -42 l-36 3 20 33 c24 38 29 39 54 6z m2510 -97 c0 -34 -3 -64
-9 -67 -6 -3 -11 27 -12 80 -2 65 0 81 8 67 6 -11 12 -47 13 -80z m2274 -32
c0 -43 -2 -46 -8 -20 -4 17 -8 53 -8 80 0 43 2 46 8 20 4 -16 8 -52 8 -80z
m-4938 75 c0 -5 -17 -21 -37 -34 -21 -13 -56 -42 -78 -65 -37 -39 -55 -50 -55
-33 0 13 81 106 109 124 29 20 61 24 61 8z m2714 -47 c9 -59 7 -118 -3 -107
-14 13 -26 144 -14 144 6 0 13 -17 17 -37z m676 -24 c0 -31 -14 -39 -24 -13
-8 21 3 56 15 49 5 -4 9 -19 9 -36z m-611 -116 c1 -39 -3 -75 -9 -78 -6 -4
-10 29 -9 92 0 64 3 91 9 78 5 -11 9 -52 9 -92z m1448 50 c-3 -10 -5 -4 -5 12
0 17 2 24 5 18 2 -7 2 -21 0 -30z m-499 -153 c-1 -99 -2 -107 -8 -55 -11 83
-10 227 0 195 4 -14 8 -77 8 -140z m451 58 c1 -15 -3 -30 -9 -33 -6 -4 -10 16
-9 52 1 44 3 52 9 33 4 -14 8 -37 9 -52z m-57 -90 c-14 -14 -28 54 -17 79 6
14 11 8 18 -25 7 -30 7 -46 -1 -54z m-1276 38 c6 -26 -1 -46 -17 -46 -5 0 -9
16 -9 35 0 40 17 47 26 11z m110 -79 c6 -40 -5 -65 -25 -53 -6 4 -11 28 -11
53 l0 45 -20 -23 -19 -24 -1 48 0 48 34 -28 c25 -19 37 -38 42 -66z m1119 13
c0 -27 -20 -38 -28 -15 -8 20 3 47 17 42 6 -2 11 -14 11 -27z m-192 -82 c-3
-15 -9 -25 -14 -22 -11 6 -12 98 -2 108 11 11 23 -54 16 -86z m-878 51 c8 -35
-2 -99 -14 -99 -14 0 -22 47 -15 90 8 48 20 52 29 9z m63 -77 c-2 -29 -7 -52
-13 -53 -15 0 -27 70 -20 111 7 33 7 34 21 15 10 -13 14 -38 12 -73z m591 30
c-1 -83 -18 -95 -18 -14 -1 46 3 71 9 67 6 -3 10 -27 9 -53z m351 -2 c0 -11
-4 -20 -10 -20 -5 0 -10 9 -10 20 0 11 5 20 10 20 6 0 10 -9 10 -20z m-890
-90 c0 -27 -4 -50 -10 -50 -5 0 -10 23 -10 50 0 28 5 50 10 50 6 0 10 -22 10
-50z m62 -25 c3 -15 11 -20 31 -18 22 1 27 -2 27 -23 0 -21 -4 -24 -39 -24
-48 0 -55 9 -46 61 7 41 20 42 27 4z m598 -10 c0 -33 -4 -45 -15 -45 -16 0
-21 43 -9 74 12 31 24 16 24 -29z m103 12 c-3 -5 -10 -4 -15 1 -6 6 -7 16 -3
22 6 9 9 9 16 -1 4 -7 5 -17 2 -22z m-313 -32 c0 -25 -4 -45 -10 -45 -5 0 -10
20 -10 45 0 25 5 45 10 45 6 0 10 -20 10 -45z m69 -57 c1 -10 -6 -18 -14 -18
-16 0 -20 45 -8 90 7 23 8 21 15 -15 4 -22 7 -48 7 -57z m50 12 c0 -20 -1 -22
-9 -10 -5 8 -9 33 -9 55 1 39 2 39 9 10 4 -16 8 -41 9 -55z m-399 35 c0 -14
-4 -25 -10 -25 -5 0 -10 11 -10 25 0 14 5 25 10 25 6 0 10 -11 10 -25z m60
-29 c0 -8 -4 -18 -10 -21 -5 -3 -10 3 -10 14 0 12 5 21 10 21 6 0 10 -6 10
-14z m390 0 c0 -16 -18 -31 -27 -22 -8 8 5 36 17 36 5 0 10 -6 10 -14z m-1863
-133 c11 -8 13 -20 8 -42 -7 -32 -20 -40 -29 -18 -9 22 -34 -22 -47 -82 -6
-31 -16 -64 -21 -75 -9 -17 -11 -17 -26 -2 -14 14 -14 17 0 33 9 10 20 40 26
66 5 26 23 81 38 122 26 67 29 71 32 42 2 -18 10 -37 19 -44z m-51 -300 c-10
-26 -18 -8 -9 23 5 21 8 24 11 11 2 -10 1 -25 -2 -34z m-62 -45 c-10 -63 -27
-84 -20 -25 6 47 12 67 22 67 2 0 1 -19 -2 -42z m3516 -70 c0 -6 -7 -5 -15 2
-8 7 -15 17 -15 22 0 6 7 5 15 -2 8 -7 15 -17 15 -22z m-3487 -144 c-6 -63
-15 -101 -26 -111 -15 -15 -17 -15 -23 1 -7 18 7 112 27 190 8 28 13 36 22 27
8 -8 8 -37 0 -107z m3455 103 c6 -6 13 -26 16 -42 6 -28 6 -28 -5 -7 -7 12
-16 22 -21 22 -4 0 -8 -10 -9 -22 l0 -23 -9 22 c-9 22 -3 63 10 63 4 0 12 -6
18 -13z m72 -13 c0 -8 -4 -12 -10 -9 -5 3 -10 10 -10 16 0 5 5 9 10 9 6 0 10
-7 10 -16z m-3603 -82 c-9 -26 -18 -59 -21 -74 -4 -16 -11 -28 -17 -28 -7 0
-9 10 -6 23 3 12 11 49 17 82 7 33 18 66 24 74 18 23 20 -22 3 -77z m-91 -70
c-14 -14 -16 -14 -16 -1 0 20 23 44 29 28 2 -6 -4 -18 -13 -27z m3862 -38 c6
-2 12 -10 12 -19 0 -20 -44 -20 -64 1 -32 31 -13 38 52 18z m222 -63 c0 -18
-42 -61 -61 -61 -22 0 -27 38 -7 58 14 14 68 16 68 3z m181 -110 c-12 -21 -45
-29 -56 -12 -3 5 7 19 22 30 31 25 51 14 34 -18z m-4299 -11 c-36 -33 -76 -41
-70 -13 2 9 21 22 43 29 60 18 63 16 27 -16z m4518 -54 c0 -20 -48 -56 -66
-49 -21 8 -17 30 8 47 28 20 58 21 58 2z m250 -79 c0 -16 -20 -37 -35 -37 -7
0 -17 11 -23 25 -11 24 -10 25 23 25 22 0 35 -5 35 -13z m230 -152 c14 -7 40
-29 58 -47 35 -38 35 -68 -1 -68 -23 0 -89 65 -113 111 -15 30 -15 31 8 24 13
-4 34 -13 48 -20z m-5495 5 c9 -15 -32 -50 -60 -50 -30 0 -35 33 -7 49 22 13
59 14 67 1z m-222 -93 c38 8 33 -17 -6 -31 -21 -8 -31 -6 -43 6 -9 9 -13 21
-9 28 5 8 10 9 18 1 5 -5 23 -7 40 -4z m-313 -112 c-7 -8 -18 -15 -24 -15 -14
0 -59 -40 -53 -47 3 -2 22 3 42 11 77 33 70 7 -9 -30 -59 -27 -104 -31 -112
-9 -9 24 15 45 90 81 71 34 89 37 66 9z m6180 -60 c0 -8 -7 -15 -15 -15 -16 0
-20 12 -8 23 11 12 23 8 23 -8z"/>
<path d="M8351 8924 c-12 -15 -21 -34 -21 -43 1 -21 50 33 50 55 0 20 -6 18
-29 -12z"/>
<path d="M8286 8814 c-11 -28 -6 -38 9 -18 8 10 15 22 15 27 0 13 -18 7 -24
-9z"/>
<path d="M5343 8115 c0 -22 2 -30 4 -17 2 12 2 30 0 40 -3 9 -5 -1 -4 -23z"/>
<path d="M5220 7956 c0 -41 5 -78 10 -81 6 -4 10 23 10 74 0 47 -4 81 -10 81
-6 0 -10 -31 -10 -74z"/>
<path d="M3762 7845 c0 -16 2 -22 5 -12 2 9 2 23 0 30 -3 6 -5 -1 -5 -18z"/>
<path d="M7266 7844 c-4 -10 -1 -14 6 -12 15 5 23 28 10 28 -5 0 -13 -7 -16
-16z"/>
<path d="M3253 6910 c0 -36 2 -50 4 -32 2 17 2 47 0 65 -2 17 -4 3 -4 -33z"/>
<path d="M5086 6849 c-5 -32 -5 -72 0 -90 l8 -34 8 45 c4 25 4 66 -1 90 l-8
45 -7 -56z"/>
<path d="M4920 6745 c0 -57 4 -95 10 -95 6 0 10 38 10 95 0 57 -4 95 -10 95
-6 0 -10 -38 -10 -95z"/>
<path d="M5031 6638 c-1 -48 3 -90 9 -93 12 -7 12 118 0 155 -5 17 -8 -3 -9
-62z"/>
<path d="M2720 6452 c0 -15 26 -22 109 -27 l76 -5 -44 15 c-61 20 -141 30
-141 17z"/>
<path d="M5531 5234 c0 -11 3 -14 6 -6 3 7 2 16 -1 19 -3 4 -6 -2 -5 -13z"/>
<path d="M5722 4880 c0 -14 2 -19 5 -12 2 6 2 18 0 25 -3 6 -5 1 -5 -13z"/>
<path d="M5671 4814 c0 -11 3 -14 6 -6 3 7 2 16 -1 19 -3 4 -6 -2 -5 -13z"/>
<path d="M5411 4114 c0 -11 3 -14 6 -6 3 7 2 16 -1 19 -3 4 -6 -2 -5 -13z"/>
<path d="M4282 4460 c0 -14 2 -19 5 -12 2 6 2 18 0 25 -3 6 -5 1 -5 -13z"/>
<path d="M4290 3996 c0 -8 5 -18 10 -21 6 -3 10 1 10 9 0 8 -4 18 -10 21 -5 3
-10 -1 -10 -9z"/>
<path d="M4314 3650 c0 -80 2 -112 3 -72 2 39 2 105 0 145 -1 39 -3 7 -3 -73z"/>
<path d="M3176 3432 c-3 -5 -1 -30 3 -58 l9 -49 1 58 c1 55 -2 66 -13 49z"/>
</g>
</svg>
