<?xml version="1.0" standalone="no"?>
<!DOCTYPE svg PUBLIC "-//W3C//DTD SVG 20010904//EN"
 "http://www.w3.org/TR/2001/REC-SVG-20010904/DTD/svg10.dtd">
<svg version="1.0" xmlns="http://www.w3.org/2000/svg"
 width="1280.000000pt" height="1177.000000pt" viewBox="0 0 1280.000000 1177.000000"
 preserveAspectRatio="xMidYMid meet">
<metadata>
Created by potrace 1.15, written by Peter Selinger 2001-2017
</metadata>
<g transform="translate(0.000000,1177.000000) scale(0.100000,-0.100000)"
fill="#000000" stroke="none">
<path d="M10632 11719 c-38 -72 -70 -104 -124 -123 -26 -10 -84 -39 -129 -67
-45 -27 -86 -49 -90 -49 -4 0 -9 -3 -11 -7 -1 -5 -22 -21 -46 -37 -37 -25 -46
-27 -68 -18 -33 16 -69 15 -81 0 -6 -7 -16 -35 -22 -63 -17 -70 -55 -131 -100
-159 -34 -22 -40 -32 -68 -127 -17 -57 -35 -120 -38 -139 -4 -19 -16 -59 -27
-87 -16 -44 -24 -53 -43 -53 -41 0 -55 -43 -62 -200 -6 -140 -6 -141 -33 -155
-45 -23 -55 -60 -70 -255 -6 -74 -17 -171 -25 -215 -12 -72 -20 -158 -40 -437
l-7 -88 -34 0 c-19 0 -64 -13 -101 -30 -36 -16 -70 -30 -74 -30 -16 0 -9 29
20 92 16 35 33 77 36 93 5 25 1 21 -29 -24 -20 -30 -40 -57 -45 -61 -12 -7
-71 -130 -71 -147 0 -33 -21 -6 -45 60 -15 39 -32 76 -36 81 -16 18 -9 -47 12
-114 11 -36 17 -75 14 -87 -6 -26 -70 -77 -85 -68 -5 3 -10 29 -10 56 0 79
-17 48 -22 -41 -3 -44 -10 -86 -16 -92 -20 -20 -58 1 -134 77 -41 41 -81 75
-87 75 -29 0 0 -47 92 -153 26 -30 47 -57 47 -61 0 -13 -69 -36 -109 -36 -21
0 -68 9 -102 20 -35 10 -65 17 -68 14 -3 -2 13 -22 34 -44 l39 -40 -87 -39
c-83 -39 -362 -142 -423 -157 -16 -4 -72 -28 -124 -54 -52 -26 -185 -82 -295
-125 -110 -42 -247 -96 -305 -120 -58 -24 -161 -62 -230 -86 -69 -23 -183 -67
-255 -97 -71 -30 -173 -69 -225 -87 -135 -47 -337 -123 -535 -200 -157 -62
-245 -87 -245 -71 0 4 5 50 11 104 l11 97 61 65 c48 50 58 65 45 68 -10 2 -30
-6 -44 -17 -60 -47 -70 -17 -19 55 42 58 43 66 10 58 -21 -5 -25 -3 -25 16 0
42 -37 89 -72 90 -10 0 -18 5 -18 10 0 6 78 90 173 187 181 184 416 389 565
491 49 33 93 67 99 74 6 7 13 56 16 108 5 80 14 122 61 263 31 92 74 202 95
245 21 42 55 120 74 172 20 52 43 112 51 132 10 24 14 52 10 80 -5 42 -4 45
69 126 41 46 80 94 87 108 12 22 11 27 -15 54 l-29 30 92 94 c91 92 100 107
83 135 -7 11 5 31 48 76 72 77 90 116 68 148 -14 21 -11 27 50 117 36 52 102
141 147 197 l81 102 90 1 c122 0 163 13 180 53 21 50 8 57 -114 57 -68 0 -111
4 -119 12 -6 6 -25 11 -42 10 -23 0 -30 4 -30 19 0 32 -28 89 -43 89 -32 0
-37 -80 -7 -110 20 -20 20 -20 0 -32 -12 -7 -32 -32 -45 -54 -14 -23 -37 -47
-54 -54 -23 -9 -51 -44 -110 -139 -44 -70 -83 -139 -86 -154 -8 -31 -20 -42
-58 -51 -18 -4 -32 -17 -41 -39 -16 -37 -37 -117 -44 -165 -3 -25 -14 -39 -41
-56 -32 -20 -42 -37 -75 -125 l-38 -101 -39 0 c-43 0 -59 -19 -59 -67 0 -15
-8 -66 -17 -112 -14 -65 -23 -87 -41 -99 -33 -22 -41 -42 -53 -133 -5 -44 -21
-115 -34 -157 -13 -42 -31 -122 -40 -177 -10 -55 -28 -143 -41 -195 -13 -52
-24 -106 -24 -121 0 -74 -10 -90 -75 -119 -35 -16 -80 -44 -102 -62 -21 -19
-52 -45 -69 -59 -156 -123 -281 -228 -340 -285 -79 -77 -211 -250 -298 -391
-54 -87 -107 -143 -135 -143 -28 0 -83 -34 -96 -61 -8 -15 -15 -46 -15 -69 0
-22 -1 -40 -2 -40 -2 0 -25 7 -52 15 -91 28 -90 -6 3 -74 l69 -50 6 -58 c3
-32 11 -89 17 -128 21 -133 22 -160 6 -173 -15 -13 -212 -94 -406 -168 -73
-28 -126 -54 -146 -74 -41 -40 -91 -41 -126 -4 -13 14 -42 35 -64 46 -22 11
-62 39 -90 62 -27 23 -70 54 -95 68 -25 15 -82 57 -127 95 -46 37 -128 99
-182 137 -55 38 -102 75 -105 83 -8 21 19 26 60 13 33 -11 39 -11 51 6 12 17
11 21 -9 38 -20 16 -34 18 -105 12 -45 -3 -84 -3 -86 1 -3 5 14 68 38 141 34
104 39 130 25 117 -23 -21 -110 -199 -110 -225 0 -23 -1 -24 -35 -8 -24 11
-25 14 -25 105 0 112 -14 120 -45 27 -11 -32 -21 -61 -22 -63 -5 -8 -62 22
-82 43 -12 13 -42 70 -66 127 -24 57 -49 105 -54 107 -20 7 -24 -29 -11 -86 7
-32 12 -59 12 -61 -1 -2 -30 -13 -65 -26 -63 -22 -66 -22 -118 -5 -108 34
-389 154 -609 260 -124 59 -260 124 -302 143 -43 20 -78 42 -78 49 0 7 8 48
17 90 9 43 13 81 9 85 -14 14 -41 -15 -55 -58 -28 -88 -34 -99 -51 -99 -24 0
-67 36 -85 70 -8 15 -17 57 -21 94 -5 45 -11 66 -20 66 -20 0 -44 -53 -44 -96
l0 -37 -25 23 c-14 13 -32 46 -40 73 -27 93 -55 99 -55 12 0 -48 -2 -53 -20
-48 -11 3 -33 0 -50 -7 -36 -15 -108 6 -167 49 -21 15 -103 67 -183 116 -80
48 -176 110 -215 135 -38 26 -107 69 -152 95 -46 25 -124 78 -175 116 -58 44
-102 69 -118 69 -37 0 -67 25 -107 89 -51 81 -72 101 -105 101 -38 0 -64 28
-115 120 -45 82 -65 104 -104 113 -19 5 -35 23 -59 69 -50 95 -69 118 -111
135 -23 9 -47 29 -59 48 -23 37 -104 117 -202 199 -37 31 -70 66 -73 77 -4 12
-18 37 -31 56 -13 20 -24 43 -24 52 0 28 -91 172 -116 183 -48 22 -70 -18 -39
-72 34 -60 7 -135 -53 -146 -50 -9 -102 -41 -102 -64 0 -33 22 -40 91 -29 52
8 73 7 116 -6 56 -18 142 -70 150 -91 3 -8 44 -46 91 -86 101 -86 142 -144
142 -202 0 -58 18 -85 73 -115 74 -40 149 -109 142 -131 -9 -27 36 -73 120
-121 41 -23 75 -46 75 -50 0 -3 -7 -12 -15 -19 -28 -24 -18 -57 28 -88 66 -44
128 -78 169 -91 37 -12 45 -25 62 -103 12 -51 119 -115 651 -384 351 -177 380
-194 385 -220 5 -26 45 -57 104 -77 7 -3 5 -11 -6 -24 -10 -11 -18 -22 -18
-24 0 -3 39 -5 88 -5 74 1 100 -4 172 -31 47 -17 135 -49 195 -71 61 -22 191
-70 290 -107 99 -37 232 -84 295 -105 63 -21 162 -58 219 -83 95 -41 108 -50
137 -93 18 -26 30 -52 27 -56 -2 -5 -22 -20 -44 -34 -65 -41 -30 -52 69 -22
30 9 37 6 82 -28 28 -21 50 -40 50 -43 0 -3 -16 -32 -36 -63 -19 -32 -32 -62
-29 -68 13 -21 45 -9 72 28 15 20 32 40 37 44 18 12 61 -19 182 -132 65 -62
161 -146 212 -187 51 -41 92 -79 89 -86 -5 -15 -43 -24 -146 -36 -112 -13
-185 -36 -221 -69 -34 -31 -44 -72 -56 -224 -4 -54 -9 -98 -13 -98 -3 0 -19
21 -36 48 -42 68 -166 232 -175 232 -4 0 -36 28 -72 63 -69 68 -190 137 -308
177 -61 21 -71 21 -175 10 -134 -14 -191 -32 -252 -82 -25 -21 -52 -42 -58
-46 -7 -4 -23 -27 -35 -51 -43 -86 -59 -168 -69 -374 -6 -109 -13 -203 -17
-209 -4 -5 -6 -30 -6 -54 1 -33 -5 -51 -25 -74 -46 -55 -101 -75 -241 -90
-107 -11 -152 -31 -204 -89 -20 -23 -42 -41 -50 -41 -45 1 -118 30 -231 92
-113 60 -135 69 -166 64 -74 -11 -133 -118 -81 -146 19 -10 44 -2 90 31 12 9
30 4 80 -21 36 -18 114 -49 174 -70 l109 -36 3 -77 c3 -92 1 -94 -122 -131
-43 -14 -108 -35 -143 -49 -64 -24 -65 -24 -105 -6 -52 23 -96 25 -96 3 0 -22
18 -54 48 -86 37 -40 80 -37 198 16 55 24 115 47 134 51 19 4 54 16 78 26 l44
19 50 -45 c58 -52 96 -65 198 -65 114 -1 170 -34 244 -145 25 -38 26 -45 26
-180 1 -134 8 -216 29 -333 11 -61 69 -172 97 -187 10 -6 41 -25 67 -42 71
-46 129 -57 276 -50 142 7 256 32 333 74 106 58 322 322 380 465 13 32 26 58
29 58 3 0 5 -44 5 -97 1 -142 24 -198 107 -253 37 -25 68 -39 80 -36 22 5 47
-2 47 -14 0 -5 -28 -24 -62 -42 -35 -18 -83 -53 -108 -78 -41 -41 -43 -44 -23
-48 22 -3 101 36 220 111 34 21 67 36 73 32 14 -9 -16 -65 -35 -65 -18 0 -49
-46 -40 -60 12 -20 37 -9 90 41 l54 51 53 -7 c66 -8 88 -14 88 -24 0 -11 -168
-105 -263 -146 -45 -20 -118 -58 -162 -84 -126 -74 -122 -73 -209 -45 -88 28
-187 32 -206 9 -19 -23 -4 -33 62 -40 80 -8 130 -24 125 -38 -4 -14 -100 -72
-134 -82 -17 -5 -23 -2 -23 9 0 23 -39 39 -83 33 -83 -11 -71 -47 17 -47 47 0
48 -1 42 -26 -4 -14 -2 -42 5 -61 9 -28 9 -38 -2 -47 -15 -14 -228 -111 -374
-171 -112 -46 -286 -127 -470 -217 -77 -37 -156 -71 -176 -74 -21 -4 -93 3
-164 16 -127 21 -180 21 -172 -3 2 -6 33 -21 68 -32 77 -24 90 -31 83 -49 -13
-33 -53 -38 -200 -25 -114 10 -148 10 -170 0 -37 -16 -22 -28 51 -42 33 -6 64
-14 69 -19 14 -14 -52 -109 -88 -127 -87 -44 -368 -250 -457 -335 -13 -13 -60
-50 -103 -83 -44 -32 -106 -82 -139 -112 -33 -29 -64 -53 -69 -53 -5 0 -15
-15 -23 -32 -8 -18 -75 -94 -150 -168 -97 -96 -145 -151 -166 -192 -16 -31
-55 -85 -87 -120 -87 -93 -89 -99 -50 -144 31 -35 32 -38 14 -48 -11 -6 -28
-22 -40 -34 -25 -29 -97 -72 -118 -72 -38 0 -62 -62 -44 -115 5 -15 -10 -39
-69 -104 -41 -46 -89 -109 -107 -139 -46 -81 -96 -128 -162 -152 -100 -38
-181 -115 -154 -147 16 -20 39 -16 88 17 45 30 90 40 90 20 0 -25 50 -60 84
-60 26 0 46 -10 82 -41 53 -46 78 -47 82 -4 2 28 -5 42 -50 106 -14 20 -15 33
-7 73 14 75 48 141 135 258 78 105 80 106 124 110 l45 3 33 85 c74 191 64 175
101 172 45 -5 62 14 128 140 57 109 81 140 143 181 32 21 63 71 148 236 16 32
18 33 67 28 l50 -5 135 132 c114 111 450 410 525 469 23 17 23 17 42 -22 l19
-39 -22 -43 c-27 -52 -28 -59 -11 -59 8 0 31 25 53 55 21 30 42 54 47 55 4 0
27 -20 50 -45 45 -47 73 -56 84 -29 7 18 5 20 -41 78 -43 55 -33 75 72 137 48
29 113 70 145 92 32 21 61 36 64 34 2 -3 -1 -30 -8 -60 -12 -56 -8 -87 10 -87
15 0 35 45 55 122 10 36 26 75 37 87 23 24 78 55 86 47 3 -2 -3 -28 -12 -56
-17 -52 -14 -93 6 -73 6 6 30 48 52 94 51 101 95 139 267 226 145 73 405 218
447 249 35 27 54 29 85 13 16 -9 35 -7 82 5 135 35 153 20 46 -38 -41 -23 -76
-49 -78 -59 -9 -48 114 11 207 99 61 57 109 84 104 58 -1 -5 -22 -45 -47 -87
-51 -86 -76 -141 -76 -166 1 -21 15 -3 127 161 96 139 117 156 263 211 36 14
127 55 204 91 138 66 138 66 132 38 -16 -65 -18 -112 -7 -112 6 0 32 41 56 92
25 51 53 100 62 110 29 33 152 117 158 109 3 -5 14 -58 26 -118 25 -130 50
-181 102 -207 36 -17 40 -17 55 -2 16 16 14 19 -25 55 -28 27 -46 54 -56 87
-21 73 -41 193 -33 201 12 12 40 -11 73 -63 69 -106 83 -124 97 -124 23 0 26
26 10 81 -9 28 -13 53 -11 55 7 8 194 -55 205 -69 6 -7 12 -46 14 -87 2 -43 8
-75 14 -77 14 -5 34 49 34 91 0 51 12 60 64 53 26 -4 68 -16 94 -27 38 -16 52
-29 67 -62 29 -61 51 -70 80 -33 24 29 25 29 72 17 90 -25 95 -29 130 -127 17
-50 32 -96 32 -103 1 -9 -16 -11 -67 -6 -55 5 -70 4 -81 -10 -18 -22 -7 -44
26 -51 46 -10 113 -36 113 -44 0 -4 -22 -18 -50 -31 -27 -13 -61 -36 -76 -52
-27 -27 -27 -28 -6 -28 12 0 46 14 75 30 30 17 65 30 80 30 22 0 28 -8 46 -55
12 -31 21 -61 21 -68 0 -7 -22 -35 -50 -62 -62 -61 -64 -76 -6 -35 56 38 96
40 96 6 0 -13 -14 -54 -31 -91 -23 -48 -32 -83 -33 -123 -2 -87 22 -77 56 23
15 44 28 82 28 85 0 3 16 -27 34 -65 34 -74 79 -121 124 -131 15 -3 33 -9 41
-13 41 -21 329 -524 444 -771 47 -102 185 -347 233 -413 35 -48 67 -68 115
-71 14 -1 34 -7 43 -15 36 -30 194 -355 212 -434 3 -18 32 -90 64 -162 31 -71
69 -163 85 -204 18 -49 41 -87 66 -112 44 -44 53 -76 64 -219 9 -119 23 -157
62 -162 25 -3 29 -8 35 -48 3 -25 7 -73 7 -107 1 -86 13 -113 50 -113 27 0 31
-4 41 -42 6 -24 13 -50 15 -58 3 -8 9 -57 16 -109 6 -52 15 -105 20 -118 10
-27 43 -31 59 -6 9 17 12 16 31 -7 69 -81 212 -297 296 -449 71 -127 68 -116
45 -148 -43 -60 -37 -126 14 -154 35 -18 51 -6 101 81 38 66 48 76 102 102 64
31 86 56 76 88 -9 28 -47 35 -84 16 -30 -16 -31 -16 -72 21 -139 129 -244 255
-333 400 -40 66 -56 101 -56 127 0 25 -9 45 -31 71 -43 49 -119 229 -119 283
0 36 -4 44 -24 52 -26 9 -63 54 -90 108 -17 34 -13 56 18 82 28 22 17 70 -45
202 -37 77 -61 140 -59 156 9 103 -10 162 -90 292 -26 41 -73 123 -105 181
-32 59 -106 172 -165 252 -129 175 -140 198 -117 239 33 58 20 87 -54 120 -30
14 -45 33 -89 115 -61 115 -154 255 -220 333 -113 135 -388 519 -433 607 -23
44 -22 48 16 72 54 33 72 95 44 157 -6 16 -51 95 -100 176 -48 81 -87 149 -87
153 0 3 17 -4 37 -15 43 -23 64 -25 81 -8 8 8 8 17 1 30 -13 24 -126 98 -149
98 -11 0 -32 24 -53 60 -20 33 -33 60 -30 60 7 0 192 -71 328 -125 152 -61
376 -143 545 -200 289 -98 491 -172 544 -199 27 -15 58 -26 69 -26 23 0 246
-96 264 -113 10 -10 10 -22 -2 -59 -17 -59 -10 -88 21 -88 27 0 49 29 59 77
14 70 48 47 58 -40 6 -51 67 -187 94 -209 24 -19 15 40 -17 112 -16 38 -30 72
-30 77 0 5 11 25 25 46 22 31 31 37 62 37 33 0 47 -11 152 -114 64 -62 184
-164 266 -226 83 -62 178 -139 211 -170 34 -32 104 -82 156 -113 129 -77 364
-188 478 -227 52 -17 115 -43 140 -57 35 -19 67 -27 140 -33 52 -4 108 -13
124 -19 16 -7 48 -9 70 -6 40 6 43 4 156 -93 235 -203 430 -418 474 -524 19
-45 63 -98 82 -98 8 0 25 7 38 15 23 16 24 15 87 -102 35 -65 77 -133 93 -151
28 -31 32 -33 76 -27 45 6 48 5 78 -30 16 -21 46 -77 67 -125 42 -104 75 -144
110 -138 31 6 31 6 105 -82 91 -108 97 -113 146 -106 37 5 44 2 76 -32 97
-103 271 -351 314 -450 14 -31 37 -74 51 -94 l25 -37 -21 -89 c-22 -93 -20
-142 6 -164 13 -10 19 -7 39 17 13 17 36 45 50 63 15 19 40 68 55 110 l27 77
36 -3 c28 -2 38 2 51 22 9 13 27 27 40 30 28 7 42 41 25 61 -6 7 -37 15 -68
18 -31 2 -66 7 -77 11 -17 6 -24 0 -38 -29 -10 -20 -23 -35 -29 -33 -7 3 -56
74 -109 159 -64 103 -118 177 -165 224 -92 94 -147 187 -141 238 5 39 -11 67
-39 67 -21 0 -195 89 -221 112 -12 12 -30 43 -39 70 -14 44 -21 52 -69 73 -68
31 -175 145 -175 185 0 22 -18 43 -91 106 -49 44 -106 90 -125 104 -32 22 -35
28 -29 58 6 31 1 38 -117 159 -178 182 -367 337 -483 396 -50 26 -65 36 -168
114 -46 35 -56 49 -62 82 -3 21 -15 47 -25 56 -17 15 -84 39 -197 70 -50 14
-186 64 -288 106 -27 12 -81 34 -120 49 -223 89 -523 225 -545 246 -12 12 -12
14 5 14 18 0 253 -77 455 -149 47 -16 150 -43 230 -60 80 -17 208 -44 285 -61
77 -17 169 -36 205 -41 36 -6 92 -15 125 -20 85 -15 340 -56 477 -78 181 -29
359 -35 528 -17 408 44 470 54 534 85 35 17 105 44 157 60 157 51 463 229 600
349 64 57 196 256 215 323 21 76 29 244 15 297 -12 42 -35 71 -254 321 -46 53
-117 120 -162 152 -116 85 -165 122 -182 138 -8 8 -30 25 -50 38 -19 13 -72
55 -117 92 -44 38 -124 99 -177 137 -53 38 -153 116 -222 174 -69 58 -149 119
-179 135 -29 16 -59 36 -65 46 -29 40 -247 184 -330 218 -35 14 -42 28 -20 37
14 5 124 -34 190 -67 38 -20 42 -20 74 -5 54 26 44 49 -34 81 -138 57 -153 64
-153 73 0 5 11 19 24 31 24 23 25 23 135 10 61 -7 114 -10 117 -6 13 13 -10
27 -89 52 -45 15 -85 30 -89 34 -7 6 43 165 55 178 9 8 136 -7 142 -18 10 -15
71 -10 85 6 28 34 -1 48 -148 70 -39 6 -41 8 -25 20 15 12 16 17 6 34 -14 22
-10 23 90 37 38 5 51 12 59 30 6 13 8 27 5 30 -3 4 -39 -6 -80 -21 -85 -31
-121 -30 -125 1 -8 54 121 101 290 106 43 2 78 6 78 10 0 18 -49 38 -93 38
-26 0 -91 5 -144 11 -85 9 -101 8 -135 -7 -21 -9 -41 -15 -44 -12 -5 6 30 75
90 173 39 65 45 95 20 95 -23 0 -74 -57 -106 -118 -16 -29 -34 -52 -40 -52 -7
1 -24 24 -37 52 -23 49 -23 52 -9 119 12 51 13 72 4 84 -10 14 -13 14 -33 0
-12 -9 -25 -31 -29 -50 -3 -20 -10 -38 -15 -40 -11 -8 -79 37 -79 52 0 17 50
52 152 106 276 147 753 509 1187 901 262 237 348 389 374 656 12 135 -1 232
-43 305 -17 29 -30 59 -30 66 0 8 -35 56 -78 108 -64 78 -88 99 -144 127 -107
54 -263 114 -296 114 -17 0 -43 5 -58 10 -15 6 -108 24 -208 41 -171 29 -217
36 -396 60 -41 6 -133 19 -205 30 -175 26 -540 29 -677 5 -296 -52 -338 -62
-699 -167 -75 -21 -145 -39 -156 -39 -12 0 -30 17 -47 42 l-28 43 31 110 c17
60 47 191 66 290 19 99 51 236 70 305 48 177 75 286 75 305 0 9 -13 21 -31 27
-39 13 -37 21 48 201 60 128 64 140 49 156 -9 10 -16 23 -16 29 0 7 39 74 86
150 140 221 129 199 110 227 -15 23 -15 25 5 36 29 15 106 86 130 120 18 26
18 28 2 44 -16 16 -16 18 3 32 40 30 188 106 272 140 67 28 87 33 91 22 2 -8
21 -30 42 -50 21 -20 46 -55 54 -79 27 -77 71 -104 96 -59 16 31 3 79 -36 128
-36 45 -43 65 -25 76 19 12 11 55 -12 64 -13 5 -32 18 -42 30 -16 18 -17 25
-8 46 14 31 6 55 -19 55 -13 0 -28 -17 -47 -51z m328 -2308 c0 -13 -54 -50
-170 -117 -114 -66 -390 -204 -409 -204 -7 0 -88 -33 -180 -74 -91 -40 -200
-85 -242 -100 -173 -59 -310 -110 -421 -156 -117 -50 -897 -314 -1015 -344
-139 -36 -474 -195 -593 -281 -25 -18 -65 -43 -90 -55 -25 -12 -76 -44 -115
-70 -262 -177 -385 -243 -568 -300 -67 -21 -156 -50 -199 -63 -77 -26 -328
-72 -349 -65 -6 2 37 19 96 37 59 18 164 57 234 88 69 30 158 68 198 84 121
48 333 153 431 212 164 100 236 160 319 264 42 54 118 141 168 193 50 52 108
115 128 139 37 45 91 73 257 137 36 14 88 34 115 45 28 12 114 41 193 65 79
25 171 55 205 68 160 61 305 109 442 146 210 58 288 83 386 124 78 32 146 54
327 107 35 10 89 28 120 40 54 20 93 28 297 63 120 20 147 22 303 24 76 1 132
-2 132 -7z m331 -21 c30 -5 95 -14 144 -19 158 -17 375 -56 372 -66 -3 -9
-119 -74 -227 -126 -25 -12 -115 -57 -200 -100 -245 -123 -366 -173 -605 -253
-73 -25 -228 -91 -305 -131 -66 -34 -175 -79 -255 -105 -38 -12 -83 -29 -100
-38 -59 -30 -421 -177 -540 -218 -70 -25 -121 -45 -225 -90 -30 -13 -120 -49
-199 -79 -79 -31 -153 -62 -165 -70 -11 -8 -28 -15 -37 -15 -9 0 -41 -11 -70
-24 -83 -36 -222 -84 -349 -120 -63 -18 -194 -58 -290 -89 -247 -80 -433 -133
-520 -147 -78 -13 -196 -8 -214 10 -7 7 -6 10 1 10 7 0 47 28 90 62 43 34 125
92 183 129 58 36 152 97 210 135 215 142 515 275 821 363 388 112 547 162 602
191 31 16 107 46 169 66 61 20 148 52 192 71 176 76 281 118 516 207 221 84
270 104 320 136 8 5 52 27 97 49 103 50 274 166 333 225 l44 46 76 0 c42 0
101 -4 131 -10z m771 -126 c88 -22 208 -72 246 -101 l33 -25 -79 -32 c-166
-67 -295 -190 -420 -400 -72 -120 -132 -246 -132 -277 0 -7 -26 -60 -57 -117
-82 -150 -149 -215 -289 -282 -60 -29 -136 -58 -169 -66 -33 -7 -91 -22 -130
-32 -38 -11 -176 -34 -305 -52 -129 -17 -298 -42 -375 -55 -77 -13 -171 -29
-210 -34 -38 -6 -106 -18 -150 -26 -44 -8 -161 -24 -260 -35 -99 -11 -225 -27
-281 -35 -155 -23 -268 -23 -338 0 -50 16 -63 25 -88 64 -16 25 -37 74 -48
109 -11 34 -24 71 -30 82 -9 17 -5 22 27 38 21 11 63 27 93 37 30 10 102 38
160 63 109 46 172 69 475 177 99 35 245 93 325 128 224 99 272 120 455 195 94
39 224 93 290 122 66 28 143 60 170 72 72 29 563 275 654 327 87 50 339 170
360 170 7 1 40 -6 73 -15z m399 -224 c10 -6 19 -20 19 -31 0 -11 20 -38 44
-60 53 -48 74 -89 86 -166 18 -108 -17 -292 -79 -422 -58 -122 -267 -323 -623
-603 -124 -97 -547 -384 -658 -445 -36 -20 -83 -49 -105 -64 -22 -15 -69 -45
-105 -66 -36 -22 -102 -63 -148 -91 -88 -55 -118 -62 -156 -37 -30 20 -454
125 -504 125 -51 0 -87 -27 -78 -58 6 -19 15 -22 60 -22 73 0 443 -92 467
-116 18 -19 17 -20 -59 -73 -42 -29 -144 -91 -227 -137 -171 -96 -156 -99
-170 30 l-7 68 43 -7 c56 -10 176 -10 217 -1 23 6 32 13 30 24 -3 14 -22 16
-156 13 -146 -3 -152 -2 -152 17 0 11 -3 27 -6 36 -5 14 6 15 98 10 77 -5 107
-4 113 5 4 7 5 14 4 16 -2 1 -51 10 -109 18 -57 9 -106 20 -108 27 -2 6 -15
24 -29 41 -19 22 -33 29 -52 27 -33 -4 -39 -33 -13 -61 13 -14 21 -43 25 -82
4 -33 15 -87 27 -119 12 -36 20 -85 20 -125 l0 -67 -87 -43 c-49 -23 -136 -74
-195 -112 -58 -38 -109 -69 -113 -69 -3 0 -21 -11 -38 -24 -67 -50 -471 -276
-493 -276 -1 0 4 16 12 35 8 19 14 66 14 109 l0 74 88 7 c48 3 103 8 124 11
38 6 77 28 67 39 -4 3 -66 1 -139 -5 -72 -7 -133 -10 -135 -8 -1 2 0 62 4 133
l6 130 253 3 c138 1 252 6 252 11 0 4 -111 11 -246 14 -135 4 -249 9 -254 12
-5 3 -5 17 -1 33 l7 27 240 6 c131 3 240 6 242 7 1 1 2 7 2 12 0 6 -51 10
-132 10 -73 0 -184 3 -245 7 l-113 6 0 39 0 38 248 1 c228 0 313 7 272 22 -8
3 -127 10 -265 14 l-250 8 -3 43 -3 43 229 -7 229 -7 34 26 c38 29 176 87 207
87 11 0 25 7 33 16 7 9 45 32 83 51 104 52 193 113 262 181 76 74 244 295 257
339 12 37 33 48 132 62 79 12 255 51 330 74 28 8 84 22 127 32 42 9 102 29
135 45 32 16 62 30 67 30 21 0 139 95 194 155 51 56 81 106 186 315 155 309
188 361 282 449 84 78 146 117 267 167 93 38 91 38 118 24z m-4451 -486 c0 -3
-62 -71 -137 -150 -166 -174 -317 -285 -490 -360 -59 -26 -126 -57 -148 -70
-106 -61 -376 -174 -670 -279 -27 -10 -85 -31 -128 -46 -96 -35 -130 -37 -151
-7 -22 31 -21 33 22 51 59 26 388 146 419 153 65 15 267 90 378 141 178 81
324 194 400 309 46 69 79 90 272 170 86 36 168 71 182 79 27 15 51 19 51 9z
m-630 -293 c0 -15 -102 -92 -155 -117 -123 -57 -244 -107 -324 -133 -79 -26
-127 -44 -366 -140 -87 -35 -270 -91 -297 -91 -18 0 -78 31 -78 41 0 9 42 25
110 42 143 37 283 83 366 118 50 21 96 39 101 39 9 0 57 19 128 50 11 5 63 23
115 40 52 17 133 49 180 70 105 47 203 88 213 89 4 1 7 -3 7 -8z m1493 -378
c15 -20 27 -42 27 -50 0 -31 -385 -175 -700 -262 -140 -39 -320 -93 -400 -120
-80 -27 -199 -66 -265 -86 -66 -20 -221 -70 -345 -110 -124 -41 -271 -89 -328
-107 l-102 -32 -98 51 c-111 59 -363 164 -437 182 -92 24 -175 53 -175 61 0
17 201 72 234 65 83 -18 236 -16 387 5 175 24 217 34 384 89 72 24 169 47 241
57 117 17 124 17 165 0 28 -11 81 -20 144 -23 93 -5 110 -2 240 32 77 21 167
44 200 52 159 39 326 87 385 111 83 33 369 121 395 121 11 0 32 -15 48 -36z
m-2813 -154 c0 -10 -10 -21 -22 -24 -13 -4 -57 -20 -98 -36 -93 -36 -450 -144
-507 -154 -29 -4 -43 -3 -43 4 0 16 145 86 230 111 41 13 135 47 209 77 165
67 201 76 219 55 6 -9 12 -24 12 -33z m2983 -98 l58 -54 202 7 c250 9 412 22
493 41 34 8 147 21 250 30 104 9 218 21 254 26 160 24 174 24 166 3 -5 -10
-16 -43 -26 -71 -26 -73 -70 -135 -159 -223 -63 -62 -88 -80 -149 -103 -72
-28 -74 -28 -117 -12 -48 19 -85 49 -85 69 0 8 18 36 40 62 22 27 40 52 40 56
0 20 -33 3 -99 -53 -70 -59 -75 -62 -110 -53 -33 8 -36 13 -39 47 -2 20 -7 37
-12 37 -4 0 -21 -16 -37 -37 -36 -44 -57 -40 -79 14 -9 21 -21 44 -26 51 -17
20 -38 -5 -38 -44 0 -18 -5 -36 -10 -39 -6 -4 -40 -3 -76 0 l-66 8 -44 69
c-46 72 -67 89 -87 69 -9 -9 -7 -24 6 -62 10 -28 17 -53 15 -55 -7 -6 -77 -6
-349 2 -223 6 -285 4 -380 -9 -219 -32 -536 -47 -584 -28 -15 6 19 21 140 59
88 28 186 55 218 61 31 6 65 15 75 20 11 6 77 30 148 55 166 58 304 110 340
129 33 18 28 21 127 -72z m-2894 -35 c31 -23 32 -25 12 -35 -54 -29 -270 -82
-340 -84 -108 -3 -102 15 16 52 54 17 130 44 168 60 85 37 102 38 144 7z
m-1069 -236 c22 -14 19 -175 -4 -198 -15 -15 -18 -15 -36 4 -21 20 -43 116
-38 162 2 18 11 28 28 33 35 10 33 10 50 -1z m179 -42 c6 -18 13 -56 17 -84 5
-45 3 -55 -15 -73 -25 -25 -52 -17 -72 21 -14 27 -7 152 11 173 17 21 46 3 59
-37z m169 26 c27 -19 58 -77 67 -126 6 -31 4 -38 -15 -48 -30 -16 -69 -4 -80
24 -5 13 -12 56 -16 95 -7 78 0 86 44 55z m3647 6 c55 -6 120 -16 145 -24 30
-10 111 -16 250 -19 147 -3 216 -9 245 -19 22 -8 46 -13 53 -10 7 2 16 -5 19
-17 6 -25 25 -27 44 -5 9 11 22 14 43 10 37 -8 78 -34 71 -45 -6 -11 -98 -34
-260 -65 -139 -27 -383 -61 -389 -55 -2 2 -7 22 -10 44 l-7 41 198 -4 c202 -4
253 3 253 32 0 21 -34 25 -257 30 -191 4 -193 4 -224 31 -29 23 -34 25 -47 11
-13 -13 -14 -24 -4 -68 21 -100 22 -126 4 -133 -9 -4 -100 -11 -202 -16 -102
-5 -207 -13 -235 -19 -27 -5 -93 -12 -145 -15 -52 -4 -158 -13 -235 -21 -77
-8 -183 -19 -235 -24 -123 -12 -405 -43 -593 -66 -81 -9 -149 -15 -152 -13 -2
3 2 23 9 44 17 48 18 49 246 70 91 9 169 20 174 25 19 19 -50 31 -166 28 -65
-2 -118 -1 -118 1 0 3 33 39 73 80 40 42 85 92 100 111 l26 35 114 3 c132 5
217 -13 241 -51 8 -12 27 -70 42 -129 15 -60 32 -108 36 -108 5 0 17 13 26 30
l17 30 205 0 c201 0 254 8 220 30 -8 5 -35 10 -60 11 -25 0 -65 4 -90 7 -44 7
-44 7 -17 19 15 7 27 18 27 24 0 9 -30 10 -117 4 -162 -12 -187 -12 -193 0 -3
6 43 15 118 22 208 19 317 52 285 84 -8 8 -30 6 -75 -5 -93 -23 -319 -38 -336
-22 -24 23 9 34 128 46 63 6 183 20 265 30 231 31 337 35 490 20z m-4205 -38
c26 -27 50 -85 50 -124 0 -19 -16 -24 -103 -32 -40 -3 -59 -1 -62 7 -2 7 -5
49 -8 95 l-4 82 49 0 c41 0 54 -5 78 -28z m751 -67 c8 -122 -14 -118 -26 5 -6
68 -5 73 8 55 8 -12 16 -39 18 -60z m-1001 13 c32 -43 43 -118 18 -118 -7 0
-43 -10 -80 -22 -37 -12 -71 -18 -75 -14 -4 4 -9 37 -11 74 -4 76 0 83 64 106
54 20 50 21 84 -26z m1166 36 c17 -5 20 -13 20 -54 -1 -37 4 -54 22 -72 30
-33 28 -38 -17 -38 -52 0 -67 17 -75 85 -8 73 3 92 50 79z m1864 -13 c0 -5
-26 -33 -59 -63 -134 -124 -198 -166 -230 -148 -26 13 -92 92 -88 103 2 6 25
16 52 23 28 7 102 31 165 53 116 40 160 49 160 32z m-1652 -46 c22 -47 25 -91
7 -108 -22 -22 -52 -22 -64 1 -8 16 0 92 14 129 6 18 31 6 43 -22z m-1628 -11
c23 -59 4 -158 -31 -167 -18 -5 -19 1 -19 71 0 91 7 122 26 122 8 0 19 -12 24
-26z m1776 -41 c3 -16 18 -45 32 -66 32 -47 20 -64 -28 -39 -31 15 -35 22 -38
61 -2 24 -1 50 2 57 9 23 25 16 32 -13z m-1931 -15 c3 -18 5 -100 5 -183 -1
-82 0 -184 2 -225 3 -74 3 -75 -23 -78 -41 -5 -64 30 -62 92 6 158 22 384 28
404 11 35 43 28 50 -10z m-919 -61 c-83 -53 -126 -91 -148 -134 -29 -56 -58
-149 -58 -188 0 -49 23 -106 53 -131 17 -15 27 -30 23 -39 -6 -17 -22 -20 -31
-5 -3 6 -17 10 -30 10 -13 0 -36 11 -51 23 -52 45 -42 182 21 307 33 66 99
150 147 188 l42 33 25 -27 c25 -25 25 -26 7 -37z m3048 -4 c10 -32 21 -64 23
-70 7 -19 -52 -16 -67 2 -8 10 -11 31 -6 61 11 83 26 85 50 7z m895 -27 c29
-29 42 -50 38 -60 -9 -24 3 -46 24 -46 25 0 46 -49 27 -62 -7 -4 -17 -8 -23
-8 -215 -12 -389 -16 -420 -11 -38 6 -40 8 -41 45 -1 26 -7 44 -20 53 -18 13
-18 14 1 19 11 3 90 29 175 59 85 29 164 54 175 54 12 1 39 -18 64 -43z m-739
-91 c10 -12 10 -19 2 -27 -19 -19 -35 5 -42 59 -9 73 1 97 15 36 7 -29 18 -59
25 -68z m-2975 -21 c21 -22 12 -60 -23 -97 -30 -32 -81 -62 -90 -53 -10 11 71
166 88 166 5 0 16 -7 25 -16z m5690 -19 c0 -27 -5 -32 -42 -43 -56 -18 -55
-32 4 -32 l46 0 -8 -357 c-4 -197 -8 -369 -7 -383 1 -37 -12 -47 -102 -75 -44
-14 -108 -36 -141 -50 -35 -14 -81 -25 -110 -25 -27 0 -58 -7 -68 -15 -21 -15
-204 -51 -214 -41 -3 3 0 13 7 22 22 26 -4 34 -115 35 -55 0 -125 4 -155 7
-51 7 -55 9 -52 32 5 50 28 57 199 64 396 16 433 20 407 46 -8 8 -83 8 -270 0
-142 -6 -272 -13 -288 -15 l-29 -5 5 50 c3 28 7 52 9 54 2 3 148 9 324 16 176
6 324 15 330 21 5 5 -95 9 -270 10 -154 0 -300 4 -325 7 -44 7 -45 8 -48 48
l-3 41 47 7 c26 3 137 6 248 6 204 0 276 6 276 21 0 5 -128 9 -285 9 -321 0
-291 -9 -279 82 l6 45 205 6 c218 7 325 20 344 43 6 8 8 14 3 14 -5 0 -134 0
-286 0 l-278 -1 0 36 0 36 45 -6 c85 -13 308 -11 333 3 31 18 25 48 -8 44 -14
-2 -102 0 -197 3 -141 6 -173 10 -178 22 -3 9 -3 18 0 21 2 3 72 6 154 6 82 1
153 5 157 9 14 14 -19 27 -67 27 -26 0 -62 3 -80 7 -32 6 -29 8 35 19 119 23
142 74 25 55 -77 -13 -189 -14 -189 -3 0 5 56 14 124 20 67 7 163 20 212 31
206 45 331 60 479 57 l70 -1 0 -30z m-3913 -42 c2 -27 2 -67 0 -91 -3 -35 -8
-43 -28 -48 -14 -4 -41 0 -61 8 -42 15 -59 56 -50 122 7 48 18 56 83 56 l51 0
5 -47z m-224 -45 c-3 -82 -3 -83 -28 -80 -38 5 -52 30 -47 84 5 56 20 78 54
78 23 0 24 -1 21 -82z m430 -11 l3 -88 -53 3 -53 3 -3 88 -3 88 53 -3 53 -3 3
-88z m142 72 c7 -11 14 -54 17 -95 l6 -74 -26 0 c-34 0 -47 25 -47 89 0 85 26
126 50 80z m162 -19 c20 -39 23 -105 8 -144 -11 -29 -54 -37 -64 -11 -14 36
-17 114 -6 153 14 53 37 53 62 2z m-892 -39 l0 -68 -46 -7 c-26 -3 -62 -6 -80
-6 -32 0 -34 2 -36 38 -1 46 2 85 9 92 2 3 32 8 66 11 34 3 68 7 75 7 8 2 12
-18 12 -67z m1802 1 c8 -9 7 -20 -2 -40 -7 -15 -18 -60 -26 -101 -14 -82 -25
-98 -69 -103 -30 -3 -30 -3 -33 55 -3 52 -1 57 18 57 15 0 25 11 36 35 16 40
19 111 4 120 -6 4 -8 11 -4 16 6 10 57 -16 76 -39z m-710 22 c11 -7 5 -145 -8
-166 -8 -12 -70 -4 -90 13 -10 8 -14 35 -14 92 l0 80 50 -6 c28 -3 55 -9 62
-13z m-1347 -40 c5 -35 3 -50 -8 -61 -16 -17 -144 -46 -164 -39 -19 8 -17 90
3 106 18 16 97 38 135 39 24 1 27 -3 34 -45z m3546 -34 c4 -30 12 -84 19 -120
13 -73 13 -364 0 -479 -6 -58 -13 -79 -29 -92 -25 -20 -27 -35 -6 -43 8 -3 15
-14 15 -24 0 -26 -30 -111 -42 -118 -12 -8 -860 -5 -868 2 -15 15 44 42 107
47 64 6 181 32 192 42 13 14 -15 15 -97 4 -121 -15 -128 -12 -100 46 l22 45
127 0 c70 0 130 4 133 9 8 12 -23 18 -132 27 -60 4 -98 12 -108 21 -10 10 -14
39 -14 103 0 83 1 89 23 96 58 18 53 54 -9 54 -27 0 -36 6 -49 30 -8 16 -15
31 -15 34 0 2 103 6 230 8 164 2 233 6 241 15 7 7 9 16 5 20 -4 5 -119 9 -254
11 l-247 3 -38 37 -38 37 285 5 c156 3 288 8 292 13 4 4 2 13 -5 20 -8 8 -103
14 -334 20 -177 5 -332 10 -343 13 -12 2 -32 12 -45 23 l-24 19 29 11 c16 7
146 25 290 41 143 16 317 37 386 46 208 27 262 32 330 30 l65 -1 6 -55z
m-2020 28 c8 -12 2 -124 -8 -140 -5 -10 -55 -10 -77 -2 -17 7 -21 58 -9 128 6
38 6 38 46 33 22 -3 44 -11 48 -19z m-1805 -104 c-8 -21 -44 -17 -56 5 -5 11
-10 31 -10 45 0 20 7 27 33 34 32 8 32 8 35 -31 2 -22 1 -46 -2 -53z m1955 74
c37 -11 39 -13 39 -52 0 -75 -7 -86 -55 -86 -57 0 -69 17 -62 80 9 76 12 78
78 58z m169 -67 c6 -12 7 -35 2 -58 -7 -32 -12 -38 -32 -38 -21 0 -26 5 -28
34 -5 51 5 81 28 81 11 0 24 -9 30 -19z m334 -106 c11 -30 -48 -34 -67 -4 -6
9 -7 24 -4 33 6 15 9 15 36 2 16 -9 31 -22 35 -31z m-3124 -4 c0 -5 -36 -30
-81 -56 -157 -91 -199 -151 -208 -300 -6 -83 -8 -90 -26 -87 -41 8 -45 20 -45
142 l0 118 52 46 c95 83 308 177 308 137z m7182 -33 c-12 -12 -272 -26 -260
-14 8 9 124 23 208 25 48 1 61 -2 52 -11z m-6240 -231 c3 -95 3 -178 0 -186
-8 -21 -110 -8 -136 18 -18 19 -21 36 -24 175 l-4 153 68 10 c38 5 74 7 80 5
7 -2 13 -62 16 -175z m643 171 c3 -2 8 -88 11 -191 6 -168 5 -187 -9 -193 -24
-9 -114 15 -121 32 -3 7 -8 90 -12 183 -7 161 -6 169 12 174 21 6 112 2 119
-5z m-224 -35 c3 -18 8 -99 10 -180 l4 -147 -27 -10 c-15 -5 -31 -6 -35 -2 -9
9 -17 341 -9 363 3 8 15 13 28 11 16 -2 24 -12 29 -35z m-2601 -24 c0 -13 -20
-21 -35 -15 -12 4 -13 10 -3 32 11 24 13 25 25 8 7 -10 13 -21 13 -25z m1925
-132 l0 -152 -31 -3 c-21 -2 -33 2 -37 12 -3 8 -7 79 -8 158 l-1 143 28 6 c16
3 34 2 39 -3 6 -5 10 -72 10 -161z m1265 -12 l0 -185 -30 0 c-40 0 -43 16 -38
193 3 151 11 177 49 177 18 0 19 -11 19 -185z m-2550 155 c0 -5 -4 -10 -9 -10
-5 0 -11 -9 -14 -20 -3 -10 -26 -29 -51 -42 -51 -24 -65 -52 -46 -88 22 -40 0
-34 -43 12 -45 49 -41 48 -209 63 -72 7 -123 34 -102 54 7 8 27 8 70 0 66 -12
243 -7 289 10 31 10 94 28 108 30 4 1 7 -3 7 -9z m2695 -165 l0 -170 -30 0
-30 0 -3 173 -2 173 32 -3 33 -3 0 -170z m193 100 c1 -38 -1 -113 -5 -165 l-8
-95 -45 0 -45 0 -5 163 c-3 90 -3 166 0 168 2 3 27 4 55 2 l50 -3 3 -70z
m4692 61 c-12 -11 -35 -12 -119 -6 -57 5 -106 11 -109 14 -3 3 50 6 118 6 107
0 122 -2 110 -14z m-4520 -138 c0 -186 -1 -188 -56 -188 l-44 0 0 119 c0 65 3
139 6 165 l7 46 43 0 44 0 0 -142z m-1942 0 l3 -128 -29 0 -28 0 -1 131 0 130
26 -3 26 -3 3 -127z m6047 124 c6 -4 15 -21 21 -39 9 -25 9 -34 -4 -46 -8 -9
-12 -23 -9 -31 13 -33 55 -38 236 -27 96 6 177 8 180 6 13 -13 -24 -18 -194
-28 -230 -12 -231 -12 -237 72 -5 67 -20 93 -40 72 -8 -7 -12 -34 -11 -67 1
-30 -4 -72 -12 -93 -16 -48 -11 -57 43 -66 32 -5 42 -11 42 -26 0 -25 -7 -24
-100 12 -71 27 -101 49 -69 49 7 0 9 10 7 25 -4 18 1 29 19 40 30 20 21 35
-23 35 -19 0 -34 5 -34 10 0 6 5 10 10 10 20 0 22 31 5 50 -23 26 -18 30 47
40 72 10 111 11 123 2z m-3941 -8 c18 -7 20 -48 9 -206 l-6 -98 -43 0 c-39 0
-44 3 -50 26 -8 29 2 260 12 275 6 10 54 12 78 3z m164 -124 c2 -58 0 -120 -3
-137 -6 -31 -9 -33 -47 -33 l-41 0 7 126 c4 69 10 132 13 140 4 10 16 14 37
12 l31 -3 3 -105z m162 73 c0 -38 -15 -130 -31 -195 -5 -21 -18 -42 -29 -48
-17 -9 -20 -7 -26 15 -8 33 -1 236 9 253 5 6 24 12 43 12 33 0 34 -2 34 -37z
m320 -40 c0 -38 -3 -98 -7 -135 -5 -63 -8 -68 -29 -68 -36 0 -44 29 -44 154
l0 116 40 0 40 0 0 -67z m148 45 c39 -12 92 -79 92 -116 0 -33 -54 -85 -112
-107 -75 -28 -77 -24 -72 107 3 62 7 118 9 125 4 12 21 10 83 -9z m-299 -65
c-1 -27 -4 -61 -8 -78 l-7 -30 -12 34 c-15 42 -15 76 -2 102 18 33 30 21 29
-28z m-4265 15 c3 -13 6 -35 6 -50 0 -29 -6 -31 -112 -43 -51 -6 -58 -4 -72
17 -17 23 -20 55 -10 82 5 13 23 16 94 16 82 0 88 -1 94 -22z m471 -125 c4
-21 14 -46 22 -56 9 -9 14 -19 11 -22 -3 -3 -47 1 -99 10 -52 8 -152 15 -222
15 -147 0 -164 13 -56 42 57 16 76 16 173 6 l109 -12 21 27 c26 36 32 34 41
-10z m7824 -7 c22 -12 21 -13 -25 -18 -68 -6 -382 6 -364 15 16 7 103 12 265
15 67 1 108 -3 124 -12z m-874 -46 c131 -53 260 -102 330 -127 134 -49 521
-216 659 -285 132 -66 214 -116 316 -193 154 -116 219 -166 278 -215 36 -30
98 -80 138 -110 39 -30 107 -86 150 -123 44 -38 108 -86 144 -107 86 -50 220
-164 410 -346 85 -82 177 -167 203 -189 56 -47 71 -85 71 -190 1 -57 -6 -86
-34 -155 -41 -102 -77 -154 -167 -241 -85 -84 -149 -129 -180 -129 -19 0 -27
9 -39 38 -8 20 -23 54 -34 74 -11 20 -20 43 -20 50 0 7 -32 71 -70 141 -39 71
-73 140 -77 155 -10 43 -122 232 -172 291 -25 29 -66 79 -91 112 -25 32 -56
66 -70 77 -29 22 -120 58 -170 67 -19 4 -107 31 -195 60 -88 29 -196 61 -240
69 -44 9 -102 24 -128 32 -58 19 -176 107 -222 166 -19 23 -93 98 -165 166
-71 68 -133 134 -136 146 -3 12 -20 31 -37 41 -71 41 -257 179 -257 191 0 7 5
35 12 64 l12 51 160 -7 c100 -4 170 -2 186 4 36 14 19 18 -164 36 -88 9 -164
20 -169 25 -5 5 -7 17 -3 26 5 14 23 16 141 14 74 -2 138 0 142 4 16 17 -19
26 -129 35 -64 6 -121 13 -127 17 -6 3 -11 20 -11 37 0 28 2 30 26 24 61 -16
84 -18 84 -9 0 26 -73 63 -124 63 -44 0 -51 -18 -71 -195 -9 -77 -20 -143 -23
-146 -4 -4 -68 34 -142 84 -184 123 -221 139 -385 172 -77 15 -146 31 -153 35
-22 11 50 61 220 155 148 82 155 84 203 78 27 -3 81 -18 120 -33z m-7455 6 c0
-22 -56 -41 -75 -26 -29 24 -18 40 30 40 32 0 45 -4 45 -14z m4129 -194 c10
-19 35 -148 46 -239 l7 -52 -36 -6 c-45 -9 -73 0 -58 18 6 7 18 35 28 62 l16
50 -43 38 c-39 34 -43 43 -43 85 -1 48 1 50 66 61 4 0 12 -7 17 -17z m-3490
-1 c12 -8 9 -18 -17 -58 -35 -56 -47 -97 -62 -212 -15 -125 -41 -137 -54 -26
-11 98 33 238 82 260 12 5 22 18 22 27 0 20 8 22 29 9z m1055 -4 c17 -12 18
-31 13 -248 -4 -233 -10 -283 -30 -276 -22 7 -29 68 -34 300 -5 229 -5 237 14
237 10 0 27 -6 37 -13z m2746 -17 c0 -13 -7 -20 -20 -20 -22 0 -28 25 -7 33
22 10 27 7 27 -13z m-471 -67 c1 -37 -28 -63 -71 -63 -27 0 -28 2 -28 49 0 53
11 67 57 80 31 9 40 -5 42 -66z m-2091 45 c5 -7 11 -34 13 -60 4 -48 4 -48
-26 -48 -43 0 -55 16 -55 72 0 46 1 48 29 48 16 0 33 -6 39 -12z m2427 2 c10
-17 -5 -49 -27 -55 -30 -10 -44 9 -30 40 12 25 45 34 57 15z m-2162 -53 c6
-26 6 -47 -2 -64 -11 -24 -15 -25 -67 -20 -72 7 -84 18 -84 79 l0 49 72 -3 72
-3 9 -38z m1635 -88 c-7 -5 -23 -9 -35 -9 -21 0 -23 5 -24 50 -1 28 -2 56 -3
63 -1 6 14 14 34 17 l35 5 3 -59 c2 -41 -1 -62 -10 -67z m-140 49 l-3 -73 -50
0 -50 0 2 64 c2 72 9 81 66 81 l38 0 -3 -72z m-1257 52 c15 -9 19 -22 19 -70
l0 -60 -68 0 c-40 0 -73 5 -80 12 -7 7 -12 38 -12 70 l0 58 61 0 c33 0 69 -5
80 -10z m3467 3 c-27 -2 -69 -2 -95 0 -27 2 -5 3 47 3 52 0 74 -1 48 -3z
m-5024 -44 c65 -77 89 -203 57 -300 -28 -85 -55 -127 -86 -135 -36 -9 -89 8
-93 30 -6 31 7 64 28 71 50 16 65 113 46 293 -10 96 -4 101 48 41z m2628 -31
c-2 -40 -7 -76 -11 -79 -3 -4 -21 -5 -38 -2 l-33 5 0 67 c0 37 3 71 7 74 3 4
23 7 42 7 l37 0 -4 -72z m-878 31 c18 -91 -1 -131 -51 -107 -26 12 -28 18 -31
76 l-3 62 39 0 c36 0 40 -3 46 -31z m175 25 c30 -6 31 -8 31 -60 0 -34 -5 -58
-15 -68 -17 -17 -78 -31 -94 -22 -5 4 -13 30 -16 60 -11 87 9 107 94 90z m228
-8 c3 -2 1 -30 -4 -62 l-8 -59 -46 -3 c-57 -4 -74 13 -65 62 9 47 50 80 90 72
16 -4 31 -8 33 -10z m159 -53 c-4 -36 -9 -70 -12 -75 -8 -12 -48 -10 -62 4
-13 13 -17 120 -5 131 3 4 24 7 46 7 l40 0 -7 -67z m148 36 c8 -44 7 -102 -3
-117 -5 -8 -21 -12 -37 -10 -29 3 -29 3 -32 81 l-3 77 34 0 c31 0 35 -4 41
-31z m3531 -19 c217 -37 396 -86 500 -138 122 -61 527 -363 584 -436 14 -18
40 -42 56 -53 17 -11 72 -66 124 -121 106 -116 105 -130 -8 -94 -37 12 -179
44 -316 71 -138 28 -293 59 -345 70 -52 11 -232 43 -400 71 -167 28 -306 53
-309 55 -2 3 27 5 65 5 68 1 203 11 317 26 57 7 57 7 57 -20 0 -36 17 -33 41
9 37 63 76 59 138 -15 23 -28 46 -50 52 -50 13 0 11 33 -4 55 -8 11 -22 32
-32 48 l-17 27 36 15 c53 22 79 19 149 -20 62 -34 64 -34 80 -17 10 10 17 21
17 25 0 3 -20 18 -45 33 -51 30 -55 41 -20 54 14 5 25 11 25 14 0 2 3 11 6 20
8 21 -27 21 -68 0 -22 -11 -46 -15 -78 -11 -50 6 -59 3 -76 -28 -12 -21 -41
-32 -91 -34 -26 -1 -33 4 -41 29 -7 18 -19 31 -34 34 -38 8 -410 13 -443 6
-27 -6 -26 -7 20 -13 28 -4 131 -8 230 -10 l181 -2 -4 -28 c-7 -42 -36 -54
-162 -63 -225 -17 -281 -5 -299 64 -13 49 1 131 25 149 23 17 46 16 134 -2 53
-11 76 -12 92 -4 17 9 18 13 6 25 -17 17 -104 34 -179 34 -59 0 -59 0 -59 30
0 16 -9 54 -21 85 -19 52 -40 68 -54 45 -4 -6 -11 -101 -16 -211 -7 -151 -13
-206 -24 -222 -8 -12 -15 -32 -15 -46 0 -23 -1 -24 -67 -17 -38 3 -120 15
-183 26 -63 10 -159 24 -213 30 -54 5 -135 19 -180 30 -45 10 -131 29 -190 41
-116 23 -128 32 -108 76 11 24 15 25 69 20 31 -3 110 -13 175 -22 127 -17 178
-17 184 2 5 15 -28 23 -241 59 -112 19 -171 34 -174 42 -3 11 17 13 115 7 99
-6 121 -5 131 8 10 11 10 16 0 25 -15 12 -263 43 -283 36 -20 -8 -26 -30 -32
-116 -3 -43 -11 -83 -18 -88 -9 -7 -53 -1 -146 19 l-134 30 -40 48 c-22 26
-70 80 -107 119 -38 39 -68 73 -68 76 0 13 99 15 325 6 344 -13 790 2 905 31
312 79 326 81 505 51z m-1951 -76 c13 -5 13 -10 4 -27 -17 -32 -59 -82 -91
-107 l-27 -22 -203 27 c-111 15 -208 29 -216 31 -10 3 -3 13 20 30 70 53 92
58 294 64 105 4 193 7 197 8 3 1 13 -1 22 -4z m197 -101 c62 -58 116 -130 105
-141 -7 -7 -179 24 -248 45 -29 8 -48 20 -48 28 0 21 92 123 112 124 9 1 45
-25 79 -56z m-1086 -24 c4 -6 17 -14 29 -19 18 -7 14 -11 -38 -35 -61 -27 -82
-27 -93 1 -14 36 83 86 102 53z m-185 -63 c0 -14 -10 -32 -22 -40 -19 -14 -24
-14 -37 -2 -12 13 -12 18 3 40 22 34 56 35 56 2z m-1930 -20 c43 -13 45 -15
48 -55 l3 -42 -48 7 c-56 8 -73 19 -73 46 0 17 16 58 23 58 1 0 22 -6 47 -14z
m2570 -21 c123 -28 258 -51 350 -60 36 -4 133 -22 215 -40 83 -19 220 -43 305
-54 85 -12 205 -32 265 -46 61 -13 185 -36 275 -50 91 -14 254 -41 362 -60
109 -19 209 -35 223 -35 23 0 25 -4 25 -43 0 -23 -15 -88 -33 -142 l-34 -100
-50 -3 c-49 -3 -130 17 -293 71 -41 14 -97 28 -125 32 -76 10 -193 35 -259 57
-33 11 -70 17 -83 13 -13 -3 -72 -1 -131 6 -59 6 -170 14 -247 18 -137 7 -142
9 -227 49 -47 23 -125 51 -173 62 -48 11 -140 38 -204 60 -65 22 -127 40 -140
40 -12 0 -77 15 -144 34 -67 19 -170 47 -229 63 -60 15 -108 31 -108 35 0 3
28 16 63 27 34 12 98 39 142 60 90 44 84 44 255 6z m-782 -1 c4 -27 -24 -51
-70 -59 l-38 -7 0 46 0 47 53 -3 c44 -3 52 -6 55 -24z m-196 -33 c-3 -41 -17
-61 -43 -61 -15 0 -19 7 -19 38 0 43 16 64 45 60 16 -2 19 -9 17 -37z m-1350
14 c44 -7 62 -33 53 -76 -7 -30 -7 -30 -68 -27 l-62 3 -3 56 c-3 63 -11 58 80
44z m1192 -7 c3 -7 7 -30 9 -50 5 -36 4 -38 -31 -47 -47 -14 -62 0 -62 54 0
33 4 45 18 48 34 9 63 7 66 -5z m-159 -37 c9 -43 -8 -67 -51 -74 -47 -8 -54
-3 -54 34 0 51 16 69 60 69 34 0 39 -3 45 -29z m-757 13 c18 -5 22 -13 22 -44
0 -59 -20 -69 -115 -53 -38 6 -50 12 -49 26 4 84 -2 77 62 77 31 0 67 -3 80
-6z m576 -10 c9 -22 7 -67 -3 -82 -5 -8 -22 -12 -42 -10 -32 3 -34 6 -37 42
-2 21 -1 44 2 52 8 20 72 18 80 -2z m-405 0 c26 -6 31 -11 31 -36 0 -42 -17
-68 -45 -68 -42 0 -72 69 -43 98 14 14 15 14 57 6z m229 -6 c7 -7 12 -31 12
-55 l0 -43 -70 0 -70 0 0 55 0 55 58 0 c32 0 63 -5 70 -12z m1100 -127 c48
-16 155 -43 237 -61 176 -38 330 -79 435 -115 41 -14 127 -41 190 -60 143 -42
260 -105 370 -197 47 -39 124 -97 173 -129 48 -32 109 -74 135 -94 165 -126
241 -175 347 -226 133 -64 336 -140 435 -163 74 -17 361 -114 560 -188 74 -28
189 -68 255 -89 146 -45 275 -89 295 -101 8 -4 26 -13 40 -19 130 -60 209 -93
290 -124 95 -37 328 -154 450 -226 63 -37 149 -113 139 -123 -3 -3 -34 -1 -69
5 -36 5 -105 14 -153 19 -49 5 -94 13 -101 19 -7 6 -94 25 -193 41 -170 28
-554 119 -653 155 -25 9 -140 45 -257 80 -116 35 -281 91 -367 124 -85 34
-157 61 -160 61 -4 0 -53 23 -109 50 -57 28 -110 50 -120 50 -22 0 -120 44
-157 70 -15 11 -43 20 -62 20 -49 0 -69 20 -85 81 -28 110 -107 204 -248 298
-93 61 -251 139 -348 171 -105 34 -168 78 -307 214 -142 138 -175 158 -366
221 -99 33 -409 114 -613 161 -148 34 -183 61 -118 89 42 19 36 19 135 -14z
m-273 -101 c66 -17 124 -35 130 -41 14 -14 -7 -43 -33 -47 -18 -3 -299 82
-311 94 -6 6 42 23 69 23 14 1 79 -13 145 -29z m-230 -94 c77 -25 173 -57 213
-72 l72 -27 0 -84 c0 -117 -2 -117 -200 -28 -52 24 -149 62 -215 84 -150 52
-355 133 -361 143 -3 4 23 8 58 9 35 0 90 7 123 14 85 20 151 12 310 -39z
m550 0 c56 -24 252 -73 376 -96 233 -41 301 -71 386 -167 79 -87 105 -114 165
-165 90 -76 124 -95 236 -132 59 -19 151 -55 204 -80 87 -41 108 -57 194 -144
87 -87 151 -168 142 -177 -6 -6 -206 60 -268 87 -30 14 -116 46 -190 73 -116
41 -261 99 -309 124 -8 4 -18 14 -22 22 -19 35 -41 85 -44 99 -15 72 -41 123
-82 161 -59 54 -118 79 -428 184 -143 48 -277 96 -297 106 -21 11 -61 24 -90
30 -66 14 -108 35 -108 54 0 34 75 46 135 21z m2787 -1 c57 -2 137 -13 178
-24 41 -11 127 -27 190 -36 63 -9 174 -30 245 -46 72 -16 216 -45 320 -64 105
-19 216 -43 248 -54 33 -12 111 -28 174 -37 64 -8 155 -27 202 -40 47 -14 127
-34 176 -44 182 -38 225 -49 381 -95 87 -26 186 -53 219 -60 80 -17 129 -39
147 -67 9 -13 40 -51 70 -85 50 -57 166 -255 183 -311 3 -12 24 -50 46 -85 56
-88 189 -359 189 -385 0 -32 -14 -34 -82 -11 -58 19 -227 60 -388 94 -91 19
-312 93 -455 153 -66 28 -190 69 -275 91 -85 22 -185 53 -222 70 -36 17 -97
39 -135 50 -37 10 -113 37 -168 59 -55 23 -138 53 -185 67 -151 47 -203 67
-219 85 -9 10 -56 30 -105 45 -49 15 -146 56 -215 90 -69 34 -157 72 -196 85
-68 22 -465 205 -512 235 -31 21 -30 48 13 184 41 130 51 154 64 146 5 -3 56
-8 112 -10z m-2869 -146 c45 -11 108 -32 142 -46 33 -14 174 -65 313 -114 178
-61 265 -96 290 -117 48 -38 131 -192 103 -192 -46 0 -138 24 -156 40 -29 27
-93 53 -230 95 -125 37 -198 68 -275 112 -34 20 -56 26 -93 24 -26 -1 -81 5
-122 15 l-75 18 0 46 c0 54 11 140 17 140 3 0 41 -9 86 -21z m1711 -25 c204
-22 445 -76 696 -156 166 -53 471 -177 499 -202 9 -9 57 -32 106 -51 50 -20
131 -58 180 -84 50 -27 108 -54 130 -61 22 -7 65 -25 95 -41 91 -47 448 -192
565 -229 39 -12 96 -33 129 -47 74 -31 443 -153 463 -153 9 0 41 -13 72 -29
31 -15 88 -38 126 -50 39 -13 110 -36 158 -53 84 -29 406 -113 620 -162 102
-24 113 -29 103 -44 -12 -20 -179 -82 -288 -106 -62 -14 -162 -39 -223 -56
-108 -29 -212 -43 -410 -55 -114 -7 -121 -4 -233 90 -95 80 -254 191 -334 234
-126 69 -412 191 -653 281 -228 84 -288 108 -360 138 -176 76 -646 234 -790
267 -104 23 -188 52 -300 101 -175 78 -207 97 -353 207 -79 59 -156 110 -170
114 -15 3 -56 31 -92 60 -36 30 -75 63 -87 73 -44 36 -30 41 95 35 64 -3 180
-13 256 -21z m-377 -3071 c-6 -5 -31 48 -41 88 -3 13 6 0 20 -29 14 -29 24
-56 21 -59z"/>
<path d="M9321 6536 c-8 -9 -11 -19 -8 -22 9 -10 268 -26 304 -19 35 6 51 22
37 35 -5 4 -79 11 -164 15 -137 6 -157 5 -169 -9z"/>
<path d="M7490 6309 c-52 -16 -21 -27 96 -35 54 -3 114 -10 131 -16 22 -6 50
-6 87 2 63 13 90 34 54 43 -48 12 -333 17 -368 6z"/>
<path d="M10730 5779 c-89 -42 -305 -129 -319 -129 -7 0 -30 -9 -52 -21 -31
-15 -40 -25 -37 -42 4 -28 10 -27 142 22 152 57 376 167 376 186 0 23 -38 18
-110 -16z"/>
</g>
</svg>
