<?xml version="1.0" encoding="UTF-8"?>
<!DOCTYPE svg PUBLIC "-//W3C//DTD SVG 1.1//EN" "http://www.w3.org/Graphics/SVG/1.1/DTD/svg11.dtd">
<!-- Creator: CorelDRAW X7 -->
<svg xmlns="http://www.w3.org/2000/svg" xml:space="preserve" width="1.9685in" height="1.9685in" version="1.1" style="shape-rendering:geometricPrecision; text-rendering:geometricPrecision; image-rendering:optimizeQuality; fill-rule:evenodd; clip-rule:evenodd"
viewBox="0 0 1969 1969"
 xmlns:xlink="http://www.w3.org/1999/xlink">
 <defs>
  <style type="text/css">
   <![CDATA[
    .fil0 {fill:black}
   ]]>
  </style>
 </defs>
 <g id="Layer_x0020_1">
  <metadata id="CorelCorpID_0Corel-Layer"/>
  <g id="_2432398794976">
   <path class="fil0" d="M1026 1243c-1,13 -3,4 7,16 11,15 -5,-13 4,11 29,-17 52,-8 75,2l0 25c-18,6 -15,6 -29,-4 -25,-20 -28,-5 -69,-23l-5 5c-1,0 -1,1 -2,2 -13,10 -23,13 -42,6 -5,9 3,10 -4,6 -9,5 -18,8 -25,13 -11,7 -16,16 -16,15 -1,-1 -2,2 -3,3 14,-12 27,-18 43,-16l12 4 15 -15c20,-16 44,-12 67,0l-55 19c-23,12 -10,4 -8,7 5,-4 14,-8 26,-10 29,-5 17,-12 20,11 4,13 -3,16 -15,24 29,-17 40,-38 73,-34l25 33c-18,7 -32,11 -52,11l50 -1c-1,13 -14,25 -22,30 -11,7 -15,5 -28,2l0 4c38,0 16,14 8,26 15,8 8,1 9,0 1,-1 0,-4 10,-11 3,15 1,11 11,15 -4,-9 -9,-15 -11,-27l15 0c-5,-7 2,-4 -8,-11 6,-5 9,-7 15,-13l12 -10c10,-8 21,-11 35,-15 11,20 2,18 22,26 -9,-10 -14,-14 -13,-30 8,-3 32,-8 41,-8 28,-1 19,3 27,17l-52 -5c20,12 16,-2 52,20 22,15 8,4 11,2l-43 9 18 7c4,16 3,15 12,27l-59 8c10,0 20,-1 30,0 27,1 1,5 24,2 24,-4 15,-7 48,-6 0,0 -2,-14 -2,4 0,4 1,8 1,9 8,21 5,12 21,17 -7,-9 -11,-16 -13,-26 11,-11 38,-14 56,-10l0 29c-11,1 -14,4 -23,6 -9,2 -23,2 -23,2 -24,4 -20,26 -20,27 -41,4 -72,-19 -73,-33l0 -6c-4,8 0,8 -15,7l0 8 -8 -4c-17,0 -29,-5 -49,-8 -13,-2 -38,-7 -51,-6 -20,-4 -33,-6 -53,-1l-30 0c-8,0 -25,3 -34,5 -11,2 -21,8 -29,9 -27,5 -10,-7 -34,3l-38 14 -4 2 -11 -1c-18,-3 -20,-3 -34,3 -8,4 -21,15 -26,16 -12,5 -24,0 -38,4 -13,3 -16,10 -27,15 -11,5 -21,5 -32,10 -27,13 -45,17 -57,28 -9,9 -13,15 -16,30l6 -6c18,-17 16,-6 11,21l10 -16c3,-6 4,-12 6,-18l35 4c-4,12 -1,0 -1,0 10,-5 -6,-7 4,-1l2 74c2,19 6,-15 0,7 19,0 7,1 11,-4 16,0 2,1 8,-8 -21,7 -5,2 -12,0 -2,-36 -19,-56 20,-104 11,-13 10,-12 36,-3 3,10 -3,63 -8,80 1,-1 2,-4 3,-3 1,1 3,-1 4,-2l16 -8c-25,-2 -7,0 -17,-6 1,-17 6,-41 14,-54 12,-20 24,-44 48,-27 19,13 20,17 18,31 -2,17 -1,12 -10,18 7,11 11,8 8,25l3 -4 3 -57 17 -30c2,-4 3,-8 4,-12 11,3 16,5 25,10 12,5 17,11 20,24 1,1 2,6 2,7 3,20 -1,31 -13,40l13 -7c10,-12 -3,-22 10,-55 7,-16 -2,-11 13,-17 0,-1 1,-1 2,-2 1,0 2,0 3,-1l16 1c1,1 2,1 3,1 23,8 17,17 17,33 1,-2 2,-4 4,-9 2,-4 4,-7 6,-11 8,-17 37,-37 38,-38 18,0 -1,-3 10,9 6,6 14,11 21,13 -26,52 1,51 -26,63 26,14 10,20 30,24l-6 -6c-1,0 -2,-1 -3,-2 -15,-23 -2,-67 34,-87l28 13c6,2 -1,2 13,3 -11,12 -9,11 -16,28l18 -16c17,-14 34,-22 53,-7 -6,12 -9,2 -18,44l10 -19c3,-7 4,-10 9,-14 11,-10 42,-23 63,-9 9,6 7,13 22,17 -5,2 -11,5 -15,8 -14,11 -3,-2 -12,14 14,-8 29,-14 47,-16 7,10 17,15 27,23 0,1 0,1 0,2 -1,2 -1,3 -1,3 -2,26 -3,17 7,24l-1 -3c0,0 -9,-10 12,-25 14,-10 24,-5 39,-3 3,28 -3,-6 12,16l3 9c30,-9 38,8 66,9 -2,-1 -3,-15 -8,3 -2,9 1,14 3,20l3 -5c12,-23 -9,18 3,-5 3,-7 -3,-2 6,-10 17,4 16,13 37,18l-7 4c-16,4 -14,3 -26,-3l-4 6c-6,7 -14,5 -27,13 46,2 24,2 44,-5 33,-13 18,10 27,22l-14 0c8,10 -12,6 16,8l12 -1c2,-24 -3,-19 -6,-30 0,0 0,-1 0,-1 -5,-19 -4,-7 -8,-17 7,23 41,34 75,32 48,-2 73,33 68,-30 -5,-25 -30,-34 -61,-34 -1,-9 -1,-14 -6,-20 -7,-9 -8,-8 -21,-11l3 27c-7,-1 -15,-10 -38,-23 -2,-9 0,-9 9,-23 -12,-1 -33,-17 -39,-23l4 -27c0,0 -1,5 0,-4l9 -48c-8,32 -24,41 -24,75 -21,-25 -17,-34 -23,-38l4 35c-4,-1 -2,-3 -6,-9 -17,-20 -25,-16 -49,-24 -9,-1 6,3 -8,-8 -16,-14 -29,-11 -29,-36 -41,-2 -19,-11 -71,-29 -23,-8 -5,6 -18,-16 -11,-19 -34,-38 -53,-46 -6,-3 -6,-2 -11,-5 -1,0 -2,-1 -3,-1 -1,-1 -2,-1 -3,-2 -12,-5 6,2 -10,-4l0 6c-38,-1 -11,11 -42,8 -8,-6 -6,-9 -16,-17 -13,-13 -11,1 -12,-21l24 1 -19 -16c0,14 0,-3 -15,19 -15,-4 -28,-5 -42,-2 -11,-18 -8,-26 -10,-40l-3 -10c0,-2 -1,-2 -2,-3l0 52c-13,1 -9,-10 -31,-12z"/>
   <path class="fil0" d="M769 788c0,0 -2,1 -2,2l-36 18c-15,7 -7,5 -21,16 -10,8 -28,26 -30,38 -4,17 5,46 7,44 0,-1 1,3 2,4 -18,-5 -17,-6 -29,-11 1,0 6,39 6,42 -9,27 22,30 26,54 9,40 10,55 50,77 23,13 14,38 44,59 16,13 5,6 14,5l12 0c-9,5 -38,-39 -42,-44l53 41c-9,-46 23,-20 -20,-69l-11 -12c15,3 10,0 21,6 6,3 3,2 6,5 5,7 3,-2 0,4 10,-27 6,-19 19,-27 -10,47 -16,48 8,87 18,-9 12,6 19,-10 6,8 5,22 4,-5 -1,-14 -1,-23 4,-35l7 32c4,-11 4,-16 10,-24 6,-7 0,-2 8,-8 -11,29 -17,63 1,90 47,-5 39,3 50,3 1,-30 13,-30 12,-49 1,-12 -7,-19 -23,-31 -28,-22 -9,-23 -45,-77 -19,-29 -18,-25 -32,-22 0,-21 -6,-22 -9,-37 -8,-28 6,-24 -21,-79 -9,-17 -9,-16 -27,-7 7,-31 -3,-65 -15,-88 -12,1 -16,1 -20,8z"/>
   <path class="fil0" d="M479 1320c-1,11 -2,5 1,14 5,15 20,16 28,20 -8,27 -9,20 -2,50 5,20 7,30 18,42 1,-8 0,-8 2,-15 4,-16 1,-6 6,-12 -3,25 -8,13 -4,39 -1,5 -9,4 23,0 13,-2 17,-3 27,-8 19,-8 26,-17 38,-31 3,10 4,11 8,19 20,-4 25,-11 38,-15 -6,15 -7,7 4,15 6,-21 5,4 14,-34 0,-7 -2,-5 5,-5l15 -15 1 11 4 16c27,-2 38,-6 61,-15 8,-2 8,-3 19,-4 2,-8 0,-5 0,-11 3,-28 -4,-74 11,-88 -2,3 -25,19 -38,23 5,-26 14,-27 34,-35 -1,0 -1,0 -1,-1l-6 -10c24,2 17,8 26,-7 6,-8 8,-14 20,-16 -15,0 -45,-2 -54,-12 16,-5 22,-3 38,-3 -1,0 0,8 0,-2 0,-11 0,-2 0,-2 -23,-3 -20,-1 -42,0 -11,-3 -12,-1 -25,5 -14,7 -9,6 -28,6 -64,2 -62,13 -89,15 -64,6 -62,18 -87,20l4 15c-16,0 -82,-4 -69,31z"/>
   <path class="fil0" d="M970 1496c2,15 -4,3 -4,22 0,30 9,14 52,8 -1,1 -3,2 -4,3 -1,0 -2,1 -4,2l-7 4c-16,8 7,-8 -10,5l1 27 -1 9 21 -2c10,-3 10,-3 18,-5 1,-1 2,-3 2,-3 1,1 2,-1 3,-2 4,-2 2,-1 8,-3 27,21 11,26 4,53 15,-5 0,0 15,-11l16 11c-7,-24 -16,-3 -16,-38 13,7 12,14 16,19 0,-21 3,-14 -8,-19l0 -7c15,3 8,5 16,-8l11 -8 7 -4c2,17 0,7 8,20l15 0 19 -5 4 -1 7 0 16 -3c12,0 17,-3 29,-5 16,-3 19,1 32,2l5 11c4,11 -4,2 6,12l5 1c2,0 4,0 6,1 8,5 3,2 8,6l9 -1c22,5 46,4 69,0 32,-1 12,-3 17,26 4,17 16,19 8,38 -9,21 -2,4 -6,25 10,-8 8,-12 11,-27 11,4 4,7 16,15 -2,-20 -16,-26 -23,-57 18,5 4,1 21,24 4,4 6,7 9,10 -1,-19 1,-5 -8,-19 0,0 -4,-6 -4,-7 -1,0 -3,-3 -3,-4l-7 -6c-9,-9 -13,6 -6,-11 3,-9 5,-3 21,-3 1,0 7,0 7,0 12,4 4,1 8,4 5,3 5,2 10,5 1,1 4,2 5,3l8 4 11 -1 13 5 14 0c3,-2 -1,-4 5,-1 12,5 1,0 6,4l4 -3 14 0c-9,-12 6,-35 -27,-22 -20,7 2,7 -44,5 13,-8 21,-6 27,-13l4 -6c12,6 10,7 26,3l7 -4c-21,-5 -20,-14 -37,-18 -9,8 -3,3 -6,10 -12,23 9,-18 -3,5l-3 5c-2,-6 -5,-11 -3,-20 5,-18 6,-4 8,-3 -28,-1 -36,-18 -66,-9l-3 -9c-15,-22 -9,12 -12,-16 -15,-2 -25,-7 -39,3 -21,15 -12,25 -12,25l1 3c-10,-7 -9,2 -7,-24 0,0 0,-1 1,-3 0,-1 0,-1 0,-2 -10,-8 -20,-13 -27,-23 -18,2 -33,8 -47,16 9,-16 -2,-3 12,-14 4,-3 10,-6 15,-8 -15,-4 -13,-11 -22,-17 -21,-14 -52,-1 -63,9 -5,4 -6,7 -9,14l-10 19c9,-42 12,-32 18,-44 -19,-15 -36,-7 -53,7l-18 16c7,-17 5,-16 16,-28 -14,-1 -7,-1 -13,-3l-28 -13c-36,20 -49,64 -34,87 1,1 2,2 3,2l6 6c-20,-4 -4,-10 -30,-24 27,-12 0,-11 26,-63 -7,-2 -15,-7 -21,-13 -11,-12 8,-9 -10,-9 -1,1 -30,21 -38,38 -2,4 -4,7 -6,11 -2,5 -3,7 -4,9z"/>
   <path class="fil0" d="M854 1220c-26,-6 14,9 -36,-2 -15,-3 -35,-2 -45,10 22,-1 19,-3 42,0 0,0 0,-9 0,2 0,10 -1,2 0,2 -16,0 -22,-2 -38,3 9,10 39,12 54,12 -12,2 -14,8 -20,16 -9,15 -2,9 -26,7l6 10c0,1 0,1 1,1 -20,8 -29,9 -34,35 13,-4 36,-20 38,-23 -15,14 -8,60 -11,88 0,0 20,-2 -1,30 -15,24 -12,-4 -18,16 20,-1 25,-7 26,-27 5,1 17,-3 6,17 -6,10 -15,12 -32,29 12,-1 20,-7 34,-23 -1,28 -15,14 -23,35 19,-6 8,-11 27,-16 0,-26 -2,-24 8,-42 32,0 29,22 0,23l0 8c33,-1 22,-20 26,-39l-38 1c-10,-33 -5,-96 21,-121l21 -19c1,0 3,-1 4,-2l23 20c16,7 6,2 4,-1 -6,7 -1,1 -10,8 -1,0 -2,1 -3,1 0,1 -1,2 -2,2 -13,10 -19,17 -27,35 17,-6 5,-1 15,-7 4,-3 7,-6 10,-10 8,-8 12,-9 24,-10 -1,-29 -29,40 -24,88l10 7 11 -1 3 -2c7,-7 6,-4 20,-6l19 -2 0 19c14,-10 5,-2 4,-23 14,5 -3,2 13,13 1,1 2,1 3,2 1,0 2,0 2,1 8,3 -8,1 12,4 -1,10 -2,10 -4,19 10,-8 9,-9 12,-23 23,5 22,-2 23,19 14,-10 4,-10 17,-2 16,11 6,18 15,9 9,-9 -5,-8 -20,-19 -3,-2 -6,-5 -8,-7 19,-1 26,-9 38,-4 4,14 1,-6 -12,11 20,-1 21,-8 35,-10l6 3 5 0 8 0c13,3 17,5 28,-2 8,-5 21,-17 22,-30l-50 1c20,0 34,-4 52,-11l-25 -33c-33,-4 -44,17 -73,34 12,-8 19,-11 15,-24 -3,-23 9,-16 -20,-11 -12,2 -21,6 -26,10 -2,-3 -15,5 8,-7l55 -19c-23,-12 -47,-16 -67,0l-15 15 -12 -4c-16,-2 -29,4 -43,16 1,-1 2,-4 3,-3 0,1 5,-8 16,-15 7,-5 16,-8 25,-13 7,4 -1,3 4,-6 19,7 29,4 42,-6 1,-1 1,-2 2,-2l5 -5c41,18 44,3 69,23 14,10 11,10 29,4l0 -25c-23,-10 -46,-19 -75,-2 -9,-24 7,4 -4,-11 -10,-12 -8,-3 -7,-16 -27,3 22,7 -7,-1l-8 -3c-12,-6 -24,-11 -43,-11 -12,0 -23,2 -31,7 -17,11 12,6 -11,4l-3 17c0,1 -12,6 -12,6 0,0 0,-1 -1,-1 -7,-20 -16,-17 -18,-23 -1,-2 -2,-1 -3,-2 16,9 12,4 26,11l-1 -6c4,-14 -4,2 4,-7 12,-13 11,-3 12,-2 -8,-6 -20,-14 -32,-16 -23,-3 -26,-3 -44,4z"/>
   <path class="fil0" d="M1191 1086c5,14 3,11 15,20 28,23 -7,5 20,33 7,8 7,9 18,12 -19,29 13,24 27,58 24,-7 37,-42 92,-16l4 34c-2,-4 4,-3 -7,-3l-5 3c0,0 0,1 0,1 -24,0 -22,4 -49,2 -19,-2 -35,-4 -47,-2 7,15 12,22 31,27 -1,17 -18,17 12,41 5,4 12,9 15,12 10,10 7,19 20,30 16,13 5,-3 18,19l4 5c4,-10 12,-14 21,-19 16,-8 31,-4 48,-4 0,10 3,10 4,11 0,-18 0,-29 7,-42l27 -34c-11,4 -14,4 -23,11 0,0 7,-6 -2,-9 -10,-4 -2,-7 -10,9 -6,13 -8,24 -11,35 4,-4 -3,-16 -3,-20 -1,-5 3,-18 6,-24l7 -16c14,-30 12,1 25,-28 -18,8 -18,6 -31,15 0,0 1,0 1,0l0 -1c0,0 -2,-1 -2,0l-5 0c-6,4 -4,0 -6,8 -5,14 -3,4 0,9 -7,-9 1,-5 -11,-6 -18,-3 -8,2 -8,2 0,-24 10,-29 19,-43 1,-1 1,-2 2,-2l10 -21c-16,4 -9,4 -26,1 -1,0 -9,-2 -9,-2 -1,-1 -2,-1 -3,-1l-9 -4c0,-11 10,-20 24,-39 0,0 -9,-5 19,-8 -8,-8 14,-20 -21,-4 -11,5 10,5 -15,3 2,-14 2,-10 6,-22 7,-19 3,-20 -1,-27 -4,14 -4,14 -10,25l-10 21c-3,-8 0,-2 -8,-8 -1,-1 -2,-2 -2,-2 -1,0 -2,-1 -2,-2 22,-36 17,-46 45,-48 8,-1 -1,-2 11,-5l-5 -14c-1,-1 -1,-2 -1,-3 -1,-2 -3,-8 -4,-9 -7,-14 10,4 -6,-9l2 33c-23,3 -43,27 -45,34 -5,18 -4,0 1,6l0 -23c-1,1 -3,3 -4,4 -16,17 -6,10 -4,12l-7 -2c-34,-9 17,-55 28,-66 8,-9 -1,6 6,-9 -13,-10 -3,3 -9,-18 0,0 -2,-9 -2,-9 -6,-13 3,-2 -8,-11 5,31 18,30 -10,51 -7,6 -29,23 -21,33 0,-14 9,-58 16,-73l-27 61c5,-2 6,4 0,-4 -3,-5 8,0 -4,-3 -14,-2 -1,-1 -8,5l4 -40c-1,0 -2,0 -3,0 0,0 -2,-1 -2,-1 -11,-2 1,7 -6,-2l-17 -44c-2,9 4,35 5,43l0 27c1,0 1,-1 1,-1 0,0 0,-2 0,-2 0,0 12,-3 -2,-1l-14 8c44,26 11,31 19,36 -15,-1 -31,0 -43,-1 -39,-3 -26,-13 -41,3l50 8c-8,-6 12,-2 -5,0 -38,4 -16,-3 -56,-4z"/>
   <path class="fil0" d="M578 501c9,9 2,-11 9,11 9,-5 4,-3 12,2l-5 -31c1,1 2,1 3,3l14 25c3,8 12,21 5,24 7,-36 19,-32 27,-34 -18,23 -14,22 -15,40 0,32 -16,0 -12,73 19,11 14,3 12,9 5,-20 10,-25 19,-41 17,0 -2,18 44,-2 8,-4 14,-5 25,-7 7,-1 3,-1 11,-1 20,1 -7,12 6,1 8,-28 3,-32 -3,-57l28 -10c8,-2 -5,7 6,-2 7,-31 1,-30 -2,-57 5,-15 2,-19 -4,-31 -9,5 -21,13 -31,16 0,-45 -5,-31 -7,-54 -21,2 -34,21 -54,27 -1,-17 -12,-31 -23,-38 -22,15 -38,42 -38,80 -18,-9 -28,-10 -31,35 0,1 0,10 0,10 2,13 -2,7 4,9z"/>
   <path class="fil0" d="M771 1578l18 -3c0,-1 3,-5 0,5l-4 11c10,7 8,-3 4,9 -4,12 3,3 -8,7l-4 4c3,11 0,5 8,11 2,-24 -1,4 14,-28 0,0 1,-2 1,-3 0,22 4,26 4,43 13,-3 3,-2 12,-4 16,-4 8,0 14,-6l43 -40c2,11 5,15 -4,22 -1,1 -2,1 -3,2 0,0 -1,1 -2,1 -1,0 -2,1 -3,1 -15,6 -6,-4 -15,8 39,0 4,18 0,31 10,-3 4,1 8,-8 12,1 5,2 8,5 11,10 4,3 8,-19 3,-26 10,-26 33,-32 -8,11 1,8 -19,8l0 8c38,-3 13,-23 42,-31l-11 23c-1,1 -1,2 -2,2 0,1 -3,3 -3,4l-26 21c13,-2 20,-7 35,-23 -1,28 -16,13 -23,34 12,-6 15,-12 27,-15 0,-16 -4,-46 21,-40 8,2 5,-3 9,13 -9,6 -7,7 -23,8 1,2 2,14 18,3 13,-9 11,-17 5,-30 14,-4 5,-4 19,-8 -6,12 -11,21 -11,39 3,-3 2,-2 5,-7 2,-5 1,-2 3,-8 1,-4 1,-5 3,-8 4,-8 1,-4 4,-8 1,-18 0,-15 12,-23l0 10 6 0 -1 -27c17,-13 -6,3 10,-5l7 -4c2,-1 3,-2 4,-2 1,-1 3,-2 4,-3 -43,6 -52,22 -52,-8 0,-19 6,-7 4,-22 0,-16 6,-25 -17,-33 -1,0 -2,0 -3,-1l-16 -1c-1,1 -2,1 -3,1 -1,1 -2,1 -2,2 -15,6 -6,1 -13,17 -13,33 0,43 -10,55l-13 7c12,-9 16,-20 13,-40 0,-1 -1,-6 -2,-7 -3,-13 -8,-19 -20,-24 -9,-5 -14,-7 -25,-10 -1,4 -2,8 -4,12l-17 30 -3 57 -3 4c3,-17 -1,-14 -8,-25 9,-6 8,-1 10,-18 2,-14 1,-18 -18,-31 -24,-17 -36,7 -48,27 -8,13 -13,37 -14,54 10,6 -8,4 17,6z"/>
   <path class="fil0" d="M1432 1350c0,1 1,1 1,2 1,3 4,0 6,10 2,-9 8,-15 12,-23 11,12 4,22 3,30 4,-2 6,-5 15,-4 17,3 -1,-2 5,3l3 4c0,1 0,2 1,3 2,-13 3,-12 4,-25l10 9c1,1 2,2 2,3l2 5c1,10 -26,17 -34,56 -4,-2 -32,-21 -62,2 24,8 32,4 49,24 4,6 2,8 6,9l-4 -35c6,4 2,13 23,38 0,-34 16,-43 24,-75l-9 48c-1,9 0,4 0,4l-4 27c6,6 27,22 39,23 -9,14 -11,14 -9,23 23,13 31,22 38,23l-3 -27c-2,-8 8,1 -3,-5 -9,-4 1,-1 -12,-2 2,-20 8,-48 0,-73 -8,-28 -12,-3 -17,-40 -6,-41 12,-42 -15,-74 -5,-5 -2,-1 -6,-9l-23 -61c-6,-17 5,-18 -3,-43 -8,-26 -11,-20 -32,-18 3,-14 7,-26 2,-44 -2,-8 -2,-10 -8,-14 -6,-3 -10,2 -13,0 5,-10 7,-36 2,-47 -9,-17 -1,-6 -9,-6 -12,3 -3,4 -11,5 -28,2 -23,12 -45,48 0,1 1,2 2,2 0,0 1,1 2,2 8,6 5,0 8,8l10 -21c6,-11 6,-11 10,-25 4,7 8,8 1,27 -4,12 -4,8 -6,22 25,2 4,2 15,-3 35,-16 13,-4 21,4 -28,3 -19,8 -19,8 -14,19 -24,28 -24,39l9 4c1,0 2,0 3,1 0,0 8,2 9,2 17,3 10,3 26,-1l-10 21c-1,0 -1,1 -2,2 -9,14 -19,19 -19,43 0,0 -10,-5 8,-2 12,1 4,-3 11,6 -3,-5 -5,5 0,-9 2,-8 0,-4 6,-8l5 0c0,-1 2,0 2,0l0 1c0,0 -1,0 -1,0 13,-9 13,-7 31,-15 -13,29 -11,-2 -25,28l-7 16c-3,6 -7,19 -6,24 0,4 7,16 3,20 3,-11 5,-22 11,-35 8,-16 0,-13 10,-9 9,3 2,9 2,9 9,-7 12,-7 23,-11l-27 34c-7,13 -7,24 -7,42z"/>
   <path class="fil0" d="M1083 430c0,29 8,61 8,90 1,88 11,200 1,291l-5 145c0,22 -3,28 -4,46 -2,34 1,65 -3,96 -4,37 7,63 2,95l29 20c1,1 2,1 3,2 -3,-43 -8,-14 -8,-98l12 -307c0,-21 4,-24 4,-45l0 -161c0,-30 -4,-73 -7,-100l-9 -84c-4,-13 5,-3 -7,-11l5 38c-25,9 20,4 -5,-2 -8,-1 4,-10 -5,6l-4 6c0,-11 0,-18 -7,-27z"/>
   <path class="fil0" d="M1191 1086c40,1 18,8 56,4 17,-2 -3,-6 5,0l-50 -8c15,-16 2,-6 41,-3 12,1 28,0 43,1 -8,-5 25,-10 -19,-36l14 -8c14,-2 2,1 2,1 0,0 0,2 0,2 0,0 0,1 -1,1l0 -27c-1,-8 -7,-34 -5,-43l17 44c7,9 -5,0 6,2 0,0 2,1 2,1 1,0 2,0 3,0l-4 40c7,-6 -6,-7 8,-5 12,3 1,-2 4,3 6,8 5,2 0,4l27 -61c-7,15 -16,59 -16,73 -8,-10 14,-27 21,-33 28,-21 15,-20 10,-51 5,-14 3,-22 -12,-21 -1,0 -3,1 -4,1 -9,2 -11,-48 -45,-57l-15 42c-12,-8 -9,-11 -23,-15 -3,13 -8,20 -12,34 -13,-3 -20,-8 -34,-11l0 46c-31,-7 -26,0 -54,0 1,16 16,45 35,50 -9,12 -7,3 -16,15 7,24 16,15 16,15z"/>
   <path class="fil0" d="M1083 430c7,9 7,16 7,27l4 -6c9,-16 -3,-7 5,-6 25,6 -20,11 5,2l-5 -38c17,-47 -51,-133 -12,-192 30,1 20,16 66,37 18,9 64,22 87,13l15 0c6,-17 10,-55 4,-73 -2,-5 5,0 -6,-5 -7,-3 -3,-1 -12,-3 -5,-2 -16,-3 -26,-5 -5,-1 -11,-2 -17,-2l-39 0c-2,0 -4,0 -6,1 -47,5 -141,-17 -92,144 7,25 19,77 22,106z"/>
   <path class="fil0" d="M352 1381l16 -2c7,9 20,31 20,44 -43,14 -38,1 -63,-4l-3 16 11 0c-5,1 -7,14 -7,25 -2,37 5,37 -47,36 8,10 -16,7 46,7 0,18 -3,31 -3,54 27,0 8,2 15,-8l-8 0c0,-36 -5,-72 16,-115 13,3 24,5 40,0 -7,35 -7,79 -14,108 11,8 4,-3 8,11 0,4 0,15 0,19 27,0 8,2 15,-7l-10 0c-2,-26 2,-42 2,-72 -1,-30 7,-69 26,-95 12,11 1,-7 4,10 2,16 0,-1 0,12 0,23 0,65 5,83l35 4c-11,9 8,9 0,31 24,0 36,-33 38,-57 -15,5 -51,23 -65,11 -9,-8 -16,-65 -3,-95 6,-14 11,-20 29,-32l14 59c2,10 -11,-14 2,5l8 9c1,2 2,3 3,4l12 42c10,-4 8,0 16,-10 5,-6 5,-9 7,-16l11 0c-4,-26 1,-14 4,-39 -5,6 -2,-4 -6,12 -2,7 -1,7 -2,15 -11,-12 -13,-22 -18,-42 -7,-30 -6,-23 2,-50 -8,-4 -23,-5 -28,-20 -3,-9 -2,-3 -1,-14 -41,6 -59,14 -81,46 -20,0 -35,-2 -46,15z"/>
   <path class="fil0" d="M1110 1392c1,23 32,15 73,50l8 -4c15,1 11,1 15,-7l0 6c1,14 32,37 73,33 0,-1 -4,-23 20,-27 0,0 14,0 23,-2 9,-2 12,-5 23,-6l0 -29c-18,-4 -45,-1 -56,10 2,10 6,17 13,26 -16,-5 -13,4 -21,-17 0,-1 -1,-5 -1,-9 0,-18 2,-4 2,-4 -33,-1 -24,2 -48,6 -23,3 3,-1 -24,-2 -10,-1 -20,0 -30,0l59 -8c-9,-12 -8,-11 -12,-27l-18 -7 43 -9c-3,2 11,13 -11,-2 -36,-22 -32,-8 -52,-20l52 5c-8,-14 1,-18 -27,-17 -9,0 -33,5 -41,8 -1,16 4,20 13,30 -20,-8 -11,-6 -22,-26 -14,4 -25,7 -35,15l-12 10c-6,6 -9,8 -15,13 10,7 3,4 8,11z"/>
   <path class="fil0" d="M800 1136c10,14 11,8 25,14 21,9 6,12 26,42 7,9 12,11 18,21 -27,0 -8,-2 -15,7 18,-7 21,-7 44,-4 12,2 24,10 32,16 -1,-1 0,-11 -12,2 -8,9 0,-7 -4,7l1 6c-14,-7 -10,-2 -26,-11 1,1 2,0 3,2 2,6 11,3 18,23 1,0 1,1 1,1 0,0 12,-5 12,-6l3 -17c23,2 -6,7 11,-4 8,-5 19,-7 31,-7 19,0 31,5 43,11l8 3c29,8 -20,4 7,1l-5 -12c-2,-3 -6,-16 -7,-18 -5,-24 1,-21 2,-42 6,-2 -8,-4 14,-1 -6,-14 2,-9 -16,-15 2,14 -7,47 -7,72 -11,-6 -24,-5 -38,-3 -7,-25 -21,-64 -5,-88l20 4c-7,-10 -1,-3 -10,-10l-13 -9c1,19 -11,19 -12,49 -11,0 -3,-8 -50,-3 -18,-27 -12,-61 -1,-90 -8,6 -2,1 -8,8 -6,8 -6,13 -10,24l-7 -32c-5,12 -5,21 -4,35 1,27 2,13 -4,5 -7,16 -1,1 -19,10 -24,-39 -18,-40 -8,-87 -13,8 -9,0 -19,27 3,-6 5,3 0,-4 -3,-3 0,-2 -6,-5 -11,-6 -6,-3 -21,-6l11 12c43,49 11,23 20,69l-53 -41c4,5 33,49 42,44l-12 0z"/>
   <path class="fil0" d="M643 723c-18,-1 -7,-3 -24,-8 -13,-3 -8,0 -24,0l2 23c-5,13 -3,10 -1,20 2,6 2,5 3,8 6,10 0,4 6,6 11,5 3,1 9,5 4,2 8,4 11,6 1,0 5,3 6,4 5,5 6,0 1,4 0,-2 -1,-19 -1,-19 3,-29 -1,-12 12,-23 0,29 -6,60 22,61l5 1c0,-12 0,-21 5,-32l22 -22c-9,23 -12,26 -12,54 -2,-4 -7,6 0,-6 6,-10 64,-26 77,-29 8,-4 -2,8 4,-4l6 -27c1,-8 2,-16 2,-23 -1,-27 0,-13 -5,-15 -12,1 -6,0 -11,4l-2 -4c-4,-6 6,-3 -7,-4 0,0 -18,3 -20,4 -69,13 -46,15 -70,25 -24,11 -16,-9 -16,-9z"/>
   <path class="fil0" d="M1363 1519c19,10 45,19 73,19 -5,3 0,3 -8,0l-22 -15c-13,-12 -4,-2 -12,-15l23 8c15,-16 -8,21 0,-6 1,0 1,-2 1,-2 0,0 1,-2 1,-2 0,-1 1,-2 1,-3 5,8 0,2 8,7 1,1 12,6 15,8 13,-6 33,-17 44,-12 -5,-10 -6,-15 -2,-28 -6,1 -18,-8 -23,-9 -8,-2 -21,4 -31,-4 -17,-13 -1,3 -3,-6 0,-1 -2,-12 -2,-12 -3,-9 -36,-19 -55,-16 -25,4 -25,19 -29,27 -3,-25 -24,-15 -42,-6l-15 9c4,5 10,11 14,15 12,16 0,11 29,23 14,6 6,4 21,6 -6,-7 -10,-15 -13,-28l8 14c4,7 -1,2 6,9 6,7 12,4 13,19z"/>
   <path class="fil0" d="M578 501c3,44 16,4 4,61 -3,12 -4,19 -2,32 3,20 7,19 10,37 17,-12 43,-13 38,12 -5,23 -5,36 -9,62l-18 -5c-6,9 10,7 -11,7 0,2 -1,15 -1,16 3,14 -1,7 8,15l-2 -23c16,0 11,-3 24,0 17,5 6,7 24,8l-5 -7c-7,-9 -2,0 -6,-8 -3,-5 -17,-58 9,-76 15,-10 25,-18 39,-22 13,-3 39,-9 51,-6l13 -41c0,-2 47,-51 25,-105 -5,-13 4,-2 -7,-11 3,27 9,26 2,57 -11,9 2,0 -6,2l-28 10c6,25 11,29 3,57 -13,11 14,0 -6,-1 -8,0 -4,0 -11,1 -11,2 -17,3 -25,7 -46,20 -27,2 -44,2 -9,16 -14,21 -19,41 2,-6 7,2 -12,-9 -4,-73 12,-41 12,-73 1,-18 -3,-17 15,-40 -8,2 -20,-2 -27,34 7,-3 -2,-16 -5,-24l-14 -25c-1,-2 -2,-2 -3,-3l5 31c-8,-5 -3,-7 -12,-2 -7,-22 0,-2 -9,-11z"/>
   <path class="fil0" d="M605 772c3,20 2,6 8,23 8,18 10,40 21,63 5,9 16,28 19,35 6,19 -1,36 13,48 0,-3 -5,-42 -6,-42 12,5 11,6 29,11 -1,-1 -2,-5 -2,-4 -2,2 -11,-27 -7,-44 2,-12 20,-30 30,-38 14,-11 6,-9 21,-16l36 -18c0,-1 2,-2 2,-2 -10,-3 -7,7 -7,-12 -13,3 -71,19 -77,29 -7,12 -2,2 0,6 0,-28 3,-31 12,-54l-22 22c-5,11 -5,20 -5,32l-5 -1c-28,-1 -22,-32 -22,-61 -13,11 -9,-6 -12,23 0,0 1,17 1,19 5,-4 4,1 -1,-4 -1,-1 -5,-4 -6,-4 -3,-2 -7,-4 -11,-6 -6,-4 2,0 -9,-5z"/>
   <path class="fil0" d="M1359 1362l-5 11 9 8c0,25 13,22 29,36 14,11 -1,7 8,8 30,-23 58,-4 62,-2 8,-39 35,-46 34,-56l-2 -5c0,-1 -1,-2 -2,-3l-10 -9c-1,13 -2,12 -4,25 -1,-1 -1,-2 -1,-3l-3 -4c-6,-5 12,0 -5,-3 -9,-1 -11,2 -15,4 1,-8 8,-18 -3,-30 -4,8 -10,14 -12,23 -2,-10 -5,-7 -6,-10 0,-1 -1,-1 -1,-2 -1,-1 -4,-1 -4,-11 -17,0 -32,-4 -48,4 -9,5 -17,9 -21,19z"/>
   <path class="fil0" d="M712 1618l5 1c7,3 1,-2 6,4 4,5 4,6 4,14 14,-1 19,-4 28,-10 8,-6 14,-11 22,-16l4 -4c4,-9 2,0 3,-8 3,-11 1,3 1,-8l4 -11c3,-10 0,-6 0,-5l-18 3 -16 8c-1,1 -3,3 -4,2 -1,-1 -2,2 -3,3 5,-17 11,-70 8,-80 -26,-9 -25,-10 -36,3 -39,48 -22,68 -20,104 7,2 -9,7 12,0z"/>
   <path class="fil0" d="M643 723c10,-13 -2,-10 9,-40 9,-23 8,-22 22,-34 1,-1 2,-2 4,-3 -6,19 -11,19 -13,38 19,-13 -11,-7 21,-11 8,-1 7,0 14,-2l39 -12c1,0 3,0 3,-1 1,0 3,0 4,-1 -4,6 -3,4 1,14l0 -33c4,-12 5,-5 -2,-21 -1,0 -6,-9 -6,-9 -7,-7 0,-4 -8,-4 -12,-3 -38,3 -51,6 -14,4 -24,12 -39,22 -26,18 -12,71 -9,76 4,8 -1,-1 6,8l5 7z"/>
   <path class="fil0" d="M838 1392l4 4c8,-4 18,-5 24,-12l-10 -7c-5,-48 23,-117 24,-88 -12,1 -16,2 -24,10 -3,4 -6,7 -10,10 -10,6 2,1 -15,7 8,-18 14,-25 27,-35 1,0 2,-1 2,-2 1,0 2,-1 3,-1 9,-7 4,-1 10,-8 2,3 12,8 -4,1l-23 -20c-1,1 -3,2 -4,2l-21 19c-26,25 -31,88 -21,121l38 -1z"/>
   <path class="fil0" d="M620 1565c-12,9 -26,42 -27,65 18,0 26,2 39,-4 1,18 -4,9 9,15 0,0 1,0 2,0l4 1c1,1 6,2 11,2 5,0 31,-6 35,-14 6,-22 2,12 0,-7l-2 -74c-10,-6 6,-4 -4,1 0,0 -3,12 1,0l-35 -4c-2,6 -3,12 -6,18l-10 16c5,-27 7,-38 -11,-21l-6 6z"/>
   <path class="fil0" d="M1509 1618c0,0 1,-2 1,-2 0,1 1,-2 1,-3 1,-5 1,-5 1,-10l12 0c5,19 12,9 7,31 2,3 2,2 4,7 3,6 1,2 3,9 2,7 3,11 5,18 3,-5 4,-4 1,-16 -3,-15 -4,-6 -5,-22 22,6 10,6 12,22 2,20 11,13 26,20 -4,-11 1,-2 -8,-7 -6,-4 0,4 -10,-6 -9,-9 -1,-6 -1,-25 -17,-12 -17,-8 -27,-27 24,2 22,13 36,25 18,16 18,15 18,48 9,5 15,12 27,15 -6,-16 3,-1 -12,-12 -9,-7 -7,1 -11,-15 18,5 18,15 34,19 -16,-24 -29,-12 -38,-50l11 0c1,26 7,26 27,31l0 -8c-15,0 -9,1 -19,-3 -1,-54 -35,-4 -46,-46l42 4c2,17 5,18 23,19 2,6 3,13 6,21 12,35 9,42 12,50 1,2 2,4 2,5l2 0c0,-4 -2,-14 -3,-15 13,3 6,6 19,11 -6,-22 -12,-4 -19,-34 22,2 14,10 19,-4 6,3 4,2 12,4 -9,-14 -15,-24 -27,-35 23,2 4,8 31,8l-58 -15c-12,-4 -8,0 -11,-12l63 6c16,5 4,0 9,6l12 19c-21,31 -7,4 -15,38 16,-11 9,-4 7,-23 9,6 8,8 23,8 -7,-23 2,7 -8,-9 -5,-7 -3,-11 1,-18 23,6 7,22 30,31 -6,-23 -14,-6 -15,-35 -18,0 -27,-1 -31,-15 16,0 16,2 27,-4 0,0 1,-12 -27,-15 -12,-1 -29,0 -42,0l-1 -26c-2,-9 1,-3 -3,-9 5,63 -20,28 -68,30 -34,2 -68,-9 -75,-32 4,10 3,-2 8,17 0,0 0,1 0,1 3,11 8,6 6,30z"/>
   <path class="fil0" d="M1026 1243c22,2 18,13 31,12l0 -52c1,1 2,1 2,3l3 10c2,14 -1,22 10,40 14,-3 27,-2 42,2 15,-22 15,-5 15,-19 2,-9 6,-2 -3,-15 -8,-13 -5,-7 -12,-9 -1,-1 -2,-1 -3,-2l-29 -20c-8,-5 -14,-9 -21,-15 -11,-8 -16,-13 -31,-8 -22,-3 -8,-1 -14,1 -1,21 -7,18 -2,42 1,2 5,15 7,18l5 12z"/>
   <path class="fil0" d="M394 1565c15,5 23,-2 35,-7 8,-3 10,-3 16,-8 18,-11 10,-4 11,-12 8,-22 -11,-22 0,-31l-35 -4c-5,-18 -5,-60 -5,-83 0,-13 2,4 0,-12 -3,-17 8,1 -4,-10 -19,26 -27,65 -26,95 0,30 -4,46 -2,72l10 0z"/>
   <path class="fil0" d="M494 1481l0 3 -12 -42c-1,-1 -2,-2 -3,-4l-8 -9c-13,-19 0,5 -2,-5l-14 -59c-18,12 -23,18 -29,32 -13,30 -6,87 3,95 14,12 50,-6 65,-11z"/>
   <path class="fil0" d="M643 723c0,0 -8,20 16,9 24,-10 1,-12 70,-25 2,-1 20,-4 20,-4 13,1 3,-2 7,4l2 4c5,-4 -1,-3 11,-4 0,-24 -4,-4 -19,-11 3,-12 4,-11 5,-27 1,-35 -3,-27 -8,-31l0 33c-4,-10 -5,-8 -1,-14 -1,1 -3,1 -4,1 0,1 -2,1 -3,1l-39 12c-7,2 -6,1 -14,2 -32,4 -2,-2 -21,11 2,-19 7,-19 13,-38 -2,1 -3,2 -4,3 -14,12 -13,11 -22,34 -11,30 1,27 -9,40z"/>
   <path class="fil0" d="M337 1549c15,8 22,-2 34,-7 7,-29 7,-73 14,-108 -16,5 -27,3 -40,0 -21,43 -16,79 -16,115l8 0z"/>
   <path class="fil0" d="M1240 267c6,13 -7,4 16,8 0,0 16,-1 18,-1 16,-3 15,-8 30,-12 33,-11 37,13 66,-6 -13,-18 -36,-11 -55,-29 -21,-19 -15,-33 -56,-33 6,18 2,56 -4,73l-15 0z"/>
   <path class="fil0" d="M1014 1155c-3,-9 5,4 -3,-5 -3,-4 -4,-4 -8,-7 -12,-7 -8,-6 -19,-3l-20 -4c-16,24 -2,63 5,88 14,-2 27,-3 38,3 0,-25 9,-58 7,-72z"/>
   <path class="fil0" d="M1271 1209c-7,-1 -2,-3 -10,1 -7,4 -5,4 -9,10 8,17 0,6 7,8 12,-2 28,0 47,2 27,2 25,-2 49,-2 0,0 0,-1 0,-1l5 -3c11,0 5,-1 7,3l-4 -34c-55,-26 -68,9 -92,16z"/>
   <path class="fil0" d="M1374 1025c-7,15 2,0 -6,9 -11,11 -62,57 -28,66l7 2c-2,-2 -12,5 4,-12 1,-1 3,-3 4,-4l0 23c-5,-6 -6,12 -1,-6 2,-7 22,-31 45,-34l-2 -33c3,-10 3,-3 -1,-14 0,0 -6,-12 -6,-12 -24,6 -16,15 -16,15z"/>
   <path class="fil0" d="M1313 1630c7,-5 5,-2 9,-10l6 -13c3,11 0,5 8,11 -11,15 -6,1 -11,16 17,-5 11,-13 20,-9 14,7 2,1 4,8 4,20 -5,15 -9,31 3,5 2,-4 4,12l7 0c-4,-17 -8,-22 12,-27 0,-25 -3,-22 -19,-31 5,-14 -1,0 5,-9 4,-7 3,-5 6,-10 -14,4 -8,4 -19,12 0,-16 2,-15 8,-24 -23,4 -47,5 -69,0 -9,22 8,21 -12,58 14,-4 11,0 12,-15l8 10c1,1 2,2 2,3 0,0 1,1 1,2 1,-14 3,-21 8,-31 -9,-11 2,-6 -15,-7l0 -16 19 0c0,36 17,14 0,46 30,-6 -7,4 23,12 -9,12 -10,5 -12,23 1,-1 2,-3 2,-2 1,2 3,-10 18,-16l3 -1c-12,-19 -14,-8 -19,-23z"/>
   <path class="fil0" d="M590 631c-1,0 -7,-7 -11,12 -4,15 4,56 22,57l18 5c4,-26 4,-39 9,-62 5,-25 -21,-24 -38,-12z"/>
   <path class="fil0" d="M880 1381c1,5 2,4 -3,2l-11 1c-6,7 -16,8 -24,12 13,4 6,-3 4,11 -1,8 -3,3 -4,20 16,-12 2,-15 16,-31 4,8 5,9 7,19 -11,16 -24,12 -30,39 14,-11 3,-14 23,-19 -2,12 -4,15 -8,24l11 1 4 -37c20,15 9,20 0,35l38 -14c16,-28 -1,-25 6,-42l7 -8c1,0 2,-1 3,-2 -27,3 -16,17 -16,43l-7 0c-5,-11 -8,-37 -8,-54l12 -6c-14,2 -13,-1 -20,6z"/>
   <path class="fil0" d="M1443 1637c10,41 -1,27 12,31 11,-50 3,-5 0,-42 15,4 11,3 11,23 12,-9 8,-19 14,-6 5,10 -1,17 -2,29l25 13c9,4 8,9 21,18 -4,-14 -4,-9 -12,-20 3,-12 5,-11 8,-23l4 0c1,-16 4,-12 7,-26 -11,-7 -15,-5 -22,-16l-12 1c8,16 0,40 -4,57 -12,-7 -8,-20 -8,-39 -9,-6 -4,-4 -15,-7l0 -16 7 0c-5,-4 6,1 -6,-4 -6,-3 -2,-1 -5,1 -2,9 2,6 -7,5 -12,0 -4,1 -7,-5l-13 -5c1,1 2,1 2,2 1,2 13,13 2,29z"/>
   <path class="fil0" d="M325 1419c25,5 20,18 63,4 0,-13 -13,-35 -20,-44l-16 2c-8,-2 -8,-7 -30,16 -9,10 -21,28 3,22z"/>
   <path class="fil0" d="M1504 1549l13 10c8,6 14,14 20,18 20,15 33,13 60,11 -8,-26 -2,-10 -23,-31 -21,-21 -63,-17 -70,-8z"/>
   <path class="fil0" d="M1032 1569c4,5 -7,7 -11,17 -3,8 1,19 1,32l-8 0c-3,-7 -7,-31 -7,-42l7 -2 -21 2 1 -9 -6 0c-7,12 -1,5 -12,13 4,8 5,9 8,19 -11,14 -29,16 -31,38 12,-13 9,-15 23,-19 -1,15 -3,10 -4,27 6,-2 5,3 9,-15 1,-3 1,-5 0,-10 -1,-11 -8,-2 0,-10 2,-1 25,-8 3,35 10,-4 6,-7 20,-15 8,-4 17,-7 26,-12 -1,-17 -4,-15 -4,-34 14,-7 18,-5 19,-23 -6,2 -4,1 -8,3 -1,1 -2,3 -3,2 0,0 -1,2 -2,3z"/>
   <path class="fil0" d="M1103 1314c6,10 22,28 31,30 13,2 36,-13 44,-16l-4 -24c-23,-6 -55,-10 -71,10z"/>
   <path class="fil0" d="M279 1496c52,1 45,1 47,-36 0,-11 2,-24 7,-25l-11 0c-6,-2 -9,-10 -29,20 -9,13 -14,22 -14,41 -1,1 -2,2 -3,2l0 -1c0,0 2,-1 3,-1z"/>
   <path class="fil0" d="M1217 1618l4 0 6 2c10,6 12,6 13,21 12,-9 5,0 4,-23 20,6 3,4 19,16 -1,-18 -1,-18 -15,-20l13 -18c2,-2 3,-5 5,-8 -5,-4 0,-1 -8,-6 -2,-1 -4,-1 -6,-1l0 3 -5 -4c-10,-10 -2,-1 -6,-12l-5 -11c-7,21 -13,4 -30,31l0 12c10,-10 7,1 8,-20l7 0c0,28 -8,18 -4,38z"/>
   <path class="fil0" d="M959 1224c-9,-40 -1,-49 -59,-54 6,29 10,56 59,54z"/>
   <path class="fil0" d="M1194 1278c0,-7 3,-4 -5,-10 0,-1 -10,-8 -11,-8 -11,-7 -16,-11 -30,-5l-24 -1c1,22 -1,8 12,21 10,8 8,11 16,17 31,3 4,-9 42,-8l0 -6z"/>
   <path class="fil0" d="M1088 1561c2,4 2,-4 3,11 0,10 -1,9 -4,16 10,-4 7,8 8,-16l7 0c4,19 -8,19 -11,25 -4,6 1,9 -11,17 -4,14 -5,8 -12,20 24,-7 9,-20 34,-27 -3,14 -3,5 -7,19l10 -5c0,-1 1,-2 2,-2l3 -5c5,19 2,6 14,13 4,3 5,4 9,7 -4,-14 -4,-8 -11,-20 18,5 4,7 23,12 -13,-18 -13,-14 -31,-23l0 -15 17 10c8,3 -6,-1 5,2l9 -1c-6,-3 -7,-5 -12,-8l-38 -26c2,-9 0,-5 4,-12l-11 8z"/>
   <path class="fil0" d="M1152 1563c-2,9 0,8 -4,13 -11,-2 -5,1 -11,-7 21,0 5,0 11,-5l-19 5c5,5 -1,-3 5,6 2,3 2,2 4,7 4,8 5,9 7,17 11,5 7,-2 7,19 1,0 2,-3 2,-2l10 -13c11,-10 -3,-9 19,-4 -3,-9 -3,-14 -15,-19 0,-1 3,-4 4,-5l15 9c-1,-16 -2,-14 -12,-24l-16 3 -7 0z"/>
   <path class="fil0" d="M685 1399c-7,0 -5,-2 -5,5 17,7 13,9 17,15 -13,17 -16,-2 -12,12 6,3 2,4 19,-8 -1,21 -10,13 4,23l2 -21c-4,-12 -9,-4 -13,-21l5 3c7,3 -1,1 8,3 7,2 13,2 21,2 -8,11 -11,8 -15,23 30,-20 6,-28 42,-31 -2,20 -3,5 -8,23 -20,0 -15,-4 -23,8l19 0 0 15c-17,1 -12,3 -19,15 10,-2 5,2 8,-7 17,1 11,-6 8,11 17,-13 6,-14 10,-32 4,-20 12,-16 13,-41 -23,9 -34,13 -61,15l-4 -16c-12,4 -5,3 -16,4z"/>
   <path class="fil0" d="M1436 1668l1 -17c-16,-15 -1,5 -15,-19 -5,-10 -4,-7 -13,-10l0 -8c27,0 12,-1 22,13l12 10c-3,-13 -2,-5 -8,-14 -2,-4 0,1 -4,-8 -1,-1 -2,-6 -3,-8 -3,0 -20,1 -20,1 -4,-1 -2,4 -5,-4 -5,-16 -1,-4 2,-9 -4,-3 4,0 -8,-4 0,0 -6,0 -7,0 0,1 1,1 1,2l9 19c5,15 5,9 9,22 -7,10 -11,12 -12,30l5 -7c1,-3 3,-6 5,-10l9 -17c0,54 9,20 12,50l8 -12z"/>
   <path class="fil0" d="M1030 1427c20,-5 33,-3 53,1l-11 -9c2,-28 1,-8 -4,-30l0 -4 -8 0 5 15c-11,-6 -11,-5 -10,-15l-6 -3c0,11 2,13 4,22 -20,5 -6,1 -12,15l15 -4 1 8c-20,0 -18,-2 -27,4z"/>
   <path class="fil0" d="M1543 1668c-8,-4 -9,-5 -19,-8 5,11 2,11 0,23 1,2 2,4 4,7l5 7c1,0 1,1 2,2 -1,-15 -3,-10 -4,-27 13,5 7,8 23,19 -5,-19 -6,-4 -11,-23z"/>
   <polygon class="fil0" points="1217,1618 1214,1618 1217,1623 "/>
  </g>
 </g>
</svg>
