<svg id="Layer_1" enable-background="new 0 0 510.018 510.018" height="512" viewBox="0 0 510.018 510.018" width="512" xmlns="http://www.w3.org/2000/svg"><g><path d="m508.121 311.002c-7.179-24.332-22.317-46.22-42.622-61.63-50.268-38.149-122.529-31.156-164.181 18.314l.538-50.383c11.363-.945 22.66-2.822 33.73-5.654 28.545-7.303 42.905-39.164 29.512-65.227-15.504-30.168-46.193-48.908-80.09-48.908-33.894 0-64.584 18.74-80.088 48.906-13.398 26.069.949 57.893 29.346 65.184 12.336 3.166 24.925 5.166 37.586 5.988l-1.214 113.447c-.396 37.039-7.995 73.082-22.587 107.128l-11.609 27.091-61.279-81.705c-14.131-18.84-25.812-39.359-34.809-61.095 7.923-12.12 9.021-27.532 2.2-40.804-5.105-9.934-12.127-18.424-20.478-25.131-1.902-12.756-2.935-25.707-3.068-38.582l-.848-82.24c17.787-.852 35.498-3.424 52.83-7.689 26.75-6.581 41.912-35.076 32.033-60.721-7.543-19.588-20.654-36.319-37.918-48.387-35.842-25.057-83.936-25.346-120.195 0-17.261 12.067-30.374 28.799-37.917 48.387-9.846 25.569 5.183 54.101 31.908 60.691 16.158 3.984 32.67 6.497 49.257 7.516l.853 82.752c.08 7.669.457 15.361 1.108 23.033-33.916-7.361-69.187 8.402-85.617 40.371-11.905 23.164.84 51.447 26.076 57.925 2.515.527 13.367 3.636 29.656 4.897 1.288 52.528 32.611 100.121 80.631 121.947l29.896 13.59h-65.752v30h300v-30h-79.316l6.338-2.816c40.415-17.963 68.398-54.584 75.436-97.541 23.514-1.135 46.841-5.02 69.521-11.614 24.358-7.079 38.343-32.603 31.133-57.04zm-354.843 128.112c-37.417-17.008-61.876-54.019-63.051-94.92 8.397-.818 16.74-2.258 24.945-4.296 9.582 21.851 21.648 42.533 35.99 61.655l41.648 55.53zm166.569 10.67-54.518 24.229 10.297-24.027c11.896-27.757 19.579-56.716 22.988-86.427 3.248 1.902 6.754 3.417 10.465 4.495 22.16 6.438 44.916 10.3 67.864 11.53-6.636 30.942-27.538 57.062-57.096 70.2z"/></g></svg>