<?xml version="1.0" standalone="no"?>
<!DOCTYPE svg PUBLIC "-//W3C//DTD SVG 20010904//EN"
 "http://www.w3.org/TR/2001/REC-SVG-20010904/DTD/svg10.dtd">
<svg version="1.0" xmlns="http://www.w3.org/2000/svg"
 width="1280.000000pt" height="730.000000pt" viewBox="0 0 1280.000000 730.000000"
 preserveAspectRatio="xMidYMid meet">
<metadata>
Created by potrace 1.15, written by Peter Selinger 2001-2017
</metadata>
<g transform="translate(0.000000,730.000000) scale(0.100000,-0.100000)"
fill="#000000" stroke="none">
<path d="M12080 7294 c-19 -2 -98 -8 -175 -14 -282 -21 -458 -48 -563 -87
-106 -38 -149 -52 -262 -82 -48 -13 -149 -58 -280 -126 -112 -58 -209 -110
-214 -114 -13 -10 -402 -228 -551 -309 -55 -29 -109 -62 -120 -71 -11 -10
-110 -80 -220 -156 -110 -76 -239 -167 -286 -202 -176 -128 -327 -210 -724
-392 -143 -66 -290 -136 -325 -156 -65 -37 -238 -118 -275 -129 -11 -3 -129
-70 -263 -149 -247 -146 -502 -314 -585 -388 -26 -23 -52 -37 -58 -33 -6 4
-25 36 -41 71 -23 51 -26 68 -17 79 6 8 18 14 25 14 7 0 21 11 30 26 9 14 30
32 45 40 18 9 32 27 38 48 5 19 23 52 40 74 64 79 86 192 59 299 -11 47 -5 61
36 77 6 2 1 11 -11 21 -13 9 -23 20 -23 26 0 16 43 10 141 -23 94 -30 98 -31
132 -15 19 10 58 17 85 17 28 0 54 5 57 10 3 6 16 10 28 10 32 0 90 18 112 34
16 12 17 16 6 30 -8 9 -12 19 -9 21 2 3 39 11 82 20 92 17 140 45 253 147 43
38 122 104 176 145 102 79 129 110 107 123 -19 12 -43 1 -98 -43 -359 -293
-392 -317 -429 -317 -19 0 -21 4 -16 35 5 32 4 35 -19 35 -18 0 -37 -13 -62
-45 -40 -49 -69 -57 -86 -25 -11 20 -11 20 -54 -5 -44 -26 -56 -24 -56 5 0 10
-7 24 -16 31 -14 12 -21 9 -48 -24 -19 -22 -40 -37 -53 -37 -29 0 -29 3 2 47
24 36 25 53 2 53 -7 0 -37 -27 -67 -60 -53 -59 -57 -61 -123 -72 -93 -15 -98
-7 -53 77 20 38 36 72 36 77 0 20 -23 4 -57 -42 -22 -29 -41 -46 -46 -41 -12
12 1 67 19 82 8 6 14 15 14 20 0 14 -26 10 -40 -6 -18 -22 -29 -19 -36 10 -7
27 -32 33 -52 13 -9 -9 -13 -7 -18 5 -4 10 6 35 25 64 42 62 54 112 45 181 -4
32 -8 80 -8 107 -1 44 -4 50 -24 53 -16 2 -27 14 -34 33 -5 16 -14 29 -18 29
-17 0 -23 -43 -29 -230 l-6 -195 -61 -75 c-33 -41 -88 -116 -122 -167 -61 -90
-82 -115 -82 -93 0 13 81 173 109 215 14 22 17 35 10 45 -9 13 -12 12 -22 -3
-7 -11 -43 -66 -80 -124 -37 -58 -71 -103 -74 -99 -3 3 15 49 41 102 47 97 56
134 34 134 -24 0 -37 -15 -59 -65 -12 -29 -45 -73 -76 -102 -48 -47 -56 -51
-74 -40 -26 16 -44 -6 -65 -81 -14 -48 -21 -56 -57 -73 -24 -10 -64 -18 -92
-18 -88 0 -273 25 -288 38 -12 10 -24 10 -56 0 -53 -16 -66 -9 -95 49 -28 55
-40 67 -77 75 -15 4 -43 27 -63 52 -21 25 -45 45 -55 45 -9 0 -47 18 -84 40
-65 40 -97 49 -97 30 0 -5 32 -44 71 -85 40 -42 69 -78 66 -81 -3 -3 -30 17
-61 45 -31 28 -60 51 -66 51 -21 0 -141 136 -166 189 -15 31 -52 91 -81 134
l-54 78 6 97 c5 75 4 101 -7 115 -13 18 -16 17 -56 -15 -22 -18 -50 -40 -61
-48 -20 -15 -20 -16 -2 -95 19 -88 38 -130 70 -159 12 -11 31 -35 43 -54 29
-47 12 -61 -40 -31 -40 23 -41 23 -61 5 -17 -16 -25 -17 -46 -8 -53 24 -35
-12 44 -87 77 -74 99 -111 66 -111 -8 0 -54 34 -102 75 -48 41 -93 75 -100 75
-28 0 -11 -30 41 -71 61 -49 73 -67 51 -75 -16 -7 -62 14 -143 66 -67 42 -80
30 -23 -21 31 -28 41 -43 34 -50 -15 -15 -46 -3 -94 37 -52 43 -77 57 -89 49
-15 -9 4 -38 34 -54 28 -15 42 -41 22 -41 -7 0 -39 20 -72 45 -62 47 -88 55
-98 30 -3 -8 -17 -15 -31 -15 -24 0 -26 -3 -20 -30 l7 -30 -48 25 c-26 14 -57
25 -70 25 -13 0 -79 38 -146 83 -192 130 -334 217 -356 217 -31 0 -35 -16 -10
-40 41 -39 182 -137 234 -163 27 -14 73 -44 101 -66 29 -22 78 -57 110 -77 32
-20 76 -56 98 -81 34 -38 47 -46 88 -50 30 -4 47 -10 47 -19 0 -8 8 -14 19
-14 30 0 125 47 151 75 13 14 34 25 47 25 43 0 22 -32 -29 -44 -36 -8 -37 -36
-1 -36 14 0 65 18 112 39 157 71 211 64 69 -9 -92 -47 -120 -68 -112 -82 7
-12 31 -4 136 44 49 22 98 38 110 36 20 -3 17 -7 -24 -36 -27 -18 -48 -37 -48
-42 0 -6 15 -10 33 -10 l32 0 1 -77 c0 -80 1 -82 78 -273 19 -47 44 -83 90
-130 87 -90 116 -128 116 -152 0 -18 -4 -20 -41 -14 -66 11 -438 207 -806 425
-117 69 -279 163 -360 209 -82 45 -215 121 -298 167 -131 74 -372 189 -667
316 -48 20 -120 57 -160 82 -40 25 -127 74 -193 109 -66 36 -142 78 -170 95
-164 99 -237 139 -385 211 -91 45 -191 97 -223 116 -31 19 -67 38 -80 42 -24
7 -105 55 -260 155 -56 36 -145 93 -197 127 -163 104 -267 149 -406 173 -172
29 -822 44 -921 21 -54 -12 -110 -43 -183 -103 -25 -20 -55 -40 -67 -43 -52
-16 -101 -113 -82 -163 14 -37 11 -82 -8 -114 -16 -27 -16 -29 2 -49 17 -19
17 -21 2 -38 -21 -23 -22 -46 -2 -62 14 -11 12 -15 -15 -31 -37 -23 -38 -37
-2 -41 26 -3 27 -5 27 -63 0 -55 -2 -60 -25 -65 -16 -4 -26 -14 -28 -29 -3
-21 -1 -22 26 -17 37 9 50 -6 67 -79 13 -56 13 -56 -12 -66 -28 -10 -26 -32 3
-37 29 -6 40 -20 26 -34 -16 -16 -15 -28 1 -28 31 0 49 -40 62 -137 32 -244
35 -286 19 -304 -16 -18 -8 -29 30 -43 18 -6 18 -7 -2 -29 -16 -17 -18 -26
-11 -40 6 -9 7 -27 4 -38 -5 -15 -1 -25 14 -35 36 -25 24 -62 -32 -98 -38 -25
-34 -36 12 -36 50 0 57 -11 26 -40 -33 -31 -32 -49 2 -47 40 3 43 -28 4 -51
-36 -20 -35 -36 2 -40 27 -3 38 -34 17 -47 -5 -3 -10 -17 -10 -30 0 -17 8 -26
30 -34 32 -11 40 -37 18 -60 -11 -10 -9 -15 6 -26 10 -8 24 -16 30 -18 5 -2 9
-20 8 -40 -2 -30 2 -38 25 -49 16 -7 29 -23 31 -35 2 -11 12 -29 23 -39 19
-17 19 -18 -2 -40 -24 -26 -18 -44 15 -44 53 0 109 -74 104 -137 -2 -31 1 -38
17 -41 43 -9 95 -78 95 -127 0 -18 12 -37 35 -58 21 -18 35 -40 35 -53 0 -14
13 -33 35 -50 26 -19 35 -34 35 -56 0 -24 6 -32 35 -44 20 -8 45 -30 59 -52
13 -20 31 -44 40 -51 10 -8 23 -29 31 -47 8 -19 28 -40 47 -50 56 -29 99 -66
139 -120 25 -34 47 -53 66 -57 16 -3 49 -22 73 -41 25 -20 70 -43 100 -52 61
-18 281 -115 320 -142 14 -9 45 -19 70 -22 37 -4 45 -9 50 -30 5 -21 14 -26
54 -32 65 -9 75 -14 85 -40 7 -20 16 -23 67 -24 60 -1 217 -49 225 -69 2 -5
-9 -18 -26 -30 -16 -11 -59 -42 -95 -69 -36 -27 -112 -71 -170 -98 -178 -83
-206 -107 -301 -253 -28 -44 -86 -98 -136 -128 -38 -22 -42 -37 -13 -44 25 -7
26 -28 3 -43 -13 -8 -14 -13 -5 -16 36 -16 -9 -109 -69 -139 -16 -9 -27 -20
-24 -26 4 -5 15 -3 28 6 12 8 27 15 34 15 18 0 16 -42 -2 -66 -19 -25 -19 -34
0 -34 22 0 19 -44 -5 -65 -25 -23 -25 -42 0 -50 28 -9 25 -16 -20 -48 -58 -41
-48 -78 12 -46 31 17 43 -2 28 -43 -12 -31 -11 -38 9 -64 12 -17 19 -37 16
-45 -3 -8 -33 -39 -65 -68 -58 -50 -75 -81 -46 -81 7 0 30 14 51 30 61 49 87
38 53 -21 -22 -39 -17 -68 6 -36 7 9 18 17 25 17 23 0 10 -34 -26 -65 -45 -39
-38 -59 17 -50 54 9 58 -8 16 -62 -38 -49 -42 -58 -27 -67 15 -10 37 3 51 30
7 13 22 24 32 24 29 0 22 -49 -12 -90 -17 -19 -30 -45 -30 -59 l0 -25 33 32
c18 18 38 32 45 32 15 0 16 -52 0 -68 -17 -17 6 -62 31 -62 11 0 32 -16 48
-37 15 -20 47 -58 71 -83 38 -43 41 -50 32 -74 -5 -15 -10 -34 -10 -42 0 -19
36 -18 44 1 8 21 49 19 80 -6 21 -17 26 -29 26 -66 0 -50 -7 -47 74 -27 16 4
37 -3 65 -21 54 -33 61 -53 30 -77 -51 -40 -59 -48 -59 -58 0 -25 33 -21 63 7
46 44 74 56 113 49 43 -9 48 -18 27 -54 -10 -17 -14 -34 -11 -38 4 -4 30 3 57
15 52 22 96 27 105 12 4 -5 -6 -23 -20 -41 -15 -17 -24 -34 -20 -37 4 -4 36 3
71 15 81 27 115 19 115 -28 0 -37 15 -38 46 -5 13 14 32 25 44 25 36 0 77 -28
88 -60 13 -35 13 -35 53 -14 17 8 38 13 46 10 14 -6 14 -9 -2 -26 -18 -19 -17
-20 8 -20 14 0 38 5 52 12 21 10 31 9 55 -5 31 -19 60 -22 60 -7 0 21 41 9 52
-15 13 -29 19 -30 60 -9 28 15 31 14 50 -5 l19 -21 44 26 c44 25 65 25 65 -1
0 -27 31 -25 59 5 30 34 41 31 41 -12 0 -37 14 -35 61 7 48 43 59 44 59 5 0
-17 5 -30 12 -30 7 0 44 34 84 75 39 41 77 75 83 75 6 0 14 -15 19 -32 4 -18
12 -33 17 -33 5 0 27 25 48 55 40 58 70 71 75 33 5 -37 29 -26 44 19 16 48 64
91 77 70 4 -8 4 -34 0 -59 -17 -86 15 -65 55 37 39 98 92 133 98 65 2 -20 8
-36 13 -37 6 -1 26 28 45 63 35 63 35 64 38 32 5 -52 36 -35 48 25 6 29 24 46
24 23 0 -16 29 -20 44 -6 8 8 17 33 21 55 4 24 21 57 40 80 30 35 55 107 55
155 0 22 22 30 32 11 15 -27 25 -11 57 92 17 53 42 111 55 127 l25 30 -6 -86
c-4 -59 -2 -88 6 -93 16 -10 27 25 45 145 19 126 40 200 72 257 44 76 55 30
32 -140 -9 -68 -9 -91 0 -100 23 -23 33 9 48 146 8 76 19 158 25 184 12 57 43
127 59 137 30 19 31 -16 5 -175 -26 -161 -29 -230 -10 -231 11 0 29 85 71 336
14 88 34 174 43 190 l16 30 3 -28 c2 -15 -8 -82 -21 -150 -31 -151 -43 -277
-28 -277 19 0 30 43 76 315 26 158 51 278 62 297 l18 33 3 -33 c2 -18 -9 -80
-23 -137 -15 -57 -24 -109 -20 -115 21 -34 37 11 86 238 33 154 54 222 71 222
13 0 5 -102 -22 -285 -16 -109 -16 -132 -5 -144 23 -23 32 13 54 219 12 107
26 232 32 277 17 131 65 202 60 88 -1 -33 2 -55 8 -55 11 0 31 62 31 100 0 14
5 43 11 65 18 64 28 15 17 -85 -10 -89 -28 -133 -52 -124 -8 3 -17 0 -21 -6
-10 -17 -45 -307 -39 -324 14 -37 35 -1 50 89 4 22 16 58 27 80 21 41 47 134
73 260 47 224 86 391 95 400 5 5 9 -159 9 -445 1 -504 14 -982 30 -1076 5 -34
24 -91 40 -127 19 -40 38 -106 50 -173 10 -60 35 -158 54 -217 20 -60 36 -117
36 -127 0 -11 22 -63 50 -115 28 -52 50 -100 50 -106 0 -5 20 -63 44 -127 24
-64 56 -162 70 -217 15 -55 46 -140 71 -190 24 -50 49 -110 54 -135 8 -34 21
-54 58 -88 59 -53 81 -62 145 -62 29 0 66 -5 84 -12 38 -13 61 -1 66 35 2 14
9 21 22 20 10 0 25 11 35 28 11 20 24 29 42 29 14 0 34 7 45 15 12 9 31 12 49
9 22 -4 38 0 54 13 22 18 23 22 11 55 -13 34 -11 39 18 84 18 26 32 55 32 64
0 10 7 35 16 56 9 22 21 74 25 117 5 43 24 119 43 170 18 51 42 119 54 152 11
33 33 89 47 125 15 35 34 102 42 150 8 47 24 110 35 140 36 99 67 222 99 395
l31 170 -7 240 c-3 132 -10 269 -14 304 -8 69 -7 71 61 85 l28 6 -6 213 c-6
245 8 265 26 37 12 -156 25 -224 40 -215 24 15 7 320 -27 478 -12 56 -13 81
-6 88 25 25 57 -35 79 -148 17 -93 29 -110 46 -65 7 18 15 32 19 32 18 0 39
-73 39 -137 1 -37 5 -115 11 -173 6 -58 14 -174 18 -258 4 -91 12 -157 19
-164 21 -21 25 20 19 210 -5 163 -12 237 -32 330 -4 15 -1 22 10 22 42 0 55
-78 75 -442 12 -216 25 -311 46 -328 26 -23 27 42 4 291 -13 137 -20 252 -16
256 4 5 19 -5 32 -20 22 -25 24 -37 24 -121 0 -52 6 -129 14 -172 8 -44 18
-124 21 -180 7 -100 16 -136 32 -120 10 10 10 100 0 290 -8 150 -8 150 12 132
24 -22 45 -81 68 -191 12 -59 17 -138 18 -303 2 -226 8 -263 38 -234 16 17 21
199 9 382 -6 80 -8 147 -6 149 7 8 34 -31 61 -87 14 -29 36 -65 49 -79 33 -36
51 -106 64 -246 11 -130 27 -214 41 -222 19 -12 21 52 4 161 -10 63 -15 117
-11 121 10 10 39 -30 67 -90 20 -42 21 -52 11 -82 -25 -66 33 -375 70 -375 13
0 10 49 -12 175 -22 128 -25 185 -10 185 22 0 101 -201 125 -320 11 -52 36
-110 47 -110 7 0 9 22 5 60 -3 33 -1 60 4 60 5 0 29 -31 53 -68 33 -50 63 -81
113 -115 91 -62 248 -131 356 -156 48 -12 114 -32 146 -46 44 -18 103 -29 240
-45 233 -26 390 -26 496 -1 232 56 551 181 660 259 27 19 74 46 105 60 77 35
248 161 313 232 69 74 217 270 217 287 0 7 17 52 39 100 21 48 42 104 45 123
4 19 18 71 31 115 32 111 75 325 75 377 0 62 -23 141 -53 185 -14 21 -36 70
-48 108 -59 196 -198 395 -396 566 -51 44 -93 87 -93 95 0 17 53 40 155 66 44
11 105 35 135 53 30 18 136 74 236 124 139 71 202 110 275 169 127 104 312
289 387 387 33 44 76 96 95 115 19 19 38 49 42 65 3 17 19 50 35 75 43 69 98
191 106 235 9 54 28 89 58 108 21 14 23 22 19 58 -6 40 20 148 53 227 8 18 14
45 14 60 0 33 7 42 43 66 27 17 28 18 12 36 -16 18 -16 22 -1 54 9 19 16 54
16 78 0 57 11 71 62 83 49 12 52 23 12 45 -15 9 -29 21 -31 27 -6 17 34 53 57
53 33 0 37 30 7 52 -32 23 -34 39 -8 62 15 14 24 15 40 7 29 -16 41 -13 41 8
0 11 -13 29 -30 41 -50 35 -31 80 33 80 58 0 73 71 22 104 -14 10 -25 26 -25
39 0 31 27 67 50 67 28 0 32 15 10 43 -34 43 -27 57 29 57 60 0 70 12 34 39
-48 35 -53 41 -53 57 0 8 16 22 35 30 40 17 43 29 14 60 -25 26 -18 44 17 44
29 0 30 8 3 60 -29 55 -20 87 26 96 19 3 35 9 35 13 0 3 -17 20 -37 38 -44 36
-38 48 20 48 35 0 42 3 42 20 0 14 -9 21 -32 26 -18 3 -40 12 -48 19 -18 15
-20 56 -4 66 8 4 9 28 5 70 l-7 64 34 0 c43 0 64 21 41 41 -9 7 -20 23 -25 36
-4 12 -25 33 -47 46 -46 30 -98 87 -120 134 -16 33 -16 36 3 49 26 19 7 38
-39 36 -24 -1 -45 7 -73 29 -21 17 -64 46 -96 65 -57 33 -60 34 -165 32 -59 0
-123 -3 -142 -4z m-421 -120 c-17 -20 2 -34 50 -34 29 0 32 -2 21 -15 -7 -9
-10 -19 -6 -22 4 -4 58 3 122 16 162 32 493 55 453 31 -9 -5 -92 -23 -184 -40
-239 -44 -333 -84 -234 -101 l34 -5 -55 -17 c-59 -18 -259 -49 -435 -67 -60
-6 -126 -15 -145 -20 -19 -5 -103 -21 -186 -34 -83 -14 -216 -39 -297 -56 -80
-16 -151 -30 -157 -30 -18 0 -1 19 38 44 40 25 367 157 497 201 143 48 259 96
293 122 43 32 73 41 146 42 52 1 57 -1 45 -15z m-10330 -54 c7 -4 -11 -9 -44
-13 -66 -7 -85 -19 -69 -45 8 -12 31 -19 86 -23 41 -4 99 -14 129 -24 97 -32
399 -203 399 -227 0 -5 -8 -7 -18 -4 -28 9 -224 36 -264 36 -21 0 -38 -5 -38
-11 0 -14 63 -39 99 -39 38 0 256 -44 296 -60 17 -7 66 -25 109 -41 44 -16
111 -49 150 -73 39 -24 123 -69 186 -99 128 -60 196 -106 209 -140 13 -34 48
-61 146 -116 79 -44 86 -51 59 -51 -17 0 -112 18 -210 40 -471 106 -1073 206
-1389 231 -215 16 -839 17 -940 1 -109 -17 -108 -18 -101 163 7 198 17 259 45
289 24 25 24 26 6 46 -26 29 -7 46 68 59 72 13 305 27 296 17 -3 -3 -57 -13
-120 -22 -123 -17 -183 -36 -177 -56 7 -21 69 -29 193 -23 66 3 132 2 147 -2
59 -17 24 -28 -115 -38 -147 -10 -177 -19 -177 -55 0 -35 28 -43 198 -55 92
-7 169 -11 171 -9 11 10 -14 18 -60 18 l-50 1 28 22 c37 30 81 37 162 26 135
-18 160 17 38 54 -61 19 -78 28 -75 41 5 28 90 43 269 49 178 6 281 -5 332
-35 27 -16 29 -16 43 3 24 32 -10 51 -104 59 -47 4 -90 14 -108 25 -43 26 -68
30 -241 42 -173 11 -206 16 -182 30 34 18 164 22 221 5 43 -12 63 -14 84 -6
19 8 37 8 57 0 46 -16 99 -12 132 10 23 16 39 19 70 14 22 -3 46 -10 54 -14z
m-894 -19 c7 -12 -28 -23 -49 -15 -9 3 -13 10 -10 15 7 12 51 12 59 0z m12051
-16 c28 -18 59 -74 47 -85 -4 -4 -109 -10 -232 -14 -186 -5 -221 -3 -212 8 7
8 44 16 91 20 135 11 143 14 193 76 15 18 26 21 54 17 19 -4 46 -13 59 -22z
m-10937 -45 c92 -46 119 -65 109 -76 -8 -7 -227 100 -232 114 -9 22 23 13 123
-38z m11006 -109 c17 -3 31 -14 35 -26 3 -11 13 -32 24 -47 22 -34 15 -58 -19
-58 -31 0 -32 -12 -2 -51 20 -28 22 -41 21 -152 0 -69 -6 -134 -12 -150 l-12
-28 -157 7 c-225 9 -937 -12 -970 -28 -15 -7 -30 -25 -34 -41 -4 -15 -18 -36
-31 -47 -21 -17 -22 -19 -5 -26 23 -8 138 1 191 17 22 6 52 24 68 39 l28 29
283 7 c364 8 637 -11 637 -45 0 -5 -8 -15 -19 -25 -12 -11 -20 -37 -24 -74 -7
-60 -45 -216 -79 -319 -20 -61 -20 -61 -66 -70 -56 -10 -65 -31 -22 -56 40
-24 40 -55 0 -63 -48 -10 -57 -30 -26 -59 31 -29 31 -31 6 -73 -11 -18 -20
-43 -20 -56 0 -13 -10 -36 -22 -51 -15 -20 -23 -46 -26 -89 -4 -54 -9 -65 -41
-98 l-37 -37 -200 20 c-240 22 -508 43 -825 64 -130 9 -251 20 -269 25 -25 7
-45 6 -77 -5 -31 -11 -88 -15 -196 -15 -209 0 -515 -16 -871 -45 -380 -32
-374 -32 -386 0 -8 22 -16 25 -57 25 -60 0 -82 12 -64 34 21 25 51 29 72 10
26 -23 40 -9 46 50 7 60 58 144 106 175 47 31 49 53 5 45 l-33 -6 25 21 c70
58 225 86 695 126 165 14 393 34 508 45 246 24 287 24 312 6 17 -12 25 -11 65
10 25 13 57 26 73 29 56 11 25 25 -55 25 -103 0 -391 -17 -518 -30 -52 -5
-216 -19 -365 -30 -281 -22 -345 -29 -507 -57 -94 -16 -98 -16 -118 2 -24 22
-27 89 -6 140 19 44 86 135 125 168 33 28 104 57 198 81 110 29 517 97 692
116 97 11 235 26 306 35 72 8 186 20 255 25 145 12 188 19 196 31 3 5 -2 12
-12 16 -23 8 -394 -14 -519 -31 -55 -8 -141 -17 -192 -21 -50 -3 -145 -15
-210 -25 -65 -11 -207 -35 -316 -53 -109 -19 -200 -30 -203 -26 -7 12 93 95
221 181 66 45 142 99 169 121 27 21 67 47 89 58 30 16 36 23 27 33 -8 11 -3
20 20 40 37 31 70 40 220 60 63 9 194 31 290 50 306 61 412 78 530 86 63 4
145 15 182 24 86 20 239 35 257 26 9 -5 -4 -13 -38 -25 -28 -9 -64 -28 -80
-41 -15 -13 -40 -28 -55 -34 -32 -12 -26 -30 10 -30 26 0 137 33 166 50 10 6
25 10 33 10 31 0 13 -17 -45 -44 -57 -27 -65 -34 -61 -64 3 -18 -29 -27 -50
-14 -39 25 -139 0 -139 -35 0 -9 -12 -27 -27 -40 l-28 -22 32 -1 c17 0 38 6
45 14 8 7 49 16 96 20 121 11 156 25 162 66 4 30 10 35 55 50 39 12 53 23 65
48 11 24 28 37 70 53 30 11 60 25 67 31 7 6 28 14 46 18 38 9 280 10 322 1z
m-10764 -37 c12 -15 11 -16 -11 -9 -35 10 -49 25 -23 25 11 0 27 -7 34 -16z
m-1403 -46 c20 -20 13 -29 -20 -26 -40 4 -54 38 -16 38 13 0 29 -5 36 -12z
m406 -443 c42 -20 80 -29 130 -32 39 -2 82 -7 96 -10 22 -6 21 -7 -13 -12 -61
-9 -45 -25 40 -39 43 -7 82 -17 86 -21 5 -5 3 -18 -4 -29 -17 -28 4 -54 40
-50 22 3 25 7 23 30 -2 20 3 31 22 43 33 22 28 29 -29 45 -56 16 -60 22 -39
55 14 22 24 25 70 25 69 0 361 -40 624 -85 477 -81 561 -97 675 -125 173 -43
316 -84 343 -99 28 -15 62 -68 62 -98 0 -11 13 -32 28 -45 43 -36 47 -47 23
-72 l-21 -23 20 -26 c12 -15 18 -32 14 -38 -8 -13 -4 -13 -344 39 -445 70
-705 99 -730 82 -31 -20 10 -30 195 -50 105 -12 242 -29 305 -40 63 -10 187
-28 275 -40 217 -28 288 -50 342 -105 47 -50 134 -217 137 -264 1 -19 10 -37
23 -46 21 -15 21 -15 2 -54 -13 -28 -27 -41 -47 -46 -29 -6 -257 24 -381 50
-129 27 -857 52 -863 30 -5 -18 174 -35 487 -44 209 -7 332 -15 377 -25 37 -9
142 -25 235 -37 92 -11 193 -29 223 -39 57 -19 134 -34 230 -45 64 -7 93 -20
64 -28 -34 -10 -106 -16 -329 -32 -353 -25 -829 -76 -844 -91 -9 -9 175 -3
344 11 99 8 302 19 450 25 274 10 435 28 513 57 33 12 62 14 125 10 97 -7 436
-72 450 -86 10 -10 -21 -20 -128 -41 -33 -7 -73 -19 -89 -27 -33 -17 -417
-157 -459 -167 -15 -4 -46 -1 -68 5 -31 10 -42 10 -52 0 -9 -10 -8 -15 6 -25
20 -16 30 -11 -123 -51 -126 -33 -701 -145 -744 -145 -45 0 -66 -9 -66 -28 0
-28 172 -8 515 62 176 36 343 72 370 80 28 9 67 16 87 16 45 0 81 13 131 47
21 14 86 43 145 63 59 20 145 52 192 70 118 45 215 50 442 20 250 -32 661
-100 673 -111 14 -14 -75 -11 -189 6 -114 17 -246 20 -207 4 29 -11 177 -34
326 -48 215 -22 215 -33 -4 -56 -85 -9 -159 -19 -164 -22 -18 -11 19 -22 112
-34 63 -9 87 -16 76 -21 -8 -5 -91 -16 -183 -24 -92 -8 -239 -22 -327 -30
-228 -24 -305 -28 -305 -17 0 6 37 16 82 24 76 13 107 30 76 41 -13 5 -230
-22 -295 -36 -41 -9 -43 -26 -4 -26 17 0 32 -4 35 -9 8 -12 -38 -19 -180 -27
-102 -6 -127 -4 -154 10 -18 9 -55 16 -82 16 -26 0 -48 3 -48 6 0 3 10 14 23
25 l22 18 -50 1 c-27 0 -60 -3 -72 -6 -25 -7 -32 -24 -10 -24 7 0 28 -11 47
-25 19 -14 45 -25 59 -25 58 -1 -10 -20 -121 -35 -117 -15 -603 -112 -713
-141 -86 -24 -295 -105 -295 -115 0 -14 69 -10 99 5 37 20 477 130 666 167
131 26 169 30 300 28 135 -2 153 0 185 19 26 15 61 22 135 27 55 3 203 15 329
26 126 10 236 19 243 19 26 0 12 -19 -19 -25 -73 -15 -108 -26 -108 -35 0 -13
32 -13 123 1 89 13 106 21 88 42 -15 19 -8 23 56 32 44 6 59 3 93 -16 l40 -23
168 19 c171 18 222 17 169 -4 -51 -20 -152 -31 -295 -31 -127 0 -147 -2 -172
-20 -35 -25 -93 -36 -254 -50 -71 -6 -147 -17 -170 -25 -49 -16 -159 -41 -276
-61 -134 -23 -133 -23 -120 -39 18 -21 5 -32 -52 -45 -70 -16 -238 -70 -238
-76 0 -2 39 -1 88 2 101 8 101 -2 -1 -34 -37 -12 -85 -33 -106 -47 -24 -16
-101 -42 -207 -70 -255 -66 -463 -124 -519 -144 -27 -10 -75 -24 -105 -31 -30
-7 -73 -21 -95 -32 -74 -35 -120 -48 -180 -48 -67 0 -105 -8 -105 -21 0 -5 12
-9 28 -9 24 -1 22 -4 -23 -27 -64 -33 -127 -82 -119 -94 11 -18 68 -7 194 38
88 30 185 62 212 67 15 4 40 19 55 35 57 60 239 114 607 181 138 25 134 25
142 -7 4 -16 14 -36 22 -45 14 -16 13 -20 -2 -37 -16 -17 -16 -19 0 -25 12 -4
36 6 69 29 48 32 57 35 126 35 41 0 110 5 154 11 58 8 88 8 108 0 38 -15 28
-25 -37 -40 -62 -14 -107 -44 -91 -60 6 -5 37 -13 70 -18 32 -4 58 -12 57 -18
-1 -5 -32 -11 -69 -12 -69 -3 -321 -49 -345 -64 -24 -15 1 -21 37 -9 39 13 94
5 78 -11 -5 -5 -33 -17 -62 -27 -29 -9 -54 -21 -54 -27 -6 -35 443 18 499 60
43 31 -3 29 -248 -13 -36 -6 -36 12 0 26 89 35 240 41 297 12 22 -11 58 -20
80 -20 23 0 44 -3 48 -6 9 -9 -358 -131 -418 -139 -28 -4 -85 -18 -128 -31
-43 -13 -88 -24 -100 -24 -16 0 -18 -3 -9 -12 19 -19 15 -25 -27 -42 -65 -25
-227 -54 -371 -66 -74 -6 -145 -13 -157 -15 -29 -7 -217 13 -251 26 -15 6 -76
24 -137 40 -113 31 -160 53 -150 70 4 5 22 16 41 24 33 14 53 39 40 52 -4 4
-36 -8 -71 -26 -56 -29 -72 -33 -113 -28 -27 3 -64 15 -83 26 -20 12 -59 25
-88 31 -30 5 -92 26 -139 45 -48 19 -95 35 -105 35 -18 0 -218 75 -328 122
-25 11 -75 28 -109 37 -61 17 -72 25 -84 64 -4 11 -16 17 -35 17 -48 0 -78 16
-89 49 -8 24 -17 31 -37 31 -15 0 -35 10 -48 26 -12 14 -55 57 -95 97 -41 39
-81 85 -89 101 -14 27 -14 31 3 43 10 7 26 13 36 13 10 0 118 25 240 55 290
73 329 81 548 114 205 30 260 28 332 -11 22 -13 51 -29 64 -36 13 -7 53 -15
90 -19 60 -6 66 -4 63 12 -2 10 -21 32 -42 49 -32 26 -47 31 -85 29 -86 -4
-121 16 -66 37 14 6 22 14 19 20 -9 15 -56 12 -195 -10 -69 -11 -188 -29 -265
-40 -178 -26 -425 -81 -582 -131 -126 -40 -182 -47 -220 -26 -39 22 -125 140
-170 235 -25 51 -57 107 -72 125 -63 73 -76 109 -44 121 81 31 468 98 758 131
179 20 202 24 215 40 16 20 -43 29 -128 21 -146 -15 -506 -70 -666 -102 -211
-42 -230 -43 -266 -4 -29 31 -125 235 -136 288 -9 45 2 77 31 90 43 20 220 52
287 52 34 0 92 7 128 16 45 11 141 17 310 21 230 5 249 4 304 -16 32 -11 63
-18 68 -15 4 3 50 5 100 5 95 -1 118 7 118 40 0 38 -34 44 -245 42 -388 -5
-629 -20 -817 -53 -201 -34 -279 -38 -299 -14 -14 17 -33 168 -49 394 -6 80
-18 175 -26 212 -12 49 -14 74 -6 95 8 24 6 33 -13 55 -13 15 -26 46 -30 70
-3 24 -21 86 -39 138 -18 52 -36 107 -39 121 l-7 26 83 7 c45 3 105 11 132 16
28 4 127 7 220 6 162 -3 173 -5 229 -31z m2216 -192 c33 -21 60 -42 60 -47 0
-25 -128 41 -138 72 -7 21 16 14 78 -25z m347 -209 c59 -48 79 -71 69 -81 -6
-6 -137 92 -200 150 l-41 37 57 -30 c32 -16 84 -51 115 -76z m-318 10 c59 -36
63 -39 38 -42 -42 -5 -117 48 -117 83 0 7 -2 8 79 -41z m243 -25 c11 -6 41
-26 65 -45 33 -25 55 -34 84 -34 43 0 51 -12 17 -27 l-23 -10 23 -12 c24 -13
30 -31 10 -31 -23 0 -213 135 -216 153 -4 20 10 22 40 6z m2029 -29 c31 -30
40 -43 32 -51 -13 -13 -62 17 -88 54 -36 52 0 50 56 -3z m119 -17 c0 -20 -3
-24 -11 -16 -7 7 -9 19 -6 27 10 24 17 19 17 -11z m-2292 -38 c29 -13 72 -30
95 -36 45 -12 160 -83 191 -117 11 -12 16 -22 13 -22 -3 0 -47 20 -98 45 -51
25 -101 45 -111 45 -43 0 -10 -25 105 -79 456 -218 705 -356 748 -417 14 -20
33 -41 43 -46 24 -14 42 4 21 22 -41 34 21 38 72 4 29 -18 22 -34 -15 -34 -23
-1 -24 -2 -10 -11 10 -5 84 -34 164 -64 159 -59 171 -66 176 -97 2 -17 16 -24
74 -38 66 -15 155 -57 169 -80 9 -14 -8 -13 -73 6 -126 35 -278 89 -297 105
-11 10 -76 42 -144 73 -122 54 -164 67 -102 30 61 -36 25 -49 -97 -35 -48 6
-143 13 -212 16 -165 8 -346 31 -439 55 -41 11 -87 20 -102 20 -58 0 -83 34
-34 46 30 7 31 15 5 32 -12 7 -20 23 -20 38 0 52 -22 113 -47 129 -20 13 -23
22 -18 45 3 16 2 31 -4 35 -6 3 -11 15 -11 26 0 17 5 19 43 13 l42 -5 -22 19
c-12 10 -49 24 -81 31 -64 12 -86 28 -72 50 6 11 17 12 53 2 25 -6 54 -11 64
-11 15 1 14 4 -8 23 -14 12 -47 34 -73 49 -31 19 -46 34 -46 48 0 11 -7 37
-15 56 -25 61 -9 67 73 29z m482 -40 c0 -7 -9 -20 -20 -30 -20 -18 -22 -18
-66 3 -25 12 -43 26 -40 30 8 13 126 10 126 -3z m95 6 c3 -5 27 -17 53 -25 65
-22 191 -97 238 -142 25 -24 65 -46 114 -64 70 -25 152 -77 264 -169 50 -41
83 -56 159 -71 58 -12 117 -50 117 -76 0 -19 -10 -18 -61 6 -24 11 -58 20 -75
20 -68 0 -246 92 -309 160 -16 17 -44 38 -62 45 -17 7 -51 31 -75 53 -24 22
-72 57 -108 78 -86 50 -267 171 -275 184 -3 5 -2 10 4 10 5 0 12 -4 16 -9z
m1708 -13 c6 -8 7 -23 3 -33 -9 -24 -36 -1 -36 32 0 27 17 27 33 1z m155 -31
c20 -19 30 -47 16 -47 -37 0 -115 76 -97 94 7 7 46 -16 81 -47z m1532 36 c0
-36 -110 -176 -126 -161 -8 8 10 41 63 116 44 62 63 76 63 45z m-2302 -25 c19
-19 14 -30 -8 -18 -11 6 -20 15 -20 20 0 14 14 12 28 -2z m4697 2 c3 -6 -20
-37 -51 -71 -50 -51 -59 -67 -64 -107 -4 -42 -9 -49 -42 -65 -38 -17 -38 -18
-38 -76 0 -55 -2 -61 -30 -81 -25 -18 -30 -28 -30 -64 0 -50 -18 -70 -71 -80
-35 -6 -78 -40 -66 -52 3 -4 20 -1 38 5 42 14 49 14 49 -3 0 -17 -58 -38 -92
-34 -13 2 -52 -12 -88 -29 -136 -68 -540 -163 -691 -163 -65 0 -102 -6 -157
-25 -83 -29 -96 -30 -89 -10 4 10 -5 16 -36 22 l-41 8 84 54 c47 30 104 71
127 93 45 41 81 51 68 21 -19 -46 -18 -53 7 -53 14 0 36 8 49 19 13 10 42 24
64 31 22 7 119 50 215 95 96 46 194 88 218 94 25 7 42 18 42 27 0 25 -28 27
-72 4 -87 -46 -203 -83 -272 -87 -54 -4 -67 -2 -64 9 7 19 150 93 253 130 60
22 103 44 130 69 22 20 61 50 87 65 72 44 229 150 264 178 43 35 116 76 135
76 8 0 25 -14 38 -30 23 -32 41 -32 41 1 0 29 70 53 85 29z m-2309 -14 c7 -19
-13 -56 -31 -56 -15 0 -22 50 -8 63 11 12 33 8 39 -7z m-3504 -56 c-4 -28 -5
-29 -29 -13 l-25 16 24 13 c33 19 35 18 30 -16z m3562 -9 c3 -5 -1 -14 -8 -20
-16 -13 -32 2 -21 19 8 12 22 13 29 1z m-2374 -16 c0 -2 -14 -12 -31 -21 -21
-11 -35 -12 -42 -5 -6 6 1 13 24 19 41 12 49 13 49 7z m2955 -4 c7 -12 -12
-24 -25 -16 -11 7 -4 25 10 25 5 0 11 -4 15 -9z m-3999 -33 c20 -22 24 -29 11
-25 -10 4 -36 7 -58 7 -42 0 -48 9 -23 34 23 23 37 20 70 -16z m1724 14 c0
-11 -46 -32 -70 -32 -22 0 -27 25 -7 33 20 9 77 8 77 -1z m2151 -2 c10 -6 19
-15 19 -20 0 -15 -31 -11 -75 9 l-40 19 38 1 c21 1 47 -4 58 -9z m-159 -17
c23 -21 24 -44 1 -37 -54 18 -73 28 -73 40 0 20 49 18 72 -3z m-3812 -43 c48
-27 93 -50 99 -50 7 0 72 -29 145 -65 116 -56 211 -118 324 -211 24 -20 36
-24 44 -16 8 8 8 15 -2 27 -21 25 -3 29 30 5 37 -26 144 -44 173 -28 17 9 19
8 14 -7 -4 -9 -2 -26 4 -37 13 -25 6 -33 -18 -20 -10 6 -63 15 -116 21 -85 10
-110 17 -195 60 -403 202 -676 371 -600 371 6 0 50 -22 98 -50z m1942 25 c1
-5 -32 -23 -72 -40 -40 -16 -75 -36 -78 -42 -5 -18 9 -17 134 13 104 26 153
27 139 4 -3 -5 -38 -19 -78 -31 -86 -25 -92 -28 -79 -41 6 -6 49 -4 122 7 79
11 116 13 123 6 8 -8 -1 -11 -30 -11 -44 0 -93 -14 -93 -27 1 -21 98 -68 153
-74 88 -9 90 -19 20 -91 -33 -35 -70 -82 -81 -104 -21 -42 -58 -62 -76 -44 -6
6 -24 10 -42 10 -27 0 -38 8 -67 48 -38 51 -117 129 -157 156 -13 9 -39 16
-57 16 -38 0 -38 1 -18 55 8 22 14 61 15 87 l0 47 78 29 c111 43 142 49 144
27z m-272 -14 c0 -12 -29 -35 -36 -28 -11 10 5 37 21 37 8 0 15 -4 15 -9z
m1370 -50 c-10 -20 -30 -29 -30 -13 0 4 8 18 17 32 19 27 30 12 13 -19z m-110
4 c0 -8 -4 -15 -10 -15 -5 0 -10 7 -10 15 0 8 5 15 10 15 6 0 10 -7 10 -15z
m547 -1 c16 -3 40 -15 53 -26 l25 -20 -45 7 c-25 3 -94 10 -155 15 -60 5 -111
9 -112 9 -2 1 -3 6 -3 11 0 11 187 14 237 4z m-193 -58 c70 -14 133 -29 139
-35 6 -6 10 -24 10 -40 0 -24 -15 -46 -70 -104 -39 -41 -89 -102 -112 -136
-23 -33 -48 -61 -55 -61 -8 0 -30 7 -51 16 -44 18 -205 172 -205 196 0 29 34
38 149 38 141 0 151 25 19 44 -95 14 -60 26 76 26 86 0 136 4 136 10 0 18 -49
30 -125 30 -71 0 -93 8 -80 30 9 14 23 13 169 -14z m-1630 -15 c7 -11 -20 -48
-29 -39 -9 8 4 48 15 48 5 0 11 -4 14 -9z m1887 -30 c20 -16 24 -28 24 -83 0
-56 -2 -63 -20 -63 -15 0 -21 9 -27 43 -4 23 -14 52 -22 64 -36 51 -3 78 45
39z m-1334 -22 c-14 -8 -22 -8 -30 0 -8 8 -3 11 19 11 25 -1 27 -2 11 -11z
m431 -44 c18 -6 38 -17 44 -23 12 -12 4 -70 -15 -96 -16 -22 -81 -37 -129 -29
l-38 6 0 72 0 73 38 10 c20 5 44 8 52 5 8 -3 30 -11 48 -18z m1932 -11 c-22
-26 -131 -77 -142 -66 -12 12 38 49 100 72 52 20 62 19 42 -6z m-2122 -52 c-2
-9 -9 -17 -15 -19 -17 -6 -37 41 -29 64 7 17 9 16 27 -6 11 -13 19 -31 17 -39z
m-707 -22 c14 0 10 -22 -8 -42 -20 -22 -59 -24 -67 -2 -3 9 -6 33 -6 55 l0 38
36 -24 c20 -14 41 -25 45 -25z m1043 35 c7 -19 -10 -65 -24 -65 -17 0 -23 30
-12 56 13 27 27 31 36 9z m1801 -31 c-31 -24 -62 -33 -49 -13 9 16 67 49 74
43 3 -3 -8 -17 -25 -30z m-1109 -28 c8 -31 -2 -62 -23 -70 -16 -6 -92 23 -93
36 0 3 14 18 31 32 40 34 77 34 85 2z m3609 -53 c19 -11 18 -12 -10 -23 -16
-7 -54 -15 -83 -19 -77 -11 -136 -61 -82 -69 37 -6 194 30 239 54 24 13 53 24
65 24 12 0 31 6 42 14 35 25 105 28 323 12 118 -9 245 -16 283 -16 68 0 596
-55 631 -66 11 -3 16 -12 13 -22 -2 -9 -7 -34 -11 -55 -4 -28 -13 -40 -32 -48
-19 -7 -23 -14 -18 -27 25 -58 14 -86 -36 -97 -34 -8 -39 -34 -9 -53 13 -8 20
-23 20 -43 0 -25 -6 -32 -35 -45 -41 -17 -42 -23 -14 -55 35 -40 6 -121 -52
-141 -34 -12 -37 -33 -8 -64 l22 -23 -25 -29 c-13 -16 -40 -59 -59 -96 -30
-60 -38 -67 -74 -77 -72 -18 -73 -18 -42 -43 33 -27 35 -51 4 -70 -20 -14 -31
-13 -117 15 -106 34 -417 115 -615 159 -71 16 -161 39 -200 50 -38 11 -127 29
-196 40 -146 22 -185 36 -167 57 7 8 31 24 55 35 24 11 43 24 43 29 0 18 -106
8 -175 -16 -86 -30 -112 -31 -120 -5 -8 24 -33 25 -77 4 -31 -14 -40 -14 -144
10 -61 14 -208 42 -325 61 -256 43 -481 89 -552 115 -72 25 -187 48 -282 56
-44 4 -96 14 -115 24 -22 11 -70 19 -130 23 -52 3 -131 16 -175 28 -128 35
-139 35 -133 11 8 -30 -16 -48 -46 -34 -14 6 -63 14 -109 18 -81 6 -118 16
-106 28 16 16 219 48 324 51 66 2 136 7 155 10 19 3 129 14 245 25 150 14 213
16 220 8 7 -7 6 -12 -2 -15 -17 -6 -17 -33 0 -33 27 0 82 38 87 61 4 18 14 25
38 27 29 3 32 0 32 -22 0 -31 21 -34 69 -10 31 15 42 15 179 -6 255 -39 345
-49 423 -50 42 0 113 -5 158 -11 83 -11 150 -5 121 11 -20 11 -125 26 -305 45
-226 23 -446 55 -483 71 -24 10 -39 11 -52 4 -37 -20 -52 -4 -65 73 -5 31 -10
37 -31 37 -16 0 -24 5 -22 13 7 19 44 20 71 3 21 -14 28 -15 65 -2 52 19 416
50 1002 85 184 12 379 8 405 -6z m-6047 -15 c23 -13 68 -39 99 -59 32 -20 111
-64 176 -99 67 -36 117 -69 117 -78 0 -22 -46 -7 -110 36 -30 20 -68 44 -85
53 -16 9 -52 29 -78 44 -54 31 -68 28 -43 -10 15 -23 15 -25 -1 -25 -34 1
-146 45 -157 62 -16 26 -3 30 37 13 42 -17 90 -20 85 -4 -2 6 -28 20 -58 32
-33 13 -56 29 -58 40 -5 24 24 22 76 -5z m1770 6 c26 -18 29 -44 6 -44 -20 0
-84 30 -84 39 0 25 46 28 78 5z m1497 6 c7 -11 -30 -36 -69 -46 -40 -10 -31
13 14 38 40 21 47 22 55 8z m-2400 -78 c-6 -7 -35 18 -35 31 0 5 9 2 20 -8 11
-10 18 -20 15 -23z m675 -15 c0 -36 27 -67 59 -67 16 0 31 6 34 14 4 9 14 12
25 9 13 -3 25 3 36 18 16 23 16 23 16 2 0 -12 16 -72 36 -135 33 -104 35 -117
24 -160 -15 -61 -4 -149 25 -205 18 -33 24 -66 30 -150 9 -157 11 -164 42
-157 l26 7 -7 -119 c-10 -153 -20 -216 -31 -191 -4 10 -5 47 -2 81 10 103 -12
144 -34 64 -8 -31 -9 -122 -4 -323 l7 -280 35 -33 c35 -32 36 -33 30 -93 -5
-62 -54 -219 -68 -219 -5 0 -6 29 -2 64 5 56 3 68 -16 92 -19 25 -21 39 -21
177 0 97 -3 148 -10 141 -15 -15 -41 -151 -47 -250 -5 -85 -4 -93 14 -103 23
-11 36 -50 27 -75 -5 -12 -12 -8 -38 18 -33 32 -33 33 -39 158 -8 186 -36 232
-102 175 -36 -31 -55 -115 -56 -257 -1 -117 5 -154 24 -147 6 2 19 34 29 73
34 125 41 104 32 -96 -15 -303 -12 -431 9 -460 21 -30 22 -73 1 -105 -14 -21
-14 -26 1 -55 20 -38 14 -47 -22 -34 -19 6 -29 19 -36 44 -14 56 -27 64 -84
51 -26 -6 -94 -15 -149 -20 -66 -6 -115 -16 -140 -29 -56 -29 -74 -16 -74 52
0 29 7 77 16 107 9 30 17 76 18 103 1 55 17 69 34 31 6 -14 16 -25 21 -25 9 0
21 48 21 86 0 13 4 24 8 24 16 0 32 -25 32 -49 0 -40 12 -50 66 -60 68 -13 94
4 94 62 0 53 -25 94 -46 76 -11 -9 -18 -9 -26 -1 -28 28 25 70 98 78 l49 6 0
-115 c0 -79 4 -120 12 -128 23 -23 28 2 28 133 0 155 -2 158 -107 158 -79 0
-85 7 -69 68 8 28 18 42 34 46 12 3 35 23 51 44 l28 37 -5 130 c-7 155 -18
202 -50 207 -21 3 -22 6 -19 95 5 110 -2 126 -33 87 -13 -16 -26 -27 -29 -24
-12 13 -29 130 -27 197 1 66 0 73 -23 88 -19 12 -25 28 -31 72 -11 92 -27 109
-47 51 -10 -28 -12 -30 -19 -12 -4 10 -8 65 -8 122 -1 140 -21 175 -61 110
-12 -19 -20 -51 -20 -76 0 -35 -4 -44 -24 -53 -20 -9 -25 -21 -31 -68 -4 -31
-13 -68 -21 -83 -8 -15 -14 -35 -14 -44 0 -9 -11 -42 -24 -73 -14 -31 -27 -72
-30 -91 -4 -19 -11 -42 -16 -50 -9 -13 -11 -13 -20 0 -14 22 -12 79 6 170 12
59 14 87 6 103 -10 21 -11 21 -26 -14 -19 -45 -36 -146 -36 -217 0 -55 -13
-92 -32 -92 -8 0 -9 42 -4 144 6 105 4 146 -4 151 -21 13 -31 -12 -39 -99 -5
-48 -11 -90 -15 -93 -19 -20 -30 26 -34 142 l-4 124 32 29 c24 23 31 36 28 58
-3 25 -7 29 -30 26 -22 -2 -28 3 -38 34 -16 49 -7 128 21 187 l23 47 -28 29
c-27 28 -27 31 -15 68 17 51 32 66 27 29 -5 -46 18 -42 47 8 14 24 32 50 40
56 12 10 15 8 15 -11 0 -13 4 -30 9 -38 17 -26 40 6 66 93 42 136 127 254 212
293 86 40 133 18 63 -29 -33 -22 -35 -28 -51 -123 -9 -55 -26 -141 -38 -191
-25 -108 -27 -186 -6 -204 21 -17 29 9 50 156 30 208 79 344 142 394 22 17 35
20 72 14 25 -4 52 -11 58 -16 18 -14 43 -2 43 20 0 24 8 32 32 32 12 0 18 -7
18 -23z m-610 -21 c0 -38 -68 -115 -101 -116 -27 0 -99 92 -99 126 0 11 21 1
55 -26 49 -39 64 -38 98 5 33 41 47 44 47 11z m919 -93 c21 -140 7 -238 -18
-123 -13 62 -15 218 -2 205 5 -6 14 -42 20 -82z m2556 48 c3 -5 2 -12 -3 -15
-13 -8 -53 5 -46 15 7 12 41 12 49 0z m-1395 -10 c0 -10 -30 -24 -37 -17 -3 3
-2 9 2 15 8 13 35 15 35 2z m239 -22 c-8 -5 -21 -9 -29 -9 -10 1 -7 7 10 21
17 14 26 17 28 9 3 -7 -2 -16 -9 -21z m-3164 -49 c44 -26 110 -64 148 -84 73
-40 88 -62 35 -51 -88 19 -251 113 -288 165 l-23 32 24 -7 c13 -4 59 -29 104
-55z m80 50 c3 -5 14 -10 24 -10 10 0 38 -18 62 -40 63 -56 26 -52 -53 6 -77
56 -75 54 -55 54 9 0 19 -4 22 -10z m2775 -20 c0 -12 -41 -30 -53 -23 -4 3 -3
11 4 19 13 16 49 19 49 4z m1325 0 c19 -7 18 -9 -8 -19 -36 -14 -191 -15 -182
-1 15 24 146 38 190 20z m-2239 -56 c8 -20 13 -43 9 -52 -9 -24 -34 6 -42 51
-8 49 13 49 33 1z m-2336 -29 c55 -13 113 -31 130 -40 17 -9 69 -20 115 -26
91 -10 314 -64 329 -79 18 -18 -48 -11 -170 19 -65 16 -153 32 -194 36 -41 3
-98 13 -125 21 -40 11 -236 32 -312 34 -25 0 -12 20 25 39 49 26 83 26 202 -4z
m765 19 c13 -5 55 -72 55 -87 0 -2 -15 -2 -32 0 l-33 4 44 -40 c38 -36 41 -41
22 -41 -28 0 -81 52 -81 79 0 13 -10 26 -25 33 -31 14 -32 32 -2 46 27 13 31
14 52 6z m2577 -34 c-36 -34 -55 -38 -50 -13 3 18 43 43 68 43 9 -1 3 -12 -18
-30z m-1061 -115 l32 -66 22 21 c32 30 38 13 30 -84 -6 -76 -5 -84 17 -111 19
-24 24 -44 26 -110 l3 -80 -20 33 c-24 37 -36 40 -51 13 -15 -29 -13 -49 12
-108 13 -33 18 -57 12 -62 -12 -13 -94 3 -105 20 -18 29 -10 41 22 37 l32 -5
-6 101 c-5 76 -11 107 -25 126 -30 40 -49 37 -62 -10 -17 -63 -35 -45 -38 38
l-3 72 35 0 c19 0 41 3 50 6 16 6 20 1 30 -48 8 -35 23 -36 38 -3 15 32 -13
107 -50 135 -15 11 -33 25 -39 30 -15 12 -18 120 -4 120 6 0 24 -29 42 -65z
m146 14 c15 -59 17 -177 2 -162 -6 6 -15 42 -19 80 -5 37 -12 83 -16 102 -11
52 18 35 33 -20z m-1413 15 c26 -10 18 -24 -14 -24 -30 0 -41 14 -17 23 6 3
13 6 14 6 1 1 8 -2 17 -5z m2187 -14 c-25 -21 -51 -26 -51 -10 0 13 31 29 55
29 19 0 19 -1 -4 -19z m-577 -109 l-8 -36 -5 40 c-4 22 -4 54 -2 70 l4 30 9
-34 c5 -19 6 -51 2 -70z m407 65 c-34 -36 -105 -71 -126 -62 -15 5 -7 14 46
46 35 22 73 40 83 40 18 0 18 -1 -3 -24z m804 15 c9 -15 -4 -19 -125 -36 -114
-15 -172 -37 -152 -57 6 -6 92 0 248 18 177 21 288 28 429 28 188 1 192 1 330
-36 77 -20 172 -42 210 -48 39 -6 99 -19 135 -30 36 -10 129 -28 207 -39 78
-11 199 -32 268 -46 70 -14 159 -28 198 -31 40 -3 113 -16 162 -29 50 -13 128
-29 174 -34 46 -6 158 -29 250 -51 168 -40 344 -81 706 -165 110 -25 223 -55
252 -66 28 -11 78 -24 111 -29 33 -4 70 -13 82 -20 19 -10 20 -13 7 -28 -8 -9
-18 -30 -21 -47 -14 -59 -118 -171 -256 -275 -25 -18 -61 -48 -80 -65 -34 -31
-166 -101 -420 -224 -131 -63 -302 -123 -459 -162 l-93 -23 -166 17 c-266 27
-341 22 -298 -21 13 -13 37 -17 99 -18 146 -3 145 -3 122 -17 -31 -19 -408
-15 -459 5 -22 8 -41 19 -43 25 -4 11 78 33 122 33 34 0 55 10 55 26 0 14 -17
20 -88 28 -24 2 -46 7 -49 9 -14 14 13 27 55 27 91 0 119 20 57 40 -19 6 -35
18 -35 25 0 18 31 35 64 35 37 0 81 19 70 30 -5 5 -47 13 -92 17 l-82 8 36 45
c20 25 43 48 52 52 22 9 149 8 181 -1 44 -12 37 -31 -12 -31 -51 0 -77 -7 -77
-22 0 -6 45 -9 118 -7 64 1 136 -1 160 -6 30 -5 42 -4 42 4 0 12 -34 29 -205
101 -106 44 -165 82 -165 105 0 13 18 20 103 41 21 5 27 12 27 34 0 20 13 42
45 74 27 29 45 56 45 70 0 17 7 26 25 30 89 23 -115 37 -238 16 -63 -10 -111
-30 -112 -45 0 -5 23 -12 50 -15 31 -3 62 -15 82 -29 18 -14 31 -26 30 -28 -2
-1 -39 -12 -82 -22 -43 -11 -85 -27 -94 -37 -15 -15 -12 -16 44 -10 33 4 83 9
110 12 l50 4 -42 -20 c-89 -43 -266 -52 -302 -15 -14 14 -14 16 7 22 50 13 11
28 -99 39 -74 7 -140 20 -189 38 -41 14 -136 46 -210 70 -74 24 -166 58 -205
76 l-70 31 43 37 c44 39 54 70 27 92 -8 7 -15 16 -15 21 0 8 129 139 137 139
15 0 288 -52 294 -56 5 -3 67 -16 139 -30 72 -14 181 -40 241 -59 61 -19 117
-35 125 -35 19 0 18 -23 -6 -67 -14 -27 -17 -40 -8 -50 17 -21 34 -15 62 22
25 32 31 35 81 35 46 0 60 -5 102 -37 40 -31 57 -37 104 -40 66 -3 127 -24
339 -120 183 -83 544 -223 650 -252 90 -25 150 -28 150 -6 0 8 -17 19 -42 25
-121 32 -340 106 -393 132 -33 16 -87 40 -120 53 -106 40 -229 91 -264 109
-18 10 -55 24 -81 32 -26 8 -54 22 -63 32 -16 17 -15 21 3 57 11 22 30 43 42
48 15 5 18 11 11 18 -7 7 -44 4 -117 -10 -110 -22 -196 -27 -196 -13 0 4 5 13
12 20 16 16 -12 25 -60 19 -49 -6 -109 6 -280 59 -179 55 -258 75 -446 113
-156 32 -190 46 -208 87 -9 20 -8 31 5 54 15 26 16 30 2 44 -33 32 -172 33
-204 1 -21 -21 -9 -28 54 -33 30 -2 55 -8 55 -12 0 -11 -37 -19 -163 -34 -116
-13 -136 -13 -462 18 -254 24 -240 21 -264 61 -12 20 -31 37 -47 41 -16 4
-105 -1 -198 -11 l-171 -18 -50 26 c-40 22 -64 27 -120 28 l-70 1 35 15 c25
12 62 16 133 14 53 -1 97 2 97 7 0 5 -9 17 -20 27 -11 10 -17 21 -14 26 3 5
53 6 112 3 73 -3 131 -1 182 9 86 17 236 21 245 8z m-1306 -89 c33 -115 33
-116 1 -161 -22 -30 -30 -52 -30 -83 0 -55 -11 -41 -21 25 -4 28 -11 67 -15
85 -6 30 -5 32 17 30 23 -3 24 0 23 47 -1 28 -5 70 -9 94 -12 68 11 43 34 -37z
m268 1 c-16 -16 -17 -16 -17 3 0 11 3 24 7 28 4 3 11 2 17 -4 7 -7 5 -16 -7
-27z m-1827 -23 c0 -11 -10 -26 -22 -34 -34 -22 -142 -37 -233 -34 -76 3 -79
4 -50 16 17 8 57 18 90 23 33 4 87 17 120 28 79 25 95 26 95 1z m2180 -60
c-12 -7 -207 -50 -226 -50 -2 0 -4 -4 -4 -9 0 -11 94 -27 215 -38 l90 -8 -72
-5 c-48 -4 -79 -12 -92 -24 -13 -12 -43 -19 -93 -23 -98 -7 -118 3 -118 60 0
23 4 47 8 53 15 24 135 52 222 53 55 0 80 -3 70 -9z m490 -30 c0 -6 -30 -9
-72 -9 -59 1 -66 3 -38 9 53 11 110 11 110 0z m-1002 -32 c-4 -39 -33 -51 -43
-18 -7 23 10 50 32 50 10 0 13 -9 11 -32z m-1893 -28 c-3 -5 -15 -10 -26 -10
-11 0 -17 5 -14 10 3 6 15 10 26 10 11 0 17 -4 14 -10z m214 -3 c17 -21 -7
-37 -53 -37 -23 0 -48 5 -56 10 -13 9 -12 12 4 25 25 19 90 20 105 2z m2857
-17 c112 -18 345 -40 428 -40 97 0 114 -9 118 -65 3 -37 5 -40 38 -45 25 -4
36 -11 38 -25 1 -11 8 -37 14 -58 14 -48 11 -50 -88 -67 -73 -13 -76 -12 -129
13 -87 43 -160 58 -338 67 -192 11 -228 16 -277 40 -23 12 -67 19 -128 22 -67
3 -97 9 -108 20 -23 23 -9 38 36 38 46 0 58 14 36 39 -16 17 -16 19 -1 25 34
13 80 6 92 -13 14 -22 147 -56 356 -91 147 -24 176 -24 135 4 -16 10 -92 29
-186 46 -159 28 -254 51 -281 69 -15 10 -16 10 54 24 38 8 130 7 191 -3z
m-2952 -59 c8 -13 -12 -26 -64 -40 -25 -7 -62 -22 -83 -32 -30 -16 -49 -18
-101 -13 -69 7 -130 -7 -140 -32 -8 -21 29 -54 62 -54 30 0 59 -15 45 -23 -27
-17 -643 -46 -643 -31 0 5 80 29 178 53 97 24 206 54 242 67 36 13 139 40 230
60 269 60 265 59 274 45z m1685 -28 c0 -25 -1 -25 -8 -8 -5 11 -7 23 -4 28 8
14 13 7 12 -20z m134 -15 c3 -18 11 -52 17 -76 10 -33 10 -49 1 -69 -8 -18
-15 -23 -22 -16 -14 14 -26 208 -12 200 6 -4 13 -21 16 -39z m-1736 -28 c6
-14 15 -42 18 -62 6 -31 4 -38 -8 -38 -9 0 -22 12 -29 27 -8 17 -25 30 -45 35
-43 11 -51 27 -23 50 31 25 72 20 87 -12z m2117 11 c5 -8 -62 -21 -113 -21
-15 0 -36 -6 -46 -14 -19 -14 -19 -15 -2 -34 10 -11 32 -26 48 -32 16 -7 29
-19 29 -28 0 -12 -9 -13 -51 -8 -38 5 -57 3 -75 -9 -30 -19 -31 -55 -3 -79 16
-13 20 -25 16 -46 -7 -34 15 -56 93 -95 30 -15 84 -47 119 -71 35 -24 73 -44
85 -44 29 0 110 -84 135 -140 23 -51 326 -357 649 -655 107 -98 199 -190 205
-204 29 -67 196 -293 337 -455 38 -45 111 -129 161 -188 51 -60 96 -108 100
-108 24 0 -65 140 -150 235 -34 39 -87 106 -116 150 -30 44 -80 109 -112 145
-93 105 -125 149 -121 167 3 14 14 8 58 -33 81 -74 172 -143 290 -219 58 -37
125 -83 149 -101 24 -19 50 -34 57 -34 49 0 -31 77 -211 205 -158 112 -346
257 -448 344 -48 42 -107 91 -130 109 -82 65 -289 266 -368 356 -43 50 -102
117 -130 148 -28 32 -55 73 -60 93 -6 20 -21 43 -37 53 -15 9 -97 81 -182 160
-130 119 -163 145 -205 157 -69 21 -121 53 -107 67 14 14 73 -2 143 -38 57
-28 191 -135 218 -172 24 -34 182 -113 188 -94 10 27 33 16 313 -146 52 -30
143 -79 202 -108 59 -29 130 -74 161 -101 57 -49 161 -126 328 -242 52 -36
144 -104 203 -151 203 -160 261 -194 261 -153 0 25 -296 259 -520 411 -169
115 -224 158 -208 160 24 4 152 -58 173 -83 7 -9 30 -24 49 -34 20 -10 71 -39
113 -65 43 -26 99 -55 125 -64 26 -9 80 -38 118 -63 39 -26 131 -77 205 -114
74 -37 147 -76 162 -86 30 -22 59 -24 76 -7 21 21 13 39 -25 55 -21 8 -101 45
-178 81 -143 66 -215 108 -215 123 0 13 55 11 119 -5 31 -8 99 -22 152 -30 53
-9 109 -20 123 -26 22 -8 526 -40 639 -40 32 0 37 3 37 23 0 29 18 47 44 47
33 -1 105 -37 155 -78 25 -20 82 -62 127 -92 101 -68 311 -245 351 -297 67
-85 93 -166 118 -363 18 -146 20 -357 4 -432 -16 -75 -44 -126 -74 -134 -13
-3 -46 1 -72 10 -131 45 -557 312 -706 442 -43 38 -103 90 -134 115 -30 26
-63 61 -74 78 -19 31 -41 45 -89 55 -14 3 -65 30 -113 61 -90 56 -137 76 -137
57 0 -14 134 -130 231 -201 42 -31 125 -92 185 -136 60 -44 129 -98 154 -120
111 -102 434 -301 620 -383 99 -44 120 -59 120 -82 0 -70 -187 -343 -308 -450
-77 -69 -191 -142 -215 -138 -15 2 -45 37 -97 114 -101 149 -273 361 -485 599
-97 109 -186 211 -198 228 -28 37 -174 157 -193 157 -23 0 -16 -25 17 -56 62
-57 401 -426 446 -484 25 -32 51 -61 58 -63 6 -3 25 -27 40 -54 16 -26 61 -86
99 -133 124 -148 226 -304 226 -344 0 -8 -21 -29 -46 -47 -56 -38 -256 -139
-276 -139 -8 0 -23 -7 -34 -15 -10 -8 -31 -15 -47 -15 -15 0 -55 -11 -89 -25
-147 -60 -336 -75 -583 -46 -134 15 -182 24 -225 45 -31 14 -99 34 -150 45
-52 11 -133 32 -180 47 -180 57 -233 92 -313 209 -22 33 -62 88 -88 122 -26
35 -64 93 -85 130 -20 38 -55 97 -79 133 -39 61 -157 263 -196 339 -10 18 -25
41 -33 50 -8 9 -23 37 -34 62 -11 25 -39 76 -63 112 -118 180 -143 220 -164
272 -25 61 -32 72 -65 89 -14 7 -33 37 -50 81 -32 79 -119 229 -190 325 -27
36 -59 90 -73 120 -23 51 -165 296 -202 348 -9 12 -24 22 -33 22 -25 0 -42 20
-42 47 0 22 54 93 63 83 2 -3 24 -43 49 -90 92 -174 274 -416 334 -445 21 -10
70 -52 109 -94 153 -165 204 -215 211 -209 16 16 -11 65 -74 132 -66 71 -136
156 -199 243 -25 34 -33 56 -33 87 0 30 -10 58 -33 98 -48 79 -50 86 -27 115
11 14 20 37 20 51 0 21 2 23 16 11 27 -22 54 -87 54 -131 1 -39 7 -50 76 -128
164 -183 276 -350 379 -561 30 -63 63 -130 73 -149 9 -19 24 -35 32 -35 38 0
2 95 -156 408 -24 48 -44 94 -44 101 0 7 -21 37 -46 67 -57 66 -99 128 -92
135 3 2 45 -27 94 -65 49 -39 100 -73 113 -76 40 -10 191 -126 233 -178 21
-27 54 -79 74 -115 48 -88 132 -218 151 -234 8 -6 27 -37 43 -68 38 -75 170
-240 193 -240 28 0 20 25 -26 82 -68 82 -258 374 -300 458 -20 41 -64 107 -98
145 -33 39 -83 108 -111 155 -28 47 -63 104 -79 127 -32 46 -36 63 -15 63 39
0 20 30 -81 128 -105 102 -152 167 -134 185 5 5 31 -3 59 -17 97 -49 84 -25
-33 62 -97 72 -154 144 -176 219 -17 61 -33 71 -55 36 -10 -15 -19 -30 -21
-32 -2 -3 -29 20 -61 50 -31 31 -92 79 -136 108 -63 43 -83 52 -105 46 -61
-15 -75 -12 -82 20 -16 73 -3 306 22 382 9 27 16 32 47 36 74 8 181 7 186 -2z
m-459 -191 c-1 -76 -5 -142 -8 -147 -4 -6 -15 -50 -26 -100 -23 -102 -39 -149
-47 -140 -15 15 -2 205 18 277 15 52 22 105 22 171 1 94 1 96 22 87 21 -10 21
-16 19 -148z m-1715 90 c0 -5 -16 -10 -36 -10 -21 0 -33 4 -29 10 3 6 19 10
36 10 16 0 29 -4 29 -10z m2396 -10 c261 -15 449 -38 529 -65 39 -12 104 -26
145 -29 88 -7 153 -23 145 -37 -4 -5 -18 -9 -33 -10 l-27 -1 31 -13 c18 -8 92
-19 165 -25 174 -15 255 -37 425 -120 34 -17 77 -30 96 -30 20 0 59 -13 89
-29 33 -18 97 -37 163 -50 60 -12 121 -28 135 -36 24 -13 14 -14 -101 -15
-128 0 -178 9 -178 32 -1 32 -16 40 -47 24 -29 -14 -32 -14 -48 4 -22 24 -48
26 -65 5 -16 -20 -69 -19 -91 1 -10 9 -51 22 -91 30 -57 11 -77 19 -91 39 -10
14 -24 25 -30 25 -42 0 -86 23 -97 49 -6 16 -21 32 -33 35 -12 3 -114 6 -227
6 -242 0 -317 10 -382 50 -26 15 -73 34 -105 40 -32 7 -67 17 -78 23 -18 10
-17 11 15 20 62 16 10 27 -164 37 -165 9 -246 22 -246 40 0 12 -19 12 196 0z
m-3361 -10 c24 -9 15 -14 -54 -29 -69 -15 -102 9 -38 28 40 12 66 12 92 1z
m2545 -54 c0 -64 -14 -92 -31 -65 -12 19 -11 72 1 103 17 46 30 29 30 -38z
m-2924 19 c-22 -17 -36 -19 -36 -7 0 14 12 22 34 22 21 -1 21 -1 2 -15z m185
0 c0 -5 -9 -11 -21 -13 -20 -3 -27 8 -13 22 10 9 34 3 34 -9z m1075 -14 c-5
-8 -83 -31 -105 -31 -20 0 -11 20 12 30 29 11 100 13 93 1z m2440 -21 c104
-11 124 -17 124 -36 0 -7 16 -24 36 -38 33 -22 35 -25 17 -35 -15 -8 -27 -5
-54 12 -19 11 -59 24 -89 28 -57 7 -190 57 -190 71 0 10 44 10 156 -2z m-848
-43 c2 -19 -1 -27 -12 -27 -20 0 -29 16 -21 41 9 27 29 19 33 -14z m-2838 13
c-8 -5 -28 -9 -45 -9 -26 0 -27 2 -10 9 11 5 31 9 45 9 20 1 22 -1 10 -9z
m1010 -27 c8 -8 -25 -23 -50 -23 -14 0 -32 4 -40 10 -13 8 -13 9 0 14 8 2 22
7 30 9 14 5 50 -1 60 -10z m-1140 -3 c-36 -11 -50 -11 -50 0 0 6 17 10 38 9
33 -1 34 -2 12 -9z m960 1 c0 -11 -86 -24 -101 -15 -19 11 12 24 59 24 23 0
42 -4 42 -9z m594 -7 c10 -26 7 -34 -14 -34 -10 0 -35 -8 -55 -17 -59 -28 -62
11 -3 47 40 24 64 25 72 4z m-824 1 c0 -3 -34 -21 -76 -41 -72 -34 -81 -36
-143 -29 -156 15 -178 53 -31 56 30 0 75 4 100 8 52 10 150 13 150 6z m3420
-35 c0 -13 -11 -13 -30 0 -12 8 -11 10 8 10 12 0 22 -4 22 -10z m-4015 -34
l-30 -24 30 -11 c17 -7 43 -17 58 -23 21 -8 47 -7 103 2 88 15 159 18 170 8 4
-5 5 -10 3 -12 -7 -7 -196 -44 -262 -51 -45 -5 -63 -13 -82 -33 -31 -34 -31
-46 0 -60 14 -6 25 -16 25 -22 0 -19 -80 -10 -127 14 -27 14 -61 30 -77 36
-44 17 -21 29 84 45 59 9 99 20 109 31 15 15 12 16 -44 10 -33 -3 -76 -9 -96
-12 -31 -5 -37 -3 -42 15 -4 18 -13 21 -56 21 -28 0 -51 4 -51 9 0 17 111 50
250 74 62 11 67 8 35 -17z m165 4 c11 -7 4 -10 -25 -10 -29 0 -36 3 -25 10 8
5 20 10 25 10 6 0 17 -5 25 -10z m570 1 c0 -13 -27 -21 -71 -21 -40 0 -53 15
-21 23 31 8 92 7 92 -2z m374 -2 c-3 -6 -27 -20 -51 -31 -61 -27 -80 -9 -21
21 47 23 84 28 72 10z m140 -60 c-20 -23 -34 -25 -34 -5 0 19 44 50 48 36 2
-6 -4 -20 -14 -31z m2792 17 c35 -26 5 -30 -59 -9 l-62 21 51 1 c29 1 58 -5
70 -13z m-2906 -4 c0 -9 -120 -101 -157 -120 -31 -17 -38 2 -11 32 44 50 168
115 168 88z m290 3 c0 -12 -61 -192 -70 -205 -7 -11 -12 -12 -21 -3 -21 21 51
213 81 213 6 0 10 -2 10 -5z m412 -97 c12 -91 5 -145 -14 -98 -15 39 -23 207
-9 194 6 -6 17 -49 23 -96z m2698 92 c0 -5 -10 -10 -23 -10 -13 0 -32 -7 -43
-14 -33 -25 -224 -3 -224 25 0 5 65 9 145 9 90 0 145 -4 145 -10z m-4985 -59
c-6 -11 -113 -26 -122 -18 -7 8 55 25 95 26 18 1 31 -3 27 -8z m205 -11 c0 -5
-7 -10 -15 -10 -8 0 -15 5 -15 10 0 6 7 10 15 10 8 0 15 -4 15 -10z m4496 -4
c13 -10 16 -18 8 -25 -12 -13 -86 9 -92 27 -5 17 60 15 84 -2z m502 8 c25 -7
26 -42 1 -36 -8 2 -40 8 -73 14 -39 7 -54 13 -45 19 16 10 84 12 117 3z
m-3519 -47 c-17 -33 -51 -67 -66 -67 -21 0 -16 13 23 58 37 43 63 49 43 9z
m-1085 -2 c20 -8 36 -20 36 -25 0 -15 -47 -12 -80 5 -60 31 -23 48 44 20z
m674 3 c-3 -7 -33 -32 -68 -56 -112 -77 -212 -164 -201 -175 6 -6 26 1 60 21
28 18 66 38 86 46 19 8 60 38 90 67 90 85 76 46 -16 -44 -72 -72 -121 -112
-272 -228 -29 -22 -62 -77 -53 -86 7 -7 76 38 124 81 20 18 57 44 82 56 25 12
71 42 104 67 32 24 61 41 64 39 12 -13 -323 -371 -482 -516 -57 -52 -111 -108
-119 -125 -18 -34 -60 -76 -202 -200 -102 -88 -158 -125 -194 -125 -34 0 -148
-66 -239 -138 -48 -38 -98 -75 -112 -82 -100 -51 -354 -277 -344 -305 7 -18
-6 -27 145 90 57 44 131 104 164 135 133 122 271 213 354 231 27 6 79 32 129
66 45 31 84 54 86 52 6 -6 -28 -76 -57 -116 -12 -17 -38 -58 -59 -90 -20 -32
-66 -96 -103 -142 -36 -47 -75 -101 -86 -120 -11 -20 -41 -61 -67 -93 -26 -31
-78 -105 -115 -166 -37 -60 -97 -143 -132 -183 -35 -41 -85 -109 -111 -153
-26 -43 -59 -93 -74 -110 -50 -59 -107 -141 -181 -266 -41 -68 -98 -160 -127
-205 -29 -44 -69 -113 -90 -152 -37 -72 -37 -73 -78 -73 -74 0 -158 22 -255
66 -53 24 -109 44 -125 44 -67 1 -144 57 -144 106 0 20 94 155 126 180 8 6 14
15 14 20 0 6 26 40 58 76 179 208 210 245 240 286 32 45 40 72 23 72 -9 0
-157 -165 -232 -260 -20 -25 -77 -89 -127 -142 -49 -54 -101 -116 -114 -139
-33 -60 -70 -86 -102 -71 -13 6 -30 23 -38 39 -11 23 -21 29 -53 31 -47 4 -62
15 -79 57 -10 23 -22 34 -45 38 -24 5 -44 25 -91 88 -33 44 -63 93 -66 107 -3
15 -12 39 -20 54 -18 34 -18 35 10 42 14 3 81 57 149 119 161 146 282 245 334
274 42 24 102 84 123 123 11 21 11 21 -19 6 -16 -9 -56 -41 -89 -71 -33 -30
-65 -55 -71 -55 -6 0 -11 11 -11 25 0 17 20 47 61 91 33 36 59 68 56 71 -11
10 -54 -22 -113 -83 -33 -35 -66 -64 -72 -64 -6 0 -19 -14 -27 -30 -9 -17 -49
-64 -90 -105 -42 -41 -84 -89 -94 -106 -29 -47 -159 -151 -185 -147 -27 4 -56
63 -60 120 -1 24 -12 59 -24 78 -25 40 -28 94 -7 130 20 35 18 61 -5 67 -22 6
-26 17 -36 96 -5 46 -3 61 10 76 14 16 14 20 -4 56 -23 45 -26 96 -7 128 6 12
13 40 14 62 2 77 22 141 70 229 64 120 158 226 268 304 121 86 310 180 398
198 38 8 91 26 117 39 47 24 49 24 132 10 341 -60 717 -24 1092 104 49 17 92
29 94 26 7 -7 -19 -35 -32 -35 -30 0 -256 -142 -237 -148 7 -2 40 8 73 23 34
15 82 30 107 34 51 7 97 36 199 124 89 77 167 115 265 127 117 15 247 52 247
71 0 12 -57 11 -103 -2 -39 -11 -66 -5 -31 7 10 3 66 28 124 55 58 27 110 49
116 49 6 0 21 11 34 25 35 37 164 124 255 172 86 46 99 50 93 31z m-1198 -18
c0 -5 -1 -10 -2 -10 -2 0 -50 -9 -107 -20 -103 -20 -135 -20 -90 0 19 8 142
33 192 39 4 1 7 -3 7 -9z m5293 -17 c34 -14 52 -43 27 -43 -28 0 -169 53 -164
61 7 12 86 2 137 -18z m-4333 8 c0 -11 -56 -22 -76 -14 -13 5 -13 7 -2 14 17
11 78 11 78 0z m494 -38 c-37 -45 -81 -79 -91 -70 -4 4 19 32 51 63 65 60 86
65 40 7z m2222 -11 c21 -64 83 -171 125 -214 38 -39 49 -57 49 -82 0 -29 -15
-66 -22 -56 -2 3 -22 28 -45 55 -130 161 -197 284 -179 330 5 14 8 14 36 0 17
-9 33 -24 36 -33z m-2036 18 c0 -5 -9 -14 -20 -20 -22 -12 -27 -1 -8 18 14 14
28 16 28 2z m2276 -71 c10 -17 -3 -21 -26 -9 -14 8 -26 8 -32 2 -14 -14 41
-64 137 -122 46 -28 95 -64 108 -80 29 -33 72 -119 64 -126 -9 -9 -100 43
-176 101 -41 31 -88 62 -106 69 -61 26 -112 119 -81 145 10 8 16 29 16 52 l0
38 45 -30 c24 -16 47 -35 51 -40z m-3107 42 c19 -12 -3 -23 -100 -50 -78 -22
-154 -27 -178 -12 -20 13 -4 31 27 31 15 1 61 9 102 20 84 21 128 24 149 11z
m1108 -143 c-2 -151 7 -200 43 -233 25 -23 25 -27 -5 -63 -25 -30 -98 -159
-191 -340 -29 -56 -62 -116 -74 -131 -11 -16 -20 -33 -20 -38 0 -5 -25 -44
-56 -88 -30 -44 -72 -109 -91 -145 -20 -36 -55 -92 -78 -125 -22 -33 -57 -94
-77 -135 -21 -41 -58 -104 -83 -140 -25 -36 -71 -103 -102 -150 -72 -109 -122
-174 -223 -291 -96 -110 -111 -136 -121 -206 -6 -41 -23 -75 -82 -165 -96
-146 -140 -195 -229 -254 -40 -27 -98 -69 -128 -95 -30 -25 -65 -49 -76 -53
-12 -3 -83 -36 -160 -71 -131 -61 -174 -75 -174 -57 0 4 14 30 31 57 17 28 38
67 45 89 8 21 37 75 64 120 28 45 50 88 50 97 0 8 25 64 55 124 30 59 55 115
55 124 0 9 13 41 30 72 16 31 50 108 76 170 25 63 74 168 109 234 34 66 68
138 75 160 7 22 39 96 71 164 33 68 59 129 59 135 0 6 34 79 75 161 52 104 86
188 110 273 43 153 101 301 196 505 73 154 96 184 122 158 8 -8 5 -24 -10 -58
-114 -259 -120 -273 -104 -273 6 0 23 23 39 51 67 124 102 167 102 124 0 -22
-52 -121 -94 -180 -20 -27 -36 -53 -36 -57 0 -21 46 -3 85 33 25 23 48 40 50
37 3 -3 -8 -34 -24 -69 -16 -35 -27 -68 -24 -72 9 -14 42 24 54 62 31 96 84
212 123 271 24 36 49 76 56 90 13 25 39 49 52 50 10 0 -29 -97 -51 -129 -53
-75 -123 -254 -114 -290 14 -53 43 -14 97 129 46 124 102 219 133 226 13 4 27
3 31 -1 4 -4 -15 -47 -41 -96 -26 -49 -45 -94 -42 -99 12 -20 41 9 69 67 15
32 35 72 43 88 9 17 25 46 35 65 27 52 24 9 -8 -91 -26 -81 -26 -83 -6 -98 10
-9 22 -24 25 -33 15 -42 43 -11 57 61 5 28 21 80 35 115 32 79 32 90 1 82 -14
-3 -27 -2 -30 3 -10 15 64 235 75 224 6 -6 14 -65 19 -132 13 -169 34 -240 58
-194 5 10 13 87 17 172 6 139 15 201 30 201 2 0 4 -64 2 -142z m3520 118 c21
-18 44 -24 98 -28 39 -3 84 -12 100 -19 28 -12 25 -13 -65 -22 -52 -4 -106
-10 -119 -13 -42 -9 -7 -26 76 -36 105 -13 150 1 177 56 l19 39 196 -5 c144
-4 208 -10 241 -22 25 -8 60 -16 78 -16 17 0 32 -5 32 -11 0 -9 -32 -10 -117
-4 -142 9 -275 7 -286 -4 -5 -5 32 -12 82 -16 50 -4 91 -11 91 -16 0 -11 16
-9 -127 -19 -67 -4 -127 -11 -132 -15 -24 -14 3 -25 67 -26 37 -1 94 -4 127
-8 l60 -7 -40 -19 c-54 -24 -231 -31 -406 -16 -172 15 -269 36 -344 72 -33 16
-69 29 -81 29 -36 0 -151 39 -176 60 l-23 19 31 1 c17 0 51 -7 74 -15 56 -20
99 -19 135 3 17 10 47 21 68 25 21 3 51 17 68 31 38 32 60 33 96 2z m-1477
-66 c0 -5 -4 -10 -9 -10 -6 0 -13 5 -16 10 -3 6 1 10 9 10 9 0 16 -4 16 -10z
m-3464 -10 c52 -20 12 -33 -93 -28 -124 5 -156 21 -58 29 118 9 123 9 151 -1z
m914 -9 c0 -12 -26 -32 -33 -25 -9 10 4 34 19 34 8 0 14 -4 14 -9z m2650 -31
c0 -6 -6 -10 -12 -10 -22 0 -41 17 -34 29 8 13 46 -3 46 -19z m1077 -56 c278
-124 318 -141 378 -161 88 -30 115 -35 115 -23 0 6 -24 22 -54 35 -90 40 -85
49 29 45 161 -5 307 -18 317 -28 9 -9 -2 -12 -50 -12 -35 0 -62 -4 -62 -10 0
-5 4 -10 9 -10 5 0 23 -12 41 -26 27 -23 36 -26 80 -20 49 7 79 -8 43 -21 -38
-13 -45 -25 -27 -44 15 -17 14 -18 -20 -24 -20 -4 -51 -5 -68 -2 -135 19 -547
161 -645 221 -32 19 -96 49 -142 65 -94 34 -174 78 -166 91 8 13 62 -5 222
-76z m-1787 -36 c-15 -53 -34 -50 -26 5 4 23 12 58 19 77 l12 35 3 -40 c2 -22
-1 -57 -8 -77z m170 78 c0 -8 -7 -19 -15 -26 -12 -10 -15 -10 -15 3 0 25 11
47 21 41 5 -3 9 -11 9 -18z m98 12 c5 -7 13 -24 17 -38 4 -14 14 -40 22 -58 9
-18 13 -35 10 -38 -8 -8 -43 30 -61 65 -27 51 -17 105 12 69z m-2193 -85 c-12
-17 -20 -23 -23 -15 -4 14 28 56 36 47 3 -2 -3 -17 -13 -32z m92 5 c-3 -7 -5
-2 -5 12 0 14 2 19 5 13 2 -7 2 -19 0 -25z m2107 -70 c72 -89 178 -235 222
-307 28 -45 46 -141 26 -141 -13 0 -78 106 -87 143 -12 46 -142 220 -179 239
-19 10 -41 32 -50 52 -17 36 -22 96 -7 96 4 0 38 -37 75 -82z m-1454 42 c25
-13 40 -69 40 -148 0 -67 -13 -103 -52 -140 l-25 -22 -11 50 c-7 30 -9 80 -5
125 5 63 4 75 -9 75 -9 0 -21 -7 -28 -15 -20 -24 -40 -18 -40 13 0 30 16 57
40 65 25 9 70 8 90 -3z m356 -66 c9 -64 0 -204 -16 -234 l-13 -25 -10 23 c-7
16 -7 38 1 73 7 28 12 86 12 130 0 86 15 106 26 33z m904 27 c0 -12 -20 -25
-27 -18 -7 7 6 27 18 27 5 0 9 -4 9 -9z m-1105 -65 c30 -8 55 -56 55 -105 0
-33 -33 -71 -61 -71 -27 0 -31 15 -13 53 23 48 13 71 -26 63 l-30 -5 0 52 c0
66 18 90 36 48 7 -17 22 -31 39 -35z m3785 34 c0 -16 -23 -22 -66 -18 -38 4
-38 4 -14 15 32 15 80 16 80 3z m-4860 -50 c-6 -12 -14 -19 -17 -17 -2 3 1 15
7 27 6 12 14 19 17 17 2 -3 -1 -15 -7 -27z m2734 15 c11 -8 30 -15 42 -15 12
0 32 -8 45 -18 13 -10 40 -25 59 -32 44 -18 200 -173 224 -223 9 -21 30 -52
45 -70 36 -41 63 -94 52 -101 -10 -7 -48 22 -168 125 -48 41 -125 103 -170
138 -48 37 -93 82 -110 109 -16 26 -37 59 -47 75 -21 31 -5 37 28 12z m-2914
-16 c0 -5 -32 -76 -71 -157 -64 -133 -169 -427 -169 -474 0 -28 -31 -99 -158
-364 -65 -137 -135 -292 -156 -344 -20 -53 -48 -114 -61 -135 -50 -84 -84
-153 -111 -230 -18 -51 -42 -96 -66 -124 -21 -24 -43 -62 -49 -85 -23 -91 -42
-136 -85 -207 -58 -93 -89 -156 -98 -194 -10 -44 -95 -209 -130 -251 -48 -59
-78 -67 -282 -72 -184 -4 -224 1 -224 33 0 28 -42 45 -115 45 -90 0 -106 9
-83 47 9 16 30 55 47 88 16 33 65 114 108 181 43 67 94 149 113 183 19 35 49
84 67 109 17 26 43 68 58 95 14 26 30 47 35 47 12 0 209 261 355 470 110 156
124 177 243 339 34 47 72 106 85 131 52 103 116 199 177 271 36 42 78 96 95
120 16 24 88 101 160 170 71 70 168 170 215 223 81 92 100 108 100 85z m2050
-57 c0 -4 -5 -13 -11 -19 -6 -6 -16 -32 -22 -57 -17 -64 -31 -62 -35 4 -3 43
1 57 14 67 20 14 54 17 54 5z m-692 -201 c3 -50 -1 -87 -8 -102 -12 -22 -13
-22 -27 -3 -11 14 -14 37 -9 94 3 42 8 84 12 94 13 35 29 -4 32 -83z m1089 40
c16 -36 51 -527 39 -538 -18 -18 -29 34 -51 248 -13 129 -27 261 -31 294 -7
57 -6 59 11 45 10 -8 25 -30 32 -49z m-1277 -175 c8 -25 8 -42 2 -48 -19 -19
-36 36 -40 129 -6 124 9 156 19 43 5 -47 13 -102 19 -124z m4795 120 c42 -36
42 -59 0 -36 -29 16 -95 79 -95 92 0 13 49 -16 95 -56z m-4025 -57 c-7 -16
-16 -29 -21 -29 -15 0 -10 44 8 70 16 22 18 23 21 7 2 -10 -2 -32 -8 -48z
m4130 -34 c10 -12 10 -15 -3 -15 -8 0 -20 7 -27 15 -10 12 -10 15 3 15 8 0 20
-7 27 -15z m-4250 -101 c0 -56 -4 -94 -10 -94 -6 0 -10 40 -10 101 0 64 4 98
10 94 6 -3 10 -48 10 -101z m210 31 c11 -55 6 -115 -10 -115 -13 0 -20 31 -22
92 -1 48 5 78 17 78 2 0 9 -25 15 -55z m-930 -5 c0 -10 -5 -22 -10 -25 -13 -8
-24 20 -16 41 8 20 26 9 26 -16z m1010 -5 c0 -19 -4 -35 -10 -35 -11 0 -14 53
-3 63 11 12 13 8 13 -28z m-950 -77 c0 -23 -3 -29 -11 -21 -6 6 -8 20 -4 32 9
30 15 26 15 -11z m1145 -25 c-7 -32 -22 -50 -31 -40 -9 9 16 67 28 67 6 0 7
-11 3 -27z m-1235 -113 c-12 -105 -6 -149 21 -168 23 -16 24 -50 5 -97 -15
-36 -42 -55 -75 -55 -17 0 -21 6 -21 29 0 16 5 42 11 58 6 15 14 92 19 171 5
86 14 149 21 158 24 29 30 -2 19 -96z m810 0 c0 -11 -4 -20 -10 -20 -5 0 -10
9 -10 20 0 11 5 20 10 20 6 0 10 -9 10 -20z m-734 -48 c-12 -11 -18 7 -10 30
l8 23 4 -23 c2 -13 1 -26 -2 -30z m1165 -19 c-9 -15 -10 -13 -11 13 0 17 3 34
8 38 11 12 14 -32 3 -51z m-375 -101 c-14 -14 -16 -14 -22 2 -10 25 1 103 17
123 12 14 14 8 17 -47 2 -46 -1 -67 -12 -78z m119 82 c10 -11 13 -23 8 -33 -4
-9 -7 -35 -7 -58 0 -47 -13 -54 -39 -25 -21 23 -31 73 -23 107 7 29 36 33 61
9z m115 -54 c0 -11 -4 -20 -10 -20 -5 0 -10 9 -10 20 0 11 5 20 10 20 6 0 10
-9 10 -20z m319 -52 c1 -21 -3 -38 -8 -38 -17 0 -29 89 -14 104 10 10 21 -23
22 -66z m-339 -10 c-1 -7 -7 -24 -15 -38 -14 -24 -14 -24 -15 -3 0 28 10 53
21 53 5 0 9 -6 9 -12z m-384 -62 c13 -52 -13 -82 -30 -34 -10 28 -3 58 13 58
6 0 13 -11 17 -24z m-172 -79 l-6 -92 35 -43 c40 -48 42 -53 56 -137 5 -33 13
-74 16 -91 7 -29 5 -33 -26 -42 -48 -15 -137 -30 -257 -42 -70 -7 -124 -18
-165 -36 -115 -48 -128 -50 -143 -29 -14 18 -13 31 8 113 11 42 22 53 31 30 3
-10 8 -10 16 -2 8 7 14 68 17 175 7 216 9 229 38 229 23 0 24 -4 31 -95 10
-143 28 -138 40 11 7 82 19 123 29 94 2 -8 7 -48 10 -88 5 -76 21 -111 39 -93
6 6 12 50 14 98 6 124 17 135 23 23 4 -78 8 -95 22 -98 17 -3 19 5 34 126 8
69 22 82 90 82 l55 0 -7 -93z m348 -72 l-6 -140 -12 145 c-7 80 -10 149 -7
153 3 5 11 3 18 -5 9 -10 11 -47 7 -153z m362 98 c-9 -37 -24 -53 -24 -26 0
28 10 53 21 53 5 0 6 -12 3 -27z m-270 -13 c10 -55 -19 -310 -37 -310 -11 0
-4 293 8 323 11 26 22 21 29 -13z m192 -71 c-4 -39 -10 -77 -13 -85 -9 -23
-23 -16 -23 13 0 30 30 143 38 143 2 0 1 -32 -2 -71z m144 47 c0 -8 -4 -18
-10 -21 -5 -3 -10 3 -10 14 0 12 5 21 10 21 6 0 10 -6 10 -14z m-1301 -113
l-2 -88 -10 62 c-9 55 -5 113 8 113 3 0 4 -39 4 -87z m1021 -193 c-11 -85 -24
-117 -35 -88 -6 14 16 177 33 243 13 54 15 -59 2 -155z m-1121 102 c1 -13 -3
-20 -9 -17 -5 3 -10 23 -9 43 0 30 2 33 9 17 5 -11 9 -30 9 -43z m789 -48 c-2
-22 -7 -39 -13 -39 -13 0 -18 40 -10 72 9 39 27 13 23 -33z m407 -102 c-3 -18
-10 -30 -16 -27 -10 7 -12 78 -2 115 6 23 8 22 15 -15 5 -22 6 -55 3 -73z
m205 79 c0 -11 -4 -23 -10 -26 -6 -4 -10 5 -10 19 0 14 5 26 10 26 6 0 10 -9
10 -19z m-1400 -92 c0 -37 -4 -58 -10 -54 -5 3 -10 31 -10 61 0 30 5 54 10 54
6 0 10 -27 10 -61z m80 -82 c0 -12 -5 -29 -10 -37 -7 -11 -10 -3 -10 28 0 26
4 41 10 37 6 -3 10 -16 10 -28z m641 -248 c-2 -134 -7 -253 -11 -264 -12 -31
-32 -44 -87 -54 -27 -6 -62 -16 -79 -24 -16 -8 -54 -25 -84 -37 -30 -12 -87
-36 -127 -53 -82 -35 -103 -29 -103 30 0 40 -24 103 -40 103 -8 0 -10 -34 -5
-122 10 -180 -20 -237 -58 -112 -10 32 -27 82 -37 109 -28 76 -52 228 -44 280
7 51 24 61 24 15 0 -16 9 -58 19 -92 11 -35 25 -91 32 -125 6 -35 15 -63 19
-63 15 0 17 66 7 194 -9 127 -9 129 13 146 20 15 21 22 15 87 -8 78 -2 101 21
82 8 -7 14 -30 14 -59 0 -58 7 -80 26 -80 11 0 14 19 14 84 0 62 4 87 15 96
20 16 23 6 28 -103 2 -64 8 -92 20 -104 22 -23 25 -12 30 125 3 102 15 148 33
130 3 -4 10 -39 15 -79 11 -92 17 -109 35 -109 15 0 17 9 18 115 1 63 3 70 21
70 18 0 21 -10 30 -102 15 -154 30 -152 43 6 4 61 11 96 20 99 8 2 12 -9 12
-40 0 -80 31 -149 45 -103 15 48 18 50 25 20 4 -16 8 -50 9 -75 3 -118 41 62
41 196 0 52 6 67 24 61 8 -3 10 -81 7 -248z m399 203 c0 -24 -29 -64 -41 -57
-14 9 -11 38 7 63 17 24 34 21 34 -6z m-310 2 c0 -8 -5 -12 -10 -9 -6 4 -8 11
-5 16 9 14 15 11 15 -7z m84 -6 c20 -28 20 -61 2 -96 -11 -22 -12 -48 -4 -137
10 -118 5 -252 -10 -267 -21 -21 -32 59 -32 221 0 182 8 301 21 301 4 0 15
-10 23 -22z m-871 -77 c2 -53 -8 -75 -23 -51 -11 17 -13 113 -3 124 12 12 24
-22 26 -73z m1197 -1 c0 -26 -3 -56 -6 -65 -17 -43 -32 49 -18 102 10 37 24
15 24 -37z m110 -5 c0 -8 -9 -15 -20 -15 -20 0 -26 11 -13 23 12 13 33 7 33
-8z m-335 -116 c8 -58 -3 -242 -17 -278 -7 -19 -11 -22 -21 -12 -23 23 -1 341
23 341 4 0 11 -23 15 -51z m116 -342 c-9 -9 -50 8 -63 27 -4 6 -7 54 -7 106 0
52 3 89 6 83 10 -25 32 -12 42 25 6 20 14 51 18 67 5 19 9 -30 11 -134 1 -91
-2 -169 -7 -174z m-315 65 c-15 -14 -26 18 -26 72 0 88 14 92 22 5 4 -40 6
-74 4 -77z m441 6 c-3 -8 -6 -5 -6 6 -1 11 2 17 5 13 3 -3 4 -12 1 -19z m-409
-241 c2 -87 -1 -137 -8 -137 -12 0 -17 23 -24 109 -7 79 3 173 18 168 7 -2 12
-51 14 -140z m99 121 c20 -21 22 -39 28 -218 4 -107 10 -199 13 -205 3 -5 12
4 18 20 12 27 13 23 13 -55 1 -92 -13 -133 -44 -138 -49 -6 -50 2 -47 235 2
210 -1 251 -29 319 -23 58 8 85 48 42z m-283 -33 c0 -22 -6 -85 -14 -140 -11
-86 -11 -104 1 -130 21 -45 34 -36 36 25 4 73 23 248 30 266 3 8 11 14 19 14
32 0 47 -87 19 -110 -19 -16 -19 -34 0 -105 16 -65 31 -270 21 -308 -11 -45
-32 -57 -101 -57 -35 0 -96 -7 -135 -15 -72 -15 -139 -20 -175 -14 -15 3 -21
-3 -25 -25 -8 -46 -24 -33 -38 31 -7 32 -22 82 -34 111 -25 65 -20 87 17 70
41 -19 47 1 40 129 -4 76 -2 120 6 134 15 29 25 14 38 -53 17 -96 47 -149 66
-119 3 5 -4 50 -15 100 -24 110 -25 140 -4 148 23 9 29 -7 43 -115 13 -100 24
-132 43 -132 11 0 5 210 -8 262 -5 23 -2 29 20 39 14 7 28 10 31 8 2 -3 6 -81
9 -173 3 -156 12 -203 33 -182 11 11 22 130 22 244 1 109 11 145 39 140 13 -3
17 -14 16 -43z m454 -17 c11 -23 11 -56 2 -170 -6 -79 -14 -154 -17 -166 -12
-48 -23 3 -23 106 0 94 -9 126 -24 86 -13 -33 -26 0 -26 64 0 77 18 115 53
110 12 -2 28 -15 35 -30z m94 -63 c8 -19 8 -29 0 -37 -16 -16 -42 -2 -42 25 0
43 24 50 42 12z m24 -119 c13 -53 -33 -244 -73 -305 -9 -15 -27 -34 -39 -43
-11 -10 -27 -31 -34 -48 -22 -53 -33 -35 -28 45 3 42 8 78 11 82 4 3 15 -1 25
-10 39 -36 55 -15 72 88 6 37 18 81 26 98 11 20 14 43 10 67 -3 20 -3 40 1 43
12 13 23 7 29 -17z m-1006 -77 c6 -23 9 -44 6 -47 -8 -8 -38 67 -31 78 10 16
14 12 25 -31z m640 -87 c-1 -52 -14 -129 -24 -139 -13 -14 -19 10 -18 73 1 68
18 128 33 118 5 -3 9 -26 9 -52z m-250 -266 c0 -34 -24 -51 -44 -31 -19 20
-20 27 -4 43 21 21 48 14 48 -12z m74 -71 c-3 -25 -10 -45 -15 -45 -11 0 -12
103 -2 114 14 14 24 -26 17 -69z m178 37 c6 -23 -6 -125 -22 -182 -11 -40 -13
-43 -21 -23 -8 21 4 164 16 204 8 24 21 24 27 1z m-462 -11 c0 -11 -4 -23 -10
-26 -19 -12 -10 -45 15 -57 31 -14 40 -44 25 -83 -14 -38 -23 -27 -59 75 -28
78 -29 86 -14 98 24 18 43 15 43 -7z m710 -36 c0 -20 -7 -52 -15 -73 -13 -29
-18 -34 -25 -22 -14 22 -12 56 4 95 19 45 36 45 36 0z m-362 -117 c-11 -21
-12 -22 -16 -4 -2 11 2 47 9 80 l14 61 3 -57 c2 -33 -2 -67 -10 -80z m-211 66
c14 -46 17 -122 4 -108 -13 14 -41 104 -41 132 0 36 23 21 37 -24z m-37 -209
c12 -37 6 -76 -9 -59 -5 5 -12 28 -16 52 -8 52 9 57 25 7z m320 -20 c0 -14 -4
-25 -10 -25 -5 0 -10 11 -10 25 0 14 5 25 10 25 6 0 10 -11 10 -25z"/>
<path d="M957 6883 c-16 -15 -5 -33 26 -38 17 -3 102 -10 187 -15 85 -6 184
-13 220 -16 60 -6 64 -5 50 10 -28 29 -461 82 -483 59z"/>
<path d="M763 6665 c-44 -19 -42 -42 4 -61 61 -26 153 2 153 46 0 22 -23 26
-63 11 -19 -8 -27 -6 -31 5 -7 17 -22 17 -63 -1z"/>
<path d="M2369 6430 c24 -21 51 -26 51 -12 0 10 -45 32 -63 32 -7 -1 -1 -10
12 -20z"/>
<path d="M11670 6614 c-52 -13 -104 -23 -116 -24 -11 0 -29 -6 -40 -14 -15
-12 -17 -17 -6 -27 10 -11 34 -7 125 20 61 19 130 37 151 40 22 3 41 12 44 19
6 18 -48 14 -158 -14z"/>
<path d="M11728 6559 c-30 -17 -20 -29 21 -29 42 0 63 16 40 31 -18 11 -40 11
-61 -2z"/>
<path d="M11440 6140 c-11 -6 -12 -12 -4 -20 13 -13 44 -2 44 16 0 16 -18 18
-40 4z"/>
<path d="M11295 6093 c-11 -2 -30 -6 -42 -9 -34 -7 -28 -22 15 -35 35 -10 44
-8 90 15 29 15 52 29 52 31 0 6 -86 5 -115 -2z"/>
<path d="M11167 5974 c-11 -12 3 -24 29 -24 16 0 24 5 22 13 -5 13 -40 22 -51
11z"/>
<path d="M11329 5950 c-68 -12 -116 -41 -103 -62 3 -4 262 -8 576 -8 487 0
569 2 559 14 -17 20 -65 27 -276 38 -224 11 -205 11 -417 2 -140 -5 -174 -4
-214 10 -51 17 -56 18 -125 6z"/>
<path d="M11147 5823 c-16 -16 -4 -23 37 -23 46 0 68 13 40 24 -21 8 -69 8
-77 -1z"/>
<path d="M10938 5768 c-21 -12 -38 -25 -38 -30 0 -9 95 -38 127 -38 13 0 23
-6 23 -14 0 -18 22 -26 68 -26 67 0 109 18 143 62 31 39 32 41 14 54 -28 21
-41 17 -55 -15 -25 -60 -116 -60 -184 -1 -40 36 -49 36 -98 8z"/>
<path d="M10948 5579 c-38 -22 -15 -49 42 -49 39 0 48 19 20 42 -25 20 -37 22
-62 7z"/>
<path d="M11021 5481 c-14 -4 -27 -13 -29 -20 -4 -11 7 -13 52 -9 61 5 79 14
56 28 -17 11 -44 11 -79 1z"/>
<path d="M11087 5420 c-52 -10 -68 -27 -33 -36 51 -13 145 18 114 37 -15 10
-28 10 -81 -1z"/>
<path d="M962 6268 c7 -19 38 -22 38 -4 0 10 -9 16 -21 16 -12 0 -19 -5 -17
-12z"/>
<path d="M905 6240 c-4 -6 -3 -16 3 -22 6 -6 12 -6 17 2 4 6 3 16 -3 22 -6 6
-12 6 -17 -2z"/>
<path d="M1070 6161 c0 -13 27 -21 68 -21 35 1 36 2 18 15 -21 16 -86 21 -86
6z"/>
<path d="M1050 6103 c0 -28 140 -44 197 -22 44 16 12 26 -99 31 -74 3 -98 1
-98 -9z"/>
<path d="M1051 5977 c-13 -33 -20 -34 -186 -42 -265 -12 -420 -34 -397 -57 6
-6 79 -5 206 2 302 19 616 3 616 -31 0 -9 -35 -15 -124 -23 -68 -6 -93 -21
-52 -32 33 -8 203 0 229 11 10 4 23 18 28 31 7 21 15 24 64 24 30 0 55 4 55 9
0 14 -23 29 -55 34 -16 3 51 2 151 -1 270 -7 339 13 126 38 -57 7 -147 10
-200 8 -70 -4 -142 1 -257 18 -88 12 -168 26 -177 29 -13 5 -20 0 -27 -18z"/>
<path d="M349 5874 c-11 -14 -10 -16 9 -12 13 1 23 7 23 13 1 17 -17 16 -32
-1z"/>
<path d="M1671 5861 c-8 -5 -11 -16 -8 -25 7 -18 16 -20 37 -6 13 8 13 11 0
24 -10 10 -20 12 -29 7z"/>
<path d="M1190 5721 c0 -12 68 -71 81 -71 6 0 22 9 36 20 17 13 33 18 49 14
48 -12 23 16 -28 31 -57 16 -138 20 -138 6z"/>
<path d="M1318 5603 c-18 -4 -25 -23 -10 -23 27 -2 205 -21 240 -26 26 -4 42
-3 42 3 0 10 -40 23 -130 43 -46 10 -111 11 -142 3z"/>
<path d="M1355 5511 c-8 -14 39 -35 60 -27 9 3 15 12 13 19 -6 15 -64 22 -73
8z"/>
<path d="M1560 5492 c0 -11 48 -22 98 -22 54 0 26 17 -40 25 -35 4 -58 3 -58
-3z"/>
<path d="M1540 5420 c0 -6 26 -10 58 -10 40 0 53 3 42 10 -20 13 -100 13 -100
0z"/>
<path d="M1405 5220 c-8 -12 20 -24 35 -15 5 3 10 10 10 16 0 12 -37 12 -45
-1z"/>
<path d="M1513 5203 c-26 -10 -12 -23 26 -23 44 0 71 8 71 21 0 9 -76 11 -97
2z"/>
<path d="M1527 5144 c-37 -11 -9 -29 49 -32 70 -4 130 6 118 18 -11 11 -141
21 -167 14z"/>
<path d="M1811 5081 c-34 -9 -37 -28 -5 -34 35 -6 96 11 91 26 -4 14 -51 19
-86 8z"/>
<path d="M1560 5040 c0 -5 11 -10 25 -10 14 0 25 5 25 10 0 6 -11 10 -25 10
-14 0 -25 -4 -25 -10z"/>
<path d="M2217 5013 c-13 -12 -7 -23 12 -23 26 0 51 10 51 21 0 10 -53 12 -63
2z"/>
<path d="M3321 5011 c-12 -8 -9 -11 11 -16 29 -8 52 1 43 16 -8 12 -36 11 -54
0z"/>
<path d="M1675 4990 c-27 -11 -60 -20 -72 -20 -36 0 -27 -18 15 -29 64 -16
180 -23 187 -11 6 10 0 14 -48 24 -23 6 -26 10 -21 31 7 30 4 30 -61 5z"/>
<path d="M3420 4959 c-30 -5 -90 -14 -132 -20 -43 -6 -78 -16 -78 -21 0 -6 16
-7 40 -3 50 9 85 -1 70 -20 -16 -19 4 -28 47 -20 23 4 37 13 40 26 4 12 23 24
59 36 55 17 72 34 32 32 -13 -1 -48 -5 -78 -10z"/>
<path d="M1704 4846 c-8 -22 11 -43 45 -51 31 -7 121 12 121 26 0 15 -38 29
-99 36 -51 5 -62 3 -67 -11z"/>
<path d="M3380 4848 c-71 -20 -58 -31 30 -25 89 6 120 13 120 28 0 12 -105 10
-150 -3z"/>
<path d="M4385 4820 c-11 -5 -73 -9 -137 -9 -116 -1 -161 -14 -92 -27 55 -10
385 2 419 15 23 10 26 14 15 21 -19 12 -178 12 -205 0z"/>
<path d="M2012 4758 c-19 -19 -14 -28 13 -28 18 0 25 5 25 20 0 22 -20 26 -38
8z"/>
<path d="M3910 4727 c-19 -6 -34 -16 -33 -22 4 -14 114 -18 148 -5 65 25 -48
51 -115 27z"/>
<path d="M4173 4731 c-56 -7 -84 -24 -67 -41 6 -6 37 -5 89 5 115 21 125 24
125 35 0 11 -63 11 -147 1z"/>
<path d="M4540 4710 c-25 -10 -64 -19 -87 -19 -23 -1 -45 -6 -48 -11 -28 -45
287 -36 359 10 l30 19 -27 10 c-46 18 -176 12 -227 -9z"/>
<path d="M1871 4691 c-46 -12 -36 -31 16 -31 65 0 85 14 42 29 -17 6 -32 11
-33 10 -1 -1 -12 -4 -25 -8z"/>
<path d="M3420 4640 c0 -13 40 -13 60 0 11 7 5 10 -22 10 -21 0 -38 -4 -38
-10z"/>
<path d="M2013 4563 c-29 -2 -53 -8 -53 -13 0 -4 33 -14 73 -20 39 -7 91 -20
115 -31 l43 -19 -7 33 c-8 37 -19 47 -54 47 -14 0 -34 2 -45 3 -11 2 -44 2
-72 0z"/>
<path d="M3747 4383 c-10 -3 -16 -10 -14 -16 5 -16 48 -20 67 -7 13 9 13 11 0
20 -16 10 -24 11 -53 3z"/>
<path d="M2180 4257 c0 -31 53 -59 88 -46 32 12 27 28 -13 45 -43 18 -75 18
-75 1z"/>
<path d="M2360 4196 c-25 -7 -74 -25 -110 -40 -36 -16 -87 -34 -115 -42 -27
-8 -59 -18 -70 -24 -11 -6 -65 -28 -120 -49 -55 -21 -138 -55 -185 -76 -47
-21 -112 -49 -145 -62 -60 -25 -95 -49 -95 -65 0 -15 33 -8 74 16 23 13 93 43
156 66 63 23 152 57 197 76 45 19 87 34 93 34 6 0 39 12 73 26 34 15 125 49
202 76 77 26 146 55 154 63 14 13 11 15 -24 14 -22 0 -60 -6 -85 -13z"/>
<path d="M3247 3863 c-15 -14 -6 -23 22 -23 35 0 61 9 61 21 0 10 -73 12 -83
2z"/>
<path d="M3093 3843 c-18 -7 -16 -20 3 -27 19 -7 57 11 49 25 -6 10 -31 11
-52 2z"/>
<path d="M3560 3819 c-19 -3 -62 -14 -95 -23 -68 -18 -137 -21 -166 -5 -18 9
-19 8 -10 -9 23 -43 34 -45 141 -28 55 9 132 16 170 16 72 0 82 6 53 32 -24
20 -51 25 -93 17z"/>
<path d="M2835 3604 c-44 -11 -75 -27 -75 -39 0 -21 22 -24 119 -16 95 8 125
21 103 43 -12 12 -112 20 -147 12z"/>
<path d="M2585 3551 c-7 -12 12 -24 25 -16 11 7 4 25 -10 25 -5 0 -11 -4 -15
-9z"/>
<path d="M2480 3541 c0 -12 29 -23 41 -15 5 3 7 10 4 15 -8 12 -45 12 -45 0z"/>
<path d="M3380 3543 c-60 -10 -100 -25 -95 -33 9 -14 54 -12 113 5 84 25 72
43 -18 28z"/>
<path d="M3940 5300 c0 -11 81 -60 99 -60 23 0 5 25 -35 47 -42 24 -64 29 -64
13z"/>
<path d="M9206 5534 c-20 -19 -20 -29 0 -48 12 -13 20 -14 37 -5 45 23 49 30
31 50 -21 23 -47 24 -68 3z"/>
<path d="M8541 5127 c-52 -17 -97 -38 -99 -46 -4 -11 0 -12 14 -6 68 29 182
65 205 65 15 0 31 5 34 10 12 20 -61 9 -154 -23z"/>
<path d="M10835 5193 c-49 -12 -72 -63 -37 -82 19 -10 99 1 130 18 62 33 47
72 -27 70 -25 -1 -55 -4 -66 -6z"/>
<path d="M10595 4980 c-27 -11 -58 -19 -67 -20 -10 0 -18 -4 -18 -9 0 -12 20
-18 85 -27 56 -7 80 -17 112 -46 21 -19 24 -19 119 -3 83 14 116 15 218 5 265
-24 592 -43 809 -47 192 -4 227 -2 227 10 0 15 -100 27 -239 27 -41 0 -149 7
-240 15 -91 8 -236 19 -321 25 -361 26 -462 41 -517 76 -30 19 -108 16 -168
-6z"/>
<path d="M9180 4904 c-65 -11 -72 -14 -61 -28 6 -8 30 -17 53 -20 23 -4 57
-16 75 -27 39 -24 70 -18 79 17 10 39 -2 54 -43 54 -21 0 -47 2 -58 4 -11 2
-31 2 -45 0z"/>
<path d="M10530 4845 c0 -16 9 -19 34 -9 25 9 19 24 -9 24 -16 0 -25 -6 -25
-15z"/>
<path d="M10560 4809 c-101 -26 -115 -43 -30 -36 88 8 164 25 186 42 17 13 14
14 -31 14 -27 0 -84 -9 -125 -20z"/>
<path d="M10585 4716 c-184 -39 -217 -51 -187 -70 10 -6 267 32 300 45 23 9
28 39 7 45 -5 1 -59 -8 -120 -20z"/>
<path d="M12004 4695 c-8 -19 3 -35 26 -35 22 0 33 23 17 39 -15 15 -37 14
-43 -4z"/>
<path d="M6101 5068 c-19 -47 -58 -332 -48 -352 5 -10 13 -14 18 -9 11 11 61
275 63 332 1 49 -18 67 -33 29z"/>
<path d="M6203 5044 c-14 -34 -9 -336 6 -363 25 -45 31 -1 25 184 -6 173 -14
220 -31 179z"/>
<path d="M6306 5041 c-4 -5 -2 -29 3 -53 5 -24 12 -90 16 -148 9 -170 15 -210
30 -210 7 0 16 12 20 28 10 40 -5 337 -19 364 -12 25 -40 35 -50 19z"/>
<path d="M6426 5015 c-16 -41 3 -161 57 -358 26 -96 33 -109 48 -87 13 19 3
110 -17 174 -9 26 -24 100 -33 164 -13 91 -20 118 -32 120 -9 2 -19 -4 -23
-13z"/>
<path d="M5791 4867 c-18 -22 -41 -97 -41 -134 0 -50 32 -42 43 12 5 22 13 48
18 57 21 40 4 93 -20 65z"/>
<path d="M6103 4285 c-7 -19 2 -103 12 -113 12 -13 35 31 35 68 0 50 -33 81
-47 45z"/>
<path d="M8476 4741 c-35 -7 -43 -23 -20 -42 13 -11 52 -14 155 -14 125 0 162
5 147 21 -5 5 -147 29 -223 37 -16 2 -43 1 -59 -2z"/>
<path d="M8240 4721 c0 -14 18 -23 31 -15 8 4 7 9 -2 15 -18 11 -29 11 -29 0z"/>
<path d="M8832 4676 c1 -10 8 -17 13 -17 15 1 12 24 -3 29 -9 3 -13 -2 -10
-12z"/>
<path d="M10305 4463 c-58 -4 -198 -35 -212 -46 -42 -32 16 -55 79 -31 24 9
70 22 103 30 135 32 150 37 129 45 -19 8 -29 8 -99 2z"/>
<path d="M10415 4390 c-125 -30 -155 -40 -155 -51 0 -20 33 -21 118 -5 134 26
192 45 192 61 0 20 -54 18 -155 -5z"/>
<path d="M10205 3559 c-4 -5 1 -19 10 -29 11 -12 13 -20 6 -25 -27 -16 -5 -25
62 -25 82 0 119 8 114 23 -2 6 -16 15 -33 20 -16 5 -50 17 -76 28 -53 22 -74
24 -83 8z"/>
<path d="M10033 3493 c-18 -7 -16 -40 3 -47 31 -12 75 -6 81 10 11 30 -43 54
-84 37z"/>
<path d="M8100 3792 c0 -10 33 -42 43 -42 15 0 5 19 -18 34 -14 9 -25 13 -25
8z"/>
<path d="M8224 3685 c11 -8 22 -12 25 -9 6 6 -19 24 -34 24 -5 -1 -1 -7 9 -15z"/>
<path d="M9806 3041 c-9 -13 11 -26 124 -79 58 -27 123 -64 144 -81 22 -17 51
-34 65 -37 180 -36 598 -209 794 -329 106 -65 159 -101 168 -117 8 -13 29 -2
29 15 0 17 -84 97 -144 137 -61 41 -401 196 -550 251 -138 51 -161 63 -187 98
-19 26 -28 29 -92 34 -62 4 -85 12 -179 61 -101 52 -159 68 -172 47z"/>
<path d="M9359 2464 c-11 -14 -10 -18 6 -30 22 -16 71 -19 80 -4 8 13 -31 50
-54 50 -10 0 -25 -7 -32 -16z"/>
<path d="M9240 2202 c0 -19 12 -42 22 -42 14 0 5 43 -9 48 -7 2 -13 -1 -13 -6z"/>
<path d="M8790 2139 c0 -16 99 -197 125 -227 12 -15 66 -92 119 -172 52 -80
113 -170 135 -200 70 -98 134 -234 205 -430 35 -99 77 -174 99 -178 26 -5 22
28 -14 106 -17 37 -58 132 -91 212 -94 229 -130 291 -400 685 -64 94 -126 180
-138 193 -22 24 -40 29 -40 11z"/>
<path d="M8040 2124 c0 -9 20 -39 45 -66 25 -28 45 -54 45 -60 0 -22 43 -107
57 -112 13 -5 14 -1 9 26 -9 45 -59 150 -92 193 -27 36 -64 47 -64 19z"/>
<path d="M9590 2090 c-12 -7 -12 -12 4 -29 11 -12 27 -21 38 -21 24 0 24 36
-1 50 -24 12 -22 12 -41 0z"/>
<path d="M9340 2068 c0 -7 20 -43 45 -80 25 -37 45 -76 45 -86 0 -26 -31 -52
-63 -52 -59 0 -16 -54 53 -66 19 -4 43 -11 53 -16 14 -7 20 -3 30 21 l13 30
79 -107 c44 -59 102 -138 128 -176 26 -38 66 -90 89 -115 22 -25 46 -59 54
-76 7 -16 35 -67 63 -113 27 -46 55 -98 61 -117 19 -58 60 -58 60 1 0 49 -22
96 -68 146 -36 39 -132 174 -132 185 0 3 -18 26 -40 51 -23 25 -76 98 -119
161 -170 251 -351 462 -351 409z"/>
<path d="M9495 2010 c-3 -5 8 -24 25 -41 23 -24 34 -29 43 -20 8 8 6 18 -10
38 -22 30 -47 40 -58 23z"/>
<path d="M8296 1973 c-3 -3 -6 -16 -6 -27 -1 -21 -1 -21 -19 2 -11 12 -22 22
-25 22 -10 0 -7 -76 4 -104 12 -33 27 -33 42 -1 6 14 14 25 17 25 4 0 15 -26
26 -57 22 -62 45 -82 45 -38 0 27 -56 171 -70 180 -4 2 -10 2 -14 -2z"/>
<path d="M8475 1867 c-3 -6 11 -50 30 -97 19 -46 35 -86 35 -87 0 -2 7 -3 15
-3 8 0 15 4 15 8 0 13 -47 147 -59 171 -13 24 -29 27 -36 8z"/>
<path d="M8550 1845 c0 -19 81 -165 92 -165 16 0 7 34 -23 83 -17 27 -35 60
-40 73 -10 27 -29 32 -29 9z"/>
<path d="M8415 1794 c9 -51 23 -84 35 -84 15 0 12 34 -6 80 -20 50 -39 53 -29
4z"/>
<path d="M9234 1755 c-7 -16 16 -67 32 -72 18 -6 25 24 12 52 -13 29 -37 40
-44 20z"/>
<path d="M8720 1707 c0 -27 12 -47 27 -47 21 0 13 54 -9 58 -11 2 -18 -3 -18
-11z"/>
<path d="M8817 1713 c-11 -10 -8 -41 4 -49 16 -10 29 9 23 34 -6 22 -15 27
-27 15z"/>
<path d="M8910 1696 c0 -42 18 -78 38 -74 20 5 19 41 -3 75 -20 30 -35 29 -35
-1z"/>
<path d="M8260 4211 c0 -15 28 -21 95 -21 69 0 94 14 44 24 -47 9 -139 7 -139
-3z"/>
<path d="M3600 3260 c-11 -6 -12 -12 -4 -20 13 -13 44 -2 44 16 0 16 -18 18
-40 4z"/>
<path d="M2800 3234 c0 -9 5 -14 12 -12 18 6 21 28 4 28 -9 0 -16 -7 -16 -16z"/>
<path d="M3345 3199 c-81 -36 -245 -130 -245 -141 0 -11 54 -10 65 1 6 5 51
30 100 55 76 38 155 95 155 112 0 6 2 7 -75 -27z"/>
<path d="M3510 3201 c-19 -16 -31 -33 -27 -37 12 -12 81 28 85 49 5 25 -18 20
-58 -12z"/>
<path d="M3400 3129 c-19 -12 -76 -58 -126 -103 -50 -44 -117 -100 -148 -124
-31 -23 -72 -67 -91 -96 -19 -30 -39 -57 -45 -61 -15 -9 -12 -25 4 -25 20 0
116 74 136 105 10 15 48 51 86 81 108 86 244 214 244 230 0 20 -19 17 -60 -7z"/>
<path d="M3015 3015 c-16 -13 -24 -24 -17 -25 14 0 92 38 92 45 0 15 -49 2
-75 -20z"/>
<path d="M2310 2705 c-14 -7 -47 -23 -75 -35 -27 -12 -63 -29 -80 -38 -16 -9
-56 -28 -87 -44 -56 -27 -74 -48 -43 -48 8 0 36 11 62 25 44 23 211 98 276
124 15 6 27 15 27 21 0 15 -51 12 -80 -5z"/>
<path d="M2886 2658 c-22 -30 -3 -48 24 -23 11 10 20 24 20 32 0 21 -27 15
-44 -9z"/>
<path d="M2701 2623 c-35 -42 -43 -75 -13 -52 41 31 72 64 72 76 0 25 -29 13
-59 -24z"/>
<path d="M2810 2554 c0 -8 5 -12 10 -9 6 3 10 10 10 16 0 5 -4 9 -10 9 -5 0
-10 -7 -10 -16z"/>
<path d="M1915 2505 c-22 -8 -41 -15 -42 -15 -2 0 -3 -7 -3 -16 0 -23 48 -10
80 22 28 27 22 29 -35 9z"/>
<path d="M2513 2455 c-3 -9 -3 -19 1 -22 7 -7 36 16 36 28 0 15 -30 10 -37 -6z"/>
<path d="M2645 2438 c-11 -6 -42 -32 -70 -57 -27 -25 -67 -57 -87 -71 -35 -23
-50 -50 -29 -50 5 0 29 15 53 33 24 18 64 43 90 56 49 23 94 73 83 91 -8 13
-15 12 -40 -2z"/>
<path d="M1668 2369 c-46 -37 -48 -49 -8 -49 52 0 104 69 59 78 -8 1 -31 -11
-51 -29z"/>
<path d="M2415 2370 c-14 -16 -15 -20 -4 -20 16 0 39 19 39 32 0 14 -16 9 -35
-12z"/>
<path d="M3045 2167 c-10 -8 -15 -19 -11 -25 10 -17 51 -15 65 2 10 12 8 17
-8 25 -25 14 -23 14 -46 -2z"/>
<path d="M2951 2091 c-29 -29 -53 -79 -49 -103 5 -33 27 -33 39 -1 5 15 24 42
41 60 47 48 16 91 -31 44z"/>
<path d="M3217 2032 c-36 -40 -10 -65 28 -28 14 14 25 30 25 36 0 17 -36 11
-53 -8z"/>
<path d="M2835 1966 c-58 -25 -113 -116 -71 -116 17 0 106 99 106 117 0 15 2
15 -35 -1z"/>
<path d="M3027 1962 c-20 -22 -22 -42 -4 -42 19 0 37 21 37 42 0 23 -12 23
-33 0z"/>
<path d="M5097 3183 c-11 -10 -8 -43 3 -43 6 0 10 4 10 9 0 5 3 16 6 25 6 16
-7 22 -19 9z"/>
<path d="M5145 3119 c-25 -54 -32 -89 -17 -89 8 1 53 132 47 139 -3 2 -16 -20
-30 -50z"/>
<path d="M4981 3129 c-11 -19 -41 -99 -66 -179 -26 -80 -80 -247 -121 -372
-75 -230 -82 -258 -64 -258 19 0 69 124 150 370 49 151 133 460 126 467 -3 3
-14 -10 -25 -28z"/>
<path d="M5070 2934 c-12 -32 -13 -74 -1 -74 21 0 45 59 34 86 -8 22 -22 17
-33 -12z"/>
<path d="M4461 1753 c-29 -35 -42 -83 -23 -83 8 0 72 100 72 113 0 17 -21 4
-49 -30z"/>
<path d="M4333 1738 c-32 -36 -103 -149 -103 -164 0 -21 16 -25 32 -6 8 9 27
37 42 62 15 25 38 60 51 79 35 48 17 72 -22 29z"/>
<path d="M4176 1678 c-17 -24 -21 -48 -8 -48 14 0 42 35 42 53 0 24 -16 21
-34 -5z"/>
<path d="M4021 1627 c-25 -40 -27 -67 -6 -67 18 0 56 58 53 79 -5 27 -26 22
-47 -12z"/>
<path d="M9050 3700 c0 -5 9 -10 20 -10 11 0 20 5 20 10 0 6 -9 10 -20 10 -11
0 -20 -4 -20 -10z"/>
<path d="M3556 1748 c-45 -78 -58 -128 -32 -128 7 0 20 19 29 43 45 124 47
159 3 85z"/>
<path d="M3421 1744 c-6 -15 -9 -29 -6 -33 8 -7 35 28 35 46 0 22 -16 15 -29
-13z"/>
<path d="M3739 1684 c-12 -25 -18 -48 -15 -51 11 -11 36 7 36 26 0 11 5 23 10
26 13 8 13 45 -1 45 -5 0 -19 -21 -30 -46z"/>
<path d="M3625 1671 c-8 -27 11 -54 21 -28 3 9 1 24 -4 33 -9 16 -10 15 -17
-5z"/>
<path d="M3797 1602 c-15 -15 -27 -31 -27 -35 0 -17 30 -5 49 19 39 49 21 61
-22 16z"/>
<path d="M3672 1558 c-15 -15 -16 -38 -2 -38 12 0 23 25 18 40 -2 7 -7 7 -16
-2z"/>
<path d="M6241 2557 c-19 -23 -27 -143 -10 -163 22 -27 39 10 39 85 0 75 -10
100 -29 78z"/>
<path d="M7437 5873 c-41 -58 -48 -75 -37 -94 7 -11 14 -9 34 10 26 24 66 97
66 119 0 27 -30 9 -63 -35z"/>
<path d="M7404 2779 c-5 -8 -10 -75 -12 -150 -3 -104 1 -168 17 -270 11 -74
22 -145 23 -159 4 -33 20 -32 32 3 7 19 5 59 -7 135 -9 59 -20 179 -23 267 -7
163 -13 200 -30 174z"/>
<path d="M7967 1743 c-13 -12 -7 -80 7 -92 19 -16 30 18 21 65 -6 33 -14 41
-28 27z"/>
</g>
</svg>
