<?xml version="1.0" standalone="no"?>
<!DOCTYPE svg PUBLIC "-//W3C//DTD SVG 20010904//EN"
 "http://www.w3.org/TR/2001/REC-SVG-20010904/DTD/svg10.dtd">
<svg version="1.0" xmlns="http://www.w3.org/2000/svg"
 width="1280.000000pt" height="1260.000000pt" viewBox="0 0 1280.000000 1260.000000"
 preserveAspectRatio="xMidYMid meet">
<metadata>
Created by potrace 1.15, written by Peter Selinger 2001-2017
</metadata>
<g transform="translate(0.000000,1260.000000) scale(0.100000,-0.100000)"
fill="#000000" stroke="none">
<path d="M3621 12585 c-178 -50 -315 -211 -370 -434 -12 -47 -21 -111 -21
-142 0 -114 68 -243 198 -379 37 -39 61 -68 52 -64 -8 3 -49 15 -90 26 -92 25
-295 30 -380 9 -150 -36 -302 -142 -376 -262 -33 -53 -40 -59 -86 -68 -27 -6
-53 -11 -58 -11 -5 0 7 26 26 58 48 80 65 140 71 262 10 197 -51 365 -176 489
-214 213 -535 209 -833 -10 -176 -131 -226 -254 -215 -532 l5 -137 -40 62
c-89 139 -280 289 -435 343 -225 79 -411 54 -670 -88 -86 -47 -94 -54 -105
-91 -7 -23 -12 -103 -13 -181 0 -156 10 -199 72 -315 40 -73 118 -176 165
-215 17 -14 29 -27 27 -28 -2 -1 -30 -15 -62 -31 -154 -77 -274 -278 -301
-506 l-7 -56 68 -50 c139 -104 262 -172 388 -215 60 -21 88 -24 200 -24 111 1
138 4 188 24 90 36 197 113 286 207 45 48 84 84 87 81 3 -3 -11 -46 -31 -96
-102 -255 -85 -442 55 -610 87 -105 253 -211 453 -290 l79 -31 66 46 c94 66
211 189 249 260 38 71 63 167 63 242 0 49 1 52 19 43 10 -6 63 -18 118 -27
178 -29 339 -7 488 69 71 35 163 97 186 123 20 24 45 304 34 389 -13 106 -59
209 -119 264 -14 14 -26 27 -26 31 0 4 33 -5 73 -18 39 -13 100 -27 135 -30
59 -5 63 -6 57 -26 -52 -160 -54 -230 -9 -366 26 -76 90 -196 119 -220 12 -10
42 -11 153 -2 237 19 380 70 483 172 99 98 149 235 149 407 0 51 4 93 9 93 5
0 19 -30 31 -67 37 -112 99 -222 160 -283 70 -69 143 -106 254 -128 l86 -17
-26 -37 -26 -37 22 -73 c12 -40 38 -107 58 -148 62 -126 208 -254 352 -307 25
-9 47 -18 49 -19 2 -2 -13 -22 -33 -45 -62 -73 -103 -224 -90 -332 10 -83 44
-225 57 -235 21 -16 182 -52 287 -63 180 -21 336 17 446 106 77 63 161 213
194 348 7 26 16 47 20 47 4 0 10 -46 13 -102 8 -122 27 -202 70 -283 84 -158
260 -252 506 -271 l88 -7 72 -119 c41 -65 71 -121 68 -124 -2 -3 -24 0 -48 6
-24 5 -91 12 -149 15 -58 3 -143 7 -190 10 l-86 4 4 -34 c3 -21 -7 -70 -22
-119 -14 -46 -26 -90 -26 -97 0 -8 11 -38 25 -68 14 -30 24 -55 22 -57 -2 -2
-27 6 -57 17 -107 40 -238 35 -334 -13 -52 -27 -138 -108 -177 -169 -17 -27
-33 -49 -34 -49 -2 0 -19 9 -37 19 -86 51 -169 46 -290 -16 -58 -30 -74 -45
-119 -111 -29 -41 -66 -107 -81 -146 -28 -68 -29 -73 -17 -136 7 -36 23 -86
36 -112 13 -26 23 -65 23 -87 0 -23 8 -48 19 -62 18 -22 21 -22 70 -11 29 7
70 12 90 12 21 0 67 9 101 20 34 11 68 20 74 20 6 0 48 18 93 40 68 32 85 46
101 77 10 21 27 52 37 69 l19 31 45 -35 c42 -32 101 -63 142 -76 14 -4 13 -12
-12 -63 -39 -79 -53 -179 -39 -279 18 -135 19 -137 81 -157 30 -10 93 -24 140
-30 184 -23 314 46 406 217 8 15 13 10 27 -35 52 -160 169 -244 355 -257 97
-6 100 -8 177 -123 131 -197 150 -358 50 -421 -68 -42 -157 0 -436 207 -278
206 -383 255 -551 255 -48 0 -57 3 -66 23 -12 27 -157 101 -216 112 -68 11
-215 -44 -268 -102 -48 -51 -117 -164 -135 -218 -23 -74 -13 -166 27 -240 20
-37 29 -69 29 -99 0 -60 19 -70 98 -57 31 6 82 15 112 20 153 26 303 93 325
144 7 17 24 45 36 61 34 44 40 153 10 194 -21 31 -27 52 -13 52 20 0 206 -52
272 -76 425 -152 768 -478 949 -900 93 -216 123 -335 200 -794 100 -587 168
-1095 205 -1535 9 -99 19 -200 22 -225 3 -25 9 -277 13 -560 9 -535 12 -572
64 -847 8 -40 11 -73 8 -72 -3 0 -59 81 -124 178 -503 760 -1046 1367 -1551
1736 -353 257 -710 411 -1066 461 -167 24 -441 14 -605 -20 -459 -96 -890
-341 -1425 -809 -165 -145 -665 -650 -649 -656 8 -2 20 -12 27 -22 33 -47 269
-99 757 -168 78 -11 659 -81 885 -106 80 -9 146 -17 147 -18 1 -1 -19 -29 -44
-62 -250 -330 -252 -896 -8 -1880 31 -121 60 -236 65 -255 9 -35 11 -35 68
-38 119 -6 314 93 1052 535 900 539 1195 698 1515 818 237 89 427 114 525 69
40 -18 52 -19 119 -10 60 8 89 7 155 -7 44 -9 92 -25 106 -35 38 -28 82 -116
82 -166 1 -34 4 -43 17 -40 11 3 50 -47 131 -171 63 -96 118 -174 123 -175 4
0 7 11 7 23 0 44 59 143 120 201 70 67 162 113 258 129 59 10 74 17 104 49
176 187 711 152 1763 -117 279 -71 422 -109 965 -262 1061 -297 1384 -359
1461 -282 11 11 23 17 28 15 9 -6 -29 178 -105 505 -309 1331 -672 2054 -1165
2318 -219 118 -439 143 -730 85 l-86 -18 -84 61 c-218 157 -499 333 -704 439
-353 184 -657 264 -894 236 -295 -34 -511 -205 -676 -532 -186 -371 -286 -884
-326 -1675 -6 -121 -12 -221 -14 -223 -5 -6 -76 173 -95 241 -11 38 -29 126
-42 195 -23 125 -23 139 -20 727 3 643 0 705 -49 1100 -46 368 -101 712 -239
1507 -82 471 -109 649 -150 1018 -17 151 -40 347 -51 435 -21 164 -76 502 -84
515 -2 4 25 10 61 13 35 4 84 15 107 25 46 20 117 92 117 118 0 29 -62 228
-85 274 -56 111 -167 171 -324 176 -68 3 -97 8 -103 17 -18 33 -38 200 -38
321 0 147 18 321 55 536 31 177 111 545 125 569 45 85 219 147 356 126 45 -6
46 -7 41 -38 -12 -81 53 -213 139 -283 l42 -35 51 21 c73 28 123 62 166 112
l38 44 131 -69 c72 -38 136 -73 141 -79 6 -6 1 -6 -12 1 -33 17 -64 14 -139
-15 -38 -14 -90 -26 -116 -27 -26 0 -45 -4 -43 -8 3 -4 9 -74 15 -155 18 -246
50 -358 119 -417 36 -30 36 -30 165 -57 113 -23 156 -24 206 -7 l35 13 -22
-46 c-56 -112 -52 -305 8 -428 50 -103 120 -145 322 -193 91 -22 100 -22 125
-7 77 46 120 155 108 278 -17 178 -19 270 -5 270 7 0 53 -25 101 -56 l89 -56
99 -5 c88 -5 108 -3 182 20 46 15 107 40 136 57 l52 30 0 63 c0 161 -39 278
-119 358 -55 54 -141 99 -191 99 -31 0 -24 14 19 38 172 97 224 295 141 538
-17 50 -17 51 7 109 23 55 24 63 15 149 -11 98 -67 276 -102 326 -35 49 -118
118 -182 149 -69 35 -138 41 -204 18 -22 -8 -82 -17 -134 -20 -133 -9 -273
-47 -406 -111 l-113 -54 6 29 c3 15 2 58 -2 95 -6 58 -11 71 -38 96 -49 44
-151 91 -212 96 -73 6 -154 -21 -209 -69 -24 -22 -47 -39 -51 -39 -3 0 -3 19
0 43 6 39 3 46 -44 107 -28 36 -51 73 -51 82 0 24 -247 -93 -305 -144 -62 -55
-70 -86 -50 -199 17 -98 18 -103 46 -134 18 -20 17 -20 -44 -20 -71 -1 -149
-25 -204 -62 -35 -24 -38 -24 -48 -8 -87 148 -155 207 -280 246 -41 13 -75 26
-75 29 0 3 29 46 65 95 140 196 240 390 290 562 30 103 37 116 80 148 47 37
108 58 273 95 l143 32 41 -40 c37 -36 41 -46 47 -104 9 -86 49 -146 115 -173
21 -9 51 -26 66 -37 26 -19 33 -19 101 -8 105 16 215 47 284 80 33 15 77 35
98 44 43 18 49 50 18 94 -10 16 -21 53 -24 87 -3 35 -18 88 -35 126 -26 57
-38 71 -90 106 -102 68 -207 108 -279 106 -83 -2 -163 -26 -215 -66 -40 -31
-52 -34 -133 -40 -323 -22 -550 -203 -771 -612 -33 -60 -98 -189 -144 -285
-46 -96 -87 -180 -92 -186 -4 -6 -52 -14 -105 -17 -104 -7 -227 -36 -271 -65
-23 -15 -21 -10 17 46 90 133 141 274 141 390 0 87 -14 141 -67 252 -38 79
-59 108 -122 170 -278 273 -648 186 -839 -198 -52 -105 -63 -172 -43 -273 14
-71 66 -197 110 -269 17 -28 31 -52 31 -55 0 -2 -25 13 -56 35 -74 51 -189 99
-294 120 l-85 17 -63 94 c-35 51 -76 120 -92 154 -16 33 -44 78 -63 100 l-34
39 50 23 c82 38 182 110 236 169 61 66 124 191 151 297 l19 77 -80 113 c-99
138 -173 211 -259 251 -63 30 -69 31 -205 31 -115 0 -154 -4 -220 -23 -103
-29 -271 -111 -312 -152 -18 -18 -33 -31 -33 -28 0 2 9 30 20 61 50 143 63
301 35 412 -43 166 -214 345 -388 405 -82 28 -213 35 -286 15z m-1101 -1511
c0 -20 48 -103 96 -167 l36 -47 -68 30 c-130 59 -346 107 -423 95 l-36 -6 27
16 c24 13 323 93 356 94 6 1 12 -6 12 -15z m6400 -824 c0 -48 -17 -85 -55
-120 -37 -34 -53 -68 -61 -129 -7 -51 -8 -53 -33 -47 -14 3 -57 12 -94 20
l-68 14 -76 -55 c-41 -29 -76 -53 -77 -51 -2 2 -14 24 -29 50 -15 25 -43 60
-62 76 l-36 29 37 28 c21 16 85 49 143 73 101 43 388 151 404 152 4 0 7 -18 7
-40z m-674 -637 l63 5 3 -74 c2 -41 0 -74 -3 -74 -31 0 -219 147 -219 172 0 4
21 -2 47 -14 37 -16 60 -19 109 -15z m-1283 -360 c-2 -109 -9 -222 -15 -251
-18 -95 -97 -154 -185 -137 l-33 6 24 47 c73 144 81 310 22 434 l-22 46 50 7
c39 5 152 36 162 44 1 1 0 -88 -3 -196z m-78 -1179 c-25 -18 -27 -14 -13 26
11 34 12 34 22 11 8 -19 7 -26 -9 -37z m244 -631 c44 -197 46 -359 4 -422 -23
-36 -26 -14 -8 54 19 73 19 164 1 231 -7 28 -38 87 -70 133 -31 45 -56 86 -56
92 0 5 24 9 53 9 l54 0 22 -97z m1803 -5270 c-215 -228 -500 -550 -668 -756
l-32 -39 -35 58 -36 57 20 39 c11 21 35 56 54 77 27 29 35 47 35 75 0 20 10
56 21 79 55 109 298 294 619 471 85 47 157 86 158 86 2 0 -59 -66 -136 -147z"/>
</g>
</svg>
