<?xml version="1.0" standalone="no"?>
<!DOCTYPE svg PUBLIC "-//W3C//DTD SVG 20010904//EN"
 "http://www.w3.org/TR/2001/REC-SVG-20010904/DTD/svg10.dtd">
<svg version="1.0" xmlns="http://www.w3.org/2000/svg"
 width="1280.000000pt" height="810.000000pt" viewBox="0 0 1280.000000 810.000000"
 preserveAspectRatio="xMidYMid meet">
<metadata>
Created by potrace 1.15, written by Peter Selinger 2001-2017
</metadata>
<g transform="translate(0.000000,810.000000) scale(0.100000,-0.100000)"
fill="#000000" stroke="none">
<path d="M8117 8076 c-147 -61 -364 -216 -742 -531 -155 -128 -182 -147 -401
-266 -198 -108 -243 -137 -305 -196 l-45 -44 -67 45 c-182 119 -337 111 -479
-24 -29 -28 -61 -50 -71 -50 -27 0 -168 67 -284 136 -54 31 -246 153 -428 269
-440 282 -499 319 -645 403 -214 122 -336 162 -363 120 -17 -25 9 -97 48 -133
58 -52 326 -218 1085 -670 173 -103 330 -198 348 -210 l33 -22 -47 -7 c-96
-13 -195 -93 -224 -182 -11 -33 -13 -34 -63 -34 -135 0 -219 -109 -220 -290
-2 -113 20 -177 83 -242 43 -45 51 -59 69 -137 30 -120 51 -247 51 -303 l0
-48 -39 39 c-111 111 -353 189 -406 131 -17 -19 -18 -18 -54 28 -51 64 -128
132 -241 212 -164 116 -388 239 -496 270 -41 12 -41 12 -59 89 -55 236 -173
445 -338 597 -116 106 -281 210 -536 335 l-236 117 -6 -34 c-8 -44 -32 -69
-85 -90 -24 -9 -41 -21 -38 -26 12 -19 96 -65 319 -176 343 -170 403 -218 537
-422 137 -209 238 -448 238 -563 0 -45 5 -55 51 -108 114 -131 274 -241 584
-397 251 -127 261 -133 268 -169 3 -16 15 -40 26 -55 22 -27 137 -90 236 -128
81 -31 85 -37 34 -50 -112 -31 -749 74 -1059 174 -551 178 -1456 395 -2086
501 -485 81 -817 110 -1174 102 -317 -6 -452 -30 -618 -109 -229 -108 -324
-354 -242 -623 81 -261 333 -563 645 -769 418 -277 845 -356 1138 -210 27 13
50 24 52 24 3 0 -5 -16 -17 -37 -33 -54 -30 -142 7 -213 121 -237 630 -503
1217 -634 176 -40 308 -56 458 -56 170 0 226 14 339 84 294 182 1236 658 1543
780 173 68 162 69 182 -4 25 -89 31 -164 16 -199 -13 -32 -20 -36 -90 -46
-104 -15 -240 -70 -313 -127 -43 -35 -83 -98 -92 -148 -6 -35 -9 -36 -78 -54
-486 -124 -839 -285 -928 -424 -24 -38 -30 -56 -27 -93 l3 -47 -110 -113
c-117 -121 -191 -222 -224 -307 -29 -73 -36 -173 -17 -242 17 -65 18 -64 -89
-145 -236 -178 -635 -390 -831 -442 -35 -10 -64 -21 -64 -25 0 -4 5 -8 10 -8
24 0 103 -45 117 -66 8 -13 15 -39 15 -58 0 -20 7 -41 15 -47 36 -30 249 46
450 161 211 121 371 253 443 363 26 41 71 88 133 139 96 79 172 170 195 236 8
20 18 91 22 157 4 66 13 140 20 165 l11 45 80 18 c153 35 485 221 811 454
l162 116 18 -23 c57 -70 -7 -225 -282 -690 -281 -475 -398 -741 -454 -1030 -4
-17 -25 -40 -63 -66 -159 -113 -270 -230 -330 -351 -34 -69 -36 -76 -30 -149
l6 -76 -142 -143 c-84 -84 -213 -199 -314 -278 -94 -75 -178 -146 -187 -158
-18 -27 -8 -44 32 -54 49 -12 72 -33 72 -66 l0 -31 58 32 c215 121 397 289
547 504 68 97 96 130 115 133 64 9 193 119 279 236 74 101 133 224 161 335 6
23 17 42 24 42 28 0 105 63 144 119 62 88 120 214 202 441 l75 205 2 -70 c15
-457 100 -841 280 -1260 321 -750 829 -1226 1190 -1117 347 106 860 770 1114
1442 122 324 191 703 176 960 l-6 95 28 -70 c119 -307 377 -625 507 -625 30 0
32 -3 39 -45 34 -229 255 -511 406 -519 35 -2 55 -18 231 -183 221 -208 309
-283 411 -351 74 -50 149 -92 165 -92 5 0 12 17 16 38 5 31 19 50 86 111 45
40 79 78 77 84 -2 6 -24 16 -49 23 -123 31 -654 366 -751 473 -40 44 -45 65
-22 95 69 92 -94 273 -392 438 l-73 40 0 51 c-1 226 -155 499 -485 856 -68 75
-145 163 -170 196 -63 84 -130 216 -158 316 -29 99 -51 259 -38 272 15 15 92
-1 157 -32 33 -16 145 -86 250 -156 276 -186 449 -264 621 -281 l63 -7 0 -66
c1 -220 158 -492 331 -570 24 -11 54 -21 66 -21 16 0 30 -15 53 -59 90 -169
262 -310 510 -417 110 -48 348 -133 355 -126 2 3 2 21 -1 41 -6 35 -3 40 70
109 42 39 76 74 76 77 0 3 -11 5 -25 5 -49 0 -152 42 -390 160 -246 121 -418
221 -478 276 -33 31 -34 33 -40 140 -14 248 -105 448 -275 605 -57 52 -68 68
-61 84 14 37 9 82 -12 109 -44 55 -141 90 -369 131 -289 52 -467 99 -612 161
-136 58 -204 115 -248 206 -24 51 -27 53 -95 74 -38 12 -119 33 -180 47 -108
24 -110 25 -108 51 2 25 57 160 73 179 4 5 101 -35 216 -88 838 -388 1287
-561 1625 -626 99 -19 123 -20 199 -10 195 25 416 100 705 241 480 233 835
526 835 688 0 50 -13 79 -47 107 l-24 20 118 1 c260 3 699 136 868 263 51 39
266 267 385 411 330 396 486 703 426 843 -18 43 -47 68 -136 115 -445 238
-1181 238 -2122 2 -547 -138 -1030 -303 -1928 -658 -250 -99 -498 -194 -550
-211 -175 -57 -290 -74 -340 -48 -42 21 -35 41 30 92 72 57 115 120 137 196
15 56 16 56 72 74 80 25 218 98 298 157 135 101 308 300 376 434 9 18 46 60
82 95 79 75 147 182 182 281 19 56 27 102 32 207 4 75 12 145 18 156 38 69
233 209 492 351 168 92 241 153 241 202 0 35 -22 52 -67 52 -23 0 -36 9 -61
45 -31 45 -65 58 -87 36 -6 -6 -71 -42 -145 -81 -302 -160 -467 -302 -548
-472 -20 -43 -42 -78 -48 -78 -16 0 -60 -51 -82 -95 -28 -58 -48 -147 -77
-343 -14 -96 -28 -178 -31 -183 -3 -5 -26 -9 -52 -9 -101 0 -212 -74 -460
-308 -227 -213 -237 -222 -272 -222 -44 0 -120 -32 -223 -94 -51 -30 -101 -56
-112 -58 -14 -2 -31 15 -67 66 -26 38 -48 80 -48 92 0 13 21 51 48 86 132 174
169 436 86 599 -38 76 -72 94 -179 95 -97 1 -190 29 -268 80 -36 23 -77 77
-77 100 0 5 42 37 93 69 179 116 728 539 977 753 108 94 244 226 278 270 25
33 26 35 7 48 -27 20 -72 17 -138 -10z"/>
</g>
</svg>
