<?xml version="1.0" standalone="no"?>
<!DOCTYPE svg PUBLIC "-//W3C//DTD SVG 20010904//EN"
 "http://www.w3.org/TR/2001/REC-SVG-20010904/DTD/svg10.dtd">
<svg version="1.0" xmlns="http://www.w3.org/2000/svg"
 width="1280.000000pt" height="1196.000000pt" viewBox="0 0 1280.000000 1196.000000"
 preserveAspectRatio="xMidYMid meet">
<metadata>
Created by potrace 1.15, written by Peter Selinger 2001-2017
</metadata>
<g transform="translate(0.000000,1196.000000) scale(0.100000,-0.100000)"
fill="#000000" stroke="none">
<path d="M7095 11935 c-32 -31 -32 -75 -1 -112 52 -63 1069 -1388 1168 -1524
114 -155 135 -194 162 -302 48 -193 25 -365 -79 -589 -34 -75 -86 -171 -115
-213 -37 -55 -47 -75 -33 -72 64 19 770 141 988 171 307 42 610 59 1105 60
456 1 652 -10 899 -50 226 -37 326 -65 441 -125 165 -84 279 -188 369 -335 62
-102 122 -282 138 -413 8 -68 18 -51 44 72 35 166 24 420 -27 657 -29 132
-153 384 -260 531 -26 35 -100 117 -163 182 -89 91 -145 138 -241 202 -277
183 -391 240 -955 473 -225 94 -556 231 -735 305 -179 74 -446 185 -595 247
-148 62 -416 173 -595 247 -179 74 -509 211 -735 305 -225 94 -483 201 -573
239 -89 38 -167 69 -173 69 -5 0 -21 -11 -34 -25z"/>
<path d="M12502 8700 c2 -135 -2 -180 -31 -349 -51 -303 -140 -537 -287 -759
-123 -186 -386 -438 -682 -655 -255 -187 -702 -415 -968 -495 -364 -110 -617
-153 -905 -156 -151 -1 -169 1 -188 18 -57 51 -30 90 427 636 187 223 339 406
338 406 -1 2 -910 -72 -2106 -171 -664 -55 -801 -56 -1049 -10 -267 49 -359
84 -783 296 -131 66 -242 119 -246 119 -5 0 -184 -469 -397 -1042 l-388 -1043
-356 -102 c-438 -125 -918 -293 -1271 -445 -239 -104 -653 -319 -940 -490
-300 -179 -786 -507 -995 -672 -302 -238 -854 -771 -1027 -991 -141 -180 -201
-268 -186 -276 14 -8 116 -39 435 -135 116 -35 280 -88 363 -119 207 -75 605
-247 838 -361 174 -86 194 -99 211 -132 19 -38 16 -67 -11 -89 -17 -15 -184
-48 -313 -63 -263 -30 -734 -136 -1050 -236 -434 -137 -898 -296 -920 -314
-17 -14 -20 -36 -6 -45 6 -3 670 -53 1478 -111 1382 -100 1475 -105 1582 -95
422 42 807 234 1136 565 282 285 425 507 563 871 98 262 147 506 159 793 4
100 10 152 17 152 25 0 548 52 756 75 497 56 1214 149 1380 180 783 146 1547
387 2300 727 298 134 992 493 1345 695 339 195 472 287 765 532 214 178 293
252 443 411 338 358 541 683 692 1105 54 151 85 276 131 535 33 184 37 223 37
380 1 195 -13 294 -68 495 -45 162 -83 257 -160 400 l-65 120 2 -155z m-10231
-5151 c93 -30 183 -83 243 -143 62 -62 88 -113 94 -183 9 -108 -79 -225 -226
-301 -100 -51 -174 -72 -259 -72 -116 0 -205 36 -297 121 -75 69 -108 133
-114 226 -4 64 -1 78 25 135 16 35 50 84 75 109 52 51 166 115 230 129 59 12
153 4 229 -21z"/>
<path d="M12651 6267 c-8 -12 -114 -159 -237 -327 l-223 -305 -322 -300 -322
-300 -261 -176 c-313 -211 -683 -418 -1253 -702 -351 -174 -895 -425 -1048
-483 -33 -13 -236 -86 -451 -163 -474 -170 -764 -255 -1099 -324 -302 -63
-1017 -160 -1710 -231 -242 -25 -451 -49 -464 -53 -23 -8 -26 -17 -52 -185
-34 -213 -107 -519 -155 -643 -170 -440 -629 -968 -1091 -1255 -40 -25 -72
-48 -73 -52 0 -5 218 -8 484 -8 401 0 553 4 892 25 632 39 1224 91 1424 125
990 167 1945 489 2815 948 499 263 1070 633 1405 910 152 126 410 387 535 540
584 718 1022 1699 1184 2652 23 134 45 319 39 325 -2 2 -10 -6 -17 -18z"/>
<path d="M10840 1614 c-207 -39 -562 -88 -825 -114 -60 -6 -161 -18 -223 -26
-62 -8 -172 -14 -244 -14 l-131 0 -76 -44 c-307 -176 -796 -375 -1196 -486
-128 -35 -391 -122 -423 -139 -17 -10 123 -143 252 -240 228 -172 818 -494
981 -536 105 -27 100 -29 237 116 434 463 1096 1034 1608 1389 74 51 139 97
145 102 12 11 -14 9 -105 -8z"/>
</g>
</svg>
